<svg width="513" height="347" viewBox="0 0 513 347" fill="none" xmlns="http://www.w3.org/2000/svg">
<g clip-path="url(#clip0_470_2460)">
<path d="M441.13 288.897L440.89 309.12C440.89 309.12 460.315 316.251 460.615 319.996L423.385 320.755L422.545 289.226L441.13 288.897Z" fill="url(#paint0_linear_470_2460)"/>
<path d="M377.445 301.76L364.448 316.741C364.448 316.741 374.496 334.388 372.346 337.384L343.943 314.414L363.318 290.245L377.445 301.76Z" fill="url(#paint1_linear_470_2460)"/>
<path d="M496.206 118.127C496.206 118.127 489.108 117.908 485.119 122.022L490.878 132.339L501.815 130.152L502.815 126.696L504.564 120.135L496.206 118.127Z" fill="#FFBF9D"/>
<path d="M424.234 109.119C424.234 109.119 427.693 111.316 428.563 113.683C429.433 116.05 449.248 130.142 449.248 130.142L451.917 129.423L483.799 119.655L491.797 134.037L452.337 148.838C451.187 149.087 423.145 139.959 423.145 139.959L424.234 109.119Z" fill="url(#paint2_linear_470_2460)"/>
<path d="M499.994 142.126L475.72 134.396L465.723 165.666L432.071 154.95L442.069 123.67L361.789 98.0932L369.187 74.9032L469.622 2.83634L505.873 14.3614L412.066 83.1725L452.056 95.936L460.954 68.062L493.546 78.4386L484.648 106.313L508.922 114.043L499.994 142.126Z" fill="#F2BE35"/>
<g opacity="0.3">
<path opacity="0.3" d="M499.994 142.126L475.72 134.396L465.723 165.666L432.071 154.95L442.069 123.67L361.789 98.0932L369.187 74.9032L469.622 2.83634L505.873 14.3614L412.066 83.1725L452.056 95.936L460.954 68.062L493.546 78.4386L484.648 106.313L508.922 114.043L499.994 142.126Z" fill="white"/>
</g>
<path d="M490.817 139.33L466.533 131.6L456.535 162.869L422.894 152.183L432.891 120.904L352.602 95.2569L360.01 72.0668L460.434 0L496.645 11.5351L402.899 80.3761L442.889 93.1296L451.787 65.2656L484.368 75.6422L475.471 103.516L499.785 111.236L490.817 139.33Z" fill="url(#paint3_linear_470_2460)"/>
<g opacity="0.3">
<path opacity="0.3" d="M427.763 119.226L427.443 109.449L428.263 104.635C428.263 104.635 437.51 104.894 439.48 101.539C440.941 98.7807 442.149 95.8959 443.089 92.9199L431.582 90.2633L423.144 103.436L420.595 109.888L424.594 118.317L427.763 119.226Z" fill="black"/>
</g>
<path d="M412.417 77.8394C412.523 73.9607 412.961 70.0983 413.727 66.2943C414.504 62.4653 416.222 58.8893 418.725 55.8877C419.115 55.4483 422.085 52.612 422.614 52.8916C422.994 53.0814 420.745 55.8877 420.805 56.3372C421.313 60.3526 420.588 64.4275 418.725 68.0221C416.996 71.5264 414.884 74.8289 412.427 77.8693" fill="#263238"/>
<path d="M425.043 105.773C426.053 103.247 426.893 101.249 426.893 101.249C426.893 101.249 436.04 103.736 439.969 95.2569C441.859 91.1622 445.078 82.4035 447.907 74.4438C449.371 70.3145 449.225 65.7862 447.498 61.7596C445.772 57.733 442.591 54.503 438.59 52.7119L437.76 52.3424C428.642 48.8868 420.604 54.6993 417.395 63.9074L405.158 95.7463L408.507 105.484C409.092 107.191 410.189 108.677 411.648 109.741C413.107 110.805 414.859 111.395 416.665 111.431C418.471 111.467 420.245 110.947 421.745 109.942C423.246 108.937 424.4 107.496 425.053 105.813L425.043 105.773Z" fill="#FFBAA1"/>
<path d="M426.893 101.249C422.951 99.4723 419.6 96.6066 417.235 92.9898C417.235 92.9898 417.175 100.41 426.043 103.446L426.893 101.249Z" fill="#FBA78D"/>
<path d="M439.591 80.5463C439.452 80.864 439.194 81.1149 438.873 81.2455C438.552 81.3761 438.192 81.3762 437.871 81.2456C437.709 81.19 437.561 81.1024 437.434 80.988C437.307 80.8737 437.205 80.7349 437.133 80.5801C437.061 80.4253 437.021 80.2575 437.015 80.087C437.01 79.9164 437.039 79.7464 437.101 79.5873C437.24 79.2672 437.498 79.0139 437.821 78.8814C438.144 78.7489 438.507 78.7477 438.831 78.8781C438.992 78.9358 439.139 79.0252 439.265 79.1409C439.391 79.2567 439.492 79.3964 439.563 79.5519C439.634 79.7074 439.673 79.8756 439.678 80.0464C439.682 80.2172 439.653 80.3872 439.591 80.5463Z" fill="#494B6B"/>
<path d="M444.488 77.1203C444.258 77.2102 443.638 76.1216 442.329 75.5324C441.019 74.9431 439.759 75.1728 439.689 74.9431C439.619 74.7134 439.929 74.6235 440.489 74.5137C441.232 74.3751 441.999 74.4657 442.689 74.7733C443.373 75.079 443.943 75.5928 444.318 76.2414C444.578 76.7308 444.588 77.0803 444.488 77.1203Z" fill="#494B6B"/>
<path d="M428.494 76.0621C428.355 76.3797 428.098 76.6306 427.776 76.7613C427.455 76.8919 427.095 76.8919 426.774 76.7614C426.612 76.7057 426.464 76.6181 426.337 76.5038C426.21 76.3894 426.108 76.2507 426.036 76.0959C425.964 75.941 425.924 75.7733 425.919 75.6027C425.913 75.4321 425.942 75.2622 426.004 75.1031C426.143 74.783 426.402 74.5296 426.725 74.3972C427.048 74.2647 427.41 74.2635 427.734 74.3938C427.895 74.4516 428.043 74.5409 428.169 74.6567C428.294 74.7724 428.396 74.9122 428.467 75.0677C428.537 75.2232 428.576 75.3913 428.581 75.5621C428.586 75.7329 428.556 75.9029 428.494 76.0621Z" fill="#494B6B"/>
<path d="M432.052 72.1168C431.832 72.2067 431.212 71.1181 429.892 70.5288C428.573 69.9396 427.323 70.1693 427.253 69.9496C427.183 69.7299 427.493 69.62 428.053 69.5101C428.796 69.3701 429.565 69.4643 430.252 69.7798C430.947 70.093 431.522 70.6219 431.892 71.2878C432.152 71.7273 432.152 72.0768 432.052 72.1168Z" fill="#494B6B"/>
<path d="M431.582 84.0813C432.368 84.1821 433.139 84.3731 433.881 84.6506C434.231 84.7704 434.581 84.8403 434.741 84.6506C434.926 84.3193 435.003 83.9389 434.961 83.562C434.961 82.5633 435.061 81.6145 435.111 80.5659C435.361 76.3213 435.701 72.8858 435.871 72.8958C436.041 72.9058 435.981 76.3613 435.731 80.6058C435.661 81.6545 435.601 82.6032 435.531 83.6019C435.56 84.0982 435.415 84.5891 435.121 84.9901C435.019 85.0859 434.897 85.1572 434.764 85.1988C434.631 85.2403 434.489 85.2509 434.351 85.2298C434.142 85.1978 433.937 85.1408 433.741 85.06C432.983 84.827 432.257 84.4981 431.582 84.0813Z" fill="#494B6B"/>
<path d="M433.891 67.6426C433.552 67.8922 432.462 66.9435 430.942 66.1745C429.423 65.4055 428.043 65.026 428.043 64.6165C428.043 64.4167 428.463 64.247 429.133 64.237C430.001 64.2502 430.855 64.4693 431.622 64.8761C432.411 65.2664 433.096 65.8379 433.622 66.544C433.981 67.0933 434.071 67.5227 433.891 67.6426Z" fill="#494B6B"/>
<path d="M446.148 72.3565C445.789 72.5462 445.019 71.8371 443.939 71.3577C442.859 70.8784 441.84 70.6586 441.77 70.2492C441.77 70.0594 442.019 69.8197 442.549 69.7198C443.233 69.6254 443.929 69.7366 444.549 70.0394C445.182 70.3385 445.706 70.8272 446.048 71.4376C446.328 71.887 446.318 72.2865 446.148 72.3565Z" fill="#494B6B"/>
<path d="M415.256 70.4989C415.136 70.3691 410.157 66.1345 407.728 72.0569C405.298 77.9792 411.727 79.1877 411.837 79.0478C411.947 78.908 415.256 70.4989 415.256 70.4989Z" fill="#FFBF9D"/>
<path d="M410.947 76.0417C410.947 76.0417 410.807 76.0417 410.607 76.0417C410.318 76.0471 410.038 75.9396 409.827 75.7421C409.545 75.342 409.373 74.8747 409.33 74.3873C409.286 73.9 409.371 73.4096 409.577 72.9657C409.774 72.4526 410.081 71.989 410.477 71.6074C410.607 71.4443 410.775 71.316 410.967 71.234C411.159 71.1521 411.369 71.1191 411.577 71.138C411.708 71.1524 411.831 71.2139 411.921 71.3112C412.011 71.4085 412.062 71.5349 412.066 71.6674C412.066 71.8671 411.996 71.967 412.066 71.9869C412.136 72.0069 412.236 71.9869 412.286 71.6773C412.311 71.5196 412.283 71.3582 412.206 71.2179C412.093 71.0272 411.91 70.8876 411.697 70.8284C411.433 70.7786 411.16 70.7964 410.905 70.8803C410.65 70.9641 410.42 71.1112 410.237 71.3078C409.786 71.7177 409.442 72.2322 409.237 72.8059C408.993 73.3212 408.906 73.8967 408.986 74.4612C409.066 75.0256 409.31 75.5543 409.687 75.9818C409.826 76.0921 409.988 76.17 410.161 76.2098C410.334 76.2495 410.514 76.2501 410.687 76.2115C410.897 76.1815 410.957 76.0617 410.947 76.0417Z" fill="#FF9A6C"/>
<path d="M447.988 63.0186C449.158 62.8687 447.518 58.6043 445.579 56.5869C442.649 53.5408 437.581 50.3649 433.922 49.9854C429.503 49.526 425.424 50.1752 421.985 52.9815C418.598 55.8929 416.046 59.6492 414.587 63.8675C414.029 65.1207 413.819 66.5002 413.977 67.8623C414.287 69.5002 415.546 70.9683 414.746 72.756C414.595 73.0753 414.508 73.4215 414.49 73.7746C414.473 74.1278 414.526 74.4808 414.647 74.8133C415.266 76.4013 417.036 75.812 418.086 75.0031C420.315 73.1954 421.575 70.4789 422.754 67.8523C423.694 66.0365 424.333 64.0802 424.644 62.0598C424.744 60.9512 424.644 59.8327 424.814 58.7341C424.866 58.1786 425.037 57.6407 425.314 57.1566C425.592 56.6725 425.97 56.2535 426.424 55.9277C426.641 55.8119 426.869 55.715 427.103 55.6381C428.221 55.2428 429.425 55.1538 430.589 55.3803C431.752 55.6069 432.834 56.1408 433.722 56.9264C436.601 59.4432 441.61 63.4879 443.559 62.9187C444.906 62.6435 446.18 62.0889 447.298 61.2908L447.988 63.0186Z" fill="#494B6B"/>
<path d="M431.764 88.7761C431.764 88.886 431.424 88.9959 430.874 88.916C430.156 88.7974 429.488 88.4709 428.954 87.977C428.418 87.4866 428.036 86.8516 427.854 86.1489C427.734 85.6094 427.854 85.2598 427.924 85.2498C427.994 85.2398 428.494 86.3886 429.554 87.3276C430.614 88.2667 431.774 88.5264 431.764 88.7761Z" fill="#494B6B"/>
<path d="M434.561 37.4017C433.488 39.5603 432.262 41.6396 430.892 43.6236C429.667 45.6972 428.294 47.6798 426.783 49.556C427.855 47.3998 429.081 45.3238 430.452 43.344C431.684 41.2715 433.057 39.286 434.561 37.4017Z" fill="#FF9A6C"/>
<path d="M408.607 221.524L427.203 239.161C427.203 239.161 418.205 299.373 419.785 299.483L441.999 301.061C441.999 301.061 455.396 231.371 454.386 227.286C453.376 223.202 420.894 191.053 420.894 191.053L420.494 185.53L411.257 184.302L408.607 221.524Z" fill="url(#paint4_linear_470_2460)"/>
<path d="M373.666 197.415C375.466 201.48 378.465 206.303 379.085 210.348L390.412 251.535L350.072 300.472L368.068 315.542C368.068 315.542 416.666 263.15 418.355 256.698C419.705 251.555 414.276 199.772 414.276 199.772L416.056 184.991L374.066 175.004V175.074C372.377 178.545 371.467 182.342 371.398 186.2C371.328 190.059 372.103 193.886 373.666 197.415Z" fill="url(#paint5_linear_470_2460)"/>
<path opacity="0.5" d="M356.702 308.361C356.345 308.23 355.953 308.233 355.598 308.369C355.243 308.505 354.949 308.765 354.772 309.101C354.603 309.435 354.572 309.822 354.686 310.179C354.8 310.536 355.05 310.834 355.382 311.009C355.756 311.131 356.161 311.117 356.527 310.971C356.892 310.825 357.195 310.556 357.382 310.21C357.45 310.028 357.482 309.834 357.476 309.64C357.469 309.446 357.424 309.256 357.343 309.079C357.262 308.903 357.147 308.744 357.004 308.612C356.862 308.48 356.694 308.378 356.512 308.311" fill="#E0E0E0"/>
<path d="M343.914 314.404L345.914 312.047L372.377 335.017C372.377 335.017 373.177 336.625 372.277 337.444L343.914 314.404Z" fill="#455A64"/>
<path opacity="0.5" d="M365.019 316.971C364.889 317.11 364.149 316.621 363.079 316.531C362.009 316.441 361.159 316.771 361.079 316.611C360.999 316.451 361.889 315.772 363.169 315.892C364.449 316.012 365.149 316.881 365.019 316.971Z" fill="white"/>
<path opacity="0.5" d="M366.909 320.706C366.829 320.875 366.029 320.636 365.059 320.875C364.089 321.115 363.419 321.655 363.279 321.535C363.139 321.415 363.729 320.536 364.949 320.246C366.169 319.956 367.049 320.566 366.909 320.706Z" fill="white"/>
<path opacity="0.5" d="M365.589 325.839C365.439 325.769 365.839 324.84 366.839 324.361C367.839 323.881 368.749 324.061 368.709 324.231C368.669 324.401 367.929 324.501 367.109 324.93C366.289 325.36 365.739 325.959 365.589 325.839Z" fill="white"/>
<path opacity="0.5" d="M429.332 307.652C428.972 307.79 428.672 308.052 428.489 308.391C428.305 308.73 428.25 309.124 428.332 309.5C428.425 309.871 428.659 310.191 428.983 310.392C429.308 310.594 429.699 310.661 430.072 310.579C430.465 310.436 430.791 310.153 430.987 309.784C431.182 309.415 431.234 308.986 431.132 308.581C431.067 308.395 430.966 308.223 430.834 308.075C430.702 307.928 430.542 307.808 430.364 307.723C430.185 307.637 429.992 307.588 429.794 307.578C429.597 307.567 429.399 307.596 429.212 307.662" fill="#E0E0E0"/>
<path d="M423.374 320.755V317.57L459.055 318.029C459.055 318.029 460.735 318.758 460.575 320.026L423.374 320.755Z" fill="#455A64"/>
<path opacity="0.5" d="M441.481 308.911C441.481 309.101 440.57 309.2 439.69 309.84C438.81 310.479 438.35 311.288 438.18 311.218C438.01 311.148 438.26 310.03 439.34 309.28C440.42 308.531 441.511 308.731 441.481 308.911Z" fill="white"/>
<path opacity="0.5" d="M445.419 310.529C445.469 310.718 444.689 311.058 444.089 311.877C443.489 312.696 443.329 313.565 443.089 313.555C442.849 313.546 442.769 312.477 443.539 311.468C444.309 310.459 445.409 310.349 445.419 310.529Z" fill="white"/>
<path opacity="0.5" d="M447.749 315.413C447.579 315.413 447.309 314.504 447.749 313.415C448.189 312.326 449.039 311.917 449.119 312.077C449.199 312.236 448.679 312.806 448.329 313.685C447.979 314.564 447.889 315.383 447.749 315.413Z" fill="white"/>
<path opacity="0.5" d="M441.05 304.287C440.98 304.467 440.14 304.217 439.11 304.287C438.08 304.357 437.29 304.736 437.19 304.577C437.09 304.417 437.85 303.707 439.06 303.578C440.27 303.448 441.13 304.137 441.05 304.287Z" fill="white"/>
<path d="M414.577 196.336C414.625 196.513 414.659 196.693 414.677 196.875C414.727 197.285 414.787 197.794 414.866 198.423C415.026 199.762 415.226 201.709 415.456 204.116C415.916 208.93 416.456 215.591 416.946 222.962C417.436 230.332 417.816 236.944 418.126 241.817C418.256 244.174 418.366 246.112 418.446 247.54L418.506 249.098C418.53 249.277 418.53 249.458 418.506 249.637C418.45 249.463 418.42 249.281 418.416 249.098C418.416 248.689 418.316 248.179 418.246 247.55C418.126 246.132 417.966 244.194 417.766 241.847C417.386 237.024 416.936 230.352 416.436 222.992C415.936 215.631 415.436 209.01 415.106 204.146C414.927 201.799 414.787 199.862 414.677 198.443C414.677 197.814 414.607 197.295 414.577 196.885C414.553 196.703 414.553 196.518 414.577 196.336Z" fill="#455A64" fill-opacity="0.3"/>
<path d="M512.872 117.648C513.662 119.146 510.563 120.494 510.563 120.494C511.283 121.084 510.563 123.63 509.303 123.74C509.833 124.15 510.213 124.189 510.453 124.819C510.579 125.13 510.63 125.467 510.603 125.801C510.575 126.136 510.469 126.46 510.293 126.746C510.105 127.024 509.832 127.233 509.514 127.341C509.196 127.449 508.852 127.451 508.533 127.345C508.854 127.753 509.044 128.247 509.078 128.764C509.112 129.281 508.988 129.796 508.723 130.242C508.391 130.769 507.874 131.153 507.274 131.32C506.975 131.405 506.663 131.435 506.354 131.41C506.235 131.414 506.117 131.397 506.004 131.36L505.874 131.26C505.704 131.071 505.564 130.861 505.384 130.691L505.164 130.501C504.822 130.232 504.446 130.011 504.045 129.842C503.845 129.785 503.651 129.712 503.465 129.622C503.364 129.537 503.27 129.443 503.185 129.343C502.482 128.853 501.686 128.513 500.845 128.344C499.927 128.139 499.084 127.678 498.416 127.016C498.103 126.67 497.936 126.217 497.951 125.751C497.966 125.286 498.161 124.844 498.496 124.519C498.198 124.465 497.93 124.303 497.745 124.063C497.56 123.823 497.472 123.523 497.496 123.221C497.533 122.926 497.644 122.644 497.819 122.404C497.994 122.163 498.227 121.97 498.496 121.843C499.043 121.594 499.649 121.5 500.246 121.573C499.918 121.451 499.651 121.207 499.5 120.892C499.349 120.577 499.326 120.216 499.436 119.885C499.564 119.558 499.774 119.269 500.045 119.045C500.316 118.822 500.64 118.671 500.985 118.607C501.676 118.484 502.386 118.511 503.065 118.687C503.745 118.836 506.594 119.426 507.294 119.476L508.004 117.628L508.104 117.388C509.373 117.228 509.743 117.119 510.873 117.049C511.703 116.969 512.512 117.029 512.872 117.648Z" fill="#FFAA8F"/>
<path d="M506.043 133.877C505.983 134.159 505.863 134.424 505.69 134.655C505.518 134.886 505.297 135.077 505.044 135.215C504.199 135.364 503.328 135.245 502.554 134.876L503.034 132.948L503.154 132.469C503.024 132.039 502.214 131.85 501.864 131.57C501.572 131.309 501.392 130.944 501.362 130.553C501.332 130.162 501.455 129.775 501.704 129.473C501.967 129.18 502.308 128.968 502.687 128.864C503.067 128.759 503.468 128.766 503.844 128.883C504.594 129.133 505.225 129.653 505.613 130.342C505.926 130.869 506.125 131.456 506.199 132.064C506.273 132.673 506.22 133.29 506.043 133.877Z" fill="#FFAA8F"/>
<path d="M508.713 127.405C507.09 126.668 505.399 126.093 503.664 125.688C501.972 125.115 500.227 124.713 498.455 124.489C500.078 125.232 501.773 125.808 503.514 126.207C505.2 126.786 506.943 127.187 508.713 127.405Z" fill="#FBA78D"/>
<path d="M509.422 123.77C508.001 122.978 506.462 122.418 504.863 122.112C503.311 121.632 501.689 121.413 500.064 121.463C501.596 121.948 503.155 122.342 504.733 122.642C506.271 123.115 507.837 123.492 509.422 123.77Z" fill="#FBA78D"/>
<path d="M510.113 120.225C508.929 119.586 507.638 119.169 506.304 118.996C505 118.643 503.656 118.459 502.305 118.447C503.53 118.987 504.826 119.35 506.154 119.526C507.449 119.88 508.774 120.114 510.113 120.225Z" fill="#FBA78D"/>
<path d="M506.063 132.669C506.123 132.669 506.323 132.359 506.263 131.75C506.146 130.979 505.734 130.284 505.113 129.812C504.521 129.334 503.842 128.974 503.114 128.754C502.474 128.604 502.114 128.993 502.214 129.033C502.314 129.073 502.554 128.923 503.004 129.123C503.616 129.433 504.196 129.804 504.733 130.232C505.263 130.632 505.654 131.187 505.853 131.82C506.033 132.309 505.973 132.649 506.063 132.669Z" fill="#FBA78D"/>
<path d="M422.835 150.446C422.818 149.948 422.848 149.45 422.925 148.957C423.025 147.959 423.155 146.551 423.305 144.963C423.625 141.557 423.994 136.843 424.204 131.63C424.414 126.417 424.404 121.643 424.364 118.267C424.364 116.629 424.314 115.271 424.294 114.212C424.256 113.717 424.256 113.22 424.294 112.724C424.401 113.21 424.458 113.705 424.464 114.202C424.544 115.201 424.624 116.539 424.694 118.257C424.844 121.683 424.894 126.417 424.694 131.65C424.494 136.883 424.054 141.637 423.645 144.993C423.435 146.7 423.245 148.069 423.095 148.987C423.056 149.481 422.969 149.969 422.835 150.446Z" fill="#F2BE35"/>
<path d="M407.318 89.5642C406.408 90.0736 389.403 98.3728 385.794 102.428C382.185 106.482 376.656 132.509 376.656 132.509L372.597 155.549L369.428 189.765L422.564 190.364C424.664 185.68 423.294 180.816 420.815 175.903L424.944 121.773L424.234 109.119L407.318 89.5642Z" fill="url(#paint6_linear_470_2460)"/>
<path d="M384.483 117.139C384.483 117.139 375.555 113.334 374.646 107.681C373.736 102.028 374.846 100.53 376.335 98.1431C377.825 95.7562 404.988 66.8436 404.988 66.8436L418.255 77.7395L399.09 100.25C399.09 100.25 401.919 100.68 400.979 104.245" fill="url(#paint7_linear_470_2460)"/>
<path d="M400.98 104.295C401.047 103.872 401.09 103.445 401.11 103.017C401.123 102.5 400.995 101.989 400.74 101.539C400.557 101.241 400.314 100.986 400.027 100.788C399.739 100.59 399.413 100.455 399.07 100.39H398.89L399.01 100.25L418.075 77.6097V77.9492L404.799 67.0633H405.149L400.15 72.4563L384.454 89.2646C382.064 91.8812 379.785 94.358 377.725 96.735C377.215 97.3011 376.744 97.9018 376.316 98.5326C375.913 99.1519 375.549 99.7957 375.226 100.46C374.679 101.718 374.433 103.086 374.506 104.455C374.527 105.716 374.678 106.971 374.956 108.2C375.243 109.281 375.762 110.286 376.476 111.146C377.613 112.551 378.963 113.771 380.475 114.762C381.424 115.409 382.408 116.003 383.424 116.539L384.214 116.959C384.309 116.999 384.4 117.049 384.484 117.109C384.383 117.09 384.285 117.057 384.194 117.009L383.374 116.639C382.339 116.135 381.337 115.565 380.375 114.931C378.822 113.952 377.432 112.735 376.256 111.326C375.513 110.452 374.965 109.431 374.646 108.33C374.347 107.076 374.179 105.794 374.146 104.505C374.064 103.073 374.313 101.64 374.876 100.32C375.526 98.9246 376.378 97.6323 377.406 96.4853C379.465 94.0884 381.724 91.6016 384.114 88.975C388.883 83.7418 394.181 77.9892 399.76 72.0569L404.759 66.6738L404.929 66.494L405.109 66.6538L418.365 77.5597L418.555 77.7195L418.395 77.8993L399.13 100.37L399.06 100.2C399.43 100.272 399.781 100.422 400.088 100.641C400.395 100.86 400.651 101.142 400.84 101.469C401.092 101.948 401.209 102.486 401.18 103.027C401.171 103.364 401.125 103.699 401.04 104.026C401.029 104.117 401.009 104.208 400.98 104.295Z" fill="url(#paint8_linear_470_2460)"/>
<path d="M406.779 43.6236C406.779 43.6236 405.219 42.3952 404.899 45.0018C404.579 47.6084 407.069 57.985 407.369 57.985C407.669 57.985 409.208 63.9773 408.968 64.7962C408.728 65.6152 406.459 68.092 406.459 68.092L417.036 76.7708L420.306 70.8784C422.797 69.9009 424.95 68.2216 426.504 66.0446C428.893 62.5392 437.951 49.2064 438.211 47.3388C438.471 45.4712 436.581 45.2215 435.212 47.0092C433.842 48.7969 430.663 53.0015 430.093 53.2711C429.523 53.5408 429.183 52.7318 429.493 52.2724C429.803 51.813 435.752 42.2853 436.312 40.5076C437.061 38.1607 434.512 37.6713 434.512 37.6713C434.512 37.6713 435.402 35.1945 434.092 34.7251C432.782 34.2557 431.503 35.5241 430.093 37.6314C428.683 39.7386 423.895 46.6197 423.395 46.9393C422.895 47.2589 422.505 46.9393 422.945 46.0005C423.385 45.0617 429.193 36.6326 429.173 35.4442C429.153 34.2557 428.284 32.3781 425.804 34.8849C423.325 37.3917 417.806 47.8681 416.956 48.767C416.107 49.6658 413.597 52.5321 412.627 52.2225C411.658 51.9129 409.348 48.8868 408.838 46.7496C408.566 45.4877 407.831 44.373 406.779 43.6236Z" fill="#FFAA8F"/>
<path d="M406.778 43.6236C407.166 43.8731 407.505 44.1913 407.778 44.5624C408.136 45.0104 408.419 45.5128 408.618 46.0505C408.748 46.37 408.818 46.7296 408.938 47.0492C409.071 47.436 409.232 47.813 409.418 48.1777C409.857 49.0424 410.39 49.8563 411.007 50.6046C411.647 51.3236 412.577 52.6919 413.647 51.6033C414.689 50.7675 415.653 49.8381 416.526 48.8269C417.001 48.2786 417.413 47.679 417.755 47.0392L418.935 45.0418C420.545 42.2853 422.244 39.2093 424.434 36.0534C424.986 35.2337 425.66 34.5029 426.433 33.8862C426.86 33.5395 427.393 33.3492 427.943 33.3469C428.23 33.3998 428.496 33.5344 428.709 33.7346C428.922 33.9348 429.072 34.192 429.143 34.4754C429.226 34.7378 429.277 35.0095 429.293 35.2844C429.281 35.4364 429.254 35.5869 429.213 35.7338L429.063 36.1133C428.843 36.5927 428.593 37.0521 428.343 37.5215C427.823 38.4403 427.263 39.3391 426.693 40.2579L423.144 45.8507C423.009 46.0537 422.926 46.2871 422.904 46.5299C422.904 46.6397 422.904 46.6697 422.964 46.6797C422.997 46.6942 423.033 46.7018 423.069 46.7018C423.105 46.7018 423.141 46.6942 423.174 46.6797L423.274 46.5798L423.414 46.42C423.504 46.3201 423.584 46.2003 423.674 46.0904L424.194 45.4113C424.884 44.4725 425.573 43.5237 426.253 42.555L430.412 36.5627C430.789 36.0505 431.214 35.5756 431.682 35.1446C432.166 34.6492 432.819 34.3534 433.512 34.3156C433.88 34.3141 434.237 34.4494 434.511 34.6951C434.772 34.9641 434.925 35.3196 434.941 35.6939C434.983 36.3725 434.885 37.0525 434.651 37.6913L434.461 37.3517C434.886 37.4227 435.289 37.5926 435.636 37.8476C435.984 38.1026 436.266 38.4357 436.461 38.8198C436.591 39.2234 436.632 39.6504 436.58 40.0713C436.528 40.4922 436.385 40.8967 436.161 41.2567C435.461 42.6848 434.661 44.0331 433.861 45.4113L431.382 49.536L430.102 51.6133L429.772 52.1226L429.622 52.3723C429.583 52.4279 429.562 52.4941 429.562 52.562C429.553 52.6248 429.558 52.6889 429.577 52.7495C429.596 52.81 429.629 52.8654 429.673 52.9116C429.71 52.9433 429.758 52.9607 429.807 52.9607C429.857 52.9607 429.905 52.9433 429.942 52.9116C430.105 52.7826 430.256 52.6389 430.392 52.4821L430.862 51.9528L431.772 50.8443C432.352 50.0852 432.942 49.3362 433.522 48.5872C434.101 47.8382 434.621 47.0791 435.301 46.3301C435.657 45.9572 436.1 45.6791 436.591 45.5211C436.86 45.4177 437.156 45.4026 437.434 45.478C437.713 45.5534 437.96 45.7154 438.14 45.9406C438.286 46.1679 438.38 46.4246 438.414 46.6922C438.449 46.9599 438.423 47.2318 438.34 47.4886C438.272 47.7262 438.181 47.9568 438.07 48.1777C437.97 48.3974 437.87 48.6171 437.76 48.8169C437.331 49.6458 436.861 50.4448 436.381 51.2238C435.441 52.7918 434.461 54.3298 433.491 55.8278C431.545 58.8306 429.612 61.7335 427.693 64.5366C427.213 65.2357 426.773 65.9348 426.253 66.6139C425.731 67.2784 425.149 67.8935 424.514 68.4515C423.266 69.5287 421.847 70.3895 420.315 70.9982L420.445 70.8884L417.166 76.7708L417.036 77.0005L416.836 76.8407L406.288 68.1319L406.128 68.0121L406.268 67.8623C406.975 67.1113 407.642 66.3246 408.268 65.5053C408.411 65.3073 408.541 65.1005 408.658 64.8861C408.769 64.7 408.811 64.481 408.778 64.2669C408.737 63.7909 408.67 63.3175 408.578 62.8488C408.398 61.91 408.188 61.0111 407.958 60.1422C407.848 59.7128 407.728 59.2834 407.598 58.8739C407.525 58.6675 407.455 58.4677 407.388 58.2747C407.388 58.1848 407.298 58.0749 407.268 58.025C407.268 58.025 407.408 58.025 407.318 58.025C407.259 58.0132 407.206 57.9815 407.168 57.9351L407.098 57.7653C406.63 56.2616 406.24 54.7349 405.928 53.1912C405.629 51.7831 405.379 50.4847 405.189 49.3063C404.839 46.9893 404.539 45.0617 405.129 43.8733C405.186 43.7418 405.27 43.6234 405.374 43.5255C405.479 43.4276 405.603 43.3522 405.739 43.304C405.937 43.2406 406.15 43.2406 406.348 43.304C406.504 43.3581 406.647 43.443 406.768 43.5537C406.768 43.5537 406.628 43.4538 406.328 43.3539C406.146 43.3007 405.951 43.3007 405.768 43.3539C405.644 43.3993 405.53 43.471 405.435 43.564C405.34 43.6571 405.266 43.7693 405.219 43.8933C404.689 45.0318 405.009 46.8894 405.389 49.2463C405.884 52.0774 406.552 54.8756 407.388 57.6255C407.404 57.6674 407.424 57.7075 407.448 57.7453C407.448 57.7453 407.358 57.7453 407.358 57.8053C407.358 57.8652 407.358 57.9751 407.358 57.7154H407.458V57.7653C407.524 57.8665 407.581 57.9735 407.628 58.0849C407.708 58.2946 407.778 58.5044 407.848 58.7141C407.978 59.1336 408.108 59.553 408.228 59.9924C408.458 60.8613 408.678 61.7701 408.868 62.7189C408.97 63.1998 409.04 63.6869 409.078 64.177C409.088 64.31 409.088 64.4435 409.078 64.5765C409.049 64.7168 408.999 64.8517 408.928 64.976C408.809 65.2062 408.672 65.4267 408.518 65.6351C407.9 66.4764 407.232 67.2801 406.518 68.042V67.7724L417.116 76.4312L416.786 76.4911C417.785 74.5936 418.915 72.6261 420.045 70.5987V70.5288H420.125C421.587 69.9319 422.939 69.0947 424.124 68.052C424.732 67.5171 425.288 66.9252 425.783 66.2843C426.273 65.6451 426.783 64.9161 427.213 64.217C429.113 61.4206 431.052 58.5144 432.992 55.5182C433.965 54.0135 434.921 52.4822 435.861 50.9242C436.331 50.1452 436.801 49.3462 437.221 48.5372C437.331 48.3375 437.431 48.1378 437.521 47.928C437.62 47.7367 437.701 47.536 437.76 47.3288C437.825 47.1435 437.848 46.9462 437.827 46.7511C437.806 46.556 437.743 46.3679 437.64 46.2003C437.52 46.0611 437.358 45.9638 437.178 45.9225C436.998 45.8812 436.81 45.898 436.641 45.9706C436.235 46.1081 435.871 46.345 435.581 46.6597C434.991 47.3088 434.421 48.1278 433.841 48.8568C433.262 49.5859 432.672 50.3649 432.082 51.1239C431.782 51.5034 431.482 51.8729 431.172 52.2425L430.682 52.8017C430.504 53.0079 430.299 53.1892 430.072 53.341C429.933 53.4132 429.774 53.4385 429.619 53.4133C429.464 53.3881 429.322 53.3138 429.213 53.2012C429.118 53.0984 429.046 52.9768 429.001 52.8443C428.956 52.7118 428.94 52.5714 428.953 52.4322C428.962 52.2917 429.003 52.1551 429.073 52.0327L429.243 51.7631L429.573 51.2537L430.992 49.3162C431.832 47.938 432.652 46.5598 433.472 45.2016C434.291 43.8433 435.071 42.4651 435.751 41.0869C435.943 40.7958 436.07 40.4663 436.122 40.1213C436.174 39.7763 436.149 39.4241 436.051 39.0895C435.889 38.7853 435.66 38.5221 435.381 38.3196C435.102 38.1171 434.781 37.9808 434.441 37.921L434.161 37.861L434.251 37.5914C434.458 37.0258 434.549 36.425 434.521 35.8237C434.512 35.5652 434.413 35.3178 434.241 35.1246C434.046 34.9671 433.802 34.8823 433.551 34.8849C432.984 34.9312 432.452 35.1792 432.052 35.584C431.607 35.9948 431.203 36.4462 430.842 36.9323L426.683 42.9245C426.003 43.9232 425.314 44.852 424.614 45.7908L424.084 46.4799L423.804 46.8295L423.664 46.9992L423.444 47.189C423.353 47.2468 423.249 47.2824 423.141 47.2928C423.034 47.3032 422.925 47.2882 422.824 47.2489C422.719 47.1986 422.631 47.119 422.571 47.0197C422.511 46.9204 422.481 46.8057 422.484 46.6896C422.498 46.3632 422.598 46.0463 422.774 45.7708C423.984 43.7734 425.224 41.9957 426.363 40.1681C426.933 39.2493 427.493 38.3504 428.003 37.4416C428.253 36.9922 428.503 36.5428 428.713 36.0833L428.853 35.7438C428.862 35.6441 428.862 35.5438 428.853 35.4442C428.848 35.2065 428.807 34.9708 428.733 34.7451C428.691 34.5373 428.589 34.3462 428.44 34.1954C428.29 34.0446 428.1 33.9406 427.893 33.8962C427.443 33.9067 427.01 34.0686 426.663 34.3556C425.95 34.9234 425.321 35.5892 424.794 36.333C422.604 39.409 420.885 42.4751 419.255 45.2215C418.845 45.9007 418.455 46.5698 418.065 47.2189C417.706 47.8726 417.277 48.4854 416.786 49.0466C415.889 50.0625 414.902 50.9951 413.836 51.833C413.579 52.0299 413.287 52.1788 412.977 52.2724C412.808 52.3274 412.626 52.3274 412.457 52.2724C412.317 52.2044 412.183 52.1242 412.057 52.0327C411.621 51.6664 411.226 51.2546 410.877 50.8043C410.263 50.034 409.734 49.2003 409.298 48.3175C409.115 47.9426 408.958 47.5555 408.828 47.159C408.718 46.7795 408.648 46.43 408.528 46.1603C408.349 45.6272 408.082 45.1276 407.738 44.6822C407.534 44.401 407.299 44.1431 407.038 43.9132C406.943 43.8249 406.856 43.7279 406.778 43.6236Z" fill="#FBA78D"/>
<path d="M399.141 100.35C397.736 103.014 395.992 105.485 393.952 107.701C391.88 109.93 389.041 111.293 386.004 111.516" fill="url(#paint9_linear_470_2460)"/>
<path d="M386.004 111.516C386.004 111.416 387.004 111.416 388.543 110.887C390.518 110.175 392.303 109.02 393.762 107.511C395.224 105.987 396.52 104.313 397.631 102.517C398.074 101.752 398.578 101.023 399.141 100.34C398.835 101.172 398.436 101.966 397.951 102.707C396.909 104.587 395.625 106.323 394.132 107.871C392.619 109.436 390.734 110.593 388.653 111.236C388.024 111.414 387.377 111.521 386.724 111.556C386.483 111.589 386.239 111.575 386.004 111.516Z" fill="url(#paint10_linear_470_2460)"/>
<path d="M400.179 108.05C399.798 108.787 399.306 109.46 398.72 110.048C396.038 113.016 392.573 115.169 388.722 116.26C387.94 116.526 387.12 116.667 386.293 116.679C391.7 115.278 396.556 112.273 400.219 108.06L400.179 108.05Z" fill="url(#paint11_linear_470_2460)"/>
<g opacity="0.3">
<path opacity="0.3" d="M386.373 111.036C388.873 111.945 391.252 112.285 393.661 111.176C396.1 110.043 398.001 108.004 398.96 105.494C399.64 103.686 399.8 101.689 400.6 99.9208C402.389 95.9959 407.068 93.7388 408.128 89.5642C404.399 93.6389 400.899 97.2842 398.01 102.168C396.633 104.564 394.835 106.692 392.702 108.45C390.894 110.003 388.624 110.916 386.243 111.046" fill="url(#paint12_linear_470_2460)"/>
</g>
<g opacity="0.3">
<path opacity="0.3" d="M423.895 140.199L426.234 140.888C426.234 140.888 427.134 123.45 424.644 118.167L423.895 140.199Z" fill="#F2BE35"/>
</g>
<path d="M272.691 279.918L271.931 300.502C271.931 300.502 291.536 308.232 291.746 312.057L253.846 311.977L253.756 279.848L272.691 279.918Z" fill="url(#paint13_linear_470_2460)"/>
<path d="M210.847 301.58L210.997 325.22L216.505 343.875C216.6 344.194 216.627 344.529 216.587 344.859C216.546 345.189 216.438 345.507 216.269 345.794C216.101 346.08 215.875 346.329 215.606 346.525C215.337 346.721 215.03 346.859 214.706 346.932C214.328 347.015 213.936 347.007 213.562 346.908C213.188 346.809 212.843 346.622 212.556 346.362C208.847 343.007 195.261 330.613 195.351 328.875C195.451 326.877 193.541 303.957 193.541 303.957L210.847 301.58Z" fill="url(#paint14_linear_470_2460)"/>
<path d="M194.502 94.4779L187.813 57.236C185.814 48.0179 189.573 39.1993 198.81 37.4915L199.68 37.3817C203.882 36.8592 208.127 37.9355 211.57 40.3966C215.014 42.8577 217.404 46.5233 218.266 50.6645C219.925 58.6542 221.655 67.5127 222.145 71.8471C223.144 80.8355 214.347 83.3423 214.347 83.3423C214.347 83.3423 215.196 88.7752 215.636 91.3819L218.755 97.1444L211.117 96.5852L194.502 94.4779Z" fill="#FFBAA1"/>
<path d="M214.376 83.3423C210.229 83.8494 206.023 83.1561 202.259 81.3448C202.259 81.3448 205.908 87.7366 214.766 85.8191L214.376 83.3423Z" fill="#FBA78D"/>
<path d="M215.835 59.3935C215.881 59.7281 215.794 60.0674 215.592 60.3383C215.39 60.6093 215.089 60.7901 214.755 60.842C214.594 60.8737 214.427 60.8729 214.266 60.8397C214.105 60.8065 213.951 60.7415 213.815 60.6485C213.68 60.5555 213.564 60.4363 213.474 60.298C213.385 60.1597 213.324 60.005 213.295 59.843C213.249 59.511 213.336 59.1742 213.536 58.9052C213.736 58.6361 214.034 58.4563 214.365 58.4045C214.527 58.3698 214.694 58.368 214.857 58.3993C215.019 58.4306 215.174 58.4943 215.311 58.5866C215.448 58.679 215.565 58.798 215.655 58.9367C215.745 59.0753 215.807 59.2307 215.835 59.3935Z" fill="#494B6B"/>
<path d="M216.885 54.8691C216.745 55.0488 215.686 54.4596 214.306 54.6294C212.926 54.7992 211.997 55.6281 211.827 55.4683C211.657 55.3085 211.827 55.0888 212.266 54.7093C212.825 54.2153 213.524 53.908 214.266 53.8304C214.984 53.7376 215.713 53.8776 216.345 54.2299C216.765 54.4995 216.945 54.7792 216.885 54.8691Z" fill="#494B6B"/>
<path d="M203.62 60.9415C203.663 61.2742 203.576 61.6109 203.377 61.8809C203.177 62.151 202.881 62.3334 202.55 62.3899C202.388 62.4218 202.221 62.4211 202.059 62.388C201.897 62.3549 201.743 62.29 201.606 62.1971C201.469 62.1042 201.352 61.9851 201.262 61.8467C201.172 61.7083 201.11 61.5534 201.08 61.391C201.031 61.0574 201.116 60.718 201.316 60.4468C201.517 60.1755 201.816 59.9943 202.15 59.9425C202.312 59.9093 202.48 59.9089 202.642 59.9414C202.805 59.974 202.959 60.0387 203.096 60.1318C203.233 60.225 203.35 60.3446 203.44 60.4836C203.53 60.6227 203.591 60.7784 203.62 60.9415Z" fill="#494B6B"/>
<path d="M203.399 56.8665C203.259 57.0562 202.199 56.457 200.819 56.6368C199.44 56.8166 198.52 57.6355 198.35 57.4757C198.18 57.3159 198.35 57.0862 198.79 56.7167C199.343 56.2151 200.045 55.9066 200.789 55.8378C201.506 55.7405 202.236 55.8771 202.869 56.2273C203.289 56.497 203.469 56.7866 203.399 56.8665Z" fill="#494B6B"/>
<path d="M209.667 66.8436C210.366 66.5259 211.101 66.2945 211.856 66.1545C212.206 66.0746 212.536 65.9647 212.556 65.715C212.543 65.3528 212.418 65.0036 212.196 64.7163L210.817 62.1696C208.897 58.5343 207.457 55.5282 207.607 55.4483C209.02 57.4964 210.274 59.65 211.356 61.89L212.686 64.4666C212.96 64.8642 213.087 65.3442 213.046 65.8249C213.009 65.9545 212.943 66.074 212.853 66.1744C212.763 66.2747 212.651 66.3533 212.526 66.4041C212.338 66.4848 212.139 66.5386 211.936 66.5639C211.195 66.7532 210.432 66.8472 209.667 66.8436Z" fill="#494B6B"/>
<path d="M203.308 52.5021C203.168 52.8816 201.778 52.6719 200.149 52.8417C198.519 53.0115 197.15 53.4309 196.97 53.0914C196.88 52.9316 197.12 52.572 197.65 52.2225C198.365 51.7764 199.178 51.5092 200.019 51.4435C200.853 51.3573 201.696 51.4703 202.478 51.7731C203.078 52.0227 203.368 52.3124 203.308 52.5021Z" fill="#494B6B"/>
<path d="M216.436 50.8043C216.196 51.1638 215.026 50.9941 213.676 51.1638C212.327 51.3336 211.217 51.7231 210.907 51.4335C210.777 51.2937 210.907 50.9541 211.367 50.5846C212.003 50.1214 212.753 49.8384 213.536 49.7656C214.311 49.6569 215.101 49.7677 215.816 50.0852C216.346 50.3149 216.546 50.6345 216.436 50.8043Z" fill="#494B6B"/>
<path d="M189.372 63.7776C189.212 63.7776 182.974 62.7788 183.933 68.831C184.893 74.8832 190.832 72.716 190.822 72.5362C190.812 72.3565 189.372 63.7776 189.372 63.7776Z" fill="#FFBAA1"/>
<path d="M188.583 70.5188C188.583 70.5188 188.493 70.6087 188.323 70.7186C188.208 70.7951 188.078 70.847 187.942 70.8711C187.807 70.8951 187.667 70.8908 187.533 70.8584C187.1 70.6704 186.726 70.3703 186.448 69.9893C186.17 69.6084 186 69.1602 185.953 68.6912C185.856 68.1706 185.877 67.6349 186.013 67.1232C186.03 66.9134 186.1 66.7113 186.218 66.5364C186.335 66.3615 186.495 66.2197 186.683 66.1245C186.801 66.075 186.932 66.0679 187.054 66.1044C187.176 66.1408 187.282 66.2185 187.353 66.3242C187.463 66.484 187.443 66.6039 187.483 66.6139C187.523 66.6239 187.593 66.494 187.483 66.2443C187.428 66.0984 187.321 65.9776 187.183 65.9048C187.091 65.8531 186.99 65.8202 186.885 65.8082C186.78 65.7962 186.674 65.8053 186.573 65.8349C186.322 65.9189 186.098 66.0674 185.922 66.2654C185.747 66.4635 185.626 66.7042 185.573 66.9634C185.395 67.5318 185.357 68.135 185.463 68.7211C185.524 69.2717 185.746 69.7921 186.102 70.2169C186.457 70.6416 186.931 70.9517 187.463 71.1081C187.642 71.14 187.827 71.1286 188 71.0747C188.174 71.0208 188.333 70.9261 188.463 70.7985C188.603 70.6686 188.613 70.5288 188.583 70.5188Z" fill="#FBA78D"/>
<path d="M205.508 68.4016C205.718 68.4016 205.958 69.7598 207.328 70.5488C208.698 71.3378 210.157 70.9183 210.207 71.1181C210.257 71.3178 209.917 71.4476 209.287 71.5675C208.472 71.7248 207.627 71.583 206.908 71.168C206.211 70.776 205.694 70.1273 205.468 69.3603C205.318 68.7911 205.408 68.4116 205.508 68.4016Z" fill="#494B6B"/>
<path d="M229.272 40.5975C229.11 40.2541 228.819 39.9884 228.462 39.8585C227.693 39.6486 226.882 39.6486 226.113 39.8585C224.161 40.1207 222.175 39.9363 220.304 39.3192C220.865 38.9292 221.361 38.4541 221.774 37.911C222.215 37.3547 222.496 36.6886 222.586 35.9845C222.676 35.2804 222.571 34.5652 222.284 33.9161C222.235 33.7927 222.158 33.6823 222.06 33.5938C221.961 33.5054 221.842 33.4413 221.714 33.4068C221.294 33.3369 221.004 33.7863 220.774 34.1359C220.499 34.6696 220.084 35.1188 219.574 35.4354C219.063 35.752 218.476 35.9242 217.875 35.9335C217.05 36.016 216.218 35.9031 215.446 35.604L215.356 35.534L214.276 34.7351C212.207 33.0582 209.83 31.8027 207.278 31.0399C203.528 30.2964 199.646 30.5899 196.05 31.8888C193.051 33.1871 190.662 36.1433 190.732 39.3891C188.732 38.1906 186.133 38.6101 184.143 39.7886H184.083C181.844 40.997 180.894 43.7035 180.564 46.2202C180.564 46.36 180.564 46.4999 180.564 46.6397C179.959 48.0386 179.031 49.2741 177.855 50.245C177.645 50.4048 177.415 50.6146 177.425 50.8842C177.435 51.1539 177.695 51.3236 177.925 51.4435C178.547 51.7551 179.229 51.9256 179.924 51.9428C179.806 52.5534 179.632 53.1518 179.405 53.7305C179.205 54.2199 178.975 54.8091 179.275 55.2486C179.408 55.4068 179.588 55.5197 179.788 55.5716C179.989 55.6234 180.201 55.6118 180.394 55.5382C180.769 55.3849 181.11 55.1573 181.394 54.8691C181.224 55.5382 181.054 56.2173 180.894 56.8665C181.777 56.8779 182.65 56.683 183.444 56.2972C184.293 58.4744 185.323 62.5891 186.143 64.0272C187.763 63.8075 188.142 63.5678 188.992 63.7176C190.112 63.8974 189.992 65.8349 191.292 65.0958C191.951 64.7163 192.611 61.89 192.741 61.101C193.558 56.1088 193.289 50.9993 191.951 46.1204C192.779 44.9359 193.824 43.9192 195.031 43.1242L194.941 43.2341C197.31 41.9857 199.999 40.6874 202.559 41.4963C204.558 42.1255 205.918 43.8633 207.558 45.1716C208.927 46.3751 210.535 47.2772 212.276 47.8192C214.018 48.3612 215.854 48.531 217.665 48.3175C218.435 50.9541 219.225 55.3085 219.744 57.8452L221.114 52.4821C221.238 52.1551 221.345 51.8217 221.434 51.4834V51.3836C221.584 50.8742 221.724 50.3848 221.924 49.8455C222.253 50.073 222.656 50.1679 223.052 50.1115C223.449 50.0551 223.809 49.8514 224.061 49.5412C224.314 49.231 224.44 48.837 224.414 48.438C224.389 48.0389 224.214 47.6643 223.923 47.3887C223.666 47.1279 223.369 46.9088 223.044 46.7396C223.4 46.9879 223.814 47.1412 224.246 47.1849C224.678 47.2286 225.114 47.1612 225.513 46.9892C225.902 46.7968 226.217 46.4833 226.412 46.096C226.607 45.7086 226.67 45.2685 226.593 44.842C226.514 44.5575 226.362 44.2988 226.151 44.0919C225.941 43.885 225.679 43.7372 225.393 43.6635C226.519 43.578 227.594 43.1609 228.482 42.4651C229.082 42.0356 229.612 41.3266 229.272 40.5975Z" fill="#494B6B"/>
<path d="M193.651 39.9783C193.368 40.2902 193.111 40.6242 192.881 40.977C192.308 41.9427 191.994 43.0403 191.972 44.1629C191.93 44.934 191.97 45.7073 192.092 46.4699C192.222 47.2889 192.422 48.1677 192.631 49.0865C192.863 50.0474 193.036 51.0212 193.151 52.0028C193.192 52.528 193.192 53.0555 193.151 53.5807C193.161 54.1392 193.023 54.6902 192.751 55.1787C192.623 55.3773 192.444 55.539 192.234 55.6476C192.024 55.7562 191.788 55.808 191.552 55.7979C191.102 55.7874 190.669 55.6255 190.322 55.3385C189.734 54.7422 189.313 54.0016 189.102 53.1912H189.292C189.126 53.8929 188.857 54.5661 188.493 55.1887C188.154 55.7762 187.603 56.2121 186.953 56.4071C186.643 56.4972 186.313 56.4972 186.003 56.4071C185.715 56.3123 185.464 56.1309 185.283 55.8877C185.111 55.6687 185.004 55.4057 184.973 55.1287C184.943 54.8688 185.007 54.6068 185.153 54.3897L185.253 54.4596C184.818 55.1508 184.243 55.7428 183.564 56.1973C183.383 56.3143 183.196 56.421 183.004 56.5169L182.794 56.6068C182.85 56.5569 182.915 56.5164 182.984 56.487C183.104 56.4071 183.294 56.2972 183.524 56.1374C184.174 55.6672 184.724 55.0732 185.143 54.3897L185.253 54.4596C185.137 54.6709 185.089 54.9129 185.116 55.1525C185.143 55.3921 185.243 55.6175 185.403 55.7979C185.568 56.0132 185.795 56.1734 186.053 56.2573C186.334 56.3372 186.632 56.3372 186.913 56.2573C187.534 56.0759 188.063 55.6653 188.393 55.1088C188.739 54.4824 188.995 53.8098 189.152 53.1113L189.232 52.8117L189.342 53.1113C189.547 53.867 189.947 54.5558 190.502 55.1088C190.816 55.3659 191.206 55.5132 191.612 55.5282C191.81 55.5356 192.007 55.4905 192.183 55.3976C192.358 55.3047 192.506 55.1671 192.611 54.9989C192.862 54.5433 192.989 54.0305 192.981 53.5108C193.021 52.9956 193.021 52.478 192.981 51.9628C192.876 50.9879 192.709 50.0205 192.482 49.0666C192.272 48.1477 192.082 47.2689 191.962 46.43C191.846 45.6567 191.812 44.8733 191.862 44.093C191.905 42.9516 192.25 41.842 192.861 40.8771C193.076 40.5378 193.342 40.2345 193.651 39.9783Z" fill="#455A64"/>
<path d="M222.684 44.3926L222.624 44.4625L222.424 44.6623C222.334 44.7422 222.224 44.852 222.084 44.9619C221.926 45.0961 221.759 45.2195 221.584 45.3314C220.469 46.0575 219.191 46.4966 217.865 46.6097C215.888 46.7884 213.901 46.3894 212.146 45.4612C210.03 44.3041 208.17 42.7312 206.678 40.8372C205.858 39.8385 205.158 38.8398 204.418 37.891C203.733 36.9726 202.914 36.1613 201.989 35.4841C201.164 34.8606 200.194 34.4584 199.17 34.3156C198.709 34.2649 198.244 34.2851 197.79 34.3756C197.369 34.4626 196.962 34.6071 196.58 34.805C195.416 35.4169 194.524 36.4435 194.081 37.6813C193.94 38.1386 193.856 38.6116 193.831 39.0895C193.831 39.0895 193.831 39.0895 193.831 38.9996V38.7199C193.854 38.3584 193.914 38.0003 194.011 37.6513C194.192 37.1099 194.459 36.6008 194.801 36.1433C195.261 35.5351 195.847 35.0341 196.52 34.6752C196.911 34.4659 197.328 34.3113 197.76 34.2158C198.233 34.1123 198.719 34.0886 199.2 34.1459C200.257 34.2846 201.262 34.6902 202.119 35.3243C203.053 36.0168 203.884 36.8371 204.588 37.7612C205.338 38.7 206.038 39.7586 206.858 40.6974C208.325 42.5742 210.158 44.1338 212.246 45.2815C213.964 46.2029 215.911 46.6119 217.855 46.4599C219.164 46.3657 220.43 45.9544 221.544 45.2615C222.314 44.7621 222.664 44.3227 222.684 44.3926Z" fill="#455A64"/>
<path d="M222.943 40.3279C222.852 40.4235 222.755 40.5135 222.653 40.5975C222.378 40.8315 222.084 41.042 221.773 41.2267C221.323 41.5118 220.848 41.7558 220.354 41.9558C219.742 42.196 219.109 42.3799 218.464 42.505C217.805 42.6251 217.135 42.682 216.465 42.6748C215.931 42.6687 215.399 42.6153 214.875 42.515C214.518 42.4559 214.167 42.3657 213.825 42.2454C213.585 42.1655 213.455 42.1155 213.465 42.0956C213.475 42.0756 214.005 42.2354 214.895 42.3652C215.415 42.4416 215.939 42.4783 216.465 42.4751C217.109 42.4764 217.752 42.4163 218.384 42.2953C219.013 42.1705 219.632 41.9969 220.234 41.776C220.727 41.5871 221.205 41.3601 221.663 41.0969C222.433 40.6574 222.863 40.3279 222.943 40.3279Z" fill="#455A64"/>
<path d="M307.012 153.651L310.471 153.102C311.545 152.021 312.747 151.075 314.05 150.286C316.05 149.127 317.779 149.127 318.279 150.086C318.522 150.607 318.579 151.195 318.441 151.753C318.303 152.311 317.977 152.804 317.519 153.152C316.52 154.101 312.601 155.149 312.381 156.797C312.161 158.445 324.708 163.788 324.708 163.788L314.79 175.064L300.394 167.414L299.734 166.235L299.584 163.139L307.012 153.651Z" fill="#AE7461"/>
<path d="M206.587 184.741L210.946 236.075L209.477 244.993C209.477 244.993 191.661 296.127 192.031 317.29L212.876 316.291C212.876 316.291 233.221 258.366 234.82 252.004C236.42 245.642 244.618 202.838 244.618 202.838L258.134 236.664L258.514 244.544L250.726 293.61L274.93 294.879C274.93 294.879 284.838 239.191 283.858 231.96C282.878 224.729 266.862 168.262 266.862 168.262L258.604 161.062L211.506 169.051L206.587 184.741Z" fill="url(#paint15_linear_470_2460)"/>
<path opacity="0.5" d="M260.225 298.734C259.853 298.863 259.54 299.123 259.343 299.464C259.147 299.805 259.08 300.205 259.155 300.592C259.237 300.972 259.465 301.305 259.791 301.518C260.116 301.731 260.513 301.808 260.895 301.731C261.294 301.592 261.629 301.312 261.837 300.945C262.045 300.577 262.112 300.146 262.025 299.733C261.765 298.984 260.755 298.384 260.085 298.734" fill="#E0E0E0"/>
<path d="M253.846 311.977L253.956 308.731L290.277 309.979C290.277 309.979 291.966 310.758 291.766 311.977H253.846Z" fill="#455A64"/>
<path opacity="0.5" d="M272.562 300.302C272.562 300.502 271.632 300.582 270.722 301.211C269.812 301.84 269.322 302.649 269.152 302.57C268.982 302.49 269.262 301.371 270.372 300.632C271.482 299.892 272.602 300.122 272.562 300.302Z" fill="white"/>
<path opacity="0.5" d="M276.541 302.05C276.541 302.239 275.781 302.569 275.151 303.388C274.521 304.207 274.331 305.086 274.151 305.076C273.971 305.066 273.851 303.968 274.651 302.959C275.451 301.95 276.531 301.86 276.541 302.05Z" fill="white"/>
<path opacity="0.5" d="M278.789 307.074C278.619 307.074 278.359 306.135 278.839 305.076C279.319 304.017 280.189 303.578 280.259 303.747C280.329 303.917 279.809 304.477 279.429 305.356C279.049 306.235 278.929 307.054 278.789 307.074Z" fill="white"/>
<path opacity="0.5" d="M272.241 295.588C272.161 295.768 271.311 295.498 270.241 295.588C269.172 295.678 268.382 296.007 268.242 295.838C268.102 295.668 268.932 294.979 270.171 294.909C271.411 294.839 272.331 295.438 272.241 295.588Z" fill="white"/>
<path d="M214.706 346.932L195.301 327.287V328.286C195.328 329.151 195.661 329.979 196.241 330.623C197.79 332.34 202.179 336.994 212.456 346.362C212.751 346.631 213.108 346.824 213.495 346.923C213.882 347.023 214.288 347.025 214.676 346.932H214.706Z" fill="#455A64"/>
<g opacity="0.5">
<path opacity="0.6" d="M199.949 319.517C200.245 319.725 200.454 320.034 200.536 320.386C200.619 320.737 200.571 321.107 200.399 321.425C200.205 321.728 199.903 321.946 199.553 322.034C199.203 322.121 198.833 322.071 198.519 321.895C198.209 321.678 197.989 321.354 197.902 320.985C197.815 320.617 197.868 320.229 198.049 319.897C198.282 319.601 198.621 319.407 198.995 319.357C199.368 319.307 199.746 319.404 200.049 319.627" fill="white"/>
</g>
<path opacity="0.5" d="M208.997 336.765C209.136 336.825 209.636 335.566 210.996 334.867C211.852 334.495 212.772 334.291 213.705 334.268C213.705 334.208 213.425 334.028 212.866 333.968C212.135 333.911 211.403 334.063 210.756 334.408C210.106 334.743 209.568 335.26 209.206 335.896C208.947 336.395 208.947 336.745 208.997 336.765Z" fill="white"/>
<path opacity="0.5" d="M210.777 339.881C211.441 339.474 212.133 339.113 212.847 338.802C213.605 338.631 214.373 338.508 215.146 338.433C214.774 338.217 214.356 338.094 213.927 338.071C213.498 338.048 213.069 338.128 212.677 338.303C211.297 338.752 210.647 339.811 210.777 339.881Z" fill="white"/>
<path opacity="0.5" d="M205.748 332.8C206.721 332.096 207.747 331.468 208.817 330.922C209.956 330.529 211.122 330.222 212.306 330.003C211.06 329.794 209.78 329.946 208.617 330.442C207.455 330.938 206.459 331.756 205.748 332.8Z" fill="white"/>
<path opacity="0.5" d="M205.098 325.619C205.168 325.759 206.457 325.17 208.157 325.06C209.856 324.95 211.216 325.319 211.266 325.17C210.323 324.596 209.208 324.373 208.117 324.54C207.016 324.539 205.948 324.921 205.098 325.619Z" fill="white"/>
<path opacity="0.5" d="M204.878 318.678C205.901 318.319 206.966 318.097 208.047 318.019C209.128 318.104 210.191 318.339 211.207 318.718C211.207 318.658 210.977 318.378 210.427 318.079C209.691 317.707 208.877 317.514 208.052 317.514C207.228 317.514 206.414 317.707 205.678 318.079C205.118 318.338 204.848 318.628 204.878 318.678Z" fill="white"/>
<path d="M183.424 95.6164C183.424 95.6164 170.747 103.247 179.954 121.523C191.182 143.894 201.869 175.363 205.538 177.451C207.038 178.3 214.086 174.774 214.086 174.774L219.674 164.427L204.848 125.737L195.171 103.366L183.424 95.6164Z" fill="url(#paint16_linear_470_2460)"/>
<path d="M192.672 89.6841L183.424 95.6164L207.948 138.86L204.399 177.491L209.947 180.627L267.223 172.697L269.082 170.11L262.794 151.964L254.416 131.59C254.416 131.59 246.128 113.074 241.239 105.184C236.351 97.2942 231.092 89.3245 231.092 89.3245L217.095 88.3258L215.376 86.4183C215.376 86.4183 213.256 90.2533 207.498 90.6029C202.809 90.8925 192.861 88.3558 192.861 88.3558L192.672 89.6841Z" fill="url(#paint17_linear_470_2460)"/>
<path d="M307.012 153.651C307.012 153.651 273.411 126.766 270.671 123.63C267.932 120.494 244.568 95.916 244.568 95.916C244.568 95.916 236.02 87.7266 231.111 89.3245C225.113 91.3219 237.11 120.185 237.11 120.185C237.11 120.185 261.823 140.678 265.832 144.573C269.841 148.468 293.925 163.948 293.925 163.948L299.634 163.159L307.012 153.651Z" fill="url(#paint18_linear_470_2460)"/>
<path d="M198.029 112.904C198.129 113.065 198.213 113.236 198.279 113.413C198.449 113.813 198.659 114.302 198.909 114.911C199.449 116.22 200.239 118.107 201.229 120.434C203.228 125.088 206.067 131.42 209.226 138.491C212.386 145.562 215.115 151.974 216.925 156.697C217.834 159.054 218.534 160.982 218.984 162.32C219.184 162.949 219.354 163.459 219.494 163.868C219.564 164.044 219.612 164.229 219.634 164.417C219.53 164.26 219.449 164.088 219.394 163.908L218.794 162.39C218.284 161.072 217.534 159.174 216.585 156.827C214.685 152.143 211.906 145.742 208.747 138.701C205.587 131.66 202.748 125.268 200.899 120.574C199.949 118.227 199.209 116.32 198.729 114.981C198.509 114.362 198.339 113.853 198.189 113.453C198.11 113.279 198.056 113.094 198.029 112.904Z" fill="url(#paint19_linear_470_2460)"/>
<path d="M239.159 101.968C239.159 101.968 239.269 102.048 239.469 102.258C239.741 102.569 239.985 102.903 240.199 103.257C240.789 104.115 241.569 105.424 242.468 107.052C244.278 110.317 246.607 114.911 249.087 120.035C251.566 125.158 253.716 129.842 255.235 133.238C255.995 134.946 256.605 136.324 257.005 137.293C257.235 137.78 257.429 138.284 257.585 138.801C257.28 138.352 257.022 137.874 256.815 137.372L254.905 133.378L248.617 120.225C246.147 115.101 243.858 110.487 242.148 107.191C241.289 105.534 240.569 104.195 240.029 103.326C239.489 102.458 239.119 102.008 239.159 101.968Z" fill="url(#paint20_linear_470_2460)"/>
<g opacity="0.3">
<path opacity="0.3" d="M205.698 131.21C205.698 131.21 203.308 117.898 204.698 110.118C206.088 102.338 210.047 91.0123 210.047 91.0123L217.045 88.0162L253.486 105.703L256.185 108.969L251.356 124.299L254.955 152.263L205.698 131.21Z" fill="black"/>
</g>
<path d="M214.466 107.851C217.196 57.7753 245.349 30.8201 281.09 32.7676C317.031 34.765 341.874 64.5665 339.145 114.662C336.416 164.757 308.473 191.702 272.522 189.745C236.781 187.777 211.727 157.936 214.466 107.851ZM305.273 112.794C307.153 78.3287 296.276 63.388 279.47 62.4692C262.844 61.5604 250.427 75.2427 248.548 109.708C246.668 144.174 257.545 159.124 274.141 160.023C290.977 160.942 303.394 147.27 305.273 112.794Z" fill="#F2BE35"/>
<g opacity="0.3">
<path opacity="0.3" d="M214.465 107.851C217.195 57.7753 245.348 30.8201 281.089 32.7676C317.03 34.765 341.873 64.5665 339.144 114.662C336.415 164.757 308.472 191.702 272.521 189.745C236.78 187.777 211.726 157.936 214.465 107.851ZM305.273 112.794C307.152 78.3287 296.275 63.388 279.469 62.4692C262.843 61.5604 250.426 75.2427 248.547 109.708C246.667 144.174 257.545 159.124 274.14 160.023C290.976 160.942 303.393 147.27 305.273 112.794Z" fill="white"/>
</g>
<path d="M204.158 107.901C206.898 57.8252 235.041 30.8701 270.782 32.8176C306.773 34.815 331.576 64.6065 328.847 114.712C326.118 164.817 298.165 191.752 262.224 189.795C226.473 187.827 201.429 157.976 204.158 107.901ZM294.966 112.894C296.855 78.4286 285.968 63.4779 269.162 62.5691C252.536 61.6603 240.119 75.3326 238.24 109.808C236.36 144.284 247.237 159.214 263.843 160.123C280.669 160.992 293.086 147.31 294.926 112.844L294.966 112.894Z" fill="url(#paint21_linear_470_2460)"/>
<path d="M241.939 183.653L235.73 179.877C235.73 179.877 229.382 175.693 228.992 175.054C228.52 174.026 228.252 172.917 228.202 171.788C228.202 170.869 231.061 168.792 231.381 167.034C231.701 165.276 229.812 163.539 229.132 163.239C228.452 162.939 227.752 163.988 227.602 164.767C227.452 165.546 226.313 166.685 224.523 167.084C222.734 167.484 220.274 169.81 220.274 169.81L214.896 179.917C215.815 181.645 226.833 185.76 227.172 185.96C227.512 186.159 239.259 186.379 240.429 185.96C240.684 185.915 240.927 185.819 241.143 185.677C241.359 185.534 241.543 185.349 241.685 185.133C241.826 184.917 241.922 184.674 241.965 184.419C242.009 184.165 242 183.904 241.939 183.653Z" fill="#FFAA8F"/>
<path d="M329.417 162.6C329.477 164.288 326.098 164.178 326.098 164.178C326.498 165.007 324.748 167.004 323.558 166.565C323.868 167.154 324.188 167.354 324.128 168.023C324.108 168.361 324.006 168.688 323.832 168.979C323.658 169.269 323.417 169.513 323.128 169.691C322.839 169.862 322.502 169.934 322.168 169.897C321.834 169.859 321.522 169.713 321.279 169.481C321.395 169.986 321.355 170.514 321.164 170.995C320.973 171.477 320.64 171.889 320.209 172.177C319.68 172.51 319.046 172.634 318.43 172.527C318.123 172.472 317.829 172.364 317.56 172.207C317.453 172.161 317.355 172.097 317.27 172.018C317.235 171.974 317.21 171.923 317.2 171.868C317.12 171.628 317.09 171.378 317 171.149L316.88 170.879C316.686 170.489 316.441 170.126 316.15 169.801C316 169.661 315.86 169.51 315.73 169.351C315.673 169.232 315.626 169.108 315.59 168.982C315.178 168.227 314.613 167.567 313.931 167.044C313.185 166.471 312.622 165.694 312.311 164.807C312.174 164.361 312.217 163.879 312.43 163.463C312.642 163.047 313.009 162.731 313.451 162.58C313.215 162.398 313.054 162.136 312.997 161.844C312.94 161.552 312.991 161.249 313.141 160.992C313.302 160.742 313.525 160.537 313.787 160.395C314.049 160.254 314.343 160.181 314.641 160.183C315.239 160.197 315.823 160.373 316.33 160.692C316.086 160.441 315.949 160.104 315.949 159.753C315.949 159.403 316.086 159.066 316.33 158.815C316.587 158.578 316.899 158.409 317.237 158.323C317.576 158.238 317.931 158.238 318.27 158.325C318.949 158.518 319.578 158.859 320.109 159.324C320.659 159.744 322.978 161.501 323.588 161.851L325.028 160.493L325.218 160.313C326.428 160.722 326.817 160.782 327.857 161.202C328.687 161.501 329.387 161.901 329.417 162.6Z" fill="#FFAA8F"/>
<path d="M316.281 174.325C316.102 174.551 315.876 174.736 315.619 174.867C315.362 174.998 315.079 175.072 314.791 175.084C313.964 174.86 313.23 174.381 312.691 173.715C312.691 173.715 313.921 172.157 313.921 172.157L314.231 171.778C314.301 171.328 313.661 170.779 313.461 170.41C313.304 170.043 313.295 169.63 313.437 169.258C313.579 168.885 313.86 168.582 314.221 168.412C314.587 168.266 314.986 168.226 315.373 168.297C315.761 168.367 316.12 168.546 316.41 168.812C316.993 169.354 317.35 170.096 317.41 170.889C317.474 171.509 317.407 172.135 317.212 172.727C317.017 173.319 316.7 173.863 316.281 174.325Z" fill="#FFAA8F"/>
<path d="M321.489 169.631C320.341 168.267 319.062 167.019 317.67 165.905C316.392 164.66 314.992 163.546 313.491 162.58C315.906 165.2 318.586 167.563 321.489 169.631Z" fill="#6F4439" fill-opacity="0.1"/>
<path d="M323.688 166.655C322.755 165.326 321.61 164.159 320.299 163.199C319.099 162.1 317.728 161.203 316.24 160.542C317.417 161.638 318.655 162.665 319.949 163.618C321.132 164.707 322.381 165.72 323.688 166.655Z" fill="#6F4439" fill-opacity="0.1"/>
<path d="M325.848 163.748C325.054 162.664 324.068 161.733 322.939 161.002C321.924 160.13 320.802 159.392 319.6 158.805C320.471 159.817 321.481 160.701 322.599 161.431C323.609 162.301 324.696 163.077 325.848 163.748Z" fill="#6F4439" fill-opacity="0.1"/>
<path d="M316.82 173.236C316.82 173.286 317.19 173.066 317.4 172.497C317.629 171.751 317.557 170.944 317.2 170.25C316.88 169.571 316.432 168.961 315.88 168.452C315.361 168.033 314.881 168.243 314.941 168.312C315.001 168.382 315.301 168.362 315.62 168.732C316.041 169.277 316.406 169.862 316.71 170.48C317.009 171.072 317.12 171.74 317.03 172.397C316.92 172.906 316.76 173.156 316.82 173.236Z" fill="#6F4439" fill-opacity="0.1"/>
<path d="M95.8067 290.564L92.5875 309.54C92.5875 309.54 111.663 317.32 111.823 321.055L74.752 320.496L79.4008 289.266L95.8067 290.564Z" fill="url(#paint22_linear_470_2460)"/>
<path opacity="0.5" d="M81.1495 307.702C80.7826 307.824 80.4721 308.074 80.2754 308.406C80.0787 308.738 80.0091 309.131 80.0795 309.51C80.1545 309.882 80.3725 310.21 80.6866 310.423C81.0008 310.635 81.3859 310.717 81.7595 310.649C82.1486 310.521 82.4777 310.255 82.6856 309.903C82.8935 309.55 82.9659 309.133 82.8895 308.731C82.8335 308.541 82.7401 308.364 82.6148 308.211C82.4895 308.057 82.3348 307.93 82.1597 307.837C81.9846 307.744 81.7926 307.687 81.5951 307.669C81.3976 307.651 81.1985 307.672 81.0095 307.732" fill="#E0E0E0"/>
<path d="M74.752 320.526L75.2218 317.38L110.393 319.088C110.393 319.088 112.033 319.867 111.823 321.085L74.752 320.526Z" fill="#455A64"/>
<path opacity="0.5" d="M93.1877 309.38C93.1877 309.57 92.2777 309.64 91.3777 310.249C90.4777 310.859 89.9877 311.638 89.8277 311.558C89.6677 311.478 89.9477 310.389 91.0477 309.68C92.1477 308.971 93.2377 309.21 93.1877 309.38Z" fill="white"/>
<path opacity="0.5" d="M97.0554 311.138C97.0554 311.318 96.3054 311.637 95.6754 312.427C95.0454 313.216 94.8654 314.075 94.6754 314.065C94.4854 314.055 94.3954 312.976 95.1854 311.997C95.9754 311.018 97.0554 310.978 97.0554 311.138Z" fill="white"/>
<path opacity="0.5" d="M99.1951 316.072C99.0251 316.072 98.7951 315.153 99.2751 314.074C99.7551 312.996 100.605 312.636 100.675 312.796C100.745 312.956 100.215 313.505 99.8351 314.364C99.4551 315.223 99.3751 316.052 99.1951 316.072Z" fill="white"/>
<path d="M92.9781 304.777C92.8981 304.947 92.0782 304.667 91.0482 304.727C90.0182 304.787 89.2181 305.117 89.1281 304.947C89.0381 304.777 89.8181 304.117 91.0181 304.067C92.2181 304.017 92.9781 304.627 92.9781 304.777Z" fill="white"/>
<path d="M42.2096 293.551L32.3721 311.118C32.3721 311.118 45.9887 326.578 44.4591 329.953L11.5273 312.975L25.7938 285.012L42.2096 293.551Z" fill="url(#paint23_linear_470_2460)"/>
<path opacity="0.5" d="M22.9953 304.357C22.6122 304.3 22.2218 304.385 21.8963 304.594C21.5709 304.804 21.3324 305.124 21.2253 305.495C21.1292 305.862 21.1799 306.252 21.3666 306.582C21.5533 306.912 21.8612 307.156 22.2253 307.264C22.6301 307.318 23.0409 307.224 23.3825 307C23.7241 306.776 23.9735 306.437 24.0853 306.045C24.2053 305.276 23.5853 304.307 22.8353 304.337" fill="#E0E0E0"/>
<path d="M11.5273 312.975L13.067 310.209L44.0592 327.557C44.0592 327.557 45.1789 328.985 44.4491 329.983L11.5273 312.975Z" fill="#455A64"/>
<path opacity="0.5" d="M32.9917 311.218C32.9017 311.387 32.0519 311.048 30.9922 311.218C29.9325 311.387 29.1327 311.847 28.9927 311.707C28.8528 311.567 29.6326 310.708 30.9322 310.559C32.2319 310.409 33.1217 311.078 32.9917 311.218Z" fill="white"/>
<path opacity="0.5" d="M35.6819 314.514C35.6319 314.693 34.7819 314.623 33.8719 315.053C32.9619 315.483 32.4019 316.172 32.2519 316.052C32.1019 315.932 32.4819 314.943 33.6319 314.424C34.7819 313.904 35.7619 314.344 35.6819 314.514Z" fill="white"/>
<path opacity="0.5" d="M35.3912 319.887C35.2312 319.887 35.3912 318.888 36.3312 318.169C37.2712 317.45 38.1712 317.47 38.1612 317.649C38.1512 317.829 37.4412 318.079 36.7112 318.648C35.9812 319.218 35.5612 319.967 35.3912 319.887Z" fill="white"/>
<path d="M34.8228 306.984C34.6728 307.104 34.0628 306.494 33.1128 306.085C32.1628 305.675 31.3128 305.615 31.3028 305.435C31.2928 305.255 32.3028 304.986 33.3928 305.485C34.4828 305.985 34.9928 306.884 34.8228 306.984Z" fill="white"/>
<path d="M65.1633 177.271C65.1633 177.271 71.7916 241.298 69.8221 248.709C67.8526 256.119 36.1506 312.726 36.1506 312.726L14.2461 300.572C14.2461 300.572 40.8794 249.308 40.5395 247.141C40.1996 244.973 41.2493 238.811 41.2493 238.811L26.553 189.695L29.4823 168.602L55.4757 165.985L65.1633 177.271Z" fill="url(#paint24_linear_470_2460)"/>
<path d="M47.7871 201.42C48.4469 203.417 83.7081 243.595 83.7081 243.595C83.5787 244.458 83.7184 245.341 84.108 246.122C84.8711 247.114 85.9166 247.852 87.1072 248.239L73.1107 306.164L97.5946 308.421C97.5946 308.421 112.201 250.496 111.591 243.156C110.981 235.815 76.1 179.148 76.1 179.148L51.1063 177.8L47.7871 201.42Z" fill="url(#paint25_linear_470_2460)"/>
<path d="M65.8142 191.263C65.7833 191.799 65.6996 192.331 65.5642 192.851C65.4006 194.303 65.3605 195.766 65.4443 197.225C65.8563 202.042 66.5675 206.828 67.5737 211.557C68.581 216.307 69.3088 221.112 69.7532 225.948C69.8565 227.422 69.8297 228.903 69.6732 230.372C69.6131 230.912 69.4992 231.443 69.3333 231.96C69.3404 231.422 69.3872 230.884 69.4732 230.352C69.5469 228.894 69.5168 227.432 69.3832 225.978C69.0933 222.283 68.1136 217.239 67.0638 211.656C66.0369 206.906 65.3685 202.085 65.0643 197.235C65.0088 195.758 65.1026 194.279 65.3443 192.821C65.458 192.289 65.6151 191.768 65.8142 191.263Z" fill="#455A64" fill-opacity="0.2"/>
<path d="M118.061 92.6402C118.061 92.6402 122.529 85.4695 126.618 84.8303C130.707 84.1912 137.786 84.8303 137.786 84.8303L133.967 100.25L125.469 101.719L118.061 92.6402Z" fill="#FFAA8F"/>
<path d="M52.8369 104.385L84.469 106.313L116.901 91.2221L126.938 103.496L87.2083 124.589L65.2338 127.345L52.8369 104.385Z" fill="#455A64"/>
<path d="M151.343 137.093L126.249 132.698L120.58 165.037L85.7891 158.955L91.4577 126.616L8.47852 112.105L12.6775 88.1361L102.455 3.18587L139.886 9.72742L56.2765 90.5529L97.6761 97.7836L102.725 68.9708L136.406 74.8632L131.358 103.676L156.461 108.07L151.343 137.093Z" fill="#F2BE35"/>
<g opacity="0.3">
<path opacity="0.3" d="M151.342 137.093L126.248 132.698L120.579 165.037L85.7881 158.955L91.4567 126.616L8.47754 112.105L12.6765 88.1361L102.454 3.18588L139.885 9.72743L56.2755 90.553L97.6751 97.7836L102.724 68.9708L136.405 74.8632L131.357 103.676L156.46 108.07L151.342 137.093Z" fill="white"/>
</g>
<path d="M142.864 135.914L117.76 131.53L112.092 163.858L77.3006 157.776L82.9791 125.438L0 110.927L4.19894 86.9576L93.9764 1.99741L131.407 8.53896L47.768 89.3645L89.1576 96.6051L94.1563 67.7824L127.848 73.6748L122.799 102.488L147.893 106.882L142.864 135.914Z" fill="url(#paint26_linear_470_2460)"/>
<g opacity="0.3">
<path opacity="0.3" d="M67.8529 120.594C67.8529 120.594 64.2239 110.827 61.0147 107.062C58.5984 104.114 56.3456 101.037 54.2664 97.8435L70.4223 90.7327L61.9844 84.2711L47.758 90.7826L46.9082 103.546L64.0739 121.413L67.8529 120.594Z" fill="black"/>
</g>
<path d="M56.0659 55.9377C57.6913 57.2924 58.9642 59.0202 59.7755 60.9733C60.5868 62.9265 60.9125 65.0469 60.7247 67.1532C60.5347 69.1506 59.9249 71.5076 61.2146 73.0855C62.5042 74.6635 65.0836 74.6635 66.3133 76.2714C67.7629 78.169 66.4632 80.9254 66.9531 83.2624C67.2169 84.3613 67.8663 85.3293 68.7834 85.9908C69.7006 86.6522 70.8247 86.9634 71.9519 86.8677C69.2837 88.9544 66.0904 90.2642 62.7242 90.6528L60.2348 87.3172C60.6525 87.9457 60.8487 88.6952 60.7926 89.4475C60.7365 90.1998 60.4312 90.9121 59.9249 91.4718C58.8616 92.5795 57.489 93.3416 55.9859 93.6589C52.5209 94.6513 48.8733 94.8315 45.3273 94.1853C41.7812 93.5392 38.4322 92.0843 35.541 89.9338" fill="#494B6B"/>
<path d="M17.3156 73.2154C17.9955 71.7165 18.5961 70.1831 19.1151 68.6213C19.9249 65.1758 18.3153 61.2508 20.0549 58.1648C21.2945 55.9776 23.8639 54.939 26.2833 54.2499C28.7027 53.5608 31.282 52.9815 33.1416 51.2538C34.4812 49.9854 35.271 48.2576 36.6007 46.9393C38.5102 45.1317 41.2895 44.5524 43.9189 44.4426C46.6315 44.2358 49.3517 44.7311 51.8169 45.8807C53.0386 46.4705 54.1053 47.3376 54.9316 48.4128C55.7579 49.4879 56.3209 50.7413 56.5757 52.0727C56.5957 53.3891 56.7228 54.7018 56.9556 55.9976C57.3755 57.3858 58.4452 58.4744 59.0851 59.7727C59.7223 61.1697 59.8816 62.7373 59.5383 64.2336C59.195 65.7299 58.3682 67.0718 57.1855 68.052L38.1903 91.6016C34.2713 92.9898 24.8637 91.0323 21.9144 88.0961C18.9651 85.1599 15.9959 77.1403 17.3156 73.2154Z" fill="#494B6B"/>
<path d="M56.7555 64.986C56.0957 59.543 52.0867 53.0514 46.668 53.9303L29.9023 59.2035C29.1066 59.3314 28.3882 59.7538 27.8899 60.3866C27.3916 61.0194 27.15 61.8164 27.2129 62.6191L31.3519 102.018C31.3519 102.018 30.1022 103.017 29.3024 102.677C29.2581 102.657 29.2082 102.651 29.1605 102.662C29.1129 102.673 29.0702 102.699 29.0392 102.737C29.0083 102.775 28.9908 102.822 28.9896 102.871C28.9884 102.92 29.0035 102.968 29.0325 103.007C30.972 106.003 40.1697 118.826 50.0272 115.141C52.2167 114.322 49.9472 107.431 50.2572 104.894L50.0872 98.4128C49.9372 95.0971 49.8673 93.7388 49.8673 93.7788C49.8673 93.8187 56.7855 92.2208 57.7153 83.0227C58.1352 78.4486 57.4853 71.0382 56.7555 64.986Z" fill="#FFBAA1"/>
<path d="M55.4266 73.2855C55.4487 73.5898 55.3499 73.8905 55.1514 74.1224C54.953 74.3543 54.671 74.4987 54.3666 74.5242C54.2176 74.5451 54.0659 74.5355 53.9208 74.4961C53.7756 74.4566 53.64 74.3881 53.5221 74.2947C53.4043 74.2013 53.3067 74.0849 53.2352 73.9526C53.1638 73.8203 53.12 73.6749 53.1066 73.5252C53.0844 73.2199 53.183 72.918 53.3812 72.6845C53.5794 72.451 53.8614 72.3045 54.1666 72.2765C54.3164 72.2556 54.4688 72.2655 54.6146 72.3056C54.7604 72.3456 54.8965 72.415 55.0145 72.5095C55.1324 72.604 55.2299 72.7216 55.3007 72.855C55.3716 72.9884 55.4144 73.1349 55.4266 73.2855Z" fill="#494B6B"/>
<path d="M44.0698 73.8148C44.0893 74.1185 43.9894 74.4178 43.7915 74.6492C43.5935 74.8805 43.3131 75.0256 43.0098 75.0535C42.8604 75.073 42.7087 75.0625 42.5635 75.0226C42.4183 74.9827 42.2826 74.9142 42.1642 74.8211C42.0459 74.7281 41.9474 74.6123 41.8745 74.4807C41.8016 74.349 41.7558 74.2042 41.7397 74.0546C41.7201 73.7498 41.8196 73.4493 42.0173 73.2164C42.2151 72.9835 42.4956 72.8363 42.7997 72.8059C42.95 72.785 43.103 72.7948 43.2494 72.8348C43.3958 72.8747 43.5325 72.944 43.6513 73.0384C43.7701 73.1327 43.8684 73.2502 43.9403 73.3837C44.0123 73.5171 44.0563 73.6638 44.0698 73.8148Z" fill="#494B6B"/>
<path d="M55.9255 69.4902C55.7955 69.6999 54.7158 68.9908 53.3561 69.1606C51.9964 69.3304 51.0967 70.2492 50.9267 70.0694C50.7568 69.8896 50.9267 69.63 51.3366 69.2105C51.8393 68.6629 52.5188 68.3094 53.2561 68.2118C53.9834 68.128 54.7168 68.305 55.3256 68.7112C55.7955 69.0607 55.9854 69.3903 55.9255 69.4902Z" fill="#494B6B"/>
<path d="M43.6894 70.2891C43.5295 70.4889 42.4698 69.6899 41.0101 69.7299C39.5505 69.7698 38.4907 70.5688 38.3308 70.379C38.1708 70.1893 38.4108 69.9496 38.8707 69.5701C39.4835 69.0937 40.2338 68.8276 41.0101 68.8111C41.7812 68.8001 42.534 69.046 43.1496 69.5101C43.6095 69.8297 43.7694 70.1693 43.6894 70.2891Z" fill="#494B6B"/>
<path d="M48.1079 78.9479C48.7521 78.7045 49.4235 78.5401 50.1074 78.4586C50.4273 78.4086 50.7272 78.3287 50.7672 78.109C50.7805 77.7767 50.6896 77.4485 50.5073 77.1702L49.4176 74.7833C48.4208 72.7603 47.5818 70.6635 46.9082 68.5114C48.0744 70.4421 49.0777 72.4665 49.9074 74.5636L50.9672 76.9705C51.189 77.3464 51.2705 77.7887 51.1971 78.2189C51.1591 78.3356 51.094 78.4416 51.0071 78.5284C50.9202 78.6152 50.8141 78.6802 50.6973 78.7182C50.5232 78.7796 50.3416 78.8165 50.1574 78.8281C49.4818 78.9525 48.7934 78.9928 48.1079 78.9479Z" fill="#494B6B"/>
<path d="M49.8275 93.7788C45.5372 94.0845 41.246 93.196 37.4307 91.2121C37.4307 91.2121 40.8598 97.434 49.9375 96.0658L49.8275 93.7788Z" fill="#FBA78D"/>
<path d="M44.1991 82.5335C44.3522 82.232 44.5792 81.9743 44.8591 81.7843C45.1999 81.6248 45.5868 81.5929 45.9491 81.6944C46.4871 81.7876 46.9811 82.0501 47.3591 82.4436C47.5451 82.642 47.6739 82.887 47.732 83.1525C47.7901 83.418 47.7753 83.6943 47.6891 83.9521C47.5391 84.4815 46.7491 84.7512 46.2091 84.8312C45.663 84.8974 45.111 84.7701 44.6491 84.4715C44.4482 84.3801 44.2723 84.2416 44.1365 84.0676C44.0006 83.8937 43.9089 83.6895 43.8691 83.4726C43.8869 83.1345 44.0014 82.8085 44.1991 82.5335Z" fill="#FBA78D"/>
<path d="M44.499 80.7756C44.699 80.7756 44.779 82.1138 46.0087 83.0127C47.2384 83.9115 48.678 83.6818 48.698 83.8716C48.718 84.0613 48.3881 84.1612 47.7682 84.2111C46.9701 84.2639 46.1785 84.038 45.5288 83.572C44.9076 83.1174 44.4852 82.4415 44.3491 81.6844C44.2691 81.1151 44.3991 80.7756 44.499 80.7756Z" fill="#494B6B"/>
<path d="M43.6793 66.2943C43.5694 66.6339 42.3097 66.544 40.84 66.8136C39.3704 67.0833 38.2007 67.5427 37.9908 67.2431C37.8908 67.1033 38.0807 66.7737 38.5506 66.4141C39.1635 65.9613 39.877 65.6632 40.6301 65.5453C41.3805 65.4151 42.151 65.463 42.8795 65.6851C43.4294 65.8549 43.7193 66.1046 43.6793 66.2943Z" fill="#494B6B"/>
<path d="M54.9854 64.1371C54.7455 64.4367 53.7457 64.197 52.546 64.257C51.3463 64.3169 50.3566 64.5765 50.1066 64.257C49.8567 63.9374 50.1067 63.8275 50.5665 63.5279C51.1652 63.1506 51.8582 62.9498 52.566 62.9486C53.2626 62.9104 53.9557 63.0696 54.5655 63.408C54.9054 63.7077 55.0554 63.9973 54.9854 64.1371Z" fill="#494B6B"/>
<path d="M26.1833 60.4419C27.1803 59.2462 28.5257 58.3908 30.0323 57.995C36.2943 55.7222 42.8053 54.2035 49.4274 53.4709C50.2172 54.8391 49.4274 56.6668 48.1677 57.6255C46.8208 58.4637 45.3497 59.0839 43.8088 59.4631C43.0406 59.6622 42.32 60.0132 41.6898 60.4952C41.0596 60.9772 40.5326 61.5805 40.1397 62.2695C39.4599 63.8075 39.9698 65.6551 39.37 67.2631C38.3702 69.9696 34.5112 70.7785 33.4814 73.485C32.7116 75.5424 33.8713 77.7595 34.1213 79.9367C34.2553 81.043 34.151 82.1651 33.8155 83.2278C33.4801 84.2906 32.9211 85.2695 32.176 86.0988C31.431 86.9282 30.5171 87.5889 29.4956 88.0368C28.4742 88.4846 27.3687 88.7091 26.2532 88.6953C25.9533 80.8655 25.6567 73.0389 25.3635 65.2157C25.3035 63.5479 25.2735 61.7901 26.1833 60.4419Z" fill="#494B6B"/>
<path d="M9.9974 79.8768C11.2571 78.7982 12.8267 77.8793 13.3566 76.2914C14.1164 74.0043 12.3568 71.2979 13.5465 69.1806C14.6762 67.283 17.8854 67.4428 18.9352 65.5053C19.755 63.9973 18.8752 62.6291 19.1951 61.2908C19.4832 60.5773 19.9887 59.9725 20.6401 59.5621C21.2914 59.1516 22.0555 58.9563 22.8242 59.0037L33.2016 74.6835C34.0914 79.8967 35.0411 82.6731 33.8614 85.6693C33.1058 87.2684 32.5194 88.942 32.1118 90.6628C31.919 91.5312 31.962 92.4353 32.2362 93.2816C32.5103 94.1279 33.0059 94.8857 33.6714 95.4766C27.2731 95.8561 21.3446 92.4006 15.8759 89.0549L10.0874 85.5195C9.45086 85.204 8.90417 84.7335 8.49778 84.1512C7.69798 82.763 8.77771 80.9654 9.9974 79.8768Z" fill="#494B6B"/>
<path d="M15.7754 87.5368C15.9959 87.6111 16.2239 87.6613 16.4552 87.6866C17.1226 87.767 17.7987 87.7333 18.4547 87.5868C19.4999 87.3581 20.4678 86.8626 21.264 86.1486C22.3124 85.1783 22.9849 83.8699 23.1635 82.4534C23.2738 81.632 23.2194 80.7968 23.0036 79.9966C22.7308 79.1511 22.3476 78.3451 21.8639 77.5997C21.3497 76.8336 20.9522 75.9955 20.6842 75.1129C20.5484 74.6617 20.5138 74.1861 20.5829 73.7201C20.652 73.254 20.8231 72.8089 21.0841 72.4164C21.6839 71.6474 22.7636 71.4776 23.7734 71.0981C24.3239 70.9124 24.805 70.5641 25.153 70.0994C25.4827 69.6105 25.6506 69.0307 25.6329 68.4415C25.5178 67.3074 25.2935 66.187 24.9631 65.0958C24.8429 64.5599 24.8429 64.0039 24.9631 63.4679C25.112 62.9427 25.4457 62.4888 25.9029 62.1896C26.8967 61.6423 28.0175 61.3667 29.152 61.3906C30.316 61.3715 31.4569 61.0625 32.4712 60.4918C33.4387 59.9129 34.2328 59.0851 34.7706 58.0949C35.2278 57.1334 35.5282 56.1051 35.6604 55.0488C35.7898 54.0753 36.021 53.1179 36.3502 52.1925C36.696 51.3447 37.2212 50.5816 37.8898 49.9554C39.0059 48.9228 40.4207 48.2699 41.9312 48.0905C43.4418 47.9111 44.9704 48.2143 46.2977 48.9567C47.2139 49.444 48.0337 50.0938 48.7171 50.8742C49.2936 51.5507 49.7901 52.2913 50.1968 53.0814C50.1968 53.0814 50.1968 53.0215 50.1968 52.9216C50.1968 52.8217 50.0868 52.6419 49.9768 52.4422C49.6784 51.8474 49.3092 51.2907 48.8771 50.7843C48.1993 49.9728 47.3753 49.2953 46.4477 48.7869C45.2168 48.0764 43.8091 47.73 42.3887 47.7882C40.653 47.9032 39.009 48.608 37.7299 49.7856C37.0241 50.44 36.4652 51.2366 36.0903 52.1226C35.7508 53.0668 35.5129 54.0444 35.3805 55.0388C35.241 56.0559 34.9478 57.046 34.5107 57.975C34.0039 58.9093 33.25 59.6866 32.3312 60.2221C31.3717 60.77 30.2872 61.0624 29.182 61.0711C27.9796 61.0466 26.7923 61.343 25.7429 61.9299C25.2122 62.2788 24.8253 62.8071 24.6532 63.418C24.5185 64.0097 24.5185 64.624 24.6532 65.2157C24.9707 66.2857 25.1915 67.382 25.313 68.4915C25.3331 69.007 25.1934 69.5162 24.9131 69.9496C24.5958 70.3451 24.1729 70.6428 23.6934 70.8085C23.2135 70.9982 22.6937 71.128 22.1938 71.3278C21.6759 71.509 21.2165 71.8264 20.8641 72.2466C20.5672 72.6796 20.3733 73.1746 20.297 73.6938C20.2208 74.2131 20.2643 74.7428 20.4242 75.2427C20.7033 76.1549 21.1179 77.0201 21.6539 77.8094C22.1268 78.5296 22.5032 79.3086 22.7736 80.1264C23.0639 81.1645 23.0686 82.2616 22.7871 83.3022C22.5056 84.3427 21.9483 85.2881 21.174 86.0388C20.4126 86.7456 19.4837 87.2474 18.4747 87.4969C17.5871 87.6945 16.6684 87.7081 15.7754 87.5368Z" fill="#455A64"/>
<path d="M140.105 84.1013C141.005 85.4396 138.205 87.0375 138.205 87.0375C138.945 87.5169 138.525 90.0336 137.346 90.2533C137.885 90.5829 138.255 90.5829 138.545 91.1522C138.7 91.4321 138.786 91.7451 138.794 92.0649C138.803 92.3847 138.735 92.7019 138.595 92.9898C138.447 93.2748 138.209 93.5033 137.919 93.6404C137.628 93.7775 137.3 93.8156 136.986 93.7488C137.332 94.1017 137.563 94.5511 137.649 95.0377C137.734 95.5244 137.67 96.0256 137.466 96.4753C137.204 97.0124 136.751 97.4327 136.196 97.6538C135.922 97.7622 135.631 97.823 135.336 97.8335C135.223 97.8486 135.109 97.8486 134.996 97.8335C134.947 97.813 134.903 97.7824 134.866 97.7437C134.686 97.5938 134.536 97.4041 134.336 97.2643L134.116 97.1045C133.761 96.8846 133.378 96.7133 132.977 96.5951C132.783 96.5593 132.593 96.5092 132.407 96.4453C132.302 96.3716 132.202 96.2915 132.107 96.2056C131.394 95.7995 130.604 95.5477 129.787 95.4666C128.894 95.3798 128.046 95.0325 127.348 94.4679C127.012 94.173 126.804 93.7586 126.768 93.3129C126.733 92.8672 126.873 92.4253 127.158 92.081C126.875 92.0541 126.612 91.9243 126.418 91.7163C126.225 91.5082 126.114 91.2364 126.108 90.9524C126.111 90.668 126.187 90.3891 126.329 90.1425C126.471 89.8959 126.674 89.6899 126.918 89.5442C127.408 89.2541 127.968 89.1022 128.538 89.1048C128.214 89.0221 127.935 88.8158 127.761 88.5302C127.587 88.2446 127.532 87.9023 127.608 87.5768C127.698 87.2561 127.867 86.9629 128.099 86.7239C128.331 86.485 128.619 86.3078 128.938 86.2086C129.586 86.0177 130.269 85.9733 130.937 86.0787C131.607 86.1486 134.366 86.4083 135.036 86.3783L135.526 84.5507L135.586 84.321C136.776 84.0414 137.116 83.8916 138.185 83.7118C138.965 83.572 139.735 83.542 140.105 84.1013Z" fill="#FFAA8F"/>
<path d="M135.336 100.25C135.301 100.525 135.209 100.789 135.066 101.027C134.923 101.264 134.732 101.469 134.506 101.629C133.719 101.855 132.881 101.834 132.107 101.569L132.357 99.6811L132.427 99.2217C132.257 98.8223 131.427 98.7224 131.107 98.4927C130.797 98.2732 130.586 97.9418 130.517 97.5689C130.447 97.196 130.527 96.8109 130.737 96.4953C130.962 96.189 131.269 95.953 131.623 95.8151C131.977 95.6771 132.364 95.6428 132.737 95.7163C133.479 95.8771 134.134 96.3078 134.576 96.9247C134.926 97.3967 135.173 97.9358 135.304 98.5082C135.435 99.0805 135.446 99.6737 135.336 100.25Z" fill="#FFAA8F"/>
<path d="M137.206 93.7888C133.925 92.8714 130.558 92.2957 127.158 92.071C128.783 92.6085 130.458 92.9832 132.157 93.1895C133.816 93.5566 135.507 93.7573 137.206 93.7888Z" fill="#FBA78D"/>
<path d="M137.495 90.2633C136.065 89.6527 134.546 89.2783 132.996 89.1548C131.47 88.8604 129.906 88.8199 128.367 89.0349C129.873 89.3364 131.395 89.5498 132.926 89.6741C134.436 89.9594 135.962 90.1562 137.495 90.2633Z" fill="#FBA78D"/>
<path d="M137.785 86.8178C136.594 86.3398 135.328 86.0793 134.046 86.0488C132.783 85.8444 131.499 85.8075 130.227 85.9389C131.445 86.3185 132.71 86.5269 133.986 86.5581C135.241 86.7633 136.513 86.8502 137.785 86.8178Z" fill="#FBA78D"/>
<path d="M135.226 99.052C135.286 99.052 135.446 98.7324 135.326 98.1631C135.136 97.4394 134.669 96.819 134.026 96.4353C133.415 96.0473 132.737 95.7763 132.027 95.6364C131.397 95.5665 131.117 95.966 131.197 95.9959C131.277 96.0259 131.507 95.8561 131.957 95.9959C132.568 96.2317 133.157 96.5225 133.716 96.8648C134.266 97.1886 134.702 97.6732 134.966 98.253C135.156 98.7224 135.146 99.042 135.226 99.052Z" fill="#FBA78D"/>
<path d="M29.9925 97.454C24.2139 102.717 20.3149 104.705 19.5651 110.128C19.0601 114.918 19.5745 119.761 21.0747 124.339C24.2039 133.597 28.2029 144.483 30.6323 149.716C31.5042 151.611 31.6605 153.758 31.0722 155.759C29.7125 160.303 26.0735 168.962 26.6333 186.549L80.7197 182.774C80.7197 182.774 71.3121 161.132 69.2426 150.336C68.9927 149.027 70.4323 133.438 69.7425 130.361C67.1131 118.886 54.6763 107.521 50.5873 101.399L50.1174 99.4015L30.3624 96.1058L29.9925 97.454Z" fill="url(#paint27_linear_470_2460)"/>
<g opacity="0.3">
<path opacity="0.3" d="M29.8027 144.074C29.8027 144.074 36.5111 158.056 39.8502 159.364C43.1894 160.672 70.9824 156.887 70.9824 156.887L69.2928 150.336L29.8027 144.074Z" fill="black"/>
</g>
<path d="M54.0762 105.883C54.4132 106.112 54.722 106.38 54.9959 106.682C55.5558 107.231 56.3356 108.06 57.2354 109.139C59.0649 111.276 61.2344 114.492 63.7337 117.938C65.9387 120.871 67.6942 124.115 68.9424 127.565C69.3029 128.619 69.5869 129.697 69.7922 130.791C69.8846 131.187 69.9283 131.593 69.9222 131.999C69.8322 131.999 69.5823 130.292 68.5925 127.695C67.2599 124.323 65.4848 121.142 63.3139 118.237C60.8045 114.782 58.685 111.556 56.9455 109.369C56.0957 108.27 55.3659 107.371 54.846 106.822C54.5585 106.536 54.3006 106.221 54.0762 105.883Z" fill="url(#paint28_linear_470_2460)"/>
<path d="M22.9943 103.636C22.9943 103.636 11.2972 111.466 18.3354 125.138C24.5939 137.293 34.7513 152.213 38.8503 154.56C42.9493 156.907 87.1781 147.369 87.1781 147.369L85.7985 130.282L47.8081 138.271L36.8908 117.888C36.8908 117.888 32.5919 100.69 22.9943 103.636Z" fill="url(#paint29_linear_470_2460)"/>
<path d="M85.9785 132.689C85.9785 132.689 86.4184 130.861 89.6776 128.694C91.6448 127.457 93.2624 125.738 94.3764 123.7C95.0262 122.701 95.936 120.944 96.8458 121.443C97.7556 121.942 97.5956 123.331 96.9758 125.518C96.3559 127.705 94.5064 129.513 95.2262 130.352C95.946 131.19 105.963 130.112 108.873 129.523C111.782 128.933 113.152 129.193 112.732 130.631C112.312 132.069 103.234 132.409 102.584 133.767C101.935 135.125 102.974 134.826 103.974 135.205C104.974 135.585 114.771 134.526 114.971 136.304C115.171 138.082 113.971 138.201 113.971 138.201C113.971 138.201 114.271 140.309 112.682 140.908C111.092 141.507 101.155 140.309 101.485 141.557C101.815 142.805 109.483 143.435 109.723 145.392C109.962 147.35 108.053 146.601 106.053 146.181C102.965 145.409 99.8129 144.918 96.6358 144.713C93.3167 144.663 86.9583 144.124 86.9583 144.124L85.9785 132.689Z" fill="#FFAA8F"/>
<path d="M114.102 138.412C111.896 138.585 109.68 138.585 107.474 138.412C105.26 138.394 103.051 138.206 100.865 137.852C103.071 137.679 105.288 137.679 107.494 137.852C109.707 137.87 111.917 138.057 114.102 138.412Z" fill="#FF725E"/>
<path d="M44.9881 144.074C44.921 142.981 45.2085 141.895 45.8079 140.978C46.2524 139.976 47.0148 139.147 47.9773 138.621C48.0773 138.731 47.0775 139.729 46.2677 141.227C45.4579 142.725 45.178 144.094 44.9881 144.074Z" fill="url(#paint30_linear_470_2460)"/>
<path d="M34.591 113.933C34.6943 114.061 34.7911 114.194 34.8809 114.332C35.0608 114.602 35.3108 115.021 35.6307 115.561C36.2805 116.649 37.2003 118.277 38.37 120.374C40.6894 124.569 44.0186 130.631 47.9776 138.191L47.7576 138.092L85.7481 130.032L86.038 129.972V130.262C86.4879 135.745 86.9478 141.427 87.4177 147.24V147.32V147.549L87.1977 147.599C75.9006 150.016 65.1133 152.133 55.2058 153.691C52.7364 154.081 50.317 154.42 47.9676 154.69C45.6761 154.98 43.3691 155.13 41.0593 155.139C40.4956 155.124 39.934 155.064 39.3797 154.96C39.0926 154.898 38.8185 154.786 38.5699 154.63L37.9901 154.181C37.5523 153.865 37.1441 153.511 36.7704 153.122C36.3844 152.765 36.0205 152.385 35.6807 151.984C34.9908 151.215 34.321 150.446 33.7312 149.647C33.1413 148.848 32.5415 148.089 31.9916 147.32C27.6227 141.138 24.6035 135.804 22.494 132.149C21.4942 130.312 20.6644 128.873 20.1446 127.885C19.8946 127.415 19.7047 127.036 19.5647 126.766C19.4937 126.642 19.4335 126.511 19.3848 126.377C19.4644 126.493 19.5378 126.613 19.6047 126.736L20.2346 127.835L22.6739 132.049C24.8234 135.675 27.8926 140.978 32.2915 147.11C32.8414 147.869 33.4112 148.648 34.0311 149.407C34.6509 150.166 35.2908 150.955 35.9706 151.714C36.31 152.103 36.6704 152.473 37.0503 152.822C37.4147 153.192 37.8131 153.526 38.24 153.821L38.8699 154.291C38.968 154.365 39.0802 154.42 39.1998 154.45C39.3141 154.503 39.4352 154.54 39.5597 154.56C40.0877 154.658 40.6225 154.715 41.1593 154.73C43.443 154.709 45.7234 154.549 47.9876 154.251C50.337 153.971 52.7464 153.621 55.2158 153.252C65.0733 151.674 75.8606 149.537 87.1377 147.12L86.9378 147.399V147.31C86.4679 141.477 86.008 135.794 85.5681 130.332L85.8781 130.561L47.8876 138.501H47.7476L47.6777 138.361C43.7786 130.801 40.4895 124.699 38.23 120.474C37.0903 118.387 36.2305 116.749 35.5907 115.621L34.8809 114.362L34.591 113.933Z" fill="url(#paint31_linear_470_2460)"/>
</g>
<defs>
<linearGradient id="paint0_linear_470_2460" x1="441.723" y1="288.776" x2="441.697" y2="320.756" gradientUnits="userSpaceOnUse">
<stop stop-color="#8082AB"/>
<stop offset="1" stop-color="#494B6B"/>
</linearGradient>
<linearGradient id="paint1_linear_470_2460" x1="360.82" y1="290.066" x2="360.757" y2="337.384" gradientUnits="userSpaceOnUse">
<stop stop-color="#8082AB"/>
<stop offset="1" stop-color="#494B6B"/>
</linearGradient>
<linearGradient id="paint2_linear_470_2460" x1="457.471" y1="109.119" x2="457.471" y2="148.843" gradientUnits="userSpaceOnUse">
<stop stop-color="#FFD93C"/>
<stop offset="1" stop-color="#FEF237"/>
</linearGradient>
<linearGradient id="paint3_linear_470_2460" x1="426.193" y1="0" x2="426.193" y2="162.869" gradientUnits="userSpaceOnUse">
<stop stop-color="#FFD93C"/>
<stop offset="1" stop-color="#FEF237"/>
</linearGradient>
<linearGradient id="paint4_linear_470_2460" x1="431.695" y1="183.859" x2="431.414" y2="301.061" gradientUnits="userSpaceOnUse">
<stop stop-color="#8082AB"/>
<stop offset="1" stop-color="#494B6B"/>
</linearGradient>
<linearGradient id="paint5_linear_470_2460" x1="384.578" y1="174.471" x2="384.305" y2="315.542" gradientUnits="userSpaceOnUse">
<stop stop-color="#8082AB"/>
<stop offset="1" stop-color="#494B6B"/>
</linearGradient>
<linearGradient id="paint6_linear_470_2460" x1="397.186" y1="89.5642" x2="397.186" y2="190.364" gradientUnits="userSpaceOnUse">
<stop stop-color="#9BCDFC"/>
<stop offset="1" stop-color="#7FACEC"/>
</linearGradient>
<linearGradient id="paint7_linear_470_2460" x1="396.286" y1="66.8436" x2="396.286" y2="117.139" gradientUnits="userSpaceOnUse">
<stop stop-color="#9BCDFC"/>
<stop offset="1" stop-color="#7FACEC"/>
</linearGradient>
<linearGradient id="paint8_linear_470_2460" x1="396.343" y1="66.494" x2="396.343" y2="117.109" gradientUnits="userSpaceOnUse">
<stop stop-color="#9BCDFC"/>
<stop offset="1" stop-color="#7FACEC"/>
</linearGradient>
<linearGradient id="paint9_linear_470_2460" x1="392.572" y1="100.35" x2="392.572" y2="111.516" gradientUnits="userSpaceOnUse">
<stop stop-color="#9BCDFC"/>
<stop offset="1" stop-color="#7FACEC"/>
</linearGradient>
<linearGradient id="paint10_linear_470_2460" x1="392.572" y1="100.34" x2="392.572" y2="111.573" gradientUnits="userSpaceOnUse">
<stop stop-color="#9BCDFC"/>
<stop offset="1" stop-color="#7FACEC"/>
</linearGradient>
<linearGradient id="paint11_linear_470_2460" x1="393.256" y1="108.05" x2="393.256" y2="116.679" gradientUnits="userSpaceOnUse">
<stop stop-color="#9BCDFC"/>
<stop offset="1" stop-color="#7FACEC"/>
</linearGradient>
<linearGradient id="paint12_linear_470_2460" x1="397.185" y1="89.5642" x2="397.185" y2="111.873" gradientUnits="userSpaceOnUse">
<stop stop-color="#9BCDFC"/>
<stop offset="1" stop-color="#7FACEC"/>
</linearGradient>
<linearGradient id="paint13_linear_470_2460" x1="272.893" y1="279.726" x2="272.867" y2="312.057" gradientUnits="userSpaceOnUse">
<stop stop-color="#8082AB"/>
<stop offset="1" stop-color="#494B6B"/>
</linearGradient>
<linearGradient id="paint14_linear_470_2460" x1="205.159" y1="301.408" x2="205.075" y2="346.989" gradientUnits="userSpaceOnUse">
<stop stop-color="#8082AB"/>
<stop offset="1" stop-color="#494B6B"/>
</linearGradient>
<linearGradient id="paint15_linear_470_2460" x1="238.32" y1="160.47" x2="238.068" y2="317.29" gradientUnits="userSpaceOnUse">
<stop stop-color="#8082AB"/>
<stop offset="1" stop-color="#494B6B"/>
</linearGradient>
<linearGradient id="paint16_linear_470_2460" x1="198.138" y1="95.6164" x2="198.138" y2="177.583" gradientUnits="userSpaceOnUse">
<stop stop-color="#9BCDFC"/>
<stop offset="1" stop-color="#7FACEC"/>
</linearGradient>
<linearGradient id="paint17_linear_470_2460" x1="226.253" y1="86.4183" x2="226.253" y2="180.627" gradientUnits="userSpaceOnUse">
<stop stop-color="#9BCDFC"/>
<stop offset="1" stop-color="#7FACEC"/>
</linearGradient>
<linearGradient id="paint18_linear_470_2460" x1="268.222" y1="89.1178" x2="268.222" y2="163.948" gradientUnits="userSpaceOnUse">
<stop stop-color="#9BCDFC"/>
<stop offset="1" stop-color="#7FACEC"/>
</linearGradient>
<linearGradient id="paint19_linear_470_2460" x1="208.832" y1="112.904" x2="208.832" y2="164.417" gradientUnits="userSpaceOnUse">
<stop stop-color="#9BCDFC"/>
<stop offset="1" stop-color="#7FACEC"/>
</linearGradient>
<linearGradient id="paint20_linear_470_2460" x1="248.37" y1="101.968" x2="248.37" y2="138.801" gradientUnits="userSpaceOnUse">
<stop stop-color="#9BCDFC"/>
<stop offset="1" stop-color="#7FACEC"/>
</linearGradient>
<linearGradient id="paint21_linear_470_2460" x1="266.504" y1="32.7189" x2="266.504" y2="189.894" gradientUnits="userSpaceOnUse">
<stop stop-color="#FFD93C"/>
<stop offset="1" stop-color="#FEF237"/>
</linearGradient>
<linearGradient id="paint22_linear_470_2460" x1="93.4261" y1="289.146" x2="93.4003" y2="321.055" gradientUnits="userSpaceOnUse">
<stop stop-color="#8082AB"/>
<stop offset="1" stop-color="#494B6B"/>
</linearGradient>
<linearGradient id="paint23_linear_470_2460" x1="28.1769" y1="284.841" x2="28.119" y2="329.954" gradientUnits="userSpaceOnUse">
<stop stop-color="#8082AB"/>
<stop offset="1" stop-color="#494B6B"/>
</linearGradient>
<linearGradient id="paint24_linear_470_2460" x1="42.4264" y1="165.429" x2="42.062" y2="312.725" gradientUnits="userSpaceOnUse">
<stop stop-color="#8082AB"/>
<stop offset="1" stop-color="#494B6B"/>
</linearGradient>
<linearGradient id="paint25_linear_470_2460" x1="79.9373" y1="177.305" x2="79.6843" y2="308.421" gradientUnits="userSpaceOnUse">
<stop stop-color="#8082AB"/>
<stop offset="1" stop-color="#494B6B"/>
</linearGradient>
<linearGradient id="paint26_linear_470_2460" x1="73.9464" y1="1.99741" x2="73.9464" y2="163.858" gradientUnits="userSpaceOnUse">
<stop stop-color="#FFD93C"/>
<stop offset="1" stop-color="#FEF237"/>
</linearGradient>
<linearGradient id="paint27_linear_470_2460" x1="50.0483" y1="96.1058" x2="50.0483" y2="186.549" gradientUnits="userSpaceOnUse">
<stop stop-color="#9BCDFC"/>
<stop offset="1" stop-color="#7FACEC"/>
</linearGradient>
<linearGradient id="paint28_linear_470_2460" x1="61.9995" y1="105.883" x2="61.9995" y2="131.999" gradientUnits="userSpaceOnUse">
<stop stop-color="#9BCDFC"/>
<stop offset="1" stop-color="#7FACEC"/>
</linearGradient>
<linearGradient id="paint29_linear_470_2460" x1="51.6301" y1="103.297" x2="51.6301" y2="154.932" gradientUnits="userSpaceOnUse">
<stop stop-color="#9BCDFC"/>
<stop offset="1" stop-color="#7FACEC"/>
</linearGradient>
<linearGradient id="paint30_linear_470_2460" x1="46.4814" y1="138.621" x2="46.4814" y2="144.074" gradientUnits="userSpaceOnUse">
<stop stop-color="#9BCDFC"/>
<stop offset="1" stop-color="#7FACEC"/>
</linearGradient>
<linearGradient id="paint31_linear_470_2460" x1="53.4012" y1="113.933" x2="53.4012" y2="155.139" gradientUnits="userSpaceOnUse">
<stop stop-color="#9BCDFC"/>
<stop offset="1" stop-color="#7FACEC"/>
</linearGradient>
<clipPath id="clip0_470_2460">
<rect width="513" height="347" fill="white"/>
</clipPath>
</defs>
</svg>
