<svg width="20" height="20" viewBox="0 0 20 20" fill="none" xmlns="http://www.w3.org/2000/svg">
<path d="M16.104 7.89062C16.104 7.89062 15.6515 13.5031 15.389 15.8673C15.264 16.9965 14.5665 17.6581 13.424 17.679C11.2499 17.7181 9.0732 17.7206 6.89986 17.6748C5.8007 17.6523 5.11486 16.9823 4.99236 15.8731C4.7282 13.4881 4.2782 7.89062 4.2782 7.89062" stroke="#E53935" stroke-width="1.5" stroke-linecap="round" stroke-linejoin="round"/>
<path d="M17.2568 5.19987H3.12512" stroke="#E53935" stroke-width="1.5" stroke-linecap="round" stroke-linejoin="round"/>
<path d="M14.5337 5.19998C13.8796 5.19998 13.3162 4.73748 13.1879 4.09665L12.9854 3.08331C12.8604 2.61581 12.4371 2.29248 11.9546 2.29248H8.42707C7.94457 2.29248 7.52123 2.61581 7.39623 3.08331L7.19373 4.09665C7.0654 4.73748 6.50207 5.19998 5.8479 5.19998" stroke="#E53935" stroke-width="1.5" stroke-linecap="round" stroke-linejoin="round"/>
</svg>
