<svg width="400" height="362" viewBox="0 0 400 362" fill="none" xmlns="http://www.w3.org/2000/svg">
<g clip-path="url(#clip0_2712_54151)">
<path d="M390.791 205.617H251.613V1.32031H390.791V205.617ZM255.357 201.873H387.046V5.0644H255.357V201.873Z" fill="#EBEBEB"/>
<path d="M323.021 6.03711H319.277V203.735H323.021V6.03711Z" fill="#EBEBEB"/>
<path d="M394.188 8.89258H248.215V14.1062H394.188V8.89258Z" fill="#EBEBEB"/>
<path d="M394.188 14.752H248.215V19.9656H394.188V14.752Z" fill="#EBEBEB"/>
<path d="M394.188 20.6211H248.215V25.8347H394.188V20.6211Z" fill="#EBEBEB"/>
<path d="M394.188 26.4902H248.215V31.7039H394.188V26.4902Z" fill="#EBEBEB"/>
<path d="M394.188 32.3496H248.215V37.5633H394.188V32.3496Z" fill="#EBEBEB"/>
<path d="M394.188 38.2188H248.215V43.4324H394.188V38.2188Z" fill="#EBEBEB"/>
<path d="M394.188 44.0781H248.215V49.2918H394.188V44.0781Z" fill="#EBEBEB"/>
<path d="M394.188 49.9473H248.215V55.1609H394.188V49.9473Z" fill="#EBEBEB"/>
<path d="M394.188 55.8145H248.215V61.0281H394.188V55.8145Z" fill="#EBEBEB"/>
<path d="M383.067 7.83398H382.131V128.01H383.067V7.83398Z" fill="url(#paint0_linear_2712_54151)"/>
<path d="M384.256 132.362H380.934L381.767 127.588H383.423L384.256 132.362Z" fill="url(#paint1_linear_2712_54151)"/>
<path d="M386.438 7.83398H385.502V172.321H386.438V7.83398Z" fill="url(#paint2_linear_2712_54151)"/>
<path d="M387.635 175.832H384.312L385.146 171.059H386.802L387.635 175.832Z" fill="url(#paint3_linear_2712_54151)"/>
<path d="M399.991 0.589844H242.402V11.4945H399.991V0.589844Z" fill="#DBDBDB"/>
<path d="M23.6339 107.652C23.6339 106.866 23.7369 104.778 23.7369 103.899C23.7369 100.089 22.3797 98.3666 18.8321 98.2637C17.166 98.1607 16.1738 97.1685 16.1738 95.7645C16.1738 94.3511 17.166 93.3683 18.8321 93.2559C22.3797 93.0968 23.7369 91.4307 23.7369 87.5649C23.7369 86.6757 23.6339 84.5884 23.6339 83.8115C23.6339 78.7476 25.7774 75.5183 33.8553 73.7399C35.4746 73.3748 36.7289 74.367 36.7289 75.8834C36.7289 77.1376 35.8958 77.8116 35.2687 78.0269C30.2048 79.59 29.4747 81.2093 29.4747 84.7569C29.4747 85.8052 29.5777 87.5181 29.5777 88.6133C29.5777 92.685 27.5933 94.6693 24.1487 95.7645C27.6495 96.9158 29.5777 98.844 29.5777 102.916C29.5777 104.011 29.4747 105.733 29.4747 106.772C29.4747 110.32 30.2048 111.939 35.2687 113.502C35.8958 113.708 36.7289 114.391 36.7289 115.646C36.7289 117.162 35.4746 118.154 33.8553 117.789C25.7774 116.001 23.6339 112.772 23.6339 107.652Z" fill="#EBEBEB"/>
<path d="M54.2043 83.8107C54.2043 84.5969 54.1014 86.6843 54.1014 87.5641C54.1014 91.4205 55.5054 93.096 59.0623 93.2551C60.6816 93.3581 61.6738 94.3503 61.6738 95.7637C61.6738 97.1677 60.6816 98.1599 59.0623 98.2629C55.5148 98.3658 54.1014 100.088 54.1014 103.898C54.1014 104.787 54.2043 106.874 54.2043 107.651C54.2043 112.762 52.0608 116 43.983 117.77C42.3636 118.135 41.1094 117.142 41.1094 115.626C41.1094 114.372 41.9424 113.698 42.6257 113.483C47.6335 111.919 48.3636 110.3 48.3636 106.753C48.3636 105.704 48.2606 103.991 48.2606 102.896C48.2606 98.8245 50.245 96.8401 53.6895 95.745C50.1888 94.5936 48.2606 92.6654 48.2606 88.5937C48.2606 87.4986 48.3636 85.7763 48.3636 84.7373C48.3636 81.1898 47.6335 79.5705 42.6257 78.0073C41.9518 77.8014 41.1094 77.1181 41.1094 75.8638C41.1094 74.3475 42.3636 73.3553 43.983 73.7203C52.0702 75.5175 54.2043 78.7468 54.2043 83.8107Z" fill="#EBEBEB"/>
<path d="M161.791 34.8294C163.008 36.093 163.008 37.9838 161.791 39.2006C161.154 39.7809 160.434 40.0711 159.657 40.0711C158.833 40.0711 158.056 39.7809 157.42 39.2006L143.772 25.3662C143.623 25.3194 143.576 25.2164 143.529 25.076C143.482 25.0292 143.379 24.9824 143.379 24.9824C143.286 24.8326 143.286 24.739 143.229 24.5986C143.136 24.5518 143.08 24.4489 143.08 24.4021C143.033 24.3085 143.033 24.1587 142.986 24.1119C142.986 23.9621 142.893 23.9153 142.893 23.8685C142.893 23.7188 142.893 23.6252 142.893 23.5316C142.893 23.438 142.846 23.3818 142.846 23.2414C142.846 23.1946 142.893 23.0448 142.893 22.998C142.893 22.9044 142.893 22.7547 142.893 22.6611C142.893 22.5675 142.986 22.5113 142.986 22.4645C143.033 22.3147 143.033 22.2211 143.08 22.0807C143.08 22.0339 143.127 22.0339 143.127 21.9871C143.22 21.8374 143.276 21.6502 143.37 21.5472C143.37 21.5472 143.37 21.4536 143.463 21.4536C143.51 21.36 143.613 21.2102 143.754 21.1166L157.401 7.27285C158.618 6.11218 160.602 6.11218 161.772 7.27285C162.989 8.48967 162.989 10.4272 161.772 11.6441L150.259 23.2508L161.791 34.8294Z" fill="#EBEBEB"/>
<path d="M174.175 36.3843L186.071 8.06965C186.652 6.71242 188.206 6.07592 189.619 6.66562C190.929 7.19915 191.557 8.79975 190.976 10.1102L179.079 38.4717C178.639 39.4919 177.619 40.0723 176.599 40.0723C176.309 40.0723 175.916 40.0255 175.625 39.8757C174.221 39.3515 173.585 37.7509 174.175 36.3843Z" fill="#EBEBEB"/>
<path d="M214.479 24.9738C214.479 24.9738 214.479 25.0206 214.432 25.0206C214.338 25.1142 214.236 25.2639 214.095 25.3575L200.448 39.2013C199.868 39.7817 199.044 40.0718 198.267 40.0718C197.443 40.0718 196.713 39.7817 196.077 39.2013C194.86 37.9845 194.86 36.0937 196.077 34.8301L207.59 23.2234L196.077 11.6167C194.86 10.3999 194.86 8.46233 196.077 7.2455C197.237 6.08483 199.231 6.08483 200.448 7.2455L214.095 21.0893C214.245 21.1829 214.338 21.3326 214.432 21.4262C214.479 21.4262 214.479 21.5199 214.479 21.5199C214.573 21.7164 214.675 21.81 214.722 21.9598C214.722 22.0066 214.769 22.0066 214.769 22.0534C214.816 22.2031 214.816 22.2968 214.919 22.4933C214.919 22.5401 214.966 22.5401 214.966 22.6431C214.966 22.7367 214.966 22.8864 214.966 22.98C214.966 23.0268 215.012 23.1766 215.012 23.2234C215.012 23.2702 214.966 23.42 214.966 23.4668C214.966 23.6165 214.966 23.7101 214.966 23.8505C214.966 23.8973 214.919 23.8973 214.919 23.9441C214.825 24.1407 214.825 24.2811 214.769 24.3841C214.769 24.4309 214.722 24.4309 214.722 24.5338C214.675 24.6368 214.573 24.7772 214.479 24.9738Z" fill="#EBEBEB"/>
<path d="M195.873 361.483C300.059 361.483 384.519 354.753 384.519 346.45C384.519 338.148 300.059 331.418 195.873 331.418C91.6863 331.418 7.22656 338.148 7.22656 346.45C7.22656 354.753 91.6863 361.483 195.873 361.483Z" fill="#EBEBEB"/>
<path d="M373.754 328.264H260.383L282.988 196.771H367.763L373.754 328.264Z" fill="#DBDBDB"/>
<path d="M373.754 328.264H363.813L358.234 196.771H367.763L373.754 328.264Z" fill="#A6A6A6"/>
<path d="M0 328.263L48.9634 328.038L97.9361 327.954L195.872 327.795L293.808 327.954L342.772 328.029L391.744 328.263L342.772 328.488L293.808 328.572L195.872 328.731L97.9361 328.572L48.9634 328.488L0 328.263Z" fill="#263238"/>
<path d="M106.416 0.589844H13.3945V59.9337H106.416V0.589844Z" fill="white"/>
<path d="M107.006 60.5139H12.8145V0H107.016V60.5139H107.006ZM13.9845 59.3438H105.827V1.17939H13.9845V59.3438Z" fill="#EBEBEB"/>
<path d="M106.416 0.589844H13.3945V11.8128H106.416V0.589844Z" fill="url(#paint4_linear_2712_54151)"/>
<path d="M107.006 12.4023H12.8145V0H107.016V12.4023H107.006ZM13.9845 11.2229H105.827V1.17939H13.9845V11.2229Z" fill="#EBEBEB"/>
<path d="M23.9348 6.27991C23.9348 7.84307 22.6712 9.1067 21.108 9.1067C19.5449 9.1067 18.2812 7.84307 18.2812 6.27991C18.2812 4.71676 19.5449 3.45313 21.108 3.45313C22.6712 3.45312 23.9348 4.71676 23.9348 6.27991Z" fill="#A6A6A6"/>
<path d="M35.4661 6.27991C35.4661 7.84307 34.2024 9.1067 32.6393 9.1067C31.0761 9.1067 29.8125 7.84307 29.8125 6.27991C29.8125 4.71676 31.0761 3.45312 32.6393 3.45312C34.2024 3.45312 35.4661 4.71676 35.4661 6.27991Z" fill="#EBEBEB"/>
<path d="M46.9993 6.27991C46.9993 7.84307 45.7357 9.1067 44.1725 9.1067C42.6093 9.1067 41.3457 7.84307 41.3457 6.27991C41.3457 4.71676 42.6093 3.45312 44.1725 3.45312C45.7357 3.45312 46.9993 4.71676 46.9993 6.27991Z" fill="white"/>
<path d="M29.457 33.9971C29.4851 27.81 34.68 22.7742 40.9233 22.7461C43.6752 22.7461 46.1744 23.654 48.14 25.1798C48.8889 25.8069 49.0105 26.902 48.4489 27.6789C47.8218 28.4558 46.6705 28.5869 45.9498 28.0253C44.5738 26.902 42.8515 26.303 40.9139 26.303C38.7611 26.303 36.758 27.1735 35.2885 28.5494C33.8844 29.9909 33.0046 31.863 33.0046 33.9877C33.0046 36.1125 33.8751 38.0501 35.2885 39.426C36.758 40.802 38.7611 41.6725 40.9139 41.6725C42.8515 41.6725 44.5364 41.0828 45.9498 39.9502C46.6705 39.4167 47.8218 39.5477 48.4489 40.2965C49.0105 41.0734 48.8889 42.206 48.14 42.7957C46.1744 44.3308 43.6752 45.2294 40.9233 45.2294C34.6707 45.2481 29.4851 40.2216 29.457 33.9971Z" fill="#EBEBEB"/>
<path d="M53.8309 39.8098C54.3925 39.1265 55.4221 39.0329 56.1148 39.5945C57.4908 40.7177 59.8683 42.0282 62.0866 42.0001C63.6498 42.0001 65.0538 41.5321 65.9898 40.8394C66.9259 40.1561 67.3377 39.3699 67.3377 38.593C67.3377 38.1905 67.2441 37.9097 67.0569 37.5914C66.8697 37.2825 66.5889 36.9643 66.1209 36.6554C65.2129 36.0657 63.6872 35.5322 61.8433 35.1858H61.7777C60.3082 34.905 58.9322 34.5306 57.7435 33.969C56.5547 33.4074 55.5251 32.6211 54.8418 31.5353C54.3738 30.7865 54.1211 29.9067 54.1211 28.9706C54.1211 27.0986 55.1788 25.4699 56.6203 24.4029C58.0898 23.3358 59.9993 22.7461 62.0305 22.7461C65.0351 22.7461 67.2535 24.2156 68.8447 25.2453C69.5654 25.7414 69.7807 26.7429 69.2846 27.4636C68.8166 28.2125 67.8151 28.4371 67.0663 27.9317C65.475 26.8646 63.9399 25.9286 62.0305 25.9286C60.6264 25.9286 59.3722 26.3685 58.5297 26.9863C57.6873 27.6134 57.341 28.2967 57.341 28.9519C57.341 29.3263 57.4065 29.5791 57.5563 29.8224C57.7154 30.0752 57.9962 30.356 58.3987 30.6368C59.213 31.1984 60.6171 31.7038 62.3019 32.0127H62.3674C63.9587 32.3216 65.4282 32.7335 66.6825 33.3232C67.9648 33.9503 69.0881 34.7646 69.8088 35.9159C70.2768 36.6648 70.5576 37.6008 70.5576 38.5742C70.5576 40.5773 69.4344 42.2903 67.8712 43.4228C66.3362 44.5461 64.305 45.2013 62.0866 45.2013C58.7076 45.1732 55.8714 43.479 54.0836 42.075C53.391 41.5321 53.2974 40.5024 53.8309 39.8098Z" fill="#EBEBEB"/>
<path d="M74.3668 39.8098C74.9284 39.1265 75.958 39.0329 76.6507 39.5945C78.0267 40.7177 80.4041 42.0282 82.6225 42.0001C84.1857 42.0001 85.5897 41.5321 86.5257 40.8394C87.4618 40.1561 87.8736 39.3699 87.8736 38.593C87.8736 38.1905 87.78 37.9097 87.5928 37.5914C87.4056 37.2825 87.1248 36.9643 86.6568 36.6554C85.7488 36.0657 84.2231 35.5322 82.3792 35.1858H82.3136C80.8441 34.905 79.4681 34.5306 78.2794 33.969C77.0906 33.4074 76.061 32.6211 75.3683 31.5353C74.9003 30.7865 74.6476 29.9067 74.6476 28.9706C74.6476 27.0986 75.7053 25.4699 77.1468 24.4029C78.6163 23.3358 80.5258 22.7461 82.557 22.7461C85.5616 22.7461 87.78 24.2156 89.3713 25.2453C90.092 25.7414 90.3073 26.7429 89.8112 27.4636C89.3432 28.2125 88.3416 28.4371 87.5928 27.9317C86.0016 26.8646 84.4665 25.9286 82.557 25.9286C81.153 25.9286 79.8987 26.3685 79.0563 26.9863C78.2139 27.6134 77.8675 28.2967 77.8675 28.9519C77.8675 29.3263 77.933 29.5791 78.0828 29.8224C78.2419 30.0752 78.5227 30.356 78.9252 30.6368C79.7396 31.1984 81.1436 31.7038 82.8284 32.0127H82.894C84.4852 32.3216 85.9548 32.7335 87.209 33.3232C88.4914 33.9503 89.6146 34.7646 90.3354 35.9159C90.8034 36.6648 91.0842 37.6008 91.0842 38.5742C91.0842 40.5773 89.9609 42.2903 88.3978 43.4228C86.8627 44.5461 84.8315 45.2013 82.6132 45.2013C79.2341 45.1732 76.398 43.479 74.6102 42.075C73.9269 41.5321 73.8333 40.5024 74.3668 39.8098Z" fill="#EBEBEB"/>
<path d="M260.065 170.365H167.043V229.709H260.065V170.365Z" fill="white"/>
<path d="M260.654 230.289H166.453V169.775H260.654V230.289ZM167.633 229.119H259.475V170.955H167.633V229.119Z" fill="#EBEBEB"/>
<path d="M260.065 170.365H167.043V181.588H260.065V170.365Z" fill="url(#paint5_linear_2712_54151)"/>
<path d="M260.654 182.178H166.453V169.785H260.654V182.178ZM167.633 180.999H259.475V170.955H167.633V180.999Z" fill="#EBEBEB"/>
<path d="M177.583 176.055C177.583 177.618 176.32 178.882 174.756 178.882C173.193 178.882 171.93 177.618 171.93 176.055C171.93 174.492 173.193 173.229 174.756 173.229C176.31 173.229 177.583 174.501 177.583 176.055Z" fill="#A6A6A6"/>
<path d="M189.115 176.055C189.115 177.618 187.851 178.882 186.288 178.882C184.725 178.882 183.461 177.618 183.461 176.055C183.461 174.492 184.725 173.229 186.288 173.229C187.851 173.229 189.115 174.501 189.115 176.055Z" fill="#EBEBEB"/>
<path d="M200.648 176.055C200.648 177.618 199.384 178.882 197.821 178.882C196.258 178.882 194.994 177.618 194.994 176.055C194.994 174.492 196.258 173.229 197.821 173.229C199.384 173.229 200.648 174.501 200.648 176.055Z" fill="white"/>
<path d="M184.416 203.772C184.444 197.585 189.639 192.55 195.882 192.521C198.634 192.521 201.133 193.429 203.099 194.955C203.848 195.582 203.97 196.677 203.408 197.454C202.781 198.231 201.629 198.362 200.909 197.801C199.533 196.677 197.82 196.078 195.873 196.078C193.72 196.078 191.717 196.949 190.247 198.325C188.843 199.766 187.964 201.638 187.964 203.763C187.964 205.888 188.834 207.825 190.247 209.201C191.717 210.577 193.72 211.448 195.873 211.448C197.81 211.448 199.495 210.858 200.909 209.726C201.629 209.192 202.781 209.323 203.408 210.072C203.97 210.849 203.848 211.981 203.099 212.571C201.133 214.106 198.625 215.005 195.882 215.005C189.63 215.033 184.444 209.997 184.416 203.772Z" fill="#EBEBEB"/>
<path d="M214.388 205.748H209.951C209.015 205.748 208.229 204.999 208.229 204.026C208.229 203.089 209.015 202.303 209.951 202.303H214.388V197.96C214.388 196.959 215.174 196.182 216.166 196.182C217.139 196.182 217.944 196.959 217.944 197.96V202.303H222.381C223.317 202.303 224.103 203.08 224.103 204.026C224.103 204.999 223.327 205.748 222.381 205.748H217.944V210.091C217.944 211.092 217.13 211.869 216.166 211.869C215.164 211.869 214.388 211.092 214.388 210.091V205.748Z" fill="#EBEBEB"/>
<path d="M233.763 205.748H229.326C228.39 205.748 227.604 204.999 227.604 204.026C227.604 203.089 228.38 202.303 229.326 202.303H233.763V197.96C233.763 196.959 234.539 196.182 235.541 196.182C236.514 196.182 237.319 196.959 237.319 197.96V202.303H241.756C242.692 202.303 243.478 203.08 243.478 204.026C243.478 204.999 242.692 205.748 241.756 205.748H237.319V210.091C237.319 211.092 236.505 211.869 235.541 211.869C234.539 211.869 233.763 211.092 233.763 210.091V205.748Z" fill="#EBEBEB"/>
<path d="M216.679 56.3496H61.543V183.752H216.679V56.3496Z" fill="white"/>
<path d="M217.269 184.341H60.9531V55.7598H217.26V184.341H217.269ZM62.1325 183.171H216.09V56.9392H62.1325V183.171Z" fill="#EBEBEB"/>
<path d="M216.679 56.3496H61.543V67.5725H216.679V56.3496Z" fill="url(#paint6_linear_2712_54151)"/>
<path d="M217.269 68.1621H60.9531V55.7598H217.26V68.1621H217.269ZM62.1325 66.9827H216.09V56.9392H62.1325V66.9827Z" fill="#EBEBEB"/>
<path d="M72.0735 62.0397C72.0735 63.6028 70.8099 64.8665 69.2467 64.8665C67.6836 64.8665 66.4199 63.6028 66.4199 62.0397C66.4199 60.4765 67.6836 59.2129 69.2467 59.2129C70.8099 59.2223 72.0735 60.4859 72.0735 62.0397Z" fill="url(#paint7_linear_2712_54151)"/>
<path d="M83.6048 62.0397C83.6048 63.6028 82.3411 64.8665 80.778 64.8665C79.2148 64.8665 77.9512 63.6028 77.9512 62.0397C77.9512 60.4765 79.2148 59.2129 80.778 59.2129C82.3411 59.2223 83.6048 60.4859 83.6048 62.0397Z" fill="#EBEBEB"/>
<path d="M95.1458 62.0397C95.1458 63.6028 93.8821 64.8665 92.319 64.8665C90.7558 64.8665 89.4922 63.6028 89.4922 62.0397C89.4922 60.4765 90.7558 59.2129 92.319 59.2129C93.8728 59.2223 95.1458 60.4859 95.1458 62.0397Z" fill="white"/>
<path d="M79.58 89.8965H73.5801V92.0868H79.58V89.8965Z" fill="#EBEBEB"/>
<path d="M152.777 89.8965H83.9512V92.0868H152.777V89.8965Z" fill="#EBEBEB"/>
<path d="M167.856 89.8965H156.465V92.0868H167.856V89.8965Z" fill="url(#paint8_linear_2712_54151)"/>
<path d="M193.924 119.221H182.523V121.411H193.924V119.221Z" fill="#EBEBEB"/>
<path d="M190.039 89.8965H170.336V92.0868H190.039V89.8965Z" fill="url(#paint9_linear_2712_54151)"/>
<path d="M85.58 95.7637H79.5801V97.954H85.58V95.7637Z" fill="#EBEBEB"/>
<path d="M134.964 95.7637H89.8008V97.954H134.964V95.7637Z" fill="url(#paint10_linear_2712_54151)"/>
<path d="M179.82 119.221H153.377V121.411H179.82V119.221Z" fill="url(#paint11_linear_2712_54151)"/>
<path d="M127.092 113.352H83.9512V115.542H127.092V113.352Z" fill="url(#paint12_linear_2712_54151)"/>
<path d="M120.062 101.625H89.8008V103.815H120.062V101.625Z" fill="url(#paint13_linear_2712_54151)"/>
<path d="M175.625 107.492H164.084V109.682H175.625V107.492Z" fill="url(#paint14_linear_2712_54151)"/>
<path d="M171.751 101.625H123.424V103.815H171.751V101.625Z" fill="url(#paint15_linear_2712_54151)"/>
<path d="M141.638 119.221H83.9512V121.411H141.638V119.221Z" fill="url(#paint16_linear_2712_54151)"/>
<path d="M200.328 95.7637H169.064V97.954H200.328V95.7637Z" fill="url(#paint17_linear_2712_54151)"/>
<path d="M166.583 95.7637H137.801V97.954H166.583V95.7637Z" fill="#EBEBEB"/>
<path d="M193.448 101.625H174.025V103.815H193.448V101.625Z" fill="#EBEBEB"/>
<path d="M85.58 101.625H79.5801V103.815H85.58V101.625Z" fill="#EBEBEB"/>
<path d="M79.58 107.492H73.5801V109.682H79.58V107.492Z" fill="url(#paint18_linear_2712_54151)"/>
<path d="M119.408 107.492H83.9512V109.682H119.408V107.492Z" fill="#EBEBEB"/>
<path d="M125.257 125.09H89.8008V127.28H125.257V125.09Z" fill="#EBEBEB"/>
<path d="M182.879 130.949H155.922V133.14H182.879V130.949Z" fill="url(#paint19_linear_2712_54151)"/>
<path d="M163.7 125.09H128.141V127.28H163.7V125.09Z" fill="url(#paint20_linear_2712_54151)"/>
<path d="M152.823 130.949H121.869V133.14H152.823V130.949Z" fill="#EBEBEB"/>
<path d="M100.069 130.949H89.8008V133.14H100.069V130.949Z" fill="url(#paint21_linear_2712_54151)"/>
<path d="M167.856 113.352H129.535V115.542H167.856V113.352Z" fill="#EBEBEB"/>
<path d="M194.719 113.352H170.336V115.542H194.719V113.352Z" fill="url(#paint22_linear_2712_54151)"/>
<path d="M161.286 107.492H123.012V109.682H161.286V107.492Z" fill="url(#paint23_linear_2712_54151)"/>
<path d="M79.58 113.352H73.5801V115.542H79.58V113.352Z" fill="#EBEBEB"/>
<path d="M79.58 119.221H73.5801V121.411H79.58V119.221Z" fill="#EBEBEB"/>
<path d="M85.58 125.09H79.5801V127.28H85.58V125.09Z" fill="url(#paint24_linear_2712_54151)"/>
<path d="M85.58 130.949H79.5801V133.14H85.58V130.949Z" fill="#EBEBEB"/>
<path d="M79.58 135.863H73.5801V138.054H79.58V135.863Z" fill="#EBEBEB"/>
<path d="M152.777 135.863H83.9512V138.054H152.777V135.863Z" fill="#EBEBEB"/>
<path d="M85.58 141.732H79.5801V143.923H85.58V141.732Z" fill="#EBEBEB"/>
<path d="M134.964 141.732H89.8008V143.923H134.964V141.732Z" fill="url(#paint25_linear_2712_54151)"/>
<path d="M127.092 159.33H83.9512V161.52H127.092V159.33Z" fill="url(#paint26_linear_2712_54151)"/>
<path d="M120.062 147.592H89.8008V149.782H120.062V147.592Z" fill="url(#paint27_linear_2712_54151)"/>
<path d="M171.751 147.592H123.424V149.782H171.751V147.592Z" fill="url(#paint28_linear_2712_54151)"/>
<path d="M141.638 165.189H83.9512V167.38H141.638V165.189Z" fill="url(#paint29_linear_2712_54151)"/>
<path d="M200.328 141.732H169.064V143.923H200.328V141.732Z" fill="url(#paint30_linear_2712_54151)"/>
<path d="M166.583 141.732H137.801V143.923H166.583V141.732Z" fill="#EBEBEB"/>
<path d="M193.448 147.592H174.025V149.782H193.448V147.592Z" fill="#EBEBEB"/>
<path d="M85.58 147.592H79.5801V149.782H85.58V147.592Z" fill="#EBEBEB"/>
<path d="M79.58 153.461H73.5801V155.651H79.58V153.461Z" fill="url(#paint31_linear_2712_54151)"/>
<path d="M119.408 153.461H83.9512V155.651H119.408V153.461Z" fill="#EBEBEB"/>
<path d="M167.856 159.33H129.535V161.52H167.856V159.33Z" fill="#EBEBEB"/>
<path d="M161.286 153.461H123.012V155.651H161.286V153.461Z" fill="url(#paint32_linear_2712_54151)"/>
<path d="M79.58 159.33H73.5801V161.52H79.58V159.33Z" fill="#EBEBEB"/>
<path d="M77.2863 84.1205C77.4923 84.3358 77.4923 84.654 77.2863 84.86C77.1834 84.9629 77.0523 85.0097 76.9213 85.0097C76.7809 85.0097 76.6498 84.9629 76.5469 84.86L74.2349 82.5105C74.2068 82.5012 74.1974 82.4825 74.1974 82.4637C74.1881 82.4544 74.1694 82.445 74.1694 82.445C74.1506 82.4169 74.1507 82.4076 74.1413 82.3795C74.1226 82.3701 74.1132 82.3514 74.1132 82.3421C74.1039 82.3233 74.1039 82.3046 74.0945 82.2953C74.0945 82.2672 74.0758 82.2672 74.0758 82.2578C74.0758 82.2297 74.0758 82.2204 74.0758 82.2017C74.0758 82.1829 74.0664 82.1736 74.0664 82.1549C74.0664 82.1455 74.0758 82.1174 74.0758 82.1174C74.0758 82.0987 74.0758 82.08 74.0758 82.0613C74.0758 82.0425 74.0945 82.0332 74.0945 82.0238C74.1039 81.9957 74.1039 81.9864 74.1132 81.9583C74.1132 81.9489 74.1226 81.9489 74.1226 81.9396C74.1413 81.9115 74.1507 81.8834 74.16 81.8647C74.16 81.8647 74.16 81.846 74.1787 81.846C74.1881 81.8273 74.2068 81.8085 74.2255 81.7898L76.5375 79.4404C76.7434 79.2438 77.0804 79.2438 77.277 79.4404C77.4829 79.6463 77.4829 79.9739 77.277 80.1799L75.33 82.1455L77.2863 84.1205Z" fill="url(#paint33_linear_2712_54151)"/>
<path d="M79.384 84.3921L81.4058 79.5903C81.5088 79.3563 81.7708 79.2533 82.0048 79.3563C82.2295 79.4499 82.3325 79.7213 82.2389 79.9366L80.217 84.7478C80.1422 84.9163 79.9737 85.0192 79.7958 85.0192C79.749 85.0192 79.6835 85.0099 79.6273 84.9911C79.3933 84.8882 79.2904 84.6167 79.384 84.3921Z" fill="url(#paint34_linear_2712_54151)"/>
<path d="M86.2167 82.4552C86.1886 82.4833 86.1793 82.502 86.1512 82.5207L83.8392 84.8701C83.7363 84.9731 83.5958 85.0199 83.4648 85.0199C83.3244 85.0199 83.2027 84.9731 83.0998 84.8701C82.8938 84.6642 82.8938 84.346 83.0998 84.1307L85.0467 82.165L83.0998 80.1994C82.8938 79.9935 82.8938 79.6658 83.0998 79.4599C83.2963 79.2634 83.6333 79.2634 83.8392 79.4599L86.1512 81.8093C86.1793 81.8281 86.1886 81.8468 86.2074 81.8655C86.2167 81.8655 86.2167 81.8842 86.2167 81.8842C86.2354 81.9217 86.2448 81.931 86.2542 81.9591C86.2542 81.9685 86.2635 81.9685 86.2635 81.9778C86.2729 82.0059 86.2729 82.0153 86.2916 82.0527C86.2916 82.0621 86.301 82.0621 86.301 82.0808C86.301 82.0995 86.301 82.1182 86.301 82.1369C86.301 82.1463 86.3103 82.165 86.3103 82.1744C86.3103 82.1838 86.301 82.2025 86.301 82.2118C86.301 82.2399 86.301 82.2493 86.301 82.2774C86.301 82.2867 86.2916 82.2867 86.2916 82.2961C86.2729 82.3242 86.2729 82.3522 86.2635 82.371C86.2635 82.3803 86.2542 82.3803 86.2542 82.399C86.2542 82.399 86.2354 82.4178 86.2167 82.4552Z" fill="url(#paint35_linear_2712_54151)"/>
<path d="M234.371 38.4805H171.002V61.9466H234.371V38.4805Z" fill="url(#paint36_linear_2712_54151)"/>
<path d="M180.146 55.0852V44.6766C180.146 44.1337 180.568 43.7031 181.12 43.7031C181.663 43.7031 182.103 44.1243 182.103 44.6766V48.9074H186.671V44.6766C186.671 44.1337 187.092 43.7031 187.644 43.7031C188.187 43.7031 188.627 44.1243 188.627 44.6766V55.0852C188.627 55.6281 188.187 56.0586 187.644 56.0586C187.101 56.0586 186.671 55.6374 186.671 55.0852V50.8543H182.103V55.0852C182.103 55.6281 181.663 56.0586 181.12 56.0586C180.568 56.0493 180.146 55.6281 180.146 55.0852Z" fill="white"/>
<path d="M200.196 45.6688H197.387V55.0852C197.387 55.6281 196.966 56.0586 196.414 56.0586C195.88 56.0586 195.441 55.6374 195.441 55.0852V45.6688H192.651C192.108 45.6688 191.678 45.2101 191.678 44.6766C191.678 44.1337 192.099 43.7031 192.651 43.7031H200.186C200.72 43.7031 201.16 44.1243 201.16 44.6766C201.169 45.2101 200.729 45.6688 200.196 45.6688Z" fill="white"/>
<path d="M214.696 44.6766V55.0852C214.696 55.6187 214.237 56.0586 213.704 56.0586C213.151 56.0586 212.73 55.6187 212.73 55.0852V47.6625L210.193 51.1913C209.997 51.4534 209.716 51.5938 209.398 51.5938H209.379H209.36C209.042 51.5938 208.743 51.4534 208.546 51.1913L206.019 47.6625V55.0852C206.019 55.6187 205.579 56.0586 205.036 56.0586C204.502 56.0586 204.062 55.6187 204.062 55.0852V44.6766C204.062 44.1524 204.502 43.7031 205.036 43.7031C205.055 43.7031 205.055 43.7031 205.092 43.7031C205.373 43.7031 205.691 43.8435 205.869 44.1056L209.379 48.9729L212.889 44.1056C213.086 43.8435 213.367 43.7031 213.685 43.7031C213.685 43.7031 213.685 43.7031 213.704 43.7031C214.237 43.7218 214.696 44.1431 214.696 44.6766Z" fill="white"/>
<path d="M218.963 55.0852V44.6766C218.963 44.1524 219.384 43.7031 219.936 43.7031C220.479 43.7031 220.929 44.1431 220.929 44.6766V54.093H225.712C226.226 54.093 226.685 54.5329 226.685 55.0852C226.685 55.6187 226.226 56.0586 225.712 56.0586H219.993C219.955 56.0586 219.955 56.0586 219.955 56.0586C219.936 56.0586 219.936 56.0586 219.936 56.0586C219.384 56.0493 218.963 55.6093 218.963 55.0852Z" fill="white"/>
<path d="M65.0352 128.123H12.8145V151.589H65.0352V128.123Z" fill="url(#paint37_linear_2712_54151)"/>
<path d="M28.3423 140.899H26.1707V144.728C26.1707 145.261 25.7308 145.701 25.1785 145.701C24.645 145.701 24.2051 145.261 24.2051 144.728V134.319C24.2051 133.776 24.645 133.346 25.1785 133.346H25.1973H28.3329C30.4296 133.346 32.1238 135.04 32.1238 137.137C32.1426 139.205 30.4484 140.899 28.3423 140.899ZM26.1801 138.943H28.3517C29.3719 138.943 30.1675 138.129 30.1863 137.146C30.1675 136.126 29.3719 135.311 28.3517 135.311H26.1801V138.943Z" fill="white"/>
<path d="M34.502 144.728V134.319C34.502 133.776 34.9232 133.346 35.4754 133.346C36.0183 133.346 36.4676 133.767 36.4676 134.319V138.55H41.0354V134.319C41.0354 133.776 41.4566 133.346 42.0089 133.346C42.5518 133.346 42.9917 133.767 42.9917 134.319V144.728C42.9917 145.271 42.5518 145.701 42.0089 145.701C41.466 145.701 41.0354 145.28 41.0354 144.728V140.497H36.4676V144.728C36.4676 145.271 36.0277 145.701 35.4754 145.701C34.9232 145.692 34.502 145.271 34.502 144.728Z" fill="white"/>
<path d="M51.1353 140.899H48.9637V144.728C48.9637 145.261 48.5238 145.701 47.9715 145.701C47.4473 145.701 46.998 145.261 46.998 144.728V134.319C46.998 133.776 47.438 133.346 47.9715 133.346H47.9902H51.1259C53.2226 133.346 54.9168 135.04 54.9168 137.137C54.9262 139.205 53.232 140.899 51.1353 140.899ZM48.9637 138.943H51.1353C52.1555 138.943 52.9512 138.129 52.9699 137.146C52.9512 136.126 52.1555 135.311 51.1353 135.311H48.9637V138.943Z" fill="white"/>
<path d="M218.955 126.597L222.924 136.163L218.964 137.801L214.977 128.169L208.443 133.243V106.285L227.314 125.352L218.955 126.597Z" fill="#263238"/>
<path d="M208.443 103.345C208.255 102.896 208.209 102.437 208.199 101.988C208.209 101.539 208.246 101.08 208.443 100.631C208.63 101.08 208.677 101.539 208.686 101.988C208.667 102.447 208.63 102.896 208.443 103.345Z" fill="#263238"/>
<path d="M206.103 104.32C205.654 104.132 205.298 103.842 204.98 103.533C204.661 103.206 204.371 102.859 204.193 102.41C204.643 102.597 204.998 102.888 205.317 103.196C205.635 103.515 205.916 103.861 206.103 104.32Z" fill="#263238"/>
<path d="M205.138 106.65C204.689 106.837 204.23 106.884 203.781 106.893C203.332 106.884 202.873 106.846 202.424 106.65C202.873 106.462 203.332 106.416 203.781 106.406C204.23 106.416 204.689 106.462 205.138 106.65Z" fill="#263238"/>
<path d="M206.103 108.99C205.916 109.44 205.625 109.795 205.317 110.113C204.989 110.432 204.643 110.722 204.193 110.9C204.381 110.45 204.671 110.095 204.98 109.776C205.307 109.458 205.654 109.168 206.103 108.99Z" fill="#263238"/>
<path d="M211.736 106.65C212.186 106.462 212.644 106.416 213.094 106.406C213.543 106.416 214.001 106.453 214.451 106.65C214.001 106.837 213.543 106.884 213.094 106.893C212.644 106.884 212.195 106.837 211.736 106.65Z" fill="#263238"/>
<path d="M210.773 104.32C210.961 103.87 211.251 103.515 211.56 103.196C211.887 102.878 212.234 102.588 212.683 102.41C212.496 102.859 212.206 103.215 211.897 103.533C211.578 103.842 211.223 104.132 210.773 104.32Z" fill="#263238"/>
<path d="M279.525 218.927C272.308 250.359 257.697 290.149 246.418 298.171C237.31 304.648 189.554 316.058 186.896 316.339C180.306 317.003 167.286 270.427 174.119 268.536C182.731 266.149 223.663 264.876 225.994 262.489C228.409 259.99 243.301 239.819 260.168 216.456C271.784 200.309 283.999 199.43 279.525 218.927Z" fill="#FFBAA1"/>
<path d="M192.174 313.784C191.388 314.187 180.24 319.793 173.341 321.787C168.193 323.275 153.273 327.169 151.064 321.675C149.557 317.921 158.066 314.599 164.028 312.118C167.173 310.808 171.039 307.522 170.112 305.5C168.493 301.972 160.406 305.519 155.089 308.608C144.802 314.58 131.108 325.335 124.827 320.121C122.459 318.146 125.211 314.561 129.245 311.032C122.703 315.132 115.72 318.502 112.996 316.414C111.433 315.226 111.358 313.597 112.229 311.734C110.207 312.389 108.419 312.258 107.174 310.948C105.049 308.72 106.079 305.435 108.41 302.065C107.661 301.99 106.996 301.607 106.481 300.792C101.979 293.922 124.528 274.2 132.325 272.356C155.267 266.899 179.678 268.892 179.678 268.892C188.692 276.1 192.193 313.775 192.174 313.784Z" fill="#FFBAA1"/>
<path d="M158.441 292.669C153.04 293.511 147.714 295.533 143.137 298.556C137.324 302.394 133.458 306.887 128.582 311.417C128.451 311.539 128.638 311.735 128.76 311.623C131.081 309.47 140.722 301.383 143.212 299.548C147.77 296.179 152.872 293.82 158.46 292.762C158.516 292.753 158.497 292.659 158.441 292.669Z" fill="#263238"/>
<path d="M154.163 282.934C148.135 284.581 141.958 286.247 136.36 289.102C130.239 292.219 125.446 297.311 120.729 302.207C117.902 305.146 115.131 308.15 112.435 311.211C112.323 311.342 112.492 311.539 112.613 311.417C117.396 306.363 122.329 301.439 127.412 296.684C132.195 292.21 137.53 288.784 143.652 286.453C147.106 285.143 150.644 284.095 154.191 283.046C154.247 283.018 154.229 282.915 154.163 282.934Z" fill="#263238"/>
<path d="M147.723 274.416C141.864 275.623 136.753 276.644 131.567 279.789C124.697 283.945 118.07 290.946 115.739 293.427C113.165 296.169 110.694 298.996 108.26 301.86C108.158 301.973 108.363 302.15 108.466 302.038C114.026 295.776 120.017 289.832 126.344 284.338C129.368 281.717 132.653 279.424 136.341 277.842C139.992 276.269 143.895 275.38 147.742 274.463C147.751 274.453 147.742 274.416 147.723 274.416Z" fill="#263238"/>
<path d="M226.33 257.912L270.351 256.04C270.351 256.04 278.345 234.231 281.284 214.864C284.223 195.498 267.73 202.453 251.387 223.307C235.044 244.162 226.33 257.912 226.33 257.912Z" fill="url(#paint38_linear_2712_54151)"/>
<path d="M240.736 244.751C241.036 244.667 241.335 244.629 241.635 244.573C241.916 244.517 242.309 244.508 242.627 244.639C243.301 244.873 243.797 245.575 243.806 246.314C243.797 246.801 244.04 247.241 244.452 247.522C244.668 247.662 244.892 247.737 245.192 247.774C245.491 247.84 245.791 247.868 246.09 247.952C245.791 248.036 245.491 248.074 245.192 248.13C244.902 248.186 244.509 248.177 244.19 248.036C243.526 247.784 243.058 247.044 243.067 246.333C243.076 245.874 242.805 245.416 242.384 245.163C242.159 245.032 241.944 244.966 241.626 244.938C241.326 244.873 241.036 244.835 240.736 244.751ZM271.7 218.009C272.018 218.046 272.233 218.102 272.458 218.233C272.879 218.486 273.141 218.935 273.141 219.403C273.132 220.115 273.591 220.854 274.265 221.107C274.583 221.247 274.976 221.257 275.266 221.201C275.566 221.135 275.865 221.107 276.165 221.023C275.865 220.939 275.566 220.901 275.266 220.845C274.967 220.807 274.742 220.733 274.527 220.592C274.115 220.311 273.872 219.871 273.881 219.385C273.872 218.645 273.375 217.943 272.702 217.709C272.383 217.578 271.981 217.588 271.709 217.644C271.41 217.709 271.11 217.737 270.811 217.822C271.101 217.915 271.4 217.953 271.7 218.009ZM272.823 235.157C272.57 235.353 272.374 235.466 272.131 235.531C271.653 235.643 271.148 235.512 270.82 235.185C270.324 234.67 269.472 234.473 268.817 234.773C268.489 234.895 268.209 235.166 268.04 235.409C267.872 235.662 267.684 235.906 267.535 236.177C267.806 236.027 268.04 235.84 268.302 235.672C268.546 235.484 268.752 235.381 269.004 235.325C269.491 235.232 269.968 235.372 270.315 235.728C270.848 236.252 271.691 236.392 272.336 236.083C272.655 235.952 272.926 235.662 273.085 235.428C273.254 235.175 273.441 234.932 273.591 234.67C273.31 234.81 273.076 234.988 272.823 235.157ZM260.861 215.154C260.608 215.35 260.412 215.463 260.159 215.528C259.681 215.641 259.176 215.51 258.848 215.182C258.773 215.107 258.699 215.042 258.614 214.976C258.437 215.154 258.268 215.332 258.1 215.519C258.184 215.566 258.268 215.641 258.343 215.716C258.867 216.24 259.719 216.38 260.365 216.071C260.683 215.94 260.954 215.65 261.114 215.407C261.282 215.154 261.469 214.92 261.619 214.648C261.348 214.798 261.114 214.985 260.861 215.154ZM255.881 231.637C255.844 231.955 255.788 232.171 255.657 232.395C255.404 232.817 254.955 233.079 254.487 233.079C253.775 233.069 253.036 233.528 252.774 234.202C252.633 234.52 252.624 234.913 252.68 235.203C252.746 235.503 252.774 235.803 252.858 236.102C252.942 235.803 252.979 235.503 253.036 235.203C253.073 234.904 253.148 234.679 253.288 234.464C253.569 234.052 254.009 233.809 254.496 233.818C255.235 233.809 255.937 233.313 256.171 232.639C256.302 232.321 256.293 231.918 256.237 231.647C256.171 231.347 256.143 231.048 256.059 230.748C255.975 231.038 255.947 231.338 255.881 231.637ZM268.48 248.401C268.443 248.72 268.386 248.935 268.255 249.16C268.003 249.581 267.553 249.843 267.085 249.843C266.374 249.834 265.635 250.292 265.382 250.966C265.241 251.284 265.232 251.677 265.288 251.968C265.354 252.267 265.382 252.567 265.466 252.866C265.55 252.567 265.588 252.267 265.644 251.968C265.681 251.668 265.756 251.443 265.897 251.228C266.177 250.816 266.617 250.573 267.104 250.582C267.844 250.573 268.546 250.077 268.78 249.403C268.911 249.085 268.901 248.682 268.845 248.411C268.78 248.111 268.751 247.812 268.667 247.512C268.583 247.802 268.546 248.102 268.48 248.401Z" fill="white"/>
<path d="M271.849 246.492C262.33 246.249 252.773 246.67 243.263 247.278C240.567 247.447 237.881 247.69 235.194 247.99C235.12 247.999 235.11 248.111 235.194 248.111C239.949 248.13 244.704 247.962 249.469 247.812C254.243 247.662 259.016 247.484 263.781 247.203C266.476 247.044 269.163 246.894 271.849 246.679C271.961 246.66 271.971 246.492 271.849 246.492Z" fill="#263238"/>
<path d="M238.676 328.263H351.036C352.272 325.988 333.86 227.575 295.97 199.859C287.564 193.71 272.644 197.669 268.497 203.641C247.643 233.696 238.676 328.263 238.676 328.263Z" fill="url(#paint39_linear_2712_54151)"/>
<path d="M286.329 244.751C286.628 244.667 286.928 244.63 287.227 244.573C287.508 244.517 287.901 244.508 288.219 244.639C288.893 244.873 289.389 245.575 289.399 246.314C289.389 246.801 289.633 247.241 290.045 247.522C290.26 247.662 290.484 247.737 290.784 247.775C291.084 247.84 291.383 247.868 291.683 247.953C291.383 248.037 291.084 248.074 290.784 248.13C290.494 248.187 290.101 248.177 289.782 248.037C289.118 247.784 288.65 247.045 288.659 246.333C288.669 245.875 288.397 245.416 287.976 245.163C287.751 245.032 287.536 244.967 287.218 244.939C286.928 244.873 286.628 244.836 286.329 244.751ZM303.785 304.161C304.104 304.198 304.319 304.254 304.544 304.385C304.965 304.638 305.227 305.087 305.227 305.555C305.217 306.267 305.676 307.006 306.35 307.259C306.668 307.399 307.061 307.409 307.352 307.353C307.651 307.287 307.951 307.259 308.25 307.175C307.951 307.09 307.651 307.053 307.352 306.997C307.052 306.959 306.827 306.885 306.612 306.744C306.2 306.463 305.957 306.023 305.966 305.537C305.957 304.797 305.461 304.095 304.787 303.861C304.469 303.73 304.066 303.739 303.795 303.796C303.495 303.861 303.196 303.889 302.896 303.973C303.186 304.067 303.486 304.095 303.785 304.161ZM324.387 248.13C324.705 248.168 324.921 248.224 325.145 248.355C325.567 248.608 325.829 249.057 325.829 249.525C325.819 250.236 326.278 250.976 326.952 251.238C327.27 251.378 327.663 251.388 327.953 251.332C328.253 251.266 328.552 251.238 328.852 251.154C328.552 251.069 328.253 251.032 327.953 250.976C327.654 250.938 327.429 250.864 327.214 250.723C326.802 250.442 326.559 250.002 326.568 249.516C326.559 248.776 326.063 248.074 325.389 247.84C325.071 247.709 324.668 247.719 324.397 247.775C324.097 247.84 323.798 247.868 323.498 247.953C323.798 248.037 324.097 248.074 324.387 248.13ZM271.698 218.009C272.017 218.047 272.232 218.103 272.457 218.234C272.878 218.487 273.14 218.936 273.14 219.404C273.131 220.115 273.589 220.855 274.263 221.107C274.581 221.248 274.975 221.257 275.265 221.201C275.564 221.135 275.864 221.107 276.163 221.023C275.864 220.939 275.564 220.901 275.265 220.845C274.965 220.808 274.741 220.733 274.525 220.593C274.113 220.312 273.87 219.872 273.879 219.385C273.87 218.646 273.374 217.944 272.7 217.71C272.382 217.579 271.979 217.588 271.708 217.644C271.408 217.71 271.109 217.738 270.809 217.822C271.099 217.916 271.399 217.953 271.698 218.009ZM304.132 217.335C304.45 217.373 304.665 217.429 304.89 217.56C305.311 217.813 305.573 218.262 305.573 218.73C305.564 219.441 306.022 220.181 306.696 220.443C307.015 220.583 307.408 220.593 307.698 220.536C307.997 220.471 308.297 220.443 308.597 220.359C308.297 220.274 307.997 220.237 307.698 220.181C307.398 220.143 307.174 220.068 306.958 219.928C306.547 219.647 306.303 219.207 306.313 218.721C306.303 217.981 305.807 217.279 305.133 217.045C304.815 216.914 304.412 216.923 304.141 216.98C303.841 217.045 303.542 217.073 303.242 217.157C303.533 217.232 303.832 217.27 304.132 217.335ZM263.742 269.715C264.061 269.752 264.276 269.809 264.5 269.94C264.922 270.192 265.184 270.642 265.184 271.11C265.174 271.821 265.633 272.561 266.307 272.823C266.625 272.963 267.018 272.972 267.309 272.916C267.608 272.851 267.908 272.823 268.207 272.738C267.908 272.654 267.608 272.617 267.309 272.561C267.009 272.523 266.784 272.448 266.569 272.308C266.157 272.027 265.914 271.587 265.923 271.1C265.914 270.361 265.418 269.659 264.744 269.425C264.426 269.294 264.023 269.303 263.752 269.359C263.452 269.425 263.153 269.453 262.853 269.537C263.143 269.612 263.443 269.65 263.742 269.715ZM299.105 323.986C299.423 324.023 299.639 324.079 299.863 324.21C300.285 324.463 300.547 324.912 300.547 325.38C300.537 326.092 300.996 326.831 301.67 327.093C301.988 327.234 302.381 327.243 302.671 327.187C302.971 327.121 303.271 327.093 303.57 327.009C303.271 326.925 302.971 326.887 302.671 326.831C302.372 326.794 302.147 326.719 301.932 326.578C301.52 326.298 301.277 325.858 301.286 325.371C301.277 324.632 300.781 323.93 300.107 323.695C299.789 323.564 299.386 323.574 299.115 323.63C298.815 323.695 298.516 323.724 298.216 323.808C298.506 323.883 298.806 323.92 299.105 323.986ZM281.695 294.819C282.013 294.857 282.229 294.913 282.453 295.044C282.875 295.297 283.137 295.746 283.137 296.214C283.127 296.925 283.586 297.665 284.26 297.927C284.578 298.067 284.971 298.077 285.261 298.02C285.561 297.955 285.861 297.927 286.16 297.843C285.861 297.758 285.561 297.721 285.261 297.665C284.962 297.627 284.737 297.552 284.522 297.412C284.11 297.131 283.867 296.691 283.876 296.205C283.867 295.465 283.371 294.763 282.697 294.529C282.378 294.398 281.976 294.407 281.705 294.463C281.405 294.529 281.106 294.557 280.806 294.641C281.096 294.726 281.396 294.763 281.695 294.819ZM241.821 324.716C241.521 324.678 241.296 324.603 241.081 324.463C240.669 324.192 240.426 323.752 240.445 323.256C240.435 322.563 239.995 321.898 239.378 321.636C239.35 321.88 239.321 322.104 239.303 322.329C239.555 322.582 239.705 322.919 239.696 323.274C239.686 323.986 240.155 324.725 240.819 324.978C241.137 325.128 241.53 325.137 241.821 325.081C242.12 325.015 242.42 324.978 242.719 324.894C242.42 324.809 242.12 324.772 241.821 324.716ZM249.477 300.117C249.796 300.155 250.011 300.211 250.235 300.342C250.657 300.594 250.919 301.044 250.919 301.512C250.909 302.223 251.368 302.963 252.042 303.225C252.36 303.365 252.753 303.374 253.044 303.318C253.343 303.253 253.643 303.225 253.942 303.14C253.643 303.056 253.343 303.019 253.044 302.963C252.744 302.925 252.519 302.85 252.304 302.71C251.892 302.429 251.649 301.989 251.658 301.502C251.649 300.763 251.153 300.061 250.479 299.827C250.161 299.696 249.758 299.705 249.487 299.761C249.187 299.827 248.888 299.855 248.588 299.939C248.878 300.023 249.178 300.061 249.477 300.117ZM296.522 270.426C296.84 270.464 297.055 270.52 297.28 270.651C297.701 270.904 297.963 271.353 297.963 271.821C297.954 272.532 298.413 273.272 299.087 273.525C299.405 273.665 299.798 273.674 300.088 273.618C300.388 273.553 300.687 273.525 300.987 273.44C300.687 273.356 300.388 273.319 300.088 273.263C299.789 273.225 299.564 273.15 299.349 273.01C298.937 272.729 298.693 272.289 298.703 271.802C298.693 271.063 298.197 270.361 297.523 270.127C297.205 269.996 296.803 270.005 296.531 270.061C296.232 270.127 295.932 270.155 295.633 270.239C295.923 270.333 296.222 270.37 296.522 270.426ZM337.726 310.357C338.044 310.395 338.259 310.451 338.484 310.582C338.905 310.835 339.167 311.284 339.167 311.752C339.158 312.463 339.616 313.203 340.29 313.465C340.608 313.605 341.002 313.615 341.292 313.558C341.591 313.493 341.891 313.465 342.19 313.381C341.891 313.296 341.591 313.259 341.292 313.203C340.992 313.165 340.768 313.09 340.552 312.95C340.14 312.669 339.897 312.229 339.906 311.742C339.897 311.003 339.401 310.301 338.727 310.067C338.409 309.936 338.006 309.945 337.735 310.001C337.435 310.067 337.136 310.095 336.836 310.179C337.126 310.254 337.426 310.292 337.726 310.357ZM321.364 285.983C321.682 286.021 321.897 286.077 322.122 286.208C322.543 286.46 322.805 286.91 322.805 287.378C322.796 288.089 323.255 288.829 323.929 289.081C324.247 289.222 324.64 289.231 324.93 289.175C325.23 289.109 325.529 289.081 325.829 288.997C325.529 288.913 325.23 288.875 324.93 288.819C324.631 288.782 324.406 288.707 324.191 288.567C323.779 288.286 323.535 287.846 323.545 287.359C323.535 286.62 323.039 285.918 322.365 285.684C322.047 285.553 321.645 285.562 321.373 285.618C321.074 285.684 320.774 285.712 320.475 285.796C320.765 285.88 321.064 285.918 321.364 285.983ZM272.822 235.157C272.569 235.354 272.372 235.466 272.129 235.532C271.652 235.644 271.146 235.513 270.819 235.185C270.323 234.67 269.471 234.474 268.816 234.773C268.488 234.895 268.207 235.166 268.039 235.41C267.87 235.663 267.683 235.906 267.533 236.177C267.805 236.028 268.039 235.84 268.301 235.672C268.544 235.485 268.75 235.382 269.003 235.326C269.489 235.232 269.967 235.372 270.313 235.728C270.847 236.252 271.689 236.393 272.335 236.084C272.653 235.953 272.925 235.663 273.084 235.429C273.252 235.176 273.439 234.932 273.589 234.67C273.308 234.811 273.074 234.989 272.822 235.157ZM321.223 269.996C320.971 270.192 320.774 270.305 320.531 270.37C320.053 270.483 319.548 270.352 319.22 270.024C318.724 269.509 317.872 269.313 317.217 269.612C316.89 269.734 316.609 270.005 316.44 270.249C316.272 270.501 316.085 270.745 315.935 271.016C316.206 270.866 316.44 270.679 316.702 270.511C316.946 270.323 317.152 270.221 317.404 270.164C317.891 270.071 318.369 270.211 318.715 270.567C319.248 271.091 320.091 271.231 320.737 270.923C321.055 270.791 321.326 270.501 321.486 270.267C321.654 270.015 321.841 269.771 321.991 269.509C321.72 269.64 321.486 269.827 321.223 269.996ZM291.018 205.139C290.765 205.335 290.569 205.448 290.325 205.513C289.848 205.626 289.343 205.495 289.015 205.167C288.519 204.652 287.667 204.456 287.012 204.755C286.684 204.877 286.403 205.148 286.235 205.392C286.066 205.644 285.879 205.888 285.729 206.159C286.001 206.009 286.235 205.822 286.497 205.654C286.74 205.466 286.946 205.363 287.199 205.307C287.686 205.214 288.172 205.354 288.509 205.71C289.043 206.234 289.885 206.374 290.531 206.065C290.85 205.934 291.121 205.644 291.28 205.41C291.449 205.158 291.636 204.914 291.786 204.652C291.505 204.783 291.271 204.97 291.018 205.139ZM290.419 224.346C290.381 224.664 290.325 224.88 290.194 225.104C289.942 225.525 289.492 225.788 289.024 225.788C288.313 225.778 287.573 226.237 287.321 226.911C287.18 227.229 287.171 227.622 287.227 227.912C287.293 228.212 287.321 228.511 287.405 228.811C287.489 228.511 287.527 228.212 287.583 227.912C287.62 227.613 287.695 227.388 287.836 227.173C288.116 226.761 288.556 226.518 289.043 226.527C289.782 226.518 290.484 226.022 290.718 225.348C290.85 225.029 290.84 224.627 290.784 224.355C290.718 224.056 290.69 223.756 290.606 223.457C290.522 223.747 290.484 224.046 290.419 224.346ZM283.296 276.979C283.258 277.297 283.202 277.512 283.071 277.737C282.818 278.158 282.369 278.42 281.901 278.42C281.19 278.411 280.45 278.869 280.188 279.543C280.048 279.862 280.038 280.255 280.095 280.545C280.16 280.844 280.188 281.144 280.272 281.443C280.357 281.144 280.394 280.844 280.45 280.545C280.488 280.245 280.563 280.021 280.703 279.805C280.984 279.394 281.424 279.15 281.91 279.16C282.65 279.15 283.352 278.654 283.586 277.98C283.717 277.662 283.708 277.259 283.652 276.988C283.586 276.688 283.558 276.389 283.474 276.089C283.389 276.38 283.352 276.679 283.296 276.979ZM320.643 231.132C320.596 231.142 320.55 231.142 320.493 231.142C319.773 231.132 319.033 231.591 318.78 232.265C318.64 232.583 318.631 232.967 318.687 233.266C318.743 233.566 318.78 233.865 318.865 234.165C318.949 233.865 318.986 233.566 319.052 233.266C319.08 232.957 319.164 232.742 319.295 232.527C319.576 232.115 320.016 231.872 320.503 231.881C320.671 231.881 320.83 231.853 320.989 231.797C320.877 231.572 320.755 231.357 320.643 231.132ZM320.381 316.142C320.344 316.46 320.287 316.675 320.156 316.9C319.904 317.321 319.454 317.583 318.986 317.583C318.275 317.574 317.536 318.033 317.283 318.706C317.142 319.025 317.133 319.418 317.189 319.708C317.255 320.008 317.283 320.307 317.367 320.607C317.451 320.307 317.489 320.008 317.545 319.708C317.582 319.409 317.657 319.184 317.798 318.969C318.078 318.557 318.518 318.313 319.005 318.323C319.745 318.313 320.447 317.817 320.681 317.143C320.812 316.825 320.802 316.423 320.746 316.151C320.681 315.852 320.652 315.552 320.568 315.253C320.484 315.543 320.447 315.842 320.381 316.142ZM336.453 268.433C336.443 268.461 336.434 268.479 336.415 268.508C336.162 268.929 335.713 269.2 335.245 269.191C334.534 269.182 333.794 269.65 333.542 270.314C333.392 270.632 333.382 271.025 333.439 271.316C333.504 271.615 333.542 271.915 333.626 272.214C333.71 271.915 333.747 271.615 333.804 271.316C333.841 271.016 333.916 270.791 334.056 270.576C334.328 270.164 334.768 269.921 335.264 269.93C335.825 269.93 336.378 269.631 336.705 269.191C336.705 269.191 336.705 269.191 336.705 269.182C336.621 268.938 336.537 268.685 336.453 268.433ZM254.279 278.86C254.242 279.178 254.186 279.394 254.054 279.618C253.802 280.039 253.352 280.301 252.884 280.301C252.173 280.292 251.434 280.751 251.181 281.425C251.04 281.743 251.031 282.136 251.087 282.426C251.153 282.726 251.181 283.025 251.265 283.325C251.349 283.025 251.387 282.726 251.443 282.426C251.48 282.127 251.555 281.902 251.696 281.687C251.976 281.275 252.416 281.032 252.903 281.041C253.643 281.032 254.345 280.535 254.579 279.862C254.71 279.543 254.7 279.141 254.644 278.869C254.579 278.57 254.551 278.27 254.466 277.971C254.373 278.27 254.345 278.56 254.279 278.86ZM256.254 231.703C256.095 232.227 255.936 232.742 255.777 233.266C255.955 233.088 256.095 232.873 256.179 232.639C256.301 232.34 256.292 231.975 256.254 231.703ZM273.103 200.936C273.065 201.254 273.009 201.47 272.878 201.694C272.625 202.115 272.176 202.378 271.708 202.378C270.996 202.368 270.257 202.827 269.995 203.501C269.855 203.819 269.845 204.212 269.901 204.502C269.967 204.802 269.995 205.101 270.079 205.401C270.163 205.101 270.201 204.802 270.257 204.502C270.294 204.203 270.369 203.978 270.51 203.763C270.791 203.351 271.23 203.108 271.717 203.117C272.457 203.108 273.159 202.612 273.393 201.938C273.524 201.619 273.514 201.217 273.458 200.945C273.393 200.646 273.365 200.346 273.28 200.047C273.205 200.337 273.168 200.637 273.103 200.936ZM268.479 248.402C268.441 248.72 268.385 248.935 268.254 249.16C268.001 249.581 267.552 249.843 267.084 249.843C266.373 249.834 265.633 250.293 265.38 250.967C265.24 251.285 265.231 251.678 265.287 251.968C265.352 252.268 265.38 252.567 265.465 252.867C265.549 252.567 265.586 252.268 265.642 251.968C265.68 251.669 265.755 251.444 265.895 251.229C266.176 250.817 266.616 250.573 267.103 250.583C267.842 250.573 268.544 250.077 268.778 249.403C268.909 249.085 268.9 248.683 268.844 248.411C268.778 248.112 268.75 247.812 268.666 247.513C268.582 247.803 268.544 248.102 268.479 248.402ZM310.01 254.785C309.972 255.104 309.916 255.319 309.785 255.544C309.533 255.965 309.083 256.227 308.615 256.227C307.904 256.218 307.164 256.676 306.902 257.35C306.762 257.668 306.753 258.062 306.809 258.352C306.874 258.651 306.902 258.951 306.987 259.25C307.071 258.951 307.108 258.651 307.164 258.352C307.202 258.052 307.277 257.828 307.417 257.612C307.698 257.2 308.138 256.957 308.625 256.966C309.364 256.957 310.066 256.461 310.3 255.787C310.431 255.469 310.422 255.066 310.366 254.795C310.3 254.495 310.272 254.196 310.188 253.896C310.104 254.186 310.075 254.486 310.01 254.785ZM271.633 308.073C271.596 308.392 271.539 308.607 271.408 308.831C271.156 309.253 270.706 309.515 270.238 309.515C269.527 309.505 268.787 309.964 268.525 310.638C268.385 310.956 268.376 311.349 268.432 311.64C268.497 311.939 268.525 312.239 268.61 312.538C268.694 312.239 268.731 311.939 268.787 311.64C268.825 311.34 268.9 311.115 269.04 310.9C269.321 310.488 269.761 310.245 270.248 310.254C270.987 310.245 271.689 309.749 271.923 309.075C272.054 308.757 272.045 308.354 271.989 308.083C271.923 307.783 271.895 307.484 271.811 307.184C271.727 307.484 271.689 307.783 271.633 308.073ZM303.832 238.311C304.085 238.115 304.281 238.003 304.525 237.937C305.002 237.825 305.508 237.956 305.835 238.283C306.331 238.798 307.183 238.995 307.838 238.695C308.166 238.574 308.447 238.302 308.615 238.059C308.784 237.806 308.971 237.563 309.121 237.291C308.849 237.441 308.615 237.628 308.353 237.797C308.11 237.984 307.904 238.087 307.651 238.143C307.164 238.237 306.687 238.096 306.341 237.741C305.807 237.216 304.965 237.076 304.319 237.385C304.001 237.516 303.729 237.806 303.57 238.04C303.402 238.293 303.214 238.536 303.065 238.798C303.345 238.667 303.579 238.48 303.832 238.311ZM279.608 260.252C279.861 260.055 280.057 259.943 280.301 259.877C280.778 259.765 281.283 259.896 281.611 260.224C282.107 260.739 282.959 260.935 283.614 260.636C283.942 260.514 284.222 260.242 284.391 259.999C284.559 259.746 284.747 259.503 284.896 259.232C284.625 259.381 284.391 259.569 284.129 259.737C283.885 259.924 283.68 260.027 283.427 260.083C282.94 260.177 282.453 260.037 282.116 259.681C281.583 259.157 280.74 259.016 280.095 259.325C279.776 259.456 279.505 259.746 279.346 259.98C279.177 260.233 278.99 260.477 278.84 260.739C279.121 260.608 279.355 260.42 279.608 260.252ZM263.199 292.582C263.452 292.386 263.649 292.273 263.892 292.208C264.369 292.095 264.875 292.226 265.202 292.554C265.699 293.069 266.55 293.265 267.206 292.966C267.533 292.844 267.814 292.573 267.982 292.329C268.151 292.077 268.338 291.833 268.488 291.562C268.216 291.712 267.982 291.899 267.72 292.067C267.477 292.254 267.271 292.357 267.018 292.414C266.532 292.507 266.045 292.367 265.708 292.011C265.174 291.487 264.332 291.347 263.686 291.655C263.368 291.786 263.096 292.077 262.937 292.311C262.769 292.563 262.582 292.807 262.432 293.069C262.703 292.928 262.947 292.751 263.199 292.582ZM270.294 326.167C270.547 325.97 270.744 325.858 270.987 325.792C271.464 325.68 271.97 325.811 272.298 326.139C272.794 326.653 273.645 326.85 274.301 326.55C274.628 326.429 274.909 326.157 275.078 325.914C275.246 325.661 275.433 325.418 275.583 325.146C275.312 325.296 275.078 325.483 274.815 325.652C274.572 325.839 274.366 325.942 274.113 325.998C273.627 326.092 273.149 325.951 272.803 325.596C272.269 325.071 271.427 324.931 270.781 325.24C270.463 325.371 270.191 325.661 270.032 325.895C269.864 326.148 269.677 326.391 269.527 326.653C269.798 326.522 270.042 326.335 270.294 326.167ZM302.054 289.259C302.306 289.063 302.503 288.95 302.746 288.885C303.224 288.772 303.729 288.904 304.057 289.231C304.553 289.746 305.405 289.943 306.06 289.643C306.388 289.521 306.668 289.25 306.837 289.006C307.005 288.754 307.192 288.51 307.342 288.239C307.071 288.389 306.837 288.576 306.575 288.744C306.331 288.932 306.125 289.035 305.873 289.091C305.386 289.184 304.899 289.044 304.562 288.688C304.029 288.164 303.186 288.024 302.54 288.333C302.222 288.464 301.951 288.754 301.792 288.988C301.623 289.24 301.436 289.484 301.286 289.746C301.558 289.606 301.792 289.428 302.054 289.259ZM323.91 302.635C324.163 302.438 324.359 302.326 324.603 302.261C325.08 302.148 325.585 302.279 325.913 302.607C326.409 303.122 327.261 303.318 327.916 303.019C328.244 302.897 328.524 302.626 328.693 302.382C328.861 302.13 329.049 301.886 329.198 301.615C328.927 301.764 328.693 301.952 328.431 302.12C328.187 302.307 327.982 302.41 327.729 302.467C327.242 302.56 326.755 302.42 326.418 302.064C325.885 301.54 325.042 301.399 324.397 301.708C324.078 301.839 323.807 302.13 323.648 302.364C323.479 302.616 323.292 302.86 323.142 303.122C323.414 302.991 323.657 302.803 323.91 302.635ZM287.143 312.791C287.396 312.594 287.592 312.482 287.836 312.416C288.313 312.304 288.818 312.435 289.146 312.763C289.642 313.278 290.494 313.474 291.149 313.175C291.477 313.053 291.757 312.781 291.926 312.538C292.094 312.285 292.282 312.042 292.431 311.771C292.16 311.92 291.926 312.108 291.664 312.276C291.42 312.463 291.215 312.566 290.962 312.622C290.475 312.716 289.988 312.576 289.651 312.22C289.118 311.696 288.275 311.555 287.63 311.864C287.311 311.995 287.04 312.285 286.881 312.519C286.712 312.772 286.525 313.015 286.375 313.278C286.647 313.147 286.89 312.959 287.143 312.791ZM334.562 326.167C334.814 325.97 335.011 325.858 335.254 325.792C335.732 325.68 336.237 325.811 336.565 326.139C337.061 326.653 337.913 326.85 338.568 326.55C338.896 326.429 339.176 326.157 339.345 325.914C339.513 325.661 339.701 325.418 339.85 325.146C339.579 325.296 339.345 325.483 339.083 325.652C338.839 325.839 338.633 325.942 338.381 325.998C337.894 326.092 337.407 325.951 337.07 325.596C336.537 325.071 335.694 324.931 335.049 325.24C334.73 325.371 334.459 325.661 334.3 325.895C334.131 326.148 333.944 326.391 333.794 326.653C334.066 326.522 334.309 326.335 334.562 326.167ZM343.023 289.811C342.799 289.746 342.602 289.624 342.434 289.456C341.91 288.941 341.058 288.791 340.412 289.109C340.094 289.24 339.822 289.531 339.663 289.765C339.495 290.017 339.307 290.251 339.158 290.523C339.429 290.373 339.663 290.186 339.916 290.017C340.169 289.821 340.365 289.709 340.608 289.643C341.086 289.531 341.601 289.662 341.919 289.989C342.247 290.336 342.733 290.532 343.22 290.542C343.154 290.298 343.089 290.055 343.023 289.811ZM253.306 317.415C253.558 317.218 253.755 317.106 253.998 317.04C254.476 316.928 254.981 317.059 255.309 317.387C255.805 317.901 256.657 318.098 257.312 317.799C257.639 317.677 257.92 317.405 258.089 317.162C258.257 316.909 258.444 316.666 258.594 316.395C258.323 316.544 258.089 316.731 257.827 316.9C257.583 317.087 257.377 317.19 257.125 317.246C256.638 317.34 256.151 317.199 255.814 316.844C255.281 316.32 254.438 316.179 253.792 316.488C253.474 316.619 253.203 316.909 253.044 317.143C252.875 317.396 252.688 317.639 252.538 317.902C252.81 317.77 253.053 317.583 253.306 317.415ZM250.601 261.01C250.853 260.813 251.05 260.701 251.293 260.636C251.771 260.523 252.276 260.654 252.604 260.982C253.1 261.497 253.951 261.693 254.607 261.394C254.934 261.272 255.215 261.001 255.384 260.757C255.552 260.505 255.739 260.261 255.889 259.99C255.618 260.14 255.384 260.327 255.122 260.495C254.878 260.682 254.672 260.785 254.419 260.842C253.933 260.935 253.446 260.795 253.109 260.439C252.576 259.915 251.733 259.774 251.087 260.083C250.769 260.214 250.498 260.505 250.338 260.739C250.17 260.991 249.983 261.235 249.833 261.497C250.104 261.366 250.338 261.179 250.601 261.01Z" fill="white"/>
<path d="M256.525 229.822C255.495 233.557 254.494 237.301 253.53 241.045C253.651 239.407 253.829 237.778 254.045 236.15C254.054 236.056 253.913 236.009 253.885 236.112C253.474 238.134 253.268 240.184 253.211 242.243C252.06 246.764 250.965 251.294 249.963 255.862C248.035 264.605 246.332 273.403 244.909 282.239C244.113 287.219 243.486 292.236 242.634 297.206C242.616 297.3 242.765 297.337 242.784 297.244C243.561 292.835 244.6 288.445 245.564 284.074C246.519 279.721 247.446 275.369 248.344 271.016C250.16 262.255 252.079 253.513 253.885 244.742C254.906 239.8 255.851 234.848 256.871 229.916C256.927 229.691 256.581 229.607 256.525 229.822Z" fill="#263238" fill-opacity="0.2"/>
<path d="M252.136 171.526C253.381 178.34 249.543 184.752 243.562 185.847C237.581 186.942 231.721 182.3 230.477 175.485C229.232 168.671 233.069 162.259 239.051 161.164C245.032 160.069 250.891 164.702 252.136 171.526Z" fill="url(#paint40_linear_2712_54151)"/>
<path d="M255.721 171.311C257.107 178.892 252.838 186.025 246.183 187.242C239.528 188.459 233.013 183.292 231.628 175.71C230.243 168.128 234.511 160.996 241.166 159.779C247.821 158.571 254.336 163.729 255.721 171.311Z" fill="#C7C7C7"/>
<path d="M274.695 224.804C281.471 224.767 290.092 212.308 292.516 203.313C292.676 202.695 285.141 181.476 284.083 177.123C283.868 176.224 258.352 190.396 258.352 190.396C258.352 190.396 263.256 198.886 265.053 206.495C265.194 207.132 268.142 224.841 274.695 224.804Z" fill="#FFBAA1"/>
<path d="M268.18 208.105C267.216 208.358 266.326 208.536 265.475 208.601C265.362 208.068 265.269 207.619 265.203 207.272C265.203 207.263 265.203 207.244 265.194 207.225C265.194 207.188 265.185 207.141 265.175 207.104C265.147 206.973 265.128 206.832 265.091 206.692C265.091 206.664 265.082 206.636 265.072 206.608C265.063 206.57 265.053 206.533 265.044 206.495C264.651 204.829 264.108 203.126 263.509 201.478C262.124 197.697 260.392 194.215 259.334 192.202C259.203 191.95 259.082 191.725 258.969 191.528C258.632 190.901 258.417 190.517 258.37 190.424C258.352 190.414 258.352 190.405 258.352 190.405C258.352 190.405 258.352 190.405 258.361 190.405C258.417 190.368 258.651 190.237 259.035 190.021C259.278 189.89 259.578 189.722 259.933 189.525C259.952 189.525 259.962 189.516 259.971 189.507C260.158 189.404 260.364 189.291 260.57 189.179C260.804 189.048 261.047 188.917 261.309 188.767C261.525 188.655 261.759 188.524 261.993 188.393C262.03 188.374 262.077 188.346 262.124 188.318C262.405 188.168 262.704 188.009 263.013 187.831C263.078 187.794 263.153 187.756 263.219 187.719C263.509 187.56 263.809 187.4 264.108 187.232C264.258 187.148 264.417 187.063 264.576 186.979C265.044 186.727 265.521 186.464 266.018 186.193C266.383 185.996 266.748 185.8 267.122 185.594C267.431 185.425 267.749 185.257 268.058 185.088C269.106 184.518 270.183 183.937 271.259 183.366C271.606 183.179 271.952 182.992 272.289 182.805C273.553 182.131 274.797 181.475 275.986 180.858C276.258 180.717 276.52 180.577 276.782 180.446C276.96 180.352 277.138 180.259 277.306 180.174C277.521 180.062 277.727 179.959 277.933 179.847C278.401 179.603 278.85 179.379 279.281 179.163C279.562 179.023 279.843 178.883 280.105 178.752C280.507 178.546 280.882 178.368 281.237 178.199C281.415 178.106 281.593 178.031 281.752 177.956C282.239 177.722 282.66 177.535 283.006 177.394C283.091 177.357 283.166 177.329 283.231 177.301V177.31C283.549 184.695 282.96 204.155 268.18 208.105Z" fill="#FFAA8F"/>
<path d="M276.426 144.278C282.473 152.777 286.582 181.784 281.883 190.124C275.069 202.218 259.371 208.386 247.961 199.157C236.898 190.209 232.199 152.318 237.871 144.269C246.22 132.419 267.496 131.717 276.426 144.278Z" fill="#FFBAA1"/>
<path d="M254.794 169.879C254.794 169.804 254.963 169.944 254.972 170.028C255.197 171.994 255.787 174.194 257.649 174.587C257.705 174.596 257.715 174.699 257.649 174.699C255.44 174.718 254.691 171.779 254.794 169.879Z" fill="#494B6B"/>
<path d="M256.236 167.586C259.344 166.884 260.514 173.146 257.631 173.792C254.804 174.438 253.634 168.176 256.236 167.586Z" fill="#494B6B"/>
<path d="M244.134 172.173C244.105 172.098 244.002 172.295 244.012 172.37C244.433 174.298 244.602 176.572 242.964 177.546C242.917 177.574 242.935 177.677 243.001 177.649C245.088 176.956 244.845 173.933 244.134 172.173Z" fill="#494B6B"/>
<path d="M242.018 170.478C238.854 170.825 239.78 177.124 242.71 176.806C245.603 176.488 244.676 170.188 242.018 170.478Z" fill="#494B6B"/>
<path d="M258.174 164.262C257.285 164.206 256.47 164.01 255.59 163.86C254.598 163.691 253.793 163.663 253.035 162.952C252.623 162.568 252.614 161.745 252.951 161.314C253.737 160.303 255.001 160.209 256.199 160.359C257.5 160.518 258.464 160.977 259.372 161.922C260.233 162.83 259.344 164.337 258.174 164.262Z" fill="#494B6B"/>
<path d="M239.013 167.773C239.855 167.474 240.576 167.052 241.381 166.659C242.289 166.219 243.047 165.967 243.581 165.068C243.861 164.581 243.646 163.786 243.206 163.467C242.167 162.719 240.932 162.981 239.818 163.458C238.61 163.982 237.815 164.694 237.216 165.854C236.626 166.987 237.899 168.176 239.013 167.773Z" fill="#494B6B"/>
<path d="M260.458 187.43C260.074 187.973 259.728 188.684 259.035 188.871C258.37 189.059 257.519 188.9 256.854 188.769C256.788 188.759 256.742 188.834 256.788 188.881C257.434 189.527 258.576 189.798 259.447 189.471C260.299 189.152 260.589 188.31 260.654 187.467C260.673 187.364 260.514 187.346 260.458 187.43Z" fill="#494B6B"/>
<path d="M257.339 182.001C256.572 183.891 255.14 185.108 253.483 185.764C252.743 186.063 251.938 186.241 251.124 186.316C250.965 186.344 250.806 186.353 250.656 186.353C250.516 186.363 250.385 186.372 250.216 186.372C249.982 186.381 249.823 186.222 249.748 186.007V185.988C249.739 185.913 249.729 185.857 249.729 185.782C249.729 185.782 249.729 185.782 249.729 185.764L249.701 185.595C249.383 184.107 249.102 181.813 249.102 181.813C248.606 182.188 246.06 183.957 245.957 183.171C245.134 176.637 244.226 169.374 244.787 162.7C244.797 162.475 245.134 162.466 245.152 162.681C246.191 168.924 246.126 175.308 247.071 181.608C247.895 181.102 249.224 180.213 250.01 180.082C250.235 180.101 250.469 184.537 250.665 185.193C250.665 185.193 250.675 185.221 250.693 185.258C253.258 185.108 255.009 183.994 257.133 181.86C257.246 181.72 257.423 181.823 257.339 182.001Z" fill="#494B6B"/>
<path d="M251.865 185.398C251.865 185.398 253.522 186.933 255.46 187.242C256.171 187.354 256.91 187.317 257.622 186.97C259.091 186.278 258.867 184.845 258.352 183.685C257.931 182.73 257.313 181.953 257.313 181.953C257.313 181.953 255.45 184.49 251.865 185.398Z" fill="#494B6B"/>
<path d="M255.45 187.242C256.161 187.355 256.9 187.317 257.612 186.971C259.081 186.278 258.857 184.846 258.342 183.686C256.723 184.163 255.29 185.604 255.45 187.242Z" fill="#FF99BA"/>
<path opacity="0.2" d="M275.34 156.457C277.268 158.9 281.489 164.76 282.912 164.825C281.433 155.381 279.018 147.134 275.265 142.754C273.636 140.854 271.848 139.459 269.742 138.289C270.276 140.779 273.29 153.893 275.34 156.457Z" fill="#494B6B"/>
<path d="M247.203 150.71C249.581 152.909 252.941 153.789 256.077 152.909C259.138 152.057 261.983 149.549 262.76 146.404C262.779 146.31 262.929 146.348 262.91 146.441C262.077 149.802 259.765 152.759 256.292 153.639C253.035 154.463 249.309 153.349 247.044 150.869C246.941 150.775 247.091 150.607 247.203 150.71Z" fill="#494B6B"/>
<path d="M254.261 126.597C259.681 126.111 264.979 128.535 267.375 131.998C268.826 134.104 269.266 136.351 269.163 138.7C269.163 138.794 268.966 138.794 268.957 138.7C268.854 135.003 266.579 131.043 262.367 128.928C258.323 126.897 253.241 126.7 249.094 128.834C246.932 129.948 245.257 131.586 244.517 133.44C244.433 133.646 244.012 133.561 244.077 133.355C245.163 129.817 249.356 127.047 254.261 126.597Z" fill="#494B6B"/>
<path d="M224.186 141.855C224.739 139.094 226.339 136.604 228.548 134.872C231.637 132.448 235.419 132.327 239.182 132.289C239.284 132.289 239.284 132.448 239.182 132.448C235.98 132.495 232.732 132.729 229.99 134.545C227.753 136.024 225.993 138.28 225.216 140.854C223.597 146.208 226.386 152.311 231.544 154.501C234.464 155.746 237.909 155.708 240.801 154.398C240.913 154.351 241.025 154.51 240.904 154.566C235.634 157.122 228.895 155.343 225.806 150.298C224.271 147.818 223.606 144.729 224.186 141.855Z" fill="#494B6B"/>
<path d="M279.449 150.475C279.449 150.475 283.446 140.216 278.504 135.115C275.705 132.232 267.683 133.589 267.683 133.589C267.683 133.589 264.538 129.255 257.686 128.516C250.751 127.767 243.197 132.644 243.197 132.644C243.197 132.644 236.355 129.723 230.757 133.86C222.951 139.626 225.487 152.253 234.398 155.37C240.651 157.551 248.074 151.373 248.074 151.373C248.86 151.392 257.331 155.23 262.479 147.47C262.479 147.47 267.852 151.224 271.858 147.676C271.849 147.685 274.572 151.804 279.449 150.475Z" fill="#494B6B"/>
<path d="M258.903 178.387C254.251 178.667 250.245 175.12 249.955 170.468C249.674 165.816 253.222 161.81 257.874 161.519C262.526 161.239 266.532 164.786 266.822 169.438C267.066 173.37 264.557 176.842 260.972 177.993C260.317 178.209 259.624 178.34 258.903 178.387ZM251.088 170.402C251.331 174.427 254.813 177.507 258.838 177.263C262.863 177.02 265.942 173.538 265.699 169.513C265.446 165.488 261.974 162.409 257.949 162.652C257.331 162.69 256.732 162.802 256.161 162.989C253.044 163.991 250.882 166.995 251.088 170.402Z" fill="url(#paint41_linear_2712_54151)"/>
<path d="M241.39 181.766C237.992 182.43 234.492 179.257 233.593 174.69C233.163 172.509 233.387 170.328 234.211 168.549C235.063 166.715 236.457 165.517 238.142 165.189C239.827 164.861 241.568 165.442 243.047 166.818C244.479 168.147 245.509 170.084 245.93 172.265C246.772 176.59 244.994 180.633 241.914 181.625C241.755 181.682 241.577 181.728 241.39 181.766ZM235.241 169.027C234.52 170.59 234.323 172.518 234.707 174.474C235.484 178.434 238.386 181.204 241.175 180.661C243.974 180.118 245.602 176.449 244.835 172.49C244.451 170.543 243.543 168.821 242.289 167.651C241.081 166.527 239.687 166.05 238.367 166.303C238.226 166.331 238.086 166.368 237.955 166.406C236.813 166.771 235.858 167.679 235.241 169.027Z" fill="url(#paint42_linear_2712_54151)"/>
<path d="M250.423 171.376L250.966 170.384C249.505 169.579 246.313 168.727 244.713 171.292L245.668 171.891C247.109 169.588 250.292 171.301 250.423 171.376Z" fill="url(#paint43_linear_2712_54151)"/>
<path d="M287.771 166.275L288.66 165.573C288.332 165.161 285.393 161.548 282.838 161.632C280.451 161.717 265.868 166.022 265.25 166.2L265.568 167.286C269.743 166.05 281.022 162.821 282.866 162.765C284.551 162.699 286.975 165.283 287.771 166.275Z" fill="url(#paint44_linear_2712_54151)"/>
<path d="M278.008 168.513C278.008 168.513 281.462 157.683 286.189 158.638C290.916 159.602 290.251 173.951 286.058 177.19C281.864 180.428 278.794 176.609 278.794 176.609L278.008 168.513Z" fill="#FFBAA1"/>
<path d="M285.899 162.747C285.974 162.719 286.021 162.822 285.965 162.869C283.063 165.246 282.267 168.878 282.033 172.454C282.642 170.918 283.774 169.823 285.787 170.488C285.89 170.525 285.852 170.684 285.749 170.694C284.299 170.825 283.391 171.368 282.81 172.744C282.398 173.717 282.258 174.831 282.071 175.87C282.005 176.216 281.425 176.226 281.425 175.842C281.425 175.814 281.425 175.786 281.425 175.758C280.03 171.546 281.481 164.591 285.899 162.747Z" fill="#494B6B"/>
<path d="M283.231 160.303C283.231 160.303 282.557 145.158 277.231 137.352C271.297 128.665 254.916 122.853 243.197 132.643C243.197 132.643 260.224 128.225 271.362 138.681C276.482 143.492 278.261 161.267 278.261 161.267L283.231 160.303Z" fill="#C7C7C7"/>
<path d="M283.591 182.128C290.318 181.446 295.141 174.676 294.363 167.008C293.586 159.34 287.502 153.676 280.774 154.358C274.047 155.041 269.224 161.81 270.002 169.479C270.78 177.147 276.864 182.811 283.591 182.128Z" fill="#C7C7C7"/>
<path d="M273.506 168.679C274.208 175.569 279.675 180.661 285.721 180.052C291.768 179.434 296.102 173.35 295.409 166.461C294.707 159.572 289.241 154.48 283.194 155.088C277.138 155.697 272.804 161.79 273.506 168.679Z" fill="url(#paint45_linear_2712_54151)"/>
<path d="M310.338 209.585C328.478 229.017 371.629 301.933 357.645 315.374C343.558 328.918 266.008 310.722 244.199 300.332C237.712 297.243 262.367 256.788 269.995 255.843C276.342 255.057 308.803 269.902 309.739 268.039C310.797 265.933 303.43 252.389 295.624 224.187C286.61 191.669 302.326 201.002 310.338 209.585Z" fill="#FFBAA1"/>
<path d="M237.748 242.785C221.976 240.585 217.596 242.448 205.268 233.528C197.181 227.677 189.974 230.326 194.588 239.63C202.133 254.841 221.883 261.955 229.437 262.441L237.748 242.785Z" fill="#FFBAA1"/>
<path d="M279.635 257.967C279.635 257.967 261.916 248.129 245.349 244.123C233.892 241.352 208.282 238.114 183.787 263.377C177.974 269.367 173.949 282.032 186.988 275.685C196.254 271.183 200.766 265.53 206.635 263.892C206.635 263.892 203.424 280.6 209.649 286.188C212.429 288.687 220.188 295.323 226.975 299.629C226.975 299.629 228.313 298.403 229.783 296.615C229.783 296.615 236.091 301.286 247.979 300.153L279.635 257.967Z" fill="#FFBAA1"/>
<path d="M233.985 243.234C228.509 246.089 216.996 252.342 209.358 260.729C200.877 270.042 187.043 290.279 193.979 296.475C199.071 301.015 205.033 293.752 205.033 293.752C205.033 293.752 201.083 303.318 206.578 306.416C211.586 309.233 215.863 303.346 215.863 303.346C215.863 303.346 214.459 309.561 219.813 311.349C226.244 313.502 228.125 300.117 236.521 296.672C238.393 295.886 233.985 243.234 233.985 243.234Z" fill="#FFBAA1"/>
<path d="M220.693 268.048C215.985 271.577 207.336 282.351 204.949 293.499C204.893 293.751 205.052 293.929 205.155 293.705C210.397 281.986 217.511 272.129 220.787 268.123C220.824 268.076 220.749 268.011 220.693 268.048Z" fill="#263238" fill-opacity="0.2"/>
<path d="M229.858 276.885C226.104 280.348 217.689 291.843 215.658 303.234C215.611 303.487 215.789 303.655 215.873 303.431C220.844 290.963 226.928 281.153 229.951 276.96C229.989 276.904 229.904 276.838 229.858 276.885Z" fill="#263238" fill-opacity="0.2"/>
<path d="M206.635 263.791C201.496 265.307 198.155 267.825 193.821 270.839C191.678 272.327 189.497 273.787 187.203 275.032C185.107 276.165 182.027 277.878 179.79 276.099C178.545 275.116 178.564 273.319 178.845 271.906C179.154 270.315 179.762 268.789 180.707 267.469C180.754 267.404 180.642 267.319 180.595 267.385C179.725 268.555 178.976 269.809 178.47 271.185C178.012 272.43 177.656 273.881 178.002 275.201C178.76 278.037 182.102 278.411 184.461 277.625C185.874 277.157 187.213 276.408 188.504 275.669C189.749 274.957 190.957 274.18 192.155 273.375C194.598 271.728 196.947 269.94 199.362 268.255C202.021 266.411 203.865 265.513 206.71 263.978C206.804 263.912 206.738 263.762 206.635 263.791Z" fill="#263238" fill-opacity="0.2"/>
<path d="M195.871 281.865C197.2 278.935 204.398 266.729 206.738 263.902C206.795 263.828 206.701 263.734 206.635 263.799C202.629 267.6 196.189 277.681 194.692 280.91C193.213 284.102 191.5 288.183 191.5 291.74C191.5 297.113 195.057 298.123 196.377 298.386C197.949 298.694 199.531 298.367 200.944 297.637C202.517 296.822 204.033 295.138 205.091 293.743C205.147 293.668 205.044 293.574 204.988 293.64C203.125 295.755 200.037 297.843 197.116 297.459C195.853 297.29 194.57 296.719 193.793 295.671C192.885 294.436 192.81 292.816 192.932 291.347C193.213 288.042 194.505 284.879 195.871 281.865Z" fill="#263238" fill-opacity="0.2"/>
<path d="M215.65 303.234C214.901 303.87 213.366 306.098 210.913 306.575C209.126 306.922 207.254 306.753 205.878 305.452C204.53 304.179 204.024 302.372 203.94 300.566C203.893 299.546 204.708 295.137 205.063 293.808C205.091 293.705 204.96 293.658 204.932 293.752C204.155 296.12 203.322 298.703 203.322 301.025C203.322 302.953 203.931 305.031 205.382 306.379C206.879 307.773 209.069 308.269 210.998 307.549C211.952 307.193 214.976 305.255 215.856 303.346C215.874 303.299 215.687 303.206 215.65 303.234Z" fill="#263238" fill-opacity="0.2"/>
<path d="M236.007 295.7C235.165 296.196 234.435 296.945 233.733 297.619C232.975 298.339 232.254 299.097 231.543 299.865C230.12 301.4 228.894 303.16 227.827 304.957C226.741 306.782 225.739 308.804 223.97 310.077C222.239 311.313 219.861 311.509 218.092 310.227C217.175 309.553 216.557 308.598 216.257 307.503C215.948 306.38 215.743 305.004 215.911 303.843C215.93 303.74 215.78 303.721 215.771 303.824C215.686 304.957 215.377 306.005 215.509 307.157C215.621 308.168 215.948 309.16 216.557 309.983C217.802 311.668 220.011 312.408 222.042 312.033C224.288 311.621 225.926 309.937 227.143 308.111C228.501 306.08 229.614 303.918 231.065 301.943C231.823 300.904 232.572 299.856 233.415 298.873C234.285 297.853 235.324 296.935 236.129 295.868C236.195 295.765 236.11 295.644 236.007 295.7Z" fill="#263238" fill-opacity="0.2"/>
<path d="M242.289 300.276C240.604 300.126 236.71 299.48 233.64 298.479C233.546 298.451 233.425 298.703 233.509 298.75C234.651 299.377 237.047 300.014 237.777 300.154C239.219 300.444 240.8 300.575 242.27 300.426C242.345 300.426 242.382 300.285 242.289 300.276Z" fill="#263238" fill-opacity="0.2"/>
<path d="M339.091 282.22C334.57 279.131 329.74 276.473 324.816 274.067C319.94 271.681 314.829 269.837 309.662 268.199C306.714 267.262 303.728 266.467 300.742 265.662C300.648 265.634 300.62 265.774 300.705 265.802C305.918 267.365 311.01 269.397 316.008 271.549C320.979 273.693 325.902 275.921 330.798 278.251C333.568 279.571 336.264 281.013 338.988 282.417C339.119 282.473 339.212 282.295 339.091 282.22Z" fill="#263238" fill-opacity="0.2"/>
<path d="M347.498 255.412L303.458 253.952C303.458 253.952 295.258 232.217 292.141 212.879C289.024 193.541 304.862 199.447 321.392 220.143C337.932 240.847 347.498 255.412 347.498 255.412Z" fill="url(#paint46_linear_2712_54151)"/>
<path d="M308.363 237.806C308.119 237.993 307.913 238.096 307.661 238.152C307.174 238.246 306.697 238.105 306.36 237.749C305.826 237.235 304.974 237.085 304.338 237.403C304.01 237.534 303.739 237.824 303.58 238.058C303.411 238.311 303.224 238.545 303.074 238.817C303.346 238.667 303.58 238.48 303.842 238.311C304.085 238.115 304.282 238.002 304.534 237.937C305.012 237.824 305.517 237.955 305.845 238.283C306.341 238.798 307.193 238.994 307.839 238.704C308.166 238.573 308.447 238.311 308.615 238.058C308.784 237.806 308.971 237.572 309.121 237.3C308.849 237.45 308.615 237.637 308.363 237.806ZM322.253 229.709C322.188 229.41 322.15 229.11 322.066 228.81C321.982 229.11 321.944 229.41 321.888 229.709C321.851 230.018 321.795 230.243 321.664 230.458C321.402 230.879 320.952 231.151 320.494 231.141C319.773 231.132 319.033 231.59 318.781 232.264C318.64 232.583 318.631 232.966 318.687 233.266C318.743 233.565 318.781 233.865 318.865 234.165C318.949 233.865 318.987 233.565 319.052 233.266C319.08 232.957 319.164 232.742 319.295 232.526C319.576 232.115 320.016 231.871 320.503 231.881C321.242 231.871 321.944 231.375 322.178 230.701C322.319 230.383 322.3 229.981 322.253 229.709ZM306.781 205.494C306.781 205.606 306.79 205.709 306.809 205.812C306.874 206.103 306.903 206.402 306.987 206.702C307.071 206.402 307.108 206.103 307.174 205.812C307.174 205.803 307.174 205.803 307.174 205.794C307.043 205.681 306.912 205.588 306.781 205.494ZM338.175 242.121C337.838 242.111 337.529 241.971 337.305 241.737C336.808 241.222 335.957 241.035 335.301 241.325C334.974 241.447 334.693 241.718 334.525 241.962C334.356 242.224 334.169 242.458 334.019 242.729C334.291 242.579 334.525 242.392 334.787 242.224C335.021 242.027 335.236 241.924 335.479 241.877C335.966 241.774 336.453 241.924 336.79 242.27C337.258 242.738 337.988 242.898 338.596 242.71C338.465 242.523 338.325 242.327 338.175 242.121ZM307.698 220.171C307.389 220.134 307.165 220.059 306.949 219.928C306.537 219.647 306.303 219.207 306.313 218.72C306.303 217.971 305.807 217.269 305.133 217.035C304.806 216.904 304.413 216.914 304.132 216.97C303.832 217.035 303.533 217.073 303.233 217.157C303.533 217.232 303.832 217.269 304.132 217.335C304.45 217.372 304.665 217.428 304.89 217.559C305.311 217.822 305.573 218.271 305.573 218.73C305.564 219.441 306.023 220.19 306.697 220.442C307.015 220.583 307.399 220.592 307.698 220.536C307.988 220.471 308.288 220.442 308.587 220.358C308.288 220.274 307.988 220.237 307.698 220.171ZM327.954 250.976C327.645 250.938 327.43 250.863 327.214 250.723C326.802 250.451 326.559 250.011 326.568 249.515C326.559 248.776 326.063 248.074 325.389 247.84C325.071 247.709 324.668 247.718 324.397 247.774C324.097 247.84 323.798 247.868 323.498 247.952C323.798 248.036 324.097 248.074 324.397 248.139C324.706 248.167 324.93 248.233 325.146 248.364C325.567 248.617 325.838 249.066 325.829 249.534C325.82 250.245 326.278 250.985 326.952 251.238C327.27 251.387 327.654 251.397 327.954 251.341C328.253 251.275 328.553 251.238 328.852 251.153C328.553 251.069 328.253 251.032 327.954 250.976Z" fill="white"/>
<path d="M305.274 253.802C305.04 253.802 303.486 253.53 303.477 253.53C303.365 252.95 300.856 243.871 300.191 241.886C298.844 237.861 297.262 233.902 295.736 229.933C295.689 229.812 295.493 229.858 295.53 229.999C296.522 233.406 297.458 236.841 298.479 240.239C298.17 239.752 297.87 239.275 297.58 238.779C296.981 237.768 296.466 236.719 295.905 235.69C295.858 235.596 295.708 235.671 295.736 235.765C296.176 237.197 296.887 238.554 297.674 239.818C298.011 240.361 298.404 240.875 298.816 241.371C298.9 241.652 298.984 241.942 299.078 242.223C299.705 244.208 302.925 254.045 303.093 254.055C303.131 254.055 304.722 254.092 305.218 254.092C305.349 254.101 305.396 253.802 305.274 253.802Z" fill="#263238" fill-opacity="0.2"/>
<path d="M340.365 246.884C330.864 246.173 321.307 246.126 311.769 246.267C309.073 246.304 306.378 246.407 303.682 246.575C303.607 246.585 303.588 246.688 303.673 246.697C308.418 246.95 313.183 247.015 317.938 247.1C322.711 247.184 327.485 247.24 332.259 247.193C334.955 247.165 337.65 247.146 340.346 247.062C340.468 247.062 340.486 246.894 340.365 246.884Z" fill="#263238" fill-opacity="0.2"/>
<path d="M187.895 331.48H194.615V327.091H187.895V331.48Z" fill="url(#paint47_linear_2712_54151)"/>
<path d="M179.182 331.189H185.902V326.8H179.182V331.189Z" fill="url(#paint48_linear_2712_54151)"/>
<path d="M170.457 330.9H177.178V326.51H170.457V330.9Z" fill="url(#paint49_linear_2712_54151)"/>
<path d="M161.744 330.609H168.465V326.219H161.744V330.609Z" fill="url(#paint50_linear_2712_54151)"/>
<path d="M153.02 330.32H159.74V325.93H153.02V330.32Z" fill="url(#paint51_linear_2712_54151)"/>
<path d="M144.307 330.029H151.027V325.639H144.307V330.029Z" fill="url(#paint52_linear_2712_54151)"/>
<path d="M135.582 329.74H142.303V325.35H135.582V329.74Z" fill="url(#paint53_linear_2712_54151)"/>
<path d="M126.867 329.449H133.588V325.059H126.867V329.449Z" fill="url(#paint54_linear_2712_54151)"/>
<path d="M118.145 329.16H124.865V324.77H118.145V329.16Z" fill="url(#paint55_linear_2712_54151)"/>
<path d="M116.496 334.003H196.264V328.658L116.496 326.439V334.003Z" fill="url(#paint56_linear_2712_54151)"/>
<path d="M38.6381 312.941H170.327L149.388 214.902H17.6992L38.6381 312.941Z" fill="url(#paint57_linear_2712_54151)"/>
<path d="M33.7709 312.941H165.451L144.512 214.902H12.832L33.7709 312.941Z" fill="url(#paint58_linear_2712_54151)"/>
<path d="M77.7648 258.241C78.4761 262.734 82.6976 266.384 87.1999 266.384C91.6928 266.384 94.7629 262.743 94.0516 258.241C93.3402 253.748 89.1187 250.098 84.6165 250.098C80.1142 250.098 77.0534 253.748 77.7648 258.241Z" fill="url(#paint59_linear_2712_54151)"/>
<path d="M71.0156 338.543H135.779V333.517L71.0156 331.42V338.543Z" fill="url(#paint60_linear_2712_54151)"/>
<path d="M53.4082 338.533H88.1814L109.12 283.598H74.347L53.4082 338.533Z" fill="url(#paint61_linear_2712_54151)"/>
<path d="M47.6797 338.533H82.4529L103.401 283.598H68.6279L47.6797 338.533Z" fill="url(#paint62_linear_2712_54151)"/>
<path d="M198.726 339.879C198.726 339.879 259.801 339.879 265.501 339.879C271.202 339.879 262.955 323.658 242.157 317.424C221.359 311.2 192.164 333.786 198.726 339.879Z" fill="url(#paint63_linear_2712_54151)"/>
<path d="M224.927 339.879C224.524 338.092 223.953 336.36 223.317 334.675C222.652 333 221.884 331.371 220.948 329.836C220.05 328.282 218.927 326.878 217.71 325.577L216.764 324.622L215.725 323.752C215.07 323.115 214.256 322.703 213.535 322.123C215.201 322.863 216.877 323.752 218.215 325.053C219.591 326.298 220.808 327.749 221.753 329.358C222.699 330.959 223.466 332.663 224.009 334.441C224.543 336.21 224.88 338.035 224.927 339.879Z" fill="url(#paint64_linear_2712_54151)"/>
<path d="M217.016 324.436C216.099 324.932 215.182 325.4 214.293 325.914C213.385 326.401 212.486 326.907 211.606 327.431C209.847 328.489 208.096 329.556 206.439 330.754C204.773 331.924 203.191 333.225 201.787 334.676C201.085 335.406 200.449 336.201 199.925 337.063C199.372 337.914 198.97 338.86 198.727 339.871C198.755 338.832 199.082 337.802 199.513 336.847C199.981 335.902 200.58 335.022 201.235 334.198C202.574 332.56 204.193 331.203 205.887 329.986C207.591 328.779 209.388 327.721 211.251 326.794C213.132 325.886 215.032 325.053 217.016 324.436Z" fill="url(#paint65_linear_2712_54151)"/>
<path d="M324.096 301.025L320.127 350.85H292.721L288.752 301.025H324.096Z" fill="url(#paint66_linear_2712_54151)"/>
<path opacity="0.1" d="M324.096 301.025L320.127 350.85H292.721L288.752 301.025H324.096Z" fill="url(#paint67_linear_2712_54151)"/>
<path d="M326.456 296.523H286.16V303.787H326.456V296.523Z" fill="url(#paint68_linear_2712_54151)"/>
<path d="M323.695 296.523H288.922L290.953 288.361H321.664L323.695 296.523Z" fill="url(#paint69_linear_2712_54151)"/>
<path d="M315.945 326.374C315.945 332.842 311.686 338.083 306.426 338.083C301.165 338.083 296.906 332.842 296.906 326.374C296.906 319.906 301.165 314.664 306.426 314.664C311.686 314.664 315.945 319.906 315.945 326.374Z" fill="white" fill-opacity="0.3"/>
</g>
<defs>
<linearGradient id="paint0_linear_2712_54151" x1="382.602" y1="7.37857" x2="368.209" y2="126.268" gradientUnits="userSpaceOnUse">
<stop stop-color="#494B6B"/>
<stop offset="1" stop-color="#878294"/>
</linearGradient>
<linearGradient id="paint1_linear_2712_54151" x1="382.607" y1="127.57" x2="382.601" y2="132.362" gradientUnits="userSpaceOnUse">
<stop stop-color="#494B6B"/>
<stop offset="1" stop-color="#878294"/>
</linearGradient>
<linearGradient id="paint2_linear_2712_54151" x1="385.973" y1="7.21066" x2="359.345" y2="167.909" gradientUnits="userSpaceOnUse">
<stop stop-color="#494B6B"/>
<stop offset="1" stop-color="#878294"/>
</linearGradient>
<linearGradient id="paint3_linear_2712_54151" x1="385.986" y1="171.041" x2="385.98" y2="175.832" gradientUnits="userSpaceOnUse">
<stop stop-color="#494B6B"/>
<stop offset="1" stop-color="#878294"/>
</linearGradient>
<linearGradient id="paint4_linear_2712_54151" x1="13.5465" y1="0.604754" x2="14.6309" y2="17.6506" gradientUnits="userSpaceOnUse">
<stop stop-color="#37E2DE"/>
<stop offset="1" stop-color="#07C2C2"/>
</linearGradient>
<linearGradient id="paint5_linear_2712_54151" x1="213.554" y1="170.365" x2="213.554" y2="181.588" gradientUnits="userSpaceOnUse">
<stop stop-color="#FFD93C"/>
<stop offset="1" stop-color="#FEF237"/>
</linearGradient>
<linearGradient id="paint6_linear_2712_54151" x1="61.7964" y1="56.3645" x2="62.4483" y2="73.4545" gradientUnits="userSpaceOnUse">
<stop stop-color="#37E2DE"/>
<stop offset="1" stop-color="#07C2C2"/>
</linearGradient>
<linearGradient id="paint7_linear_2712_54151" x1="69.2467" y1="59.2129" x2="69.2467" y2="64.8665" gradientUnits="userSpaceOnUse">
<stop stop-color="#9BCDFC"/>
<stop offset="1" stop-color="#7FACEC"/>
</linearGradient>
<linearGradient id="paint8_linear_2712_54151" x1="156.483" y1="89.8994" x2="156.819" y2="93.2056" gradientUnits="userSpaceOnUse">
<stop stop-color="#37E2DE"/>
<stop offset="1" stop-color="#07C2C2"/>
</linearGradient>
<linearGradient id="paint9_linear_2712_54151" x1="180.188" y1="89.8965" x2="180.188" y2="92.0868" gradientUnits="userSpaceOnUse">
<stop stop-color="#9BCDFC"/>
<stop offset="1" stop-color="#7FACEC"/>
</linearGradient>
<linearGradient id="paint10_linear_2712_54151" x1="112.382" y1="95.7637" x2="112.382" y2="97.954" gradientUnits="userSpaceOnUse">
<stop stop-color="#9BCDFC"/>
<stop offset="1" stop-color="#7FACEC"/>
</linearGradient>
<linearGradient id="paint11_linear_2712_54151" x1="166.598" y1="119.221" x2="166.598" y2="121.411" gradientUnits="userSpaceOnUse">
<stop stop-color="#9BCDFC"/>
<stop offset="1" stop-color="#7FACEC"/>
</linearGradient>
<linearGradient id="paint12_linear_2712_54151" x1="105.522" y1="113.352" x2="105.522" y2="115.542" gradientUnits="userSpaceOnUse">
<stop stop-color="#9BCDFC"/>
<stop offset="1" stop-color="#7FACEC"/>
</linearGradient>
<linearGradient id="paint13_linear_2712_54151" x1="89.8502" y1="101.628" x2="89.9775" y2="104.963" gradientUnits="userSpaceOnUse">
<stop stop-color="#37E2DE"/>
<stop offset="1" stop-color="#07C2C2"/>
</linearGradient>
<linearGradient id="paint14_linear_2712_54151" x1="169.855" y1="107.492" x2="169.855" y2="109.682" gradientUnits="userSpaceOnUse">
<stop stop-color="#9BCDFC"/>
<stop offset="1" stop-color="#7FACEC"/>
</linearGradient>
<linearGradient id="paint15_linear_2712_54151" x1="147.587" y1="101.625" x2="147.587" y2="103.815" gradientUnits="userSpaceOnUse">
<stop stop-color="#9BCDFC"/>
<stop offset="1" stop-color="#7FACEC"/>
</linearGradient>
<linearGradient id="paint16_linear_2712_54151" x1="84.0454" y1="119.224" x2="84.1123" y2="122.562" gradientUnits="userSpaceOnUse">
<stop stop-color="#37E2DE"/>
<stop offset="1" stop-color="#07C2C2"/>
</linearGradient>
<linearGradient id="paint17_linear_2712_54151" x1="169.116" y1="95.7666" x2="169.239" y2="99.1022" gradientUnits="userSpaceOnUse">
<stop stop-color="#37E2DE"/>
<stop offset="1" stop-color="#07C2C2"/>
</linearGradient>
<linearGradient id="paint18_linear_2712_54151" x1="76.58" y1="107.492" x2="76.58" y2="109.682" gradientUnits="userSpaceOnUse">
<stop stop-color="#9BCDFC"/>
<stop offset="1" stop-color="#7FACEC"/>
</linearGradient>
<linearGradient id="paint19_linear_2712_54151" x1="155.966" y1="130.952" x2="156.109" y2="134.286" gradientUnits="userSpaceOnUse">
<stop stop-color="#37E2DE"/>
<stop offset="1" stop-color="#07C2C2"/>
</linearGradient>
<linearGradient id="paint20_linear_2712_54151" x1="128.199" y1="125.093" x2="128.307" y2="128.429" gradientUnits="userSpaceOnUse">
<stop stop-color="#37E2DE"/>
<stop offset="1" stop-color="#07C2C2"/>
</linearGradient>
<linearGradient id="paint21_linear_2712_54151" x1="94.9349" y1="130.949" x2="94.9349" y2="133.14" gradientUnits="userSpaceOnUse">
<stop stop-color="#9BCDFC"/>
<stop offset="1" stop-color="#7FACEC"/>
</linearGradient>
<linearGradient id="paint22_linear_2712_54151" x1="170.376" y1="113.354" x2="170.534" y2="116.687" gradientUnits="userSpaceOnUse">
<stop stop-color="#37E2DE"/>
<stop offset="1" stop-color="#07C2C2"/>
</linearGradient>
<linearGradient id="paint23_linear_2712_54151" x1="123.074" y1="107.495" x2="123.175" y2="110.832" gradientUnits="userSpaceOnUse">
<stop stop-color="#37E2DE"/>
<stop offset="1" stop-color="#07C2C2"/>
</linearGradient>
<linearGradient id="paint24_linear_2712_54151" x1="82.58" y1="125.09" x2="82.58" y2="127.28" gradientUnits="userSpaceOnUse">
<stop stop-color="#9BCDFC"/>
<stop offset="1" stop-color="#7FACEC"/>
</linearGradient>
<linearGradient id="paint25_linear_2712_54151" x1="112.382" y1="141.732" x2="112.382" y2="143.923" gradientUnits="userSpaceOnUse">
<stop stop-color="#9BCDFC"/>
<stop offset="1" stop-color="#7FACEC"/>
</linearGradient>
<linearGradient id="paint26_linear_2712_54151" x1="105.522" y1="159.33" x2="105.522" y2="161.52" gradientUnits="userSpaceOnUse">
<stop stop-color="#9BCDFC"/>
<stop offset="1" stop-color="#7FACEC"/>
</linearGradient>
<linearGradient id="paint27_linear_2712_54151" x1="89.8502" y1="147.595" x2="89.9775" y2="150.93" gradientUnits="userSpaceOnUse">
<stop stop-color="#37E2DE"/>
<stop offset="1" stop-color="#07C2C2"/>
</linearGradient>
<linearGradient id="paint28_linear_2712_54151" x1="147.587" y1="147.592" x2="147.587" y2="149.782" gradientUnits="userSpaceOnUse">
<stop stop-color="#9BCDFC"/>
<stop offset="1" stop-color="#7FACEC"/>
</linearGradient>
<linearGradient id="paint29_linear_2712_54151" x1="84.0454" y1="165.192" x2="84.1123" y2="168.531" gradientUnits="userSpaceOnUse">
<stop stop-color="#37E2DE"/>
<stop offset="1" stop-color="#07C2C2"/>
</linearGradient>
<linearGradient id="paint30_linear_2712_54151" x1="169.116" y1="141.735" x2="169.239" y2="145.071" gradientUnits="userSpaceOnUse">
<stop stop-color="#37E2DE"/>
<stop offset="1" stop-color="#07C2C2"/>
</linearGradient>
<linearGradient id="paint31_linear_2712_54151" x1="76.58" y1="153.461" x2="76.58" y2="155.651" gradientUnits="userSpaceOnUse">
<stop stop-color="#9BCDFC"/>
<stop offset="1" stop-color="#7FACEC"/>
</linearGradient>
<linearGradient id="paint32_linear_2712_54151" x1="123.074" y1="153.464" x2="123.175" y2="156.801" gradientUnits="userSpaceOnUse">
<stop stop-color="#37E2DE"/>
<stop offset="1" stop-color="#07C2C2"/>
</linearGradient>
<linearGradient id="paint33_linear_2712_54151" x1="74.0719" y1="79.3006" x2="78.4033" y2="84.1493" gradientUnits="userSpaceOnUse">
<stop stop-color="#37E2DE"/>
<stop offset="1" stop-color="#07C2C2"/>
</linearGradient>
<linearGradient id="paint34_linear_2712_54151" x1="79.3544" y1="79.324" x2="83.701" y2="83.5503" gradientUnits="userSpaceOnUse">
<stop stop-color="#37E2DE"/>
<stop offset="1" stop-color="#07C2C2"/>
</linearGradient>
<linearGradient id="paint35_linear_2712_54151" x1="82.9508" y1="79.3201" x2="87.2757" y2="84.156" gradientUnits="userSpaceOnUse">
<stop stop-color="#37E2DE"/>
<stop offset="1" stop-color="#07C2C2"/>
</linearGradient>
<linearGradient id="paint36_linear_2712_54151" x1="202.686" y1="38.4805" x2="202.686" y2="61.9466" gradientUnits="userSpaceOnUse">
<stop stop-color="#9BCDFC"/>
<stop offset="1" stop-color="#7FACEC"/>
</linearGradient>
<linearGradient id="paint37_linear_2712_54151" x1="38.9248" y1="128.123" x2="38.9248" y2="151.589" gradientUnits="userSpaceOnUse">
<stop stop-color="#9BCDFC"/>
<stop offset="1" stop-color="#7FACEC"/>
</linearGradient>
<linearGradient id="paint38_linear_2712_54151" x1="253.978" y1="203.461" x2="253.978" y2="257.912" gradientUnits="userSpaceOnUse">
<stop stop-color="#FFD93C"/>
<stop offset="1" stop-color="#FEF237"/>
</linearGradient>
<linearGradient id="paint39_linear_2712_54151" x1="294.885" y1="196.77" x2="294.885" y2="328.263" gradientUnits="userSpaceOnUse">
<stop stop-color="#FFD93C"/>
<stop offset="1" stop-color="#FEF237"/>
</linearGradient>
<linearGradient id="paint40_linear_2712_54151" x1="241.389" y1="160.909" x2="241.362" y2="186.007" gradientUnits="userSpaceOnUse">
<stop stop-color="#5F4EDC"/>
<stop offset="1" stop-color="#8B65EC"/>
</linearGradient>
<linearGradient id="paint41_linear_2712_54151" x1="258.452" y1="161.44" x2="258.436" y2="178.402" gradientUnits="userSpaceOnUse">
<stop stop-color="#8B65EC"/>
<stop offset="1" stop-color="#5F4EDC"/>
</linearGradient>
<linearGradient id="paint42_linear_2712_54151" x1="239.807" y1="165.036" x2="239.786" y2="181.854" gradientUnits="userSpaceOnUse">
<stop stop-color="#8B65EC"/>
<stop offset="1" stop-color="#5F4EDC"/>
</linearGradient>
<linearGradient id="paint43_linear_2712_54151" x1="247.863" y1="169.565" x2="247.862" y2="171.891" gradientUnits="userSpaceOnUse">
<stop stop-color="#8B65EC"/>
<stop offset="1" stop-color="#5F4EDC"/>
</linearGradient>
<linearGradient id="paint44_linear_2712_54151" x1="277.043" y1="161.609" x2="277.041" y2="167.286" gradientUnits="userSpaceOnUse">
<stop stop-color="#8B65EC"/>
<stop offset="1" stop-color="#5F4EDC"/>
</linearGradient>
<linearGradient id="paint45_linear_2712_54151" x1="284.539" y1="154.944" x2="284.512" y2="180.101" gradientUnits="userSpaceOnUse">
<stop stop-color="#8B65EC"/>
<stop offset="1" stop-color="#5F4EDC"/>
</linearGradient>
<linearGradient id="paint46_linear_2712_54151" x1="319.622" y1="201.098" x2="319.622" y2="255.412" gradientUnits="userSpaceOnUse">
<stop stop-color="#FFD93C"/>
<stop offset="1" stop-color="#FEF237"/>
</linearGradient>
<linearGradient id="paint47_linear_2712_54151" x1="191.23" y1="331.497" x2="191.232" y2="327.091" gradientUnits="userSpaceOnUse">
<stop stop-color="#8B65EC"/>
<stop offset="1" stop-color="#5F4EDC"/>
</linearGradient>
<linearGradient id="paint48_linear_2712_54151" x1="182.517" y1="331.206" x2="182.52" y2="326.799" gradientUnits="userSpaceOnUse">
<stop stop-color="#8B65EC"/>
<stop offset="1" stop-color="#5F4EDC"/>
</linearGradient>
<linearGradient id="paint49_linear_2712_54151" x1="173.792" y1="330.917" x2="173.795" y2="326.51" gradientUnits="userSpaceOnUse">
<stop stop-color="#8B65EC"/>
<stop offset="1" stop-color="#5F4EDC"/>
</linearGradient>
<linearGradient id="paint50_linear_2712_54151" x1="165.079" y1="330.626" x2="165.082" y2="326.219" gradientUnits="userSpaceOnUse">
<stop stop-color="#8B65EC"/>
<stop offset="1" stop-color="#5F4EDC"/>
</linearGradient>
<linearGradient id="paint51_linear_2712_54151" x1="156.355" y1="330.337" x2="156.357" y2="325.93" gradientUnits="userSpaceOnUse">
<stop stop-color="#8B65EC"/>
<stop offset="1" stop-color="#5F4EDC"/>
</linearGradient>
<linearGradient id="paint52_linear_2712_54151" x1="147.642" y1="330.046" x2="147.645" y2="325.639" gradientUnits="userSpaceOnUse">
<stop stop-color="#8B65EC"/>
<stop offset="1" stop-color="#5F4EDC"/>
</linearGradient>
<linearGradient id="paint53_linear_2712_54151" x1="138.917" y1="329.757" x2="138.92" y2="325.35" gradientUnits="userSpaceOnUse">
<stop stop-color="#8B65EC"/>
<stop offset="1" stop-color="#5F4EDC"/>
</linearGradient>
<linearGradient id="paint54_linear_2712_54151" x1="130.202" y1="329.466" x2="130.205" y2="325.059" gradientUnits="userSpaceOnUse">
<stop stop-color="#8B65EC"/>
<stop offset="1" stop-color="#5F4EDC"/>
</linearGradient>
<linearGradient id="paint55_linear_2712_54151" x1="121.48" y1="329.177" x2="121.482" y2="324.77" gradientUnits="userSpaceOnUse">
<stop stop-color="#8B65EC"/>
<stop offset="1" stop-color="#5F4EDC"/>
</linearGradient>
<linearGradient id="paint56_linear_2712_54151" x1="156.679" y1="326.411" x2="156.678" y2="334.003" gradientUnits="userSpaceOnUse">
<stop stop-color="#8B65EC"/>
<stop offset="1" stop-color="#5F4EDC"/>
</linearGradient>
<linearGradient id="paint57_linear_2712_54151" x1="94.5845" y1="214.531" x2="94.5249" y2="312.942" gradientUnits="userSpaceOnUse">
<stop stop-color="#8B65EC"/>
<stop offset="1" stop-color="#5F4EDC"/>
</linearGradient>
<linearGradient id="paint58_linear_2712_54151" x1="89.7126" y1="214.531" x2="89.653" y2="312.942" gradientUnits="userSpaceOnUse">
<stop stop-color="#8B65EC"/>
<stop offset="1" stop-color="#5F4EDC"/>
</linearGradient>
<linearGradient id="paint59_linear_2712_54151" x1="85.9698" y1="250.036" x2="85.9546" y2="266.384" gradientUnits="userSpaceOnUse">
<stop stop-color="#5F4EDC"/>
<stop offset="1" stop-color="#8B65EC"/>
</linearGradient>
<linearGradient id="paint60_linear_2712_54151" x1="103.64" y1="331.393" x2="103.639" y2="338.543" gradientUnits="userSpaceOnUse">
<stop stop-color="#8B65EC"/>
<stop offset="1" stop-color="#5F4EDC"/>
</linearGradient>
<linearGradient id="paint61_linear_2712_54151" x1="81.4728" y1="283.389" x2="81.4215" y2="338.533" gradientUnits="userSpaceOnUse">
<stop stop-color="#8B65EC"/>
<stop offset="1" stop-color="#5F4EDC"/>
</linearGradient>
<linearGradient id="paint62_linear_2712_54151" x1="75.749" y1="283.389" x2="75.6977" y2="338.533" gradientUnits="userSpaceOnUse">
<stop stop-color="#5F4EDC"/>
<stop offset="1" stop-color="#8B65EC"/>
</linearGradient>
<linearGradient id="paint63_linear_2712_54151" x1="232.783" y1="316.26" x2="232.776" y2="339.879" gradientUnits="userSpaceOnUse">
<stop stop-color="#494B6B"/>
<stop offset="1" stop-color="#878294"/>
</linearGradient>
<linearGradient id="paint64_linear_2712_54151" x1="219.273" y1="322.056" x2="219.247" y2="339.879" gradientUnits="userSpaceOnUse">
<stop stop-color="#8082AB"/>
<stop offset="1" stop-color="#494B6B"/>
</linearGradient>
<linearGradient id="paint65_linear_2712_54151" x1="207.94" y1="324.377" x2="207.928" y2="339.871" gradientUnits="userSpaceOnUse">
<stop stop-color="#8082AB"/>
<stop offset="1" stop-color="#494B6B"/>
</linearGradient>
<linearGradient id="paint66_linear_2712_54151" x1="306.424" y1="301.025" x2="306.424" y2="350.85" gradientUnits="userSpaceOnUse">
<stop stop-color="#9BCDFC"/>
<stop offset="1" stop-color="#7FACEC"/>
</linearGradient>
<linearGradient id="paint67_linear_2712_54151" x1="306.556" y1="300.837" x2="306.49" y2="350.85" gradientUnits="userSpaceOnUse">
<stop stop-color="#494B6B"/>
<stop offset="1" stop-color="#878294"/>
</linearGradient>
<linearGradient id="paint68_linear_2712_54151" x1="306.459" y1="296.496" x2="306.458" y2="303.787" gradientUnits="userSpaceOnUse">
<stop stop-color="#494B6B"/>
<stop offset="1" stop-color="#878294"/>
</linearGradient>
<linearGradient id="paint69_linear_2712_54151" x1="306.439" y1="288.33" x2="306.437" y2="296.523" gradientUnits="userSpaceOnUse">
<stop stop-color="#494B6B"/>
<stop offset="1" stop-color="#878294"/>
</linearGradient>
<clipPath id="clip0_2712_54151">
<rect width="400" height="361.492" fill="white"/>
</clipPath>
</defs>
</svg>
