<svg width="560" height="206" viewBox="0 0 560 206" fill="none" xmlns="http://www.w3.org/2000/svg">
<path d="M546.984 175.96H67.258C63.6168 175.96 60.6565 173.01 60.6565 169.359V125.211H546.984V175.96Z" fill="url(#paint0_linear_2746_9630)"/>
<path d="M372.238 140.34H350.223V205.654H372.238V140.34Z" fill="url(#paint1_linear_2746_9630)"/>
<path d="M350.223 205.666C364.137 205.666 375.415 194.387 375.415 180.474V165.544C375.415 151.63 364.137 140.352 350.223 140.352C336.31 140.352 325.031 151.63 325.031 165.544V180.474C325.031 194.387 336.31 205.666 350.223 205.666Z" fill="url(#paint2_linear_2746_9630)"/>
<path d="M372.238 205.666C386.151 205.666 397.43 194.387 397.43 180.474V165.544C397.43 151.63 386.151 140.352 372.238 140.352C358.325 140.352 347.046 151.63 347.046 165.544V180.474C347.046 194.387 358.325 205.666 372.238 205.666Z" fill="url(#paint3_linear_2746_9630)"/>
<path d="M140.91 140.34H118.896V205.654H140.91V140.34Z" fill="url(#paint4_linear_2746_9630)"/>
<path d="M118.896 205.666C132.809 205.666 144.088 194.387 144.088 180.474V165.544C144.088 151.63 132.809 140.352 118.896 140.352C104.982 140.352 93.7034 151.63 93.7034 165.544V180.474C93.7034 194.387 104.982 205.666 118.896 205.666Z" fill="url(#paint5_linear_2746_9630)"/>
<path d="M140.92 205.666C154.834 205.666 166.112 194.387 166.112 180.474V165.544C166.112 151.63 154.834 140.352 140.92 140.352C127.007 140.352 115.728 151.63 115.728 165.544V180.474C115.728 194.387 127.007 205.666 140.92 205.666Z" fill="url(#paint6_linear_2746_9630)"/>
<path d="M210.31 179.604H144.226C142.4 179.604 140.92 178.123 140.92 176.298C140.92 174.472 142.4 172.992 144.226 172.992H210.31C212.135 172.992 213.615 174.472 213.615 176.298C213.615 178.133 212.135 179.604 210.31 179.604Z" fill="url(#paint7_linear_2746_9630)"/>
<path d="M441.627 179.604H375.544C373.718 179.604 372.238 178.123 372.238 176.298C372.238 174.472 373.718 172.992 375.544 172.992H441.627C443.453 172.992 444.933 174.472 444.933 176.298C444.933 178.133 443.453 179.604 441.627 179.604Z" fill="url(#paint8_linear_2746_9630)"/>
<path d="M483.121 140.34H461.106V205.654H483.121V140.34Z" fill="url(#paint9_linear_2746_9630)"/>
<path d="M461.106 205.666C475.02 205.666 486.298 194.387 486.298 180.474V165.544C486.298 151.63 475.02 140.352 461.106 140.352C447.193 140.352 435.914 151.63 435.914 165.544V180.474C435.914 194.387 447.193 205.666 461.106 205.666Z" fill="url(#paint10_linear_2746_9630)"/>
<path d="M483.121 205.666C497.034 205.666 508.313 194.387 508.313 180.474V165.544C508.313 151.63 497.034 140.352 483.121 140.352C469.207 140.352 457.929 151.63 457.929 165.544V180.474C457.929 194.387 469.207 205.666 483.121 205.666Z" fill="url(#paint11_linear_2746_9630)"/>
<path d="M483.121 190.508C490.581 190.508 496.62 184.46 496.62 177.009V169.007C496.62 161.547 490.571 155.508 483.121 155.508C475.661 155.508 469.622 161.557 469.622 169.007V177.009C469.622 184.46 475.671 190.508 483.121 190.508Z" fill="url(#paint12_linear_2746_9630)"/>
<path d="M483.121 179.948C486.081 179.948 488.479 177.551 488.479 174.59V171.413C488.479 168.453 486.081 166.055 483.121 166.055C480.161 166.055 477.763 168.453 477.763 171.413V174.59C477.773 177.551 480.17 179.948 483.121 179.948Z" fill="url(#paint13_linear_2746_9630)"/>
<path d="M252.78 140.34H230.765V205.654H252.78V140.34Z" fill="url(#paint14_linear_2746_9630)"/>
<path d="M230.765 205.666C244.679 205.666 255.958 194.387 255.958 180.474V165.544C255.958 151.63 244.679 140.352 230.765 140.352C216.852 140.352 205.573 151.63 205.573 165.544V180.474C205.573 194.387 216.852 205.666 230.765 205.666Z" fill="url(#paint15_linear_2746_9630)"/>
<path d="M252.79 205.666C266.703 205.666 277.982 194.387 277.982 180.474V165.544C277.982 151.63 266.703 140.352 252.79 140.352C238.877 140.352 227.598 151.63 227.598 165.544V180.474C227.598 194.387 238.877 205.666 252.79 205.666Z" fill="url(#paint16_linear_2746_9630)"/>
<path d="M252.79 190.508C260.25 190.508 266.289 184.46 266.289 177.009V169.007C266.289 161.547 260.24 155.508 252.79 155.508C245.33 155.508 239.291 161.557 239.291 169.007V177.009C239.291 184.46 245.33 190.508 252.79 190.508Z" fill="url(#paint17_linear_2746_9630)"/>
<path d="M252.79 179.948C255.75 179.948 258.148 177.551 258.148 174.59V171.413C258.148 168.453 255.75 166.055 252.79 166.055C249.83 166.055 247.432 168.453 247.432 171.413V174.59C247.432 177.551 249.83 179.948 252.79 179.948Z" fill="url(#paint18_linear_2746_9630)"/>
<path d="M552.501 131.331V168.976H521.822C518.911 168.976 516.355 167.042 515.566 164.249L509.033 141.287C507.849 137.133 504.06 134.271 499.738 134.271H463.909C459.587 134.271 455.797 137.133 454.613 141.287L448.081 164.249C447.282 167.042 444.726 168.976 441.825 168.976H415.468V38.5547H465.635C470.786 38.5547 475.503 41.436 477.862 46.0146L502.511 93.8334C503.192 95.1556 504.258 96.2509 505.56 96.9713L545.08 118.789C549.669 121.315 552.501 126.111 552.501 131.331Z" fill="url(#paint19_linear_2746_9630)"/>
<path d="M545.1 118.789H415.488" stroke="url(#paint20_linear_2746_9630)" stroke-width="0.75" stroke-miterlimit="10"/>
<path d="M162.807 0.335938V168.974H209.648C212.559 168.974 215.115 167.04 215.905 164.248L222.437 141.296C223.621 137.141 227.41 134.28 231.732 134.28H267.562C271.884 134.28 275.673 137.141 276.857 141.296L283.39 164.248C284.189 167.04 286.745 168.974 289.646 168.974H415.498V0.335938H162.807Z" fill="url(#paint21_linear_2746_9630)"/>
<path d="M259.226 69.8855C257.994 69.8855 257.05 70.2615 256.394 71.0135C255.738 71.7655 255.41 72.8295 255.41 74.2055C255.41 75.5975 255.77 76.6695 256.49 77.4215C257.226 78.1735 258.21 78.5495 259.442 78.5495C260.098 78.5495 260.65 78.4615 261.098 78.2855C261.562 78.1095 262.002 77.9095 262.418 77.6855C262.69 77.9095 262.898 78.1815 263.042 78.5015C263.202 78.8055 263.282 79.1655 263.282 79.5815C263.282 80.2375 262.914 80.7975 262.178 81.2615C261.458 81.7095 260.354 81.9335 258.866 81.9335C257.794 81.9335 256.786 81.7815 255.842 81.4775C254.898 81.1735 254.074 80.7095 253.37 80.0855C252.666 79.4455 252.106 78.6455 251.69 77.6855C251.29 76.7095 251.09 75.5495 251.09 74.2055C251.09 72.9575 251.282 71.8615 251.666 70.9175C252.066 69.9575 252.602 69.1495 253.274 68.4935C253.962 67.8375 254.762 67.3415 255.674 67.0055C256.586 66.6695 257.562 66.5015 258.602 66.5015C260.074 66.5015 261.21 66.7415 262.01 67.2215C262.826 67.7015 263.234 68.3175 263.234 69.0695C263.234 69.4855 263.13 69.8455 262.922 70.1495C262.714 70.4535 262.474 70.6935 262.202 70.8695C261.786 70.5975 261.338 70.3655 260.858 70.1735C260.394 69.9815 259.85 69.8855 259.226 69.8855ZM276.729 81.4775C276.569 81.5255 276.313 81.5735 275.961 81.6215C275.625 81.6695 275.273 81.6935 274.905 81.6935C274.553 81.6935 274.233 81.6695 273.945 81.6215C273.673 81.5735 273.441 81.4775 273.249 81.3335C273.057 81.1895 272.905 80.9975 272.793 80.7575C272.697 80.5015 272.649 80.1735 272.649 79.7735V74.4455C272.649 73.7895 272.481 73.3335 272.145 73.0775C271.825 72.8055 271.425 72.6695 270.945 72.6695C270.625 72.6695 270.321 72.7095 270.033 72.7895C269.745 72.8695 269.513 72.9655 269.337 73.0775V81.4775C269.177 81.5255 268.921 81.5735 268.569 81.6215C268.233 81.6695 267.881 81.6935 267.513 81.6935C267.161 81.6935 266.841 81.6695 266.553 81.6215C266.281 81.5735 266.049 81.4775 265.857 81.3335C265.665 81.1895 265.513 80.9975 265.401 80.7575C265.305 80.5015 265.257 80.1735 265.257 79.7735V65.8535C265.433 65.8215 265.689 65.7815 266.025 65.7335C266.377 65.6695 266.729 65.6375 267.081 65.6375C267.433 65.6375 267.745 65.6615 268.017 65.7095C268.305 65.7575 268.545 65.8535 268.737 65.9975C268.929 66.1415 269.073 66.3415 269.169 66.5975C269.281 66.8375 269.337 67.1575 269.337 67.5575V69.9095C269.545 69.8295 269.857 69.7415 270.273 69.6455C270.705 69.5335 271.177 69.4775 271.689 69.4775C273.273 69.4775 274.505 69.8775 275.385 70.6775C276.281 71.4615 276.729 72.6375 276.729 74.2055V81.4775ZM284.24 78.9095C284.512 78.9095 284.808 78.8855 285.128 78.8375C285.464 78.7735 285.712 78.6935 285.872 78.5975V76.6775L284.144 76.8215C283.696 76.8535 283.328 76.9495 283.04 77.1095C282.752 77.2695 282.608 77.5095 282.608 77.8295C282.608 78.1495 282.728 78.4135 282.968 78.6215C283.224 78.8135 283.648 78.9095 284.24 78.9095ZM284.048 69.4775C284.912 69.4775 285.696 69.5655 286.4 69.7415C287.12 69.9175 287.728 70.1895 288.224 70.5575C288.736 70.9095 289.128 71.3655 289.4 71.9255C289.672 72.4695 289.808 73.1175 289.808 73.8695V79.2455C289.808 79.6615 289.688 80.0055 289.448 80.2775C289.224 80.5335 288.952 80.7575 288.632 80.9495C287.592 81.5735 286.128 81.8855 284.24 81.8855C283.392 81.8855 282.624 81.8055 281.936 81.6455C281.264 81.4855 280.68 81.2455 280.184 80.9255C279.704 80.6055 279.328 80.1975 279.056 79.7015C278.8 79.2055 278.672 78.6295 278.672 77.9735C278.672 76.8695 279 76.0215 279.656 75.4295C280.312 74.8375 281.328 74.4695 282.704 74.3255L285.848 73.9895V73.8215C285.848 73.3575 285.64 73.0295 285.224 72.8375C284.824 72.6295 284.24 72.5255 283.472 72.5255C282.864 72.5255 282.272 72.5895 281.696 72.7175C281.12 72.8455 280.6 73.0055 280.136 73.1975C279.928 73.0535 279.752 72.8375 279.608 72.5495C279.464 72.2455 279.392 71.9335 279.392 71.6135C279.392 71.1975 279.488 70.8695 279.68 70.6295C279.888 70.3735 280.2 70.1575 280.616 69.9815C281.08 69.8055 281.624 69.6775 282.248 69.5975C282.888 69.5175 283.488 69.4775 284.048 69.4775ZM296.383 81.4775C296.223 81.5255 295.967 81.5735 295.615 81.6215C295.279 81.6695 294.927 81.6935 294.559 81.6935C294.207 81.6935 293.887 81.6695 293.599 81.6215C293.327 81.5735 293.095 81.4775 292.903 81.3335C292.711 81.1895 292.559 80.9975 292.447 80.7575C292.351 80.5015 292.303 80.1735 292.303 79.7735V72.5735C292.303 72.2055 292.367 71.8935 292.495 71.6375C292.639 71.3655 292.839 71.1255 293.095 70.9175C293.351 70.7095 293.663 70.5255 294.031 70.3655C294.415 70.1895 294.823 70.0375 295.255 69.9095C295.687 69.7815 296.135 69.6855 296.599 69.6215C297.063 69.5415 297.527 69.5015 297.991 69.5015C298.759 69.5015 299.367 69.6535 299.815 69.9575C300.263 70.2455 300.487 70.7255 300.487 71.3975C300.487 71.6215 300.455 71.8455 300.391 72.0695C300.327 72.2775 300.247 72.4695 300.151 72.6455C299.815 72.6455 299.471 72.6615 299.119 72.6935C298.767 72.7255 298.423 72.7735 298.087 72.8375C297.751 72.9015 297.431 72.9735 297.127 73.0535C296.839 73.1175 296.591 73.1975 296.383 73.2935V81.4775ZM302.074 66.5975C302.074 65.9895 302.274 65.4775 302.674 65.0615C303.09 64.6455 303.634 64.4375 304.306 64.4375C304.978 64.4375 305.514 64.6455 305.914 65.0615C306.33 65.4775 306.538 65.9895 306.538 66.5975C306.538 67.2055 306.33 67.7175 305.914 68.1335C305.514 68.5495 304.978 68.7575 304.306 68.7575C303.634 68.7575 303.09 68.5495 302.674 68.1335C302.274 67.7175 302.074 67.2055 302.074 66.5975ZM306.346 81.4775C306.17 81.5095 305.906 81.5495 305.554 81.5975C305.218 81.6615 304.874 81.6935 304.522 81.6935C304.17 81.6935 303.85 81.6695 303.562 81.6215C303.29 81.5735 303.058 81.4775 302.866 81.3335C302.674 81.1895 302.522 80.9975 302.41 80.7575C302.314 80.5015 302.266 80.1735 302.266 79.7735V70.0055C302.442 69.9735 302.698 69.9335 303.034 69.8855C303.386 69.8215 303.738 69.7895 304.09 69.7895C304.442 69.7895 304.754 69.8135 305.026 69.8615C305.314 69.9095 305.554 70.0055 305.746 70.1495C305.938 70.2935 306.082 70.4935 306.178 70.7495C306.29 70.9895 306.346 71.3095 306.346 71.7095V81.4775ZM313.024 77.4935C313.024 77.9095 313.151 78.2055 313.408 78.3815C313.679 78.5575 314.056 78.6455 314.536 78.6455C314.776 78.6455 315.023 78.6295 315.28 78.5975C315.535 78.5495 315.76 78.4935 315.952 78.4295C316.096 78.6055 316.216 78.8055 316.312 79.0295C316.423 79.2375 316.48 79.4935 316.48 79.7975C316.48 80.4055 316.247 80.9015 315.784 81.2855C315.335 81.6695 314.536 81.8615 313.384 81.8615C311.975 81.8615 310.888 81.5415 310.12 80.9015C309.367 80.2615 308.992 79.2215 308.992 77.7815V67.5095C309.167 67.4615 309.415 67.4135 309.736 67.3655C310.072 67.3015 310.423 67.2695 310.792 67.2695C311.495 67.2695 312.04 67.3975 312.424 67.6535C312.823 67.8935 313.024 68.4135 313.024 69.2135V70.7495H316.168C316.264 70.9255 316.351 71.1495 316.432 71.4215C316.528 71.6775 316.576 71.9655 316.576 72.2855C316.576 72.8455 316.447 73.2535 316.192 73.5095C315.952 73.7495 315.623 73.8695 315.208 73.8695H313.024V77.4935ZM320.377 78.5255C320.201 78.1255 320.009 77.6775 319.801 77.1815C319.609 76.6855 319.401 76.1175 319.177 75.4775C318.969 74.8375 318.745 74.1095 318.505 73.2935C318.281 72.4615 318.041 71.5095 317.785 70.4375C318.009 70.2135 318.305 70.0215 318.673 69.8615C319.057 69.6855 319.473 69.5975 319.921 69.5975C320.481 69.5975 320.945 69.7175 321.313 69.9575C321.681 70.1815 321.953 70.6135 322.129 71.2535L324.025 77.8535H324.121C324.313 77.3095 324.497 76.7175 324.673 76.0775C324.865 75.4375 325.049 74.7815 325.225 74.1095C325.401 73.4215 325.561 72.7415 325.705 72.0695C325.865 71.3815 326.001 70.7095 326.113 70.0535C326.689 69.7495 327.321 69.5975 328.009 69.5975C328.569 69.5975 329.033 69.7175 329.401 69.9575C329.769 70.1975 329.953 70.6135 329.953 71.2055C329.953 71.6375 329.897 72.1415 329.785 72.7175C329.673 73.2775 329.521 73.8775 329.329 74.5175C329.153 75.1575 328.937 75.8215 328.681 76.5095C328.441 77.1815 328.185 77.8455 327.913 78.5015C327.641 79.1575 327.361 79.7815 327.073 80.3735C326.785 80.9495 326.505 81.4695 326.233 81.9335C325.785 82.7175 325.369 83.3575 324.985 83.8535C324.601 84.3495 324.233 84.7335 323.881 85.0055C323.529 85.2935 323.177 85.4855 322.825 85.5815C322.473 85.6935 322.105 85.7495 321.721 85.7495C321.049 85.7495 320.505 85.5495 320.089 85.1495C319.673 84.7495 319.425 84.2295 319.345 83.5895C319.857 83.1895 320.369 82.7415 320.881 82.2455C321.393 81.7655 321.857 81.2695 322.273 80.7575C322.001 80.6775 321.705 80.4935 321.385 80.2055C321.081 79.9015 320.745 79.3415 320.377 78.5255ZM336.163 78.5015C336.388 78.5655 336.676 78.6135 337.027 78.6455C337.38 78.6615 337.716 78.6695 338.035 78.6695C338.676 78.6695 339.204 78.5415 339.619 78.2855C340.051 78.0135 340.267 77.5975 340.267 77.0375C340.267 76.5095 340.092 76.1335 339.739 75.9095C339.388 75.6855 338.851 75.5735 338.131 75.5735H336.163V78.5015ZM336.163 72.6455H337.915C338.604 72.6455 339.1 72.5175 339.403 72.2615C339.724 72.0055 339.883 71.6295 339.883 71.1335C339.883 70.7015 339.7 70.3575 339.331 70.1015C338.98 69.8455 338.443 69.7175 337.723 69.7175C337.483 69.7175 337.204 69.7255 336.883 69.7415C336.58 69.7575 336.34 69.7815 336.163 69.8135V72.6455ZM337.723 81.8855C337.452 81.8855 337.132 81.8775 336.763 81.8615C336.396 81.8455 336.012 81.8135 335.611 81.7655C335.227 81.7175 334.843 81.6535 334.459 81.5735C334.075 81.5095 333.724 81.4135 333.403 81.2855C332.524 80.9495 332.083 80.3655 332.083 79.5335V68.3255C332.083 67.9895 332.172 67.7335 332.347 67.5575C332.539 67.3655 332.796 67.2135 333.115 67.1015C333.66 66.9095 334.339 66.7735 335.155 66.6935C335.971 66.5975 336.811 66.5495 337.675 66.5495C339.724 66.5495 341.299 66.8935 342.403 67.5815C343.507 68.2695 344.059 69.3335 344.059 70.7735C344.059 71.4935 343.852 72.1175 343.435 72.6455C343.02 73.1575 342.46 73.5335 341.755 73.7735C342.556 73.9975 343.219 74.4055 343.747 74.9975C344.292 75.5895 344.563 76.3335 344.563 77.2295C344.563 78.8135 343.972 79.9895 342.787 80.7575C341.62 81.5095 339.931 81.8855 337.723 81.8855ZM358.633 75.6695C358.633 76.6615 358.48 77.5495 358.177 78.3335C357.873 79.1015 357.441 79.7495 356.881 80.2775C356.337 80.8055 355.681 81.2055 354.913 81.4775C354.145 81.7495 353.289 81.8855 352.345 81.8855C351.4 81.8855 350.545 81.7415 349.777 81.4535C349.009 81.1655 348.345 80.7575 347.785 80.2295C347.241 79.6855 346.816 79.0295 346.513 78.2615C346.209 77.4935 346.057 76.6295 346.057 75.6695C346.057 74.7255 346.209 73.8695 346.513 73.1015C346.816 72.3335 347.241 71.6855 347.785 71.1575C348.345 70.6135 349.009 70.1975 349.777 69.9095C350.545 69.6215 351.4 69.4775 352.345 69.4775C353.289 69.4775 354.145 69.6295 354.913 69.9335C355.681 70.2215 356.337 70.6375 356.881 71.1815C357.441 71.7095 357.873 72.3575 358.177 73.1255C358.48 73.8935 358.633 74.7415 358.633 75.6695ZM350.233 75.6695C350.233 76.6455 350.416 77.3975 350.785 77.9255C351.169 78.4375 351.697 78.6935 352.369 78.6935C353.041 78.6935 353.553 78.4295 353.905 77.9015C354.273 77.3735 354.457 76.6295 354.457 75.6695C354.457 74.7095 354.273 73.9735 353.905 73.4615C353.536 72.9335 353.017 72.6695 352.345 72.6695C351.673 72.6695 351.153 72.9335 350.785 73.4615C350.416 73.9735 350.233 74.7095 350.233 75.6695Z" fill="#494B6B"/>
<mask id="mask0_2746_9630" style="mask-type:alpha" maskUnits="userSpaceOnUse" x="209" y="56" width="36" height="36">
<path d="M209 71C209 62.7157 215.716 56 224 56H230C238.284 56 245 62.7157 245 71V77C245 85.2843 238.284 92 230 92H224C215.716 92 209 85.2843 209 77V71Z" fill="white"/>
</mask>
<g mask="url(#mask0_2746_9630)">
<path d="M224 59H230V53H224V59ZM242 71V77H248V71H242ZM230 89H224V95H230V89ZM212 77V71H206V77H212ZM224 89C217.373 89 212 83.6275 212 77H206C206 86.9411 214.059 95 224 95V89ZM242 77C242 83.6275 236.627 89 230 89V95C239.941 95 248 86.9411 248 77H242ZM230 59C236.627 59 242 64.3725 242 71H248C248 61.0589 239.941 53 230 53V59ZM224 53C214.059 53 206 61.0589 206 71H212C212 64.3725 217.373 59 224 59V53Z" fill="#494B6B"/>
<path d="M240.071 71.4201V70.6589C240.071 67.5925 237.222 65.2667 234.233 66.0503C232.431 62.5698 227.617 62.7139 225.937 66.1028C223.035 65.3602 220.143 67.5743 220.143 70.6719V79.5404C218.74 79.0182 217.098 79.1841 215.778 80.1641C213.714 81.6967 213.261 84.6173 214.755 86.714L223.19 98.5556C223.398 98.8477 223.673 99.0858 223.992 99.2501C224.31 99.4144 224.664 99.5001 225.022 99.5001H240.695C241.743 99.5001 242.652 98.7767 242.887 97.7555L245.01 88.5474C245.252 87.4943 245.375 86.4172 245.375 85.3366V76.0859C245.375 73.2299 242.877 71.024 240.071 71.4201ZM242 85.3365C242 86.1613 241.906 86.9867 241.721 87.7894L239.8 96.125H225.602L217.502 84.7557C216.487 83.3305 218.559 81.748 219.569 83.1663L221.477 85.8437C222.109 86.7315 223.518 86.2858 223.518 85.191V70.6719C223.518 68.8688 226.089 68.9275 226.089 70.7205V81.5C226.089 82.1214 226.593 82.625 227.214 82.625H227.696C228.318 82.625 228.821 82.1214 228.821 81.5V68.2109C228.821 66.4065 231.393 66.4665 231.393 68.2595V81.5C231.393 82.1214 231.896 82.625 232.518 82.625H233C233.621 82.625 234.125 82.1214 234.125 81.5V70.6104C234.125 68.8053 236.696 68.8659 236.696 70.6589V81.5C236.696 82.1214 237.2 82.625 237.821 82.625H238.303C238.925 82.625 239.428 82.1214 239.428 81.5V76.1345C239.428 74.2894 242 74.3318 242 76.0859V85.3365H242Z" fill="#494B6B"/>
</g>
<path d="M280.715 145.688H415.488" stroke="url(#paint22_linear_2746_9630)" stroke-width="0.75" stroke-miterlimit="10"/>
<path d="M162.807 145.688C162.807 146.467 218.569 145.688 218.569 145.688" stroke="url(#paint23_linear_2746_9630)" stroke-width="0.75" stroke-miterlimit="10"/>
<path d="M215.905 164.247L218.569 154.883H162.807V168.974H209.648C212.559 168.974 215.115 167.05 215.905 164.247Z" fill="url(#paint24_linear_2746_9630)"/>
<path d="M283.38 164.247C284.179 167.04 286.735 168.974 289.636 168.974H415.488V154.883H280.715L283.38 164.247Z" fill="url(#paint25_linear_2746_9630)"/>
<path d="M162.807 0.335938H41.1086V168.974H162.807V0.335938Z" fill="url(#paint26_linear_2746_9630)"/>
<path d="M152.939 10.2031H50.9763V159.106H152.939V10.2031Z" fill="url(#paint27_linear_2746_9630)"/>
<path d="M289.636 168.976L280.36 136.364C279.176 132.209 275.387 129.348 271.065 129.348H228.19C223.868 129.348 220.079 132.209 218.895 136.364L209.619 168.976H209.639C212.55 168.976 215.105 167.042 215.895 164.25L222.427 141.297C223.611 137.143 227.4 134.281 231.722 134.281H267.552C271.874 134.281 275.663 137.143 276.847 141.297L283.38 164.25C284.169 167.052 286.725 168.976 289.636 168.976Z" fill="url(#paint28_linear_2746_9630)"/>
<path d="M521.822 168.974C518.911 168.974 516.355 167.04 515.566 164.248L509.034 141.286C507.849 137.131 504.06 134.27 499.738 134.27H463.909C459.587 134.27 455.798 137.131 454.613 141.286L448.081 164.248C447.282 167.04 444.726 168.974 441.825 168.974H441.805L451.081 136.352C452.265 132.198 456.054 129.336 460.376 129.336H503.251C507.573 129.336 511.362 132.198 512.546 136.352L521.822 168.974Z" fill="url(#paint29_linear_2746_9630)"/>
<path d="M433.812 46.3594H465.704C468.527 46.3594 471.112 47.9382 472.405 50.4545L494.666 93.8327C495.357 95.1747 495.712 96.6647 495.712 98.1745V102.95C495.712 106.572 492.771 109.512 489.15 109.512H432.855C429.234 109.512 426.293 106.572 426.293 102.95V53.8884C426.283 49.7341 429.658 46.3594 433.812 46.3594Z" fill="url(#paint30_linear_2746_9630)"/>
<path d="M433.812 46.3594H465.705C468.527 46.3594 471.112 47.9382 472.405 50.4545L480.023 65.2954H426.283V53.8884C426.283 49.7341 429.658 46.3594 433.812 46.3594Z" fill="url(#paint31_linear_2746_9630)"/>
<path d="M459.004 46.3398L433.033 109.493" stroke="white" stroke-opacity="0.5" stroke-width="0.5" stroke-miterlimit="10"/>
<path d="M477.19 65.2656L459.004 109.493" stroke="white" stroke-opacity="0.5" stroke-width="0.5" stroke-miterlimit="10"/>
<path d="M491.331 91.2852L483.841 109.491" stroke="white" stroke-opacity="0.5" stroke-width="0.5" stroke-miterlimit="10"/>
<path d="M465.705 51.2932C466.681 51.2932 467.57 51.8359 468.014 52.7043L490.275 96.0826C490.611 96.7239 490.778 97.4542 490.778 98.1745V102.95C490.778 103.848 490.048 104.579 489.15 104.579H432.855C431.957 104.579 431.227 103.848 431.227 102.95V53.8884C431.227 52.4576 432.391 51.2932 433.822 51.2932H465.705ZM465.705 46.3594H433.812C429.658 46.3594 426.283 49.7341 426.283 53.8884V102.95C426.283 106.572 429.224 109.512 432.845 109.512H489.14C492.762 109.512 495.702 106.572 495.702 102.95V98.1745C495.702 96.6647 495.347 95.1747 494.656 93.8327L472.395 50.4545C471.112 47.9382 468.527 46.3594 465.705 46.3594Z" fill="url(#paint32_linear_2746_9630)"/>
<path d="M511.984 151.648C512.083 151.994 546.027 151.757 556.773 151.678C558.549 151.668 559.99 153.099 559.99 154.875V165.779C559.99 167.545 558.559 168.976 556.793 168.976H521.822C518.911 168.976 516.355 167.042 515.566 164.249L511.984 151.648Z" fill="url(#paint33_linear_2746_9630)"/>
<path d="M560 154.875H512.902" stroke="url(#paint34_linear_2746_9630)" stroke-width="0.75" stroke-miterlimit="10"/>
<path d="M475.316 46.7733L498.722 92.1843C499.284 93.2698 499.57 94.4638 499.57 95.6874V118.225C499.57 121.097 497.242 123.416 494.38 123.416H456.389C452.452 123.416 448.999 126.03 447.933 129.82L440.039 157.834C438.973 161.623 435.509 164.238 431.582 164.238H425.464C423.451 164.238 421.823 162.61 421.823 160.597V50.2763C421.823 46.053 425.247 42.6289 429.47 42.6289H468.537C471.378 42.6388 474.003 44.2373 475.316 46.7733Z" stroke="url(#paint35_linear_2746_9630)" stroke-width="0.75" stroke-miterlimit="10"/>
<path d="M433.141 125.489H427.438C426.796 125.489 426.283 124.976 426.283 124.334C426.283 123.693 426.796 123.18 427.438 123.18H433.141C433.783 123.18 434.296 123.693 434.296 124.334C434.296 124.966 433.783 125.489 433.141 125.489Z" fill="url(#paint36_linear_2746_9630)"/>
<path d="M552.501 131.328H545.643C543.344 131.328 541.479 133.193 541.479 135.492V151.764H552.501V131.328Z" fill="url(#paint37_linear_2746_9630)"/>
<path d="M505.59 96.9688V111.533C505.59 112.836 506.646 113.882 507.938 113.882H535.992" stroke="url(#paint38_linear_2746_9630)" stroke-width="0.75" stroke-miterlimit="10"/>
<path d="M257.793 134.281H239.113C237.752 134.281 236.646 133.176 236.646 131.815C236.646 130.453 237.752 129.348 239.113 129.348H257.793C259.155 129.348 260.26 130.453 260.26 131.815C260.26 133.176 259.155 134.281 257.793 134.281Z" fill="url(#paint39_linear_2746_9630)"/>
<path d="M489.357 134.281H470.678C469.316 134.281 468.211 133.176 468.211 131.815C468.211 130.453 469.316 129.348 470.678 129.348H489.357C490.719 129.348 491.824 130.453 491.824 131.815C491.824 133.176 490.719 134.281 489.357 134.281Z" fill="url(#paint40_linear_2746_9630)"/>
<path d="M480.022 70.043V109.514" stroke="url(#paint41_linear_2746_9630)" stroke-width="5" stroke-miterlimit="10"/>
<path d="M549.235 145.184H546.304C545.337 145.184 544.547 144.394 544.547 143.427V134.842C544.547 133.875 545.337 133.086 546.304 133.086H549.235C550.202 133.086 550.991 133.875 550.991 134.842V143.427C550.991 144.394 550.202 145.184 549.235 145.184Z" fill="url(#paint42_linear_2746_9630)"/>
<path d="M549.235 150.59H546.304C545.337 150.59 544.547 149.801 544.547 148.834V147.975C544.547 147.008 545.337 146.219 546.304 146.219H549.235C550.202 146.219 550.991 147.008 550.991 147.975V148.834C550.991 149.801 550.202 150.59 549.235 150.59Z" fill="url(#paint43_linear_2746_9630)"/>
<path d="M50.9764 159.105H152.939L101.963 205.661H0L50.9764 159.105Z" fill="url(#paint44_linear_2746_9630)"/>
<path d="M152.939 159.105H140.308L89.322 205.661H101.963L152.939 159.105Z" fill="#494B6B"/>
<path fill-rule="evenodd" clip-rule="evenodd" d="M415.488 15.8281H162.807V15.0781H415.488V15.8281Z" fill="url(#paint45_linear_2746_9630)"/>
<path d="M83.5891 63.4492H126.701L127.066 99.851H83.5891V63.4492Z" fill="url(#paint46_linear_2746_9630)"/>
<path d="M126.661 63.4492H152.939V99.851H127.174L126.661 63.4492Z" fill="url(#paint47_linear_2746_9630)"/>
<path d="M74.2047 99.8516H131.003L131.487 159.107H72.7739L74.2047 99.8516Z" fill="url(#paint48_linear_2746_9630)"/>
<path d="M130.954 99.8516H152.939L152.889 159.107H131.378L130.954 99.8516Z" fill="url(#paint49_linear_2746_9630)"/>
<defs>
<linearGradient id="paint0_linear_2746_9630" x1="305.641" y1="125.019" x2="305.636" y2="175.961" gradientUnits="userSpaceOnUse">
<stop stop-color="#8082AB"/>
<stop offset="1" stop-color="#494B6B"/>
</linearGradient>
<linearGradient id="paint1_linear_2746_9630" x1="361.313" y1="140.092" x2="361.13" y2="205.654" gradientUnits="userSpaceOnUse">
<stop stop-color="#494B6B"/>
<stop offset="1" stop-color="#878294"/>
</linearGradient>
<linearGradient id="paint2_linear_2746_9630" x1="350.412" y1="140.104" x2="350.332" y2="205.666" gradientUnits="userSpaceOnUse">
<stop stop-color="#494B6B"/>
<stop offset="1" stop-color="#878294"/>
</linearGradient>
<linearGradient id="paint3_linear_2746_9630" x1="372.427" y1="140.104" x2="372.347" y2="205.666" gradientUnits="userSpaceOnUse">
<stop stop-color="#8082AB"/>
<stop offset="1" stop-color="#494B6B"/>
</linearGradient>
<linearGradient id="paint4_linear_2746_9630" x1="129.985" y1="140.092" x2="129.802" y2="205.654" gradientUnits="userSpaceOnUse">
<stop stop-color="#8082AB"/>
<stop offset="1" stop-color="#494B6B"/>
</linearGradient>
<linearGradient id="paint5_linear_2746_9630" x1="119.084" y1="140.104" x2="119.004" y2="205.666" gradientUnits="userSpaceOnUse">
<stop stop-color="#8082AB"/>
<stop offset="1" stop-color="#494B6B"/>
</linearGradient>
<linearGradient id="paint6_linear_2746_9630" x1="141.109" y1="140.104" x2="141.029" y2="205.666" gradientUnits="userSpaceOnUse">
<stop stop-color="#494B6B"/>
<stop offset="1" stop-color="#878294"/>
</linearGradient>
<linearGradient id="paint7_linear_2746_9630" x1="177.54" y1="172.967" x2="177.539" y2="179.604" gradientUnits="userSpaceOnUse">
<stop stop-color="#494B6B"/>
<stop offset="1" stop-color="#878294"/>
</linearGradient>
<linearGradient id="paint8_linear_2746_9630" x1="408.858" y1="172.967" x2="408.857" y2="179.604" gradientUnits="userSpaceOnUse">
<stop stop-color="#494B6B"/>
<stop offset="1" stop-color="#878294"/>
</linearGradient>
<linearGradient id="paint9_linear_2746_9630" x1="472.196" y1="140.092" x2="472.013" y2="205.654" gradientUnits="userSpaceOnUse">
<stop stop-color="#494B6B"/>
<stop offset="1" stop-color="#878294"/>
</linearGradient>
<linearGradient id="paint10_linear_2746_9630" x1="461.295" y1="140.104" x2="461.215" y2="205.666" gradientUnits="userSpaceOnUse">
<stop stop-color="#494B6B"/>
<stop offset="1" stop-color="#878294"/>
</linearGradient>
<linearGradient id="paint11_linear_2746_9630" x1="483.309" y1="140.104" x2="483.229" y2="205.666" gradientUnits="userSpaceOnUse">
<stop stop-color="#8082AB"/>
<stop offset="1" stop-color="#494B6B"/>
</linearGradient>
<linearGradient id="paint12_linear_2746_9630" x1="483.222" y1="155.375" x2="483.179" y2="190.509" gradientUnits="userSpaceOnUse">
<stop stop-color="#494B6B"/>
<stop offset="1" stop-color="#878294"/>
</linearGradient>
<linearGradient id="paint13_linear_2746_9630" x1="483.161" y1="166.002" x2="483.144" y2="179.948" gradientUnits="userSpaceOnUse">
<stop stop-color="#8082AB"/>
<stop offset="1" stop-color="#494B6B"/>
</linearGradient>
<linearGradient id="paint14_linear_2746_9630" x1="241.855" y1="140.092" x2="241.672" y2="205.654" gradientUnits="userSpaceOnUse">
<stop stop-color="#494B6B"/>
<stop offset="1" stop-color="#878294"/>
</linearGradient>
<linearGradient id="paint15_linear_2746_9630" x1="230.954" y1="140.104" x2="230.874" y2="205.666" gradientUnits="userSpaceOnUse">
<stop stop-color="#494B6B"/>
<stop offset="1" stop-color="#878294"/>
</linearGradient>
<linearGradient id="paint16_linear_2746_9630" x1="252.979" y1="140.104" x2="252.899" y2="205.666" gradientUnits="userSpaceOnUse">
<stop stop-color="#8082AB"/>
<stop offset="1" stop-color="#494B6B"/>
</linearGradient>
<linearGradient id="paint17_linear_2746_9630" x1="252.891" y1="155.375" x2="252.848" y2="190.509" gradientUnits="userSpaceOnUse">
<stop stop-color="#494B6B"/>
<stop offset="1" stop-color="#878294"/>
</linearGradient>
<linearGradient id="paint18_linear_2746_9630" x1="252.83" y1="166.002" x2="252.813" y2="179.948" gradientUnits="userSpaceOnUse">
<stop stop-color="#8082AB"/>
<stop offset="1" stop-color="#494B6B"/>
</linearGradient>
<linearGradient id="paint19_linear_2746_9630" x1="415.692" y1="38.728" x2="495.424" y2="197.606" gradientUnits="userSpaceOnUse">
<stop stop-color="#37E2DE"/>
<stop offset="1" stop-color="#07C2C2"/>
</linearGradient>
<linearGradient id="paint20_linear_2746_9630" x1="480.294" y1="118.789" x2="480.294" y2="119.789" gradientUnits="userSpaceOnUse">
<stop stop-color="#9BCDFC"/>
<stop offset="1" stop-color="#7FACEC"/>
</linearGradient>
<linearGradient id="paint21_linear_2746_9630" x1="289.152" y1="0.335937" x2="289.152" y2="168.974" gradientUnits="userSpaceOnUse">
<stop stop-color="#FFD93C"/>
<stop offset="1" stop-color="#FEF237"/>
</linearGradient>
<linearGradient id="paint22_linear_2746_9630" x1="348.102" y1="145.688" x2="348.102" y2="146.688" gradientUnits="userSpaceOnUse">
<stop stop-color="#FFD93C"/>
<stop offset="1" stop-color="#FEF237"/>
</linearGradient>
<linearGradient id="paint23_linear_2746_9630" x1="190.688" y1="145.688" x2="190.688" y2="146.034" gradientUnits="userSpaceOnUse">
<stop stop-color="#FFD93C"/>
<stop offset="1" stop-color="#FEF237"/>
</linearGradient>
<linearGradient id="paint24_linear_2746_9630" x1="190.896" y1="154.829" x2="190.893" y2="168.974" gradientUnits="userSpaceOnUse">
<stop stop-color="#494B6B"/>
<stop offset="1" stop-color="#878294"/>
</linearGradient>
<linearGradient id="paint25_linear_2746_9630" x1="348.606" y1="154.829" x2="348.605" y2="168.974" gradientUnits="userSpaceOnUse">
<stop stop-color="#494B6B"/>
<stop offset="1" stop-color="#878294"/>
</linearGradient>
<linearGradient id="paint26_linear_2746_9630" x1="101.958" y1="0.335937" x2="101.958" y2="168.974" gradientUnits="userSpaceOnUse">
<stop stop-color="#ECC72E"/>
<stop offset="1" stop-color="#FEF237"/>
</linearGradient>
<linearGradient id="paint27_linear_2746_9630" x1="102.339" y1="9.63885" x2="102.134" y2="159.106" gradientUnits="userSpaceOnUse">
<stop stop-color="#494B6B"/>
<stop offset="1" stop-color="#878294"/>
</linearGradient>
<linearGradient id="paint28_linear_2746_9630" x1="249.927" y1="129.197" x2="249.908" y2="168.976" gradientUnits="userSpaceOnUse">
<stop stop-color="#494B6B"/>
<stop offset="1" stop-color="#878294"/>
</linearGradient>
<linearGradient id="paint29_linear_2746_9630" x1="482.113" y1="129.186" x2="482.095" y2="168.974" gradientUnits="userSpaceOnUse">
<stop stop-color="#494B6B"/>
<stop offset="1" stop-color="#878294"/>
</linearGradient>
<linearGradient id="paint30_linear_2746_9630" x1="426.406" y1="46.4433" x2="463.962" y2="124.736" gradientUnits="userSpaceOnUse">
<stop stop-color="#37E2DE"/>
<stop offset="1" stop-color="#07C2C2"/>
</linearGradient>
<linearGradient id="paint31_linear_2746_9630" x1="426.371" y1="46.3845" x2="431.557" y2="74.2983" gradientUnits="userSpaceOnUse">
<stop stop-color="#37E2DE"/>
<stop offset="1" stop-color="#07C2C2"/>
</linearGradient>
<linearGradient id="paint32_linear_2746_9630" x1="461.253" y1="46.1201" x2="461.198" y2="109.513" gradientUnits="userSpaceOnUse">
<stop stop-color="#8082AB"/>
<stop offset="1" stop-color="#494B6B"/>
</linearGradient>
<linearGradient id="paint33_linear_2746_9630" x1="536.167" y1="151.583" x2="536.161" y2="168.976" gradientUnits="userSpaceOnUse">
<stop stop-color="#8082AB"/>
<stop offset="1" stop-color="#494B6B"/>
</linearGradient>
<linearGradient id="paint34_linear_2746_9630" x1="536.627" y1="154.871" x2="536.627" y2="155.875" gradientUnits="userSpaceOnUse">
<stop stop-color="#494B6B"/>
<stop offset="1" stop-color="#878294"/>
</linearGradient>
<linearGradient id="paint35_linear_2746_9630" x1="460.988" y1="42.1681" x2="460.808" y2="164.238" gradientUnits="userSpaceOnUse">
<stop stop-color="#494B6B"/>
<stop offset="1" stop-color="#878294"/>
</linearGradient>
<linearGradient id="paint36_linear_2746_9630" x1="430.319" y1="123.171" x2="430.319" y2="125.489" gradientUnits="userSpaceOnUse">
<stop stop-color="#494B6B"/>
<stop offset="1" stop-color="#878294"/>
</linearGradient>
<linearGradient id="paint37_linear_2746_9630" x1="546.99" y1="131.328" x2="546.99" y2="151.764" gradientUnits="userSpaceOnUse">
<stop stop-color="#FFD93C"/>
<stop offset="1" stop-color="#FEF237"/>
</linearGradient>
<linearGradient id="paint38_linear_2746_9630" x1="520.905" y1="96.9047" x2="520.896" y2="113.882" gradientUnits="userSpaceOnUse">
<stop stop-color="#494B6B"/>
<stop offset="1" stop-color="#878294"/>
</linearGradient>
<linearGradient id="paint39_linear_2746_9630" x1="248.542" y1="129.329" x2="248.541" y2="134.282" gradientUnits="userSpaceOnUse">
<stop stop-color="#8082AB"/>
<stop offset="1" stop-color="#494B6B"/>
</linearGradient>
<linearGradient id="paint40_linear_2746_9630" x1="480.106" y1="129.329" x2="480.105" y2="134.282" gradientUnits="userSpaceOnUse">
<stop stop-color="#8082AB"/>
<stop offset="1" stop-color="#494B6B"/>
</linearGradient>
<linearGradient id="paint41_linear_2746_9630" x1="480.526" y1="69.8934" x2="479.054" y2="109.459" gradientUnits="userSpaceOnUse">
<stop stop-color="#8082AB"/>
<stop offset="1" stop-color="#494B6B"/>
</linearGradient>
<linearGradient id="paint42_linear_2746_9630" x1="547.769" y1="133.086" x2="547.769" y2="145.184" gradientUnits="userSpaceOnUse">
<stop stop-color="#ECC72E"/>
<stop offset="1" stop-color="#FEF237"/>
</linearGradient>
<linearGradient id="paint43_linear_2746_9630" x1="547.769" y1="146.219" x2="547.769" y2="150.59" gradientUnits="userSpaceOnUse">
<stop stop-color="#FFD93C"/>
<stop offset="1" stop-color="#FEF237"/>
</linearGradient>
<linearGradient id="paint44_linear_2746_9630" x1="77.042" y1="158.929" x2="77.0286" y2="205.661" gradientUnits="userSpaceOnUse">
<stop stop-color="#8082AB"/>
<stop offset="1" stop-color="#494B6B"/>
</linearGradient>
<linearGradient id="paint45_linear_2746_9630" x1="289.147" y1="15.0781" x2="289.147" y2="15.8281" gradientUnits="userSpaceOnUse">
<stop stop-color="#FFD93C"/>
<stop offset="1" stop-color="#FEF237"/>
</linearGradient>
<linearGradient id="paint46_linear_2746_9630" x1="83.6601" y1="63.4976" x2="104.17" y2="109.955" gradientUnits="userSpaceOnUse">
<stop stop-color="#37E2DE"/>
<stop offset="1" stop-color="#07C2C2"/>
</linearGradient>
<linearGradient id="paint47_linear_2746_9630" x1="126.704" y1="63.4976" x2="153.145" y2="99.6967" gradientUnits="userSpaceOnUse">
<stop stop-color="#37E2DE"/>
<stop offset="1" stop-color="#07C2C2"/>
</linearGradient>
<linearGradient id="paint48_linear_2746_9630" x1="102.13" y1="99.8516" x2="102.13" y2="159.107" gradientUnits="userSpaceOnUse">
<stop stop-color="#7FACEC"/>
<stop offset="1" stop-color="#9BCDFC"/>
</linearGradient>
<linearGradient id="paint49_linear_2746_9630" x1="141.946" y1="99.8516" x2="141.946" y2="159.107" gradientUnits="userSpaceOnUse">
<stop stop-color="#9BCDFC"/>
<stop offset="1" stop-color="#7FACEC"/>
</linearGradient>
</defs>
</svg>
