<svg width="24" height="24" viewBox="0 0 24 24" fill="none" xmlns="http://www.w3.org/2000/svg">
<path d="M21.9999 17.1984C21.9999 18.0984 21.7499 18.9484 21.2999 19.6684C20.4699 21.0584 18.9499 21.9984 17.1999 21.9984C15.4499 21.9984 13.9199 21.0584 13.0999 19.6684C12.6599 18.9484 12.3999 18.0984 12.3999 17.1984C12.3999 14.5484 14.5499 12.3984 17.1999 12.3984C19.8499 12.3984 21.9999 14.5484 21.9999 17.1984Z" stroke="#7127EA" stroke-width="1.5" stroke-miterlimit="10" stroke-linecap="round" stroke-linejoin="round"/>
<path d="M15.3298 17.1995L16.5098 18.3795L19.0698 16.0195" stroke="#7127EA" stroke-width="1.5" stroke-linecap="round" stroke-linejoin="round"/>
<path d="M22 8.69159C22 10.6616 21.49 12.4016 20.69 13.9116C19.81 12.9816 18.57 12.4016 17.2 12.4016C14.55 12.4016 12.4 14.5516 12.4 17.2016C12.4 18.4316 12.87 19.5516 13.63 20.4016C13.26 20.5716 12.92 20.7116 12.62 20.8116C12.28 20.9316 11.72 20.9316 11.38 20.8116C8.48 19.8216 2 15.6916 2 8.69159C2 5.60159 4.49 3.10156 7.56 3.10156C9.37 3.10156 10.99 3.9816 12 5.3316C13.01 3.9816 14.63 3.10156 16.44 3.10156C19.51 3.10156 22 5.60159 22 8.69159Z" stroke="#7127EA" stroke-width="1.5" stroke-linecap="round" stroke-linejoin="round"/>
</svg>
