<svg width="42" height="42" viewBox="0 0 42 42" fill="none" xmlns="http://www.w3.org/2000/svg">
<rect width="42" height="42" rx="12" fill="#EDEFFF"/>
<path d="M18 31.5H24C29 31.5 31 29.5 31 24.5V18.5C31 13.5 29 11.5 24 11.5H18C13 11.5 11 13.5 11 18.5V24.5C11 29.5 13 31.5 18 31.5Z" stroke="#3B3E53" stroke-width="1.5" stroke-linecap="round" stroke-linejoin="round"/>
<path d="M18 19.5C19.1046 19.5 20 18.6046 20 17.5C20 16.3954 19.1046 15.5 18 15.5C16.8954 15.5 16 16.3954 16 17.5C16 18.6046 16.8954 19.5 18 19.5Z" stroke="#3B3E53" stroke-width="1.5" stroke-linecap="round" stroke-linejoin="round"/>
<path d="M11.6699 28.4501L16.5999 25.1401C17.3899 24.6101 18.5299 24.6701 19.2399 25.2801L19.5699 25.5701C20.3499 26.2401 21.6099 26.2401 22.3899 25.5701L26.5499 22.0001C27.3299 21.3301 28.5899 21.3301 29.3699 22.0001L30.9999 23.4001" stroke="#3B3E53" stroke-width="1.5" stroke-linecap="round" stroke-linejoin="round"/>
</svg>
