<svg width="560" height="226" viewBox="0 0 560 226" fill="none" xmlns="http://www.w3.org/2000/svg">
<g clip-path="url(#clip0_2747_9743)">
<path d="M546.984 185.96H67.258C63.6168 185.96 60.6565 183.01 60.6565 179.359V135.211H546.984V185.96Z" fill="url(#paint0_linear_2747_9743)"/>
<path d="M372.238 150.34H350.223V215.654H372.238V150.34Z" fill="url(#paint1_linear_2747_9743)"/>
<path d="M350.223 215.666C364.137 215.666 375.415 204.387 375.415 190.474V175.544C375.415 161.63 364.137 150.352 350.223 150.352C336.31 150.352 325.031 161.63 325.031 175.544V190.474C325.031 204.387 336.31 215.666 350.223 215.666Z" fill="url(#paint2_linear_2747_9743)"/>
<path d="M372.238 215.666C386.151 215.666 397.43 204.387 397.43 190.474V175.544C397.43 161.63 386.151 150.352 372.238 150.352C358.325 150.352 347.046 161.63 347.046 175.544V190.474C347.046 204.387 358.325 215.666 372.238 215.666Z" fill="url(#paint3_linear_2747_9743)"/>
<path d="M140.91 150.34H118.896V215.654H140.91V150.34Z" fill="url(#paint4_linear_2747_9743)"/>
<path d="M118.896 215.666C132.809 215.666 144.088 204.387 144.088 190.474V175.544C144.088 161.63 132.809 150.352 118.896 150.352C104.982 150.352 93.7034 161.63 93.7034 175.544V190.474C93.7034 204.387 104.982 215.666 118.896 215.666Z" fill="url(#paint5_linear_2747_9743)"/>
<path d="M140.92 215.666C154.834 215.666 166.112 204.387 166.112 190.474V175.544C166.112 161.63 154.834 150.352 140.92 150.352C127.007 150.352 115.728 161.63 115.728 175.544V190.474C115.728 204.387 127.007 215.666 140.92 215.666Z" fill="url(#paint6_linear_2747_9743)"/>
<path d="M210.31 189.604H144.226C142.4 189.604 140.92 188.123 140.92 186.298C140.92 184.472 142.4 182.992 144.226 182.992H210.31C212.135 182.992 213.615 184.472 213.615 186.298C213.615 188.133 212.135 189.604 210.31 189.604Z" fill="url(#paint7_linear_2747_9743)"/>
<path d="M441.627 189.604H375.544C373.718 189.604 372.238 188.123 372.238 186.298C372.238 184.472 373.718 182.992 375.544 182.992H441.627C443.453 182.992 444.933 184.472 444.933 186.298C444.933 188.133 443.453 189.604 441.627 189.604Z" fill="url(#paint8_linear_2747_9743)"/>
<path d="M483.121 150.34H461.106V215.654H483.121V150.34Z" fill="url(#paint9_linear_2747_9743)"/>
<path d="M461.106 215.666C475.02 215.666 486.298 204.387 486.298 190.474V175.544C486.298 161.63 475.02 150.352 461.106 150.352C447.193 150.352 435.914 161.63 435.914 175.544V190.474C435.914 204.387 447.193 215.666 461.106 215.666Z" fill="url(#paint10_linear_2747_9743)"/>
<path d="M483.121 215.666C497.034 215.666 508.313 204.387 508.313 190.474V175.544C508.313 161.63 497.034 150.352 483.121 150.352C469.207 150.352 457.929 161.63 457.929 175.544V190.474C457.929 204.387 469.207 215.666 483.121 215.666Z" fill="url(#paint11_linear_2747_9743)"/>
<path d="M483.121 200.508C490.581 200.508 496.62 194.46 496.62 187.009V179.007C496.62 171.547 490.571 165.508 483.121 165.508C475.661 165.508 469.622 171.557 469.622 179.007V187.009C469.622 194.46 475.671 200.508 483.121 200.508Z" fill="url(#paint12_linear_2747_9743)"/>
<path d="M483.121 189.948C486.081 189.948 488.479 187.551 488.479 184.59V181.413C488.479 178.453 486.081 176.055 483.121 176.055C480.161 176.055 477.763 178.453 477.763 181.413V184.59C477.773 187.551 480.17 189.948 483.121 189.948Z" fill="url(#paint13_linear_2747_9743)"/>
<path d="M252.78 150.34H230.765V215.654H252.78V150.34Z" fill="url(#paint14_linear_2747_9743)"/>
<path d="M230.765 215.666C244.679 215.666 255.958 204.387 255.958 190.474V175.544C255.958 161.63 244.679 150.352 230.765 150.352C216.852 150.352 205.573 161.63 205.573 175.544V190.474C205.573 204.387 216.852 215.666 230.765 215.666Z" fill="url(#paint15_linear_2747_9743)"/>
<path d="M252.79 215.666C266.703 215.666 277.982 204.387 277.982 190.474V175.544C277.982 161.63 266.703 150.352 252.79 150.352C238.877 150.352 227.598 161.63 227.598 175.544V190.474C227.598 204.387 238.877 215.666 252.79 215.666Z" fill="url(#paint16_linear_2747_9743)"/>
<path d="M252.79 200.508C260.25 200.508 266.289 194.46 266.289 187.009V179.007C266.289 171.547 260.24 165.508 252.79 165.508C245.33 165.508 239.291 171.557 239.291 179.007V187.009C239.291 194.46 245.33 200.508 252.79 200.508Z" fill="url(#paint17_linear_2747_9743)"/>
<path d="M252.79 189.948C255.75 189.948 258.148 187.551 258.148 184.59V181.413C258.148 178.453 255.75 176.055 252.79 176.055C249.83 176.055 247.432 178.453 247.432 181.413V184.59C247.432 187.551 249.83 189.948 252.79 189.948Z" fill="url(#paint18_linear_2747_9743)"/>
<path d="M552.501 141.331V178.976H521.822C518.911 178.976 516.355 177.042 515.566 174.249L509.033 151.287C507.849 147.133 504.06 144.271 499.738 144.271H463.909C459.587 144.271 455.797 147.133 454.613 151.287L448.081 174.249C447.282 177.042 444.726 178.976 441.825 178.976H415.468V48.5547H465.635C470.786 48.5547 475.503 51.436 477.861 56.0146L502.511 103.833C503.192 105.156 504.258 106.251 505.56 106.971L545.08 128.789C549.669 131.315 552.501 136.111 552.501 141.331Z" fill="url(#paint19_linear_2747_9743)"/>
<path d="M545.1 128.789H415.488" stroke="url(#paint20_linear_2747_9743)" stroke-width="0.75" stroke-miterlimit="10"/>
<path d="M162.807 10.3359V178.974H209.648C212.559 178.974 215.115 177.04 215.905 174.248L222.437 151.296C223.621 147.141 227.41 144.28 231.732 144.28H267.562C271.884 144.28 275.673 147.141 276.857 151.296L283.39 174.248C284.189 177.04 286.745 178.974 289.646 178.974H415.498V10.3359H162.807Z" fill="url(#paint21_linear_2747_9743)"/>
<path d="M259.226 79.8855C257.994 79.8855 257.05 80.2615 256.394 81.0135C255.738 81.7655 255.41 82.8295 255.41 84.2055C255.41 85.5975 255.77 86.6695 256.49 87.4215C257.226 88.1735 258.21 88.5495 259.442 88.5495C260.098 88.5495 260.65 88.4615 261.098 88.2855C261.562 88.1095 262.002 87.9095 262.418 87.6855C262.69 87.9095 262.898 88.1815 263.042 88.5015C263.202 88.8055 263.282 89.1655 263.282 89.5815C263.282 90.2375 262.914 90.7975 262.178 91.2615C261.458 91.7095 260.354 91.9335 258.866 91.9335C257.794 91.9335 256.786 91.7815 255.842 91.4775C254.898 91.1735 254.074 90.7095 253.37 90.0855C252.666 89.4455 252.106 88.6455 251.69 87.6855C251.29 86.7095 251.09 85.5495 251.09 84.2055C251.09 82.9575 251.282 81.8615 251.666 80.9175C252.066 79.9575 252.602 79.1495 253.274 78.4935C253.962 77.8375 254.762 77.3415 255.674 77.0055C256.586 76.6695 257.562 76.5015 258.602 76.5015C260.074 76.5015 261.21 76.7415 262.01 77.2215C262.826 77.7015 263.234 78.3175 263.234 79.0695C263.234 79.4855 263.13 79.8455 262.922 80.1495C262.714 80.4535 262.474 80.6935 262.202 80.8695C261.786 80.5975 261.338 80.3655 260.858 80.1735C260.394 79.9815 259.85 79.8855 259.226 79.8855ZM276.729 91.4775C276.569 91.5255 276.313 91.5735 275.961 91.6215C275.625 91.6695 275.273 91.6935 274.905 91.6935C274.553 91.6935 274.233 91.6695 273.945 91.6215C273.673 91.5735 273.441 91.4775 273.249 91.3335C273.057 91.1895 272.905 90.9975 272.793 90.7575C272.697 90.5015 272.649 90.1735 272.649 89.7735V84.4455C272.649 83.7895 272.481 83.3335 272.145 83.0775C271.825 82.8055 271.425 82.6695 270.945 82.6695C270.625 82.6695 270.321 82.7095 270.033 82.7895C269.745 82.8695 269.513 82.9655 269.337 83.0775V91.4775C269.177 91.5255 268.921 91.5735 268.569 91.6215C268.233 91.6695 267.881 91.6935 267.513 91.6935C267.161 91.6935 266.841 91.6695 266.553 91.6215C266.281 91.5735 266.049 91.4775 265.857 91.3335C265.665 91.1895 265.513 90.9975 265.401 90.7575C265.305 90.5015 265.257 90.1735 265.257 89.7735V75.8535C265.433 75.8215 265.689 75.7815 266.025 75.7335C266.377 75.6695 266.729 75.6375 267.081 75.6375C267.433 75.6375 267.745 75.6615 268.017 75.7095C268.305 75.7575 268.545 75.8535 268.737 75.9975C268.929 76.1415 269.073 76.3415 269.169 76.5975C269.281 76.8375 269.337 77.1575 269.337 77.5575V79.9095C269.545 79.8295 269.857 79.7415 270.273 79.6455C270.705 79.5335 271.177 79.4775 271.689 79.4775C273.273 79.4775 274.505 79.8775 275.385 80.6775C276.281 81.4615 276.729 82.6375 276.729 84.2055V91.4775ZM284.24 88.9095C284.512 88.9095 284.808 88.8855 285.128 88.8375C285.464 88.7735 285.712 88.6935 285.872 88.5975V86.6775L284.144 86.8215C283.696 86.8535 283.328 86.9495 283.04 87.1095C282.752 87.2695 282.608 87.5095 282.608 87.8295C282.608 88.1495 282.728 88.4135 282.968 88.6215C283.224 88.8135 283.648 88.9095 284.24 88.9095ZM284.048 79.4775C284.912 79.4775 285.696 79.5655 286.4 79.7415C287.12 79.9175 287.728 80.1895 288.224 80.5575C288.736 80.9095 289.128 81.3655 289.4 81.9255C289.672 82.4695 289.808 83.1175 289.808 83.8695V89.2455C289.808 89.6615 289.688 90.0055 289.448 90.2775C289.224 90.5335 288.952 90.7575 288.632 90.9495C287.592 91.5735 286.128 91.8855 284.24 91.8855C283.392 91.8855 282.624 91.8055 281.936 91.6455C281.264 91.4855 280.68 91.2455 280.184 90.9255C279.704 90.6055 279.328 90.1975 279.056 89.7015C278.8 89.2055 278.672 88.6295 278.672 87.9735C278.672 86.8695 279 86.0215 279.656 85.4295C280.312 84.8375 281.328 84.4695 282.704 84.3255L285.848 83.9895V83.8215C285.848 83.3575 285.64 83.0295 285.224 82.8375C284.824 82.6295 284.24 82.5255 283.472 82.5255C282.864 82.5255 282.272 82.5895 281.696 82.7175C281.12 82.8455 280.6 83.0055 280.136 83.1975C279.928 83.0535 279.752 82.8375 279.608 82.5495C279.464 82.2455 279.392 81.9335 279.392 81.6135C279.392 81.1975 279.488 80.8695 279.68 80.6295C279.888 80.3735 280.2 80.1575 280.616 79.9815C281.08 79.8055 281.624 79.6775 282.248 79.5975C282.888 79.5175 283.488 79.4775 284.048 79.4775ZM296.383 91.4775C296.223 91.5255 295.967 91.5735 295.615 91.6215C295.279 91.6695 294.927 91.6935 294.559 91.6935C294.207 91.6935 293.887 91.6695 293.599 91.6215C293.327 91.5735 293.095 91.4775 292.903 91.3335C292.711 91.1895 292.559 90.9975 292.447 90.7575C292.351 90.5015 292.303 90.1735 292.303 89.7735V82.5735C292.303 82.2055 292.367 81.8935 292.495 81.6375C292.639 81.3655 292.839 81.1255 293.095 80.9175C293.351 80.7095 293.663 80.5255 294.031 80.3655C294.415 80.1895 294.823 80.0375 295.255 79.9095C295.687 79.7815 296.135 79.6855 296.599 79.6215C297.063 79.5415 297.527 79.5015 297.991 79.5015C298.759 79.5015 299.367 79.6535 299.815 79.9575C300.263 80.2455 300.487 80.7255 300.487 81.3975C300.487 81.6215 300.455 81.8455 300.391 82.0695C300.327 82.2775 300.247 82.4695 300.151 82.6455C299.815 82.6455 299.471 82.6615 299.119 82.6935C298.767 82.7255 298.423 82.7735 298.087 82.8375C297.751 82.9015 297.431 82.9735 297.127 83.0535C296.839 83.1175 296.591 83.1975 296.383 83.2935V91.4775ZM302.074 76.5975C302.074 75.9895 302.274 75.4775 302.674 75.0615C303.09 74.6455 303.634 74.4375 304.306 74.4375C304.978 74.4375 305.514 74.6455 305.914 75.0615C306.33 75.4775 306.538 75.9895 306.538 76.5975C306.538 77.2055 306.33 77.7175 305.914 78.1335C305.514 78.5495 304.978 78.7575 304.306 78.7575C303.634 78.7575 303.09 78.5495 302.674 78.1335C302.274 77.7175 302.074 77.2055 302.074 76.5975ZM306.346 91.4775C306.17 91.5095 305.906 91.5495 305.554 91.5975C305.218 91.6615 304.874 91.6935 304.522 91.6935C304.17 91.6935 303.85 91.6695 303.562 91.6215C303.29 91.5735 303.058 91.4775 302.866 91.3335C302.674 91.1895 302.522 90.9975 302.41 90.7575C302.314 90.5015 302.266 90.1735 302.266 89.7735V80.0055C302.442 79.9735 302.698 79.9335 303.034 79.8855C303.386 79.8215 303.738 79.7895 304.09 79.7895C304.442 79.7895 304.754 79.8135 305.026 79.8615C305.314 79.9095 305.554 80.0055 305.746 80.1495C305.938 80.2935 306.082 80.4935 306.178 80.7495C306.29 80.9895 306.346 81.3095 306.346 81.7095V91.4775ZM313.024 87.4935C313.024 87.9095 313.151 88.2055 313.408 88.3815C313.679 88.5575 314.056 88.6455 314.536 88.6455C314.776 88.6455 315.023 88.6295 315.28 88.5975C315.535 88.5495 315.76 88.4935 315.952 88.4295C316.096 88.6055 316.216 88.8055 316.312 89.0295C316.423 89.2375 316.48 89.4935 316.48 89.7975C316.48 90.4055 316.247 90.9015 315.784 91.2855C315.335 91.6695 314.536 91.8615 313.384 91.8615C311.975 91.8615 310.888 91.5415 310.12 90.9015C309.367 90.2615 308.992 89.2215 308.992 87.7815V77.5095C309.167 77.4615 309.415 77.4135 309.736 77.3655C310.072 77.3015 310.423 77.2695 310.792 77.2695C311.495 77.2695 312.04 77.3975 312.424 77.6535C312.823 77.8935 313.024 78.4135 313.024 79.2135V80.7495H316.168C316.264 80.9255 316.351 81.1495 316.432 81.4215C316.528 81.6775 316.576 81.9655 316.576 82.2855C316.576 82.8455 316.447 83.2535 316.192 83.5095C315.952 83.7495 315.623 83.8695 315.208 83.8695H313.024V87.4935ZM320.377 88.5255C320.201 88.1255 320.009 87.6775 319.801 87.1815C319.609 86.6855 319.401 86.1175 319.177 85.4775C318.969 84.8375 318.745 84.1095 318.505 83.2935C318.281 82.4615 318.041 81.5095 317.785 80.4375C318.009 80.2135 318.305 80.0215 318.673 79.8615C319.057 79.6855 319.473 79.5975 319.921 79.5975C320.481 79.5975 320.945 79.7175 321.313 79.9575C321.681 80.1815 321.953 80.6135 322.129 81.2535L324.025 87.8535H324.121C324.313 87.3095 324.497 86.7175 324.673 86.0775C324.865 85.4375 325.049 84.7815 325.225 84.1095C325.401 83.4215 325.561 82.7415 325.705 82.0695C325.865 81.3815 326.001 80.7095 326.113 80.0535C326.689 79.7495 327.321 79.5975 328.009 79.5975C328.569 79.5975 329.033 79.7175 329.401 79.9575C329.769 80.1975 329.953 80.6135 329.953 81.2055C329.953 81.6375 329.897 82.1415 329.785 82.7175C329.673 83.2775 329.521 83.8775 329.329 84.5175C329.153 85.1575 328.937 85.8215 328.681 86.5095C328.441 87.1815 328.185 87.8455 327.913 88.5015C327.641 89.1575 327.361 89.7815 327.073 90.3735C326.785 90.9495 326.505 91.4695 326.233 91.9335C325.785 92.7175 325.369 93.3575 324.985 93.8535C324.601 94.3495 324.233 94.7335 323.881 95.0055C323.529 95.2935 323.177 95.4855 322.825 95.5815C322.473 95.6935 322.105 95.7495 321.721 95.7495C321.049 95.7495 320.505 95.5495 320.089 95.1495C319.673 94.7495 319.425 94.2295 319.345 93.5895C319.857 93.1895 320.369 92.7415 320.881 92.2455C321.393 91.7655 321.857 91.2695 322.273 90.7575C322.001 90.6775 321.705 90.4935 321.385 90.2055C321.081 89.9015 320.745 89.3415 320.377 88.5255ZM336.163 88.5015C336.388 88.5655 336.676 88.6135 337.027 88.6455C337.38 88.6615 337.716 88.6695 338.035 88.6695C338.676 88.6695 339.204 88.5415 339.619 88.2855C340.051 88.0135 340.267 87.5975 340.267 87.0375C340.267 86.5095 340.092 86.1335 339.739 85.9095C339.388 85.6855 338.851 85.5735 338.131 85.5735H336.163V88.5015ZM336.163 82.6455H337.915C338.604 82.6455 339.1 82.5175 339.403 82.2615C339.724 82.0055 339.883 81.6295 339.883 81.1335C339.883 80.7015 339.7 80.3575 339.331 80.1015C338.98 79.8455 338.443 79.7175 337.723 79.7175C337.483 79.7175 337.204 79.7255 336.883 79.7415C336.58 79.7575 336.34 79.7815 336.163 79.8135V82.6455ZM337.723 91.8855C337.452 91.8855 337.132 91.8775 336.763 91.8615C336.396 91.8455 336.012 91.8135 335.611 91.7655C335.227 91.7175 334.843 91.6535 334.459 91.5735C334.075 91.5095 333.724 91.4135 333.403 91.2855C332.524 90.9495 332.083 90.3655 332.083 89.5335V78.3255C332.083 77.9895 332.172 77.7335 332.347 77.5575C332.539 77.3655 332.796 77.2135 333.115 77.1015C333.66 76.9095 334.339 76.7735 335.155 76.6935C335.971 76.5975 336.811 76.5495 337.675 76.5495C339.724 76.5495 341.299 76.8935 342.403 77.5815C343.507 78.2695 344.059 79.3335 344.059 80.7735C344.059 81.4935 343.852 82.1175 343.435 82.6455C343.02 83.1575 342.46 83.5335 341.755 83.7735C342.556 83.9975 343.219 84.4055 343.747 84.9975C344.292 85.5895 344.563 86.3335 344.563 87.2295C344.563 88.8135 343.972 89.9895 342.787 90.7575C341.62 91.5095 339.931 91.8855 337.723 91.8855ZM358.633 85.6695C358.633 86.6615 358.48 87.5495 358.177 88.3335C357.873 89.1015 357.441 89.7495 356.881 90.2775C356.337 90.8055 355.681 91.2055 354.913 91.4775C354.145 91.7495 353.289 91.8855 352.345 91.8855C351.4 91.8855 350.545 91.7415 349.777 91.4535C349.009 91.1655 348.345 90.7575 347.785 90.2295C347.241 89.6855 346.816 89.0295 346.513 88.2615C346.209 87.4935 346.057 86.6295 346.057 85.6695C346.057 84.7255 346.209 83.8695 346.513 83.1015C346.816 82.3335 347.241 81.6855 347.785 81.1575C348.345 80.6135 349.009 80.1975 349.777 79.9095C350.545 79.6215 351.4 79.4775 352.345 79.4775C353.289 79.4775 354.145 79.6295 354.913 79.9335C355.681 80.2215 356.337 80.6375 356.881 81.1815C357.441 81.7095 357.873 82.3575 358.177 83.1255C358.48 83.8935 358.633 84.7415 358.633 85.6695ZM350.233 85.6695C350.233 86.6455 350.416 87.3975 350.785 87.9255C351.169 88.4375 351.697 88.6935 352.369 88.6935C353.041 88.6935 353.553 88.4295 353.905 87.9015C354.273 87.3735 354.457 86.6295 354.457 85.6695C354.457 84.7095 354.273 83.9735 353.905 83.4615C353.536 82.9335 353.017 82.6695 352.345 82.6695C351.673 82.6695 351.153 82.9335 350.785 83.4615C350.416 83.9735 350.233 84.7095 350.233 85.6695Z" fill="#494B6B"/>
<mask id="mask0_2747_9743" style="mask-type:alpha" maskUnits="userSpaceOnUse" x="209" y="66" width="36" height="36">
<path d="M209 81C209 72.7157 215.716 66 224 66H230C238.284 66 245 72.7157 245 81V87C245 95.2843 238.284 102 230 102H224C215.716 102 209 95.2843 209 87V81Z" fill="white"/>
</mask>
<g mask="url(#mask0_2747_9743)">
<path d="M224 69H230V63H224V69ZM242 81V87H248V81H242ZM230 99H224V105H230V99ZM212 87V81H206V87H212ZM224 99C217.373 99 212 93.6275 212 87H206C206 96.9411 214.059 105 224 105V99ZM242 87C242 93.6275 236.627 99 230 99V105C239.941 105 248 96.9411 248 87H242ZM230 69C236.627 69 242 74.3726 242 81H248C248 71.0589 239.941 63 230 63V69ZM224 63C214.059 63 206 71.0589 206 81H212C212 74.3726 217.373 69 224 69V63Z" fill="#494B6B"/>
<path d="M240.071 81.4201V80.6589C240.071 77.5925 237.222 75.2667 234.233 76.0503C232.431 72.5698 227.617 72.7139 225.937 76.1028C223.035 75.3602 220.143 77.5743 220.143 80.6719V89.5404C218.74 89.0182 217.098 89.1841 215.778 90.1641C213.714 91.6967 213.261 94.6173 214.755 96.714L223.19 108.556C223.398 108.848 223.673 109.086 223.992 109.25C224.31 109.414 224.664 109.5 225.022 109.5H240.695C241.743 109.5 242.652 108.777 242.887 107.755L245.01 98.5474C245.252 97.4943 245.375 96.4172 245.375 95.3366V86.0859C245.375 83.2299 242.877 81.024 240.071 81.4201ZM242 95.3365C242 96.1613 241.906 96.9867 241.721 97.7894L239.8 106.125H225.602L217.502 94.7557C216.487 93.3305 218.559 91.748 219.569 93.1663L221.477 95.8437C222.109 96.7315 223.518 96.2858 223.518 95.191V80.6719C223.518 78.8688 226.089 78.9275 226.089 80.7205V91.5C226.089 92.1214 226.593 92.625 227.214 92.625H227.696C228.318 92.625 228.821 92.1214 228.821 91.5V78.2109C228.821 76.4065 231.393 76.4665 231.393 78.2595V91.5C231.393 92.1214 231.896 92.625 232.518 92.625H233C233.621 92.625 234.125 92.1214 234.125 91.5V80.6104C234.125 78.8053 236.696 78.8659 236.696 80.6589V91.5C236.696 92.1214 237.2 92.625 237.821 92.625H238.303C238.925 92.625 239.428 92.1214 239.428 91.5V86.1345C239.428 84.2894 242 84.3318 242 86.0859V95.3365H242Z" fill="#494B6B"/>
</g>
<path d="M280.715 155.688H415.488" stroke="url(#paint22_linear_2747_9743)" stroke-width="0.75" stroke-miterlimit="10"/>
<path d="M162.807 155.688C162.807 156.467 218.569 155.688 218.569 155.688" stroke="url(#paint23_linear_2747_9743)" stroke-width="0.75" stroke-miterlimit="10"/>
<path d="M215.905 174.247L218.569 164.883H162.807V178.974H209.648C212.559 178.974 215.115 177.05 215.905 174.247Z" fill="url(#paint24_linear_2747_9743)"/>
<path d="M283.38 174.247C284.179 177.04 286.735 178.974 289.636 178.974H415.488V164.883H280.715L283.38 174.247Z" fill="url(#paint25_linear_2747_9743)"/>
<path d="M162.807 10.3359H41.1086V178.974H162.807V10.3359Z" fill="url(#paint26_linear_2747_9743)"/>
<path d="M152.939 20.2031H50.9763V169.106H152.939V20.2031Z" fill="url(#paint27_linear_2747_9743)"/>
<path d="M289.636 178.976L280.36 146.364C279.176 142.209 275.387 139.348 271.065 139.348H228.19C223.868 139.348 220.079 142.209 218.895 146.364L209.619 178.976H209.639C212.55 178.976 215.105 177.042 215.895 174.25L222.427 151.297C223.611 147.143 227.4 144.281 231.722 144.281H267.552C271.874 144.281 275.663 147.143 276.847 151.297L283.38 174.25C284.169 177.052 286.725 178.976 289.636 178.976Z" fill="url(#paint28_linear_2747_9743)"/>
<path d="M521.822 178.974C518.911 178.974 516.355 177.04 515.566 174.248L509.034 151.286C507.849 147.131 504.06 144.27 499.738 144.27H463.909C459.587 144.27 455.798 147.131 454.613 151.286L448.081 174.248C447.282 177.04 444.726 178.974 441.825 178.974H441.805L451.081 146.352C452.265 142.198 456.054 139.336 460.376 139.336H503.251C507.573 139.336 511.362 142.198 512.546 146.352L521.822 178.974Z" fill="url(#paint29_linear_2747_9743)"/>
<path d="M433.812 56.3594H465.704C468.527 56.3594 471.112 57.9382 472.405 60.4545L494.666 103.833C495.357 105.175 495.712 106.665 495.712 108.174V112.95C495.712 116.572 492.771 119.512 489.15 119.512H432.855C429.234 119.512 426.293 116.572 426.293 112.95V63.8884C426.283 59.7341 429.658 56.3594 433.812 56.3594Z" fill="url(#paint30_linear_2747_9743)"/>
<path d="M433.812 56.3594H465.705C468.527 56.3594 471.112 57.9382 472.405 60.4545L480.023 75.2954H426.283V63.8884C426.283 59.7341 429.658 56.3594 433.812 56.3594Z" fill="url(#paint31_linear_2747_9743)"/>
<path d="M459.004 56.3398L433.033 119.493" stroke="white" stroke-opacity="0.5" stroke-width="0.5" stroke-miterlimit="10"/>
<path d="M477.19 75.2656L459.004 119.493" stroke="white" stroke-opacity="0.5" stroke-width="0.5" stroke-miterlimit="10"/>
<path d="M491.331 101.285L483.841 119.491" stroke="white" stroke-opacity="0.5" stroke-width="0.5" stroke-miterlimit="10"/>
<path d="M465.705 61.2932C466.681 61.2932 467.57 61.8359 468.014 62.7043L490.275 106.083C490.611 106.724 490.778 107.454 490.778 108.174V112.95C490.778 113.848 490.048 114.579 489.15 114.579H432.855C431.957 114.579 431.227 113.848 431.227 112.95V63.8884C431.227 62.4576 432.391 61.2932 433.822 61.2932H465.705ZM465.705 56.3594H433.812C429.658 56.3594 426.283 59.7341 426.283 63.8884V112.95C426.283 116.572 429.224 119.512 432.845 119.512H489.14C492.762 119.512 495.702 116.572 495.702 112.95V108.174C495.702 106.665 495.347 105.175 494.656 103.833L472.395 60.4545C471.112 57.9382 468.527 56.3594 465.705 56.3594Z" fill="url(#paint32_linear_2747_9743)"/>
<path d="M511.984 161.648C512.083 161.994 546.027 161.757 556.773 161.678C558.549 161.668 559.99 163.099 559.99 164.875V175.779C559.99 177.545 558.559 178.976 556.793 178.976H521.822C518.911 178.976 516.355 177.042 515.566 174.249L511.984 161.648Z" fill="url(#paint33_linear_2747_9743)"/>
<path d="M560 164.875H512.902" stroke="url(#paint34_linear_2747_9743)" stroke-width="0.75" stroke-miterlimit="10"/>
<path d="M475.316 56.7733L498.722 102.184C499.284 103.27 499.57 104.464 499.57 105.687V128.225C499.57 131.097 497.242 133.416 494.38 133.416H456.389C452.452 133.416 448.999 136.03 447.933 139.82L440.039 167.834C438.973 171.623 435.509 174.238 431.582 174.238H425.464C423.451 174.238 421.823 172.61 421.823 170.597V60.2763C421.823 56.053 425.247 52.6289 429.47 52.6289H468.537C471.378 52.6388 474.003 54.2373 475.316 56.7733Z" stroke="url(#paint35_linear_2747_9743)" stroke-width="0.75" stroke-miterlimit="10"/>
<path d="M433.141 135.489H427.438C426.796 135.489 426.283 134.976 426.283 134.334C426.283 133.693 426.796 133.18 427.438 133.18H433.141C433.783 133.18 434.296 133.693 434.296 134.334C434.296 134.966 433.783 135.489 433.141 135.489Z" fill="url(#paint36_linear_2747_9743)"/>
<path d="M552.501 141.328H545.643C543.344 141.328 541.479 143.193 541.479 145.492V161.764H552.501V141.328Z" fill="url(#paint37_linear_2747_9743)"/>
<path d="M505.59 106.969V121.533C505.59 122.836 506.646 123.882 507.938 123.882H535.992" stroke="url(#paint38_linear_2747_9743)" stroke-width="0.75" stroke-miterlimit="10"/>
<path d="M257.793 144.281H239.113C237.752 144.281 236.646 143.176 236.646 141.815C236.646 140.453 237.752 139.348 239.113 139.348H257.793C259.155 139.348 260.26 140.453 260.26 141.815C260.26 143.176 259.155 144.281 257.793 144.281Z" fill="url(#paint39_linear_2747_9743)"/>
<path d="M489.357 144.281H470.678C469.316 144.281 468.211 143.176 468.211 141.815C468.211 140.453 469.316 139.348 470.678 139.348H489.357C490.719 139.348 491.824 140.453 491.824 141.815C491.824 143.176 490.719 144.281 489.357 144.281Z" fill="url(#paint40_linear_2747_9743)"/>
<path d="M480.022 80.043V119.514" stroke="url(#paint41_linear_2747_9743)" stroke-width="5" stroke-miterlimit="10"/>
<path d="M549.235 155.184H546.304C545.337 155.184 544.547 154.394 544.547 153.427V144.842C544.547 143.875 545.337 143.086 546.304 143.086H549.235C550.202 143.086 550.991 143.875 550.991 144.842V153.427C550.991 154.394 550.202 155.184 549.235 155.184Z" fill="url(#paint42_linear_2747_9743)"/>
<path d="M549.235 160.59H546.304C545.337 160.59 544.547 159.801 544.547 158.834V157.975C544.547 157.008 545.337 156.219 546.304 156.219H549.235C550.202 156.219 550.991 157.008 550.991 157.975V158.834C550.991 159.801 550.202 160.59 549.235 160.59Z" fill="url(#paint43_linear_2747_9743)"/>
<path d="M50.9764 169.105H152.939L101.963 215.661H0L50.9764 169.105Z" fill="url(#paint44_linear_2747_9743)"/>
<path d="M152.939 169.105H140.308L89.322 215.661H101.963L152.939 169.105Z" fill="#494B6B"/>
<path fill-rule="evenodd" clip-rule="evenodd" d="M415.488 25.8281H162.807V25.0781H415.488V25.8281Z" fill="url(#paint45_linear_2747_9743)"/>
<path d="M83.5891 73.4492H126.701L127.066 109.851H83.5891V73.4492Z" fill="url(#paint46_linear_2747_9743)"/>
<path d="M126.661 73.4492H152.939V109.851H127.174L126.661 73.4492Z" fill="url(#paint47_linear_2747_9743)"/>
<path d="M74.2047 109.852H131.003L131.487 169.107H72.7739L74.2047 109.852Z" fill="url(#paint48_linear_2747_9743)"/>
<path d="M130.954 109.852H152.939L152.889 169.107H131.378L130.954 109.852Z" fill="url(#paint49_linear_2747_9743)"/>
<path d="M265.707 198.5H373.788V136.857H265.707V198.5Z" fill="url(#paint50_linear_2747_9743)"/>
<path d="M373.778 215.656H402.967V136.853H373.778V215.656Z" fill="url(#paint51_linear_2747_9743)"/>
<path opacity="0.5" d="M265.704 147.66L402.973 147.66V136.855L265.704 136.855V147.66Z" fill="url(#paint52_linear_2747_9743)"/>
<path d="M258.708 136.859L409.959 136.859V129.873L258.708 129.873V136.859Z" fill="url(#paint53_linear_2747_9743)"/>
<path d="M265.703 215.657V129.867H258.716V215.657H265.703Z" fill="url(#paint54_linear_2747_9743)"/>
<path d="M409.963 215.653V129.863H402.977V215.653H409.963Z" fill="url(#paint55_linear_2747_9743)"/>
<path d="M229.793 215.664H258.706V129.875H229.793V215.664Z" fill="url(#paint56_linear_2747_9743)"/>
<path d="M265.701 211.172H309.681V143.855H265.701V211.172Z" fill="url(#paint57_linear_2747_9743)"/>
<path d="M265.701 165.242H309.681V163.545H265.701V165.242Z" fill="url(#paint58_linear_2747_9743)"/>
<path d="M265.701 184.309H309.681V182.611H265.701V184.309Z" fill="url(#paint59_linear_2747_9743)"/>
<path d="M265.701 147.664H309.681V143.855H265.701V147.664Z" fill="url(#paint60_linear_2747_9743)"/>
<path d="M283.873 154.021H291.501C292.379 154.021 293.09 153.311 293.09 152.432C293.09 151.554 292.379 150.844 291.501 150.844H283.873C282.995 150.844 282.284 151.554 282.284 152.432C282.284 153.311 282.995 154.021 283.873 154.021Z" fill="url(#paint61_linear_2747_9743)"/>
<path d="M283.873 172.771H291.501C292.379 172.771 293.09 172.061 293.09 171.182C293.09 170.304 292.379 169.594 291.501 169.594H283.873C282.995 169.594 282.284 170.304 282.284 171.182C282.284 172.051 282.995 172.771 283.873 172.771Z" fill="url(#paint62_linear_2747_9743)"/>
<path d="M283.873 191.509H291.501C292.379 191.509 293.09 190.799 293.09 189.921C293.09 189.043 292.379 188.332 291.501 188.332H283.873C282.995 188.332 282.284 189.043 282.284 189.921C282.284 190.799 282.995 191.509 283.873 191.509Z" fill="url(#paint63_linear_2747_9743)"/>
<path d="M265.701 215.656H309.681V211.166H265.701V215.656Z" fill="url(#paint64_linear_2747_9743)"/>
<path d="M155.82 155.094H213.862L214.365 215.661H154.35L155.82 155.094Z" fill="url(#paint65_linear_2747_9743)"/>
<path d="M213.812 155.094H242.152L242.083 215.661H214.365L213.812 155.094Z" fill="url(#paint66_linear_2747_9743)"/>
<path d="M155.702 155.094L144.847 171.879H202.958L213.813 155.094H155.702Z" fill="url(#paint67_linear_2747_9743)"/>
<path d="M242.152 155.094L252.997 171.879H224.667L213.812 155.094H242.152Z" fill="url(#paint68_linear_2747_9743)"/>
<path d="M106.462 183.285H145.321L145.647 215.661H106.462V183.285Z" fill="url(#paint69_linear_2747_9743)"/>
<path d="M145.281 183.285H168.964V215.661H145.745L145.281 183.285Z" fill="url(#paint70_linear_2747_9743)"/>
<path d="M183.173 100.781C181.259 103.83 179.907 111.162 179.907 119.737C179.907 128.312 181.259 135.644 183.173 138.693C185.088 135.644 186.44 128.312 186.44 119.737C186.44 111.162 185.088 103.83 183.173 100.781Z" fill="url(#paint71_linear_2747_9743)"/>
<path d="M172.132 104.453C170.957 107.857 171.303 115.308 173.247 123.656C175.191 132.004 178.171 138.842 180.726 141.378C181.901 137.974 181.555 130.524 179.611 122.175C177.658 113.827 174.687 106.989 172.132 104.453Z" fill="url(#paint72_linear_2747_9743)"/>
<path d="M194.985 104.434C192.36 107.127 189.212 114.38 187.051 123.241C184.89 132.103 184.367 139.987 185.463 143.588C188.088 140.895 191.235 133.642 193.396 124.781C195.547 115.92 196.08 108.025 194.985 104.434Z" fill="url(#paint73_linear_2747_9743)"/>
<path d="M179.335 106.496C177.677 109.683 176.917 117.104 177.608 125.649C178.299 134.195 180.243 141.398 182.394 144.279C184.052 141.092 184.812 133.672 184.121 125.126C183.42 116.581 181.486 109.377 179.335 106.496Z" fill="url(#paint74_linear_2747_9743)"/>
<path d="M189.688 125.662C190.534 115.227 189.762 106.651 187.964 106.505C186.167 106.359 184.023 114.7 183.177 125.134C182.331 135.569 183.103 144.145 184.901 144.291C186.699 144.437 188.842 136.096 189.688 125.662Z" fill="url(#paint75_linear_2747_9743)"/>
<path d="M194.64 141.545H171.717L171.263 135.852H195.084L194.64 141.545Z" fill="url(#paint76_linear_2747_9743)"/>
<path d="M191.64 154.785H174.687L173.631 141.543H192.696L191.64 154.785Z" fill="url(#paint77_linear_2747_9743)"/>
<path opacity="0.2" d="M173.631 141.543H192.696L192.498 144H173.829L173.631 141.543Z" fill="url(#paint78_linear_2747_9743)"/>
<path d="M138.907 153.625H136.914V183.287H138.907V153.625Z" fill="url(#paint79_linear_2747_9743)"/>
<path d="M120.761 183.287H118.767L127.905 153.625H129.908L120.761 183.287Z" fill="url(#paint80_linear_2747_9743)"/>
<path d="M155.061 183.287H157.064L147.916 153.625H145.923L155.061 183.287Z" fill="url(#paint81_linear_2747_9743)"/>
<path d="M157.597 160.819H118.225L120.573 124.871H155.248L157.597 160.819Z" fill="url(#paint82_linear_2747_9743)"/>
<path d="M124.333 160.817L126.415 130.336H155.603L157.597 160.817H124.333Z" fill="url(#paint83_linear_2747_9743)"/>
<path d="M152.741 175.321V173.328H123.079V175.321H152.741Z" fill="url(#paint84_linear_2747_9743)"/>
</g>
<defs>
<linearGradient id="paint0_linear_2747_9743" x1="305.641" y1="135.019" x2="305.636" y2="185.961" gradientUnits="userSpaceOnUse">
<stop stop-color="#8082AB"/>
<stop offset="1" stop-color="#494B6B"/>
</linearGradient>
<linearGradient id="paint1_linear_2747_9743" x1="361.313" y1="150.092" x2="361.13" y2="215.654" gradientUnits="userSpaceOnUse">
<stop stop-color="#494B6B"/>
<stop offset="1" stop-color="#878294"/>
</linearGradient>
<linearGradient id="paint2_linear_2747_9743" x1="350.412" y1="150.104" x2="350.332" y2="215.666" gradientUnits="userSpaceOnUse">
<stop stop-color="#494B6B"/>
<stop offset="1" stop-color="#878294"/>
</linearGradient>
<linearGradient id="paint3_linear_2747_9743" x1="372.427" y1="150.104" x2="372.347" y2="215.666" gradientUnits="userSpaceOnUse">
<stop stop-color="#8082AB"/>
<stop offset="1" stop-color="#494B6B"/>
</linearGradient>
<linearGradient id="paint4_linear_2747_9743" x1="129.985" y1="150.092" x2="129.802" y2="215.654" gradientUnits="userSpaceOnUse">
<stop stop-color="#8082AB"/>
<stop offset="1" stop-color="#494B6B"/>
</linearGradient>
<linearGradient id="paint5_linear_2747_9743" x1="119.084" y1="150.104" x2="119.004" y2="215.666" gradientUnits="userSpaceOnUse">
<stop stop-color="#8082AB"/>
<stop offset="1" stop-color="#494B6B"/>
</linearGradient>
<linearGradient id="paint6_linear_2747_9743" x1="141.109" y1="150.104" x2="141.029" y2="215.666" gradientUnits="userSpaceOnUse">
<stop stop-color="#494B6B"/>
<stop offset="1" stop-color="#878294"/>
</linearGradient>
<linearGradient id="paint7_linear_2747_9743" x1="177.54" y1="182.967" x2="177.539" y2="189.604" gradientUnits="userSpaceOnUse">
<stop stop-color="#494B6B"/>
<stop offset="1" stop-color="#878294"/>
</linearGradient>
<linearGradient id="paint8_linear_2747_9743" x1="408.858" y1="182.967" x2="408.857" y2="189.604" gradientUnits="userSpaceOnUse">
<stop stop-color="#494B6B"/>
<stop offset="1" stop-color="#878294"/>
</linearGradient>
<linearGradient id="paint9_linear_2747_9743" x1="472.196" y1="150.092" x2="472.013" y2="215.654" gradientUnits="userSpaceOnUse">
<stop stop-color="#494B6B"/>
<stop offset="1" stop-color="#878294"/>
</linearGradient>
<linearGradient id="paint10_linear_2747_9743" x1="461.295" y1="150.104" x2="461.215" y2="215.666" gradientUnits="userSpaceOnUse">
<stop stop-color="#494B6B"/>
<stop offset="1" stop-color="#878294"/>
</linearGradient>
<linearGradient id="paint11_linear_2747_9743" x1="483.309" y1="150.104" x2="483.229" y2="215.666" gradientUnits="userSpaceOnUse">
<stop stop-color="#8082AB"/>
<stop offset="1" stop-color="#494B6B"/>
</linearGradient>
<linearGradient id="paint12_linear_2747_9743" x1="483.222" y1="165.375" x2="483.179" y2="200.509" gradientUnits="userSpaceOnUse">
<stop stop-color="#494B6B"/>
<stop offset="1" stop-color="#878294"/>
</linearGradient>
<linearGradient id="paint13_linear_2747_9743" x1="483.161" y1="176.002" x2="483.144" y2="189.948" gradientUnits="userSpaceOnUse">
<stop stop-color="#8082AB"/>
<stop offset="1" stop-color="#494B6B"/>
</linearGradient>
<linearGradient id="paint14_linear_2747_9743" x1="241.855" y1="150.092" x2="241.672" y2="215.654" gradientUnits="userSpaceOnUse">
<stop stop-color="#494B6B"/>
<stop offset="1" stop-color="#878294"/>
</linearGradient>
<linearGradient id="paint15_linear_2747_9743" x1="230.954" y1="150.104" x2="230.874" y2="215.666" gradientUnits="userSpaceOnUse">
<stop stop-color="#494B6B"/>
<stop offset="1" stop-color="#878294"/>
</linearGradient>
<linearGradient id="paint16_linear_2747_9743" x1="252.979" y1="150.104" x2="252.899" y2="215.666" gradientUnits="userSpaceOnUse">
<stop stop-color="#8082AB"/>
<stop offset="1" stop-color="#494B6B"/>
</linearGradient>
<linearGradient id="paint17_linear_2747_9743" x1="252.891" y1="165.375" x2="252.848" y2="200.509" gradientUnits="userSpaceOnUse">
<stop stop-color="#494B6B"/>
<stop offset="1" stop-color="#878294"/>
</linearGradient>
<linearGradient id="paint18_linear_2747_9743" x1="252.83" y1="176.002" x2="252.813" y2="189.948" gradientUnits="userSpaceOnUse">
<stop stop-color="#8082AB"/>
<stop offset="1" stop-color="#494B6B"/>
</linearGradient>
<linearGradient id="paint19_linear_2747_9743" x1="415.692" y1="48.728" x2="495.424" y2="207.606" gradientUnits="userSpaceOnUse">
<stop stop-color="#37E2DE"/>
<stop offset="1" stop-color="#07C2C2"/>
</linearGradient>
<linearGradient id="paint20_linear_2747_9743" x1="480.294" y1="128.789" x2="480.294" y2="129.789" gradientUnits="userSpaceOnUse">
<stop stop-color="#9BCDFC"/>
<stop offset="1" stop-color="#7FACEC"/>
</linearGradient>
<linearGradient id="paint21_linear_2747_9743" x1="289.152" y1="10.3359" x2="289.152" y2="178.974" gradientUnits="userSpaceOnUse">
<stop stop-color="#FFD93C"/>
<stop offset="1" stop-color="#FEF237"/>
</linearGradient>
<linearGradient id="paint22_linear_2747_9743" x1="348.102" y1="155.688" x2="348.102" y2="156.688" gradientUnits="userSpaceOnUse">
<stop stop-color="#FFD93C"/>
<stop offset="1" stop-color="#FEF237"/>
</linearGradient>
<linearGradient id="paint23_linear_2747_9743" x1="190.688" y1="155.688" x2="190.688" y2="156.034" gradientUnits="userSpaceOnUse">
<stop stop-color="#FFD93C"/>
<stop offset="1" stop-color="#FEF237"/>
</linearGradient>
<linearGradient id="paint24_linear_2747_9743" x1="190.896" y1="164.829" x2="190.893" y2="178.974" gradientUnits="userSpaceOnUse">
<stop stop-color="#494B6B"/>
<stop offset="1" stop-color="#878294"/>
</linearGradient>
<linearGradient id="paint25_linear_2747_9743" x1="348.606" y1="164.829" x2="348.605" y2="178.974" gradientUnits="userSpaceOnUse">
<stop stop-color="#494B6B"/>
<stop offset="1" stop-color="#878294"/>
</linearGradient>
<linearGradient id="paint26_linear_2747_9743" x1="101.958" y1="10.3359" x2="101.958" y2="178.974" gradientUnits="userSpaceOnUse">
<stop stop-color="#ECC72E"/>
<stop offset="1" stop-color="#FEF237"/>
</linearGradient>
<linearGradient id="paint27_linear_2747_9743" x1="102.339" y1="19.6389" x2="102.134" y2="169.106" gradientUnits="userSpaceOnUse">
<stop stop-color="#494B6B"/>
<stop offset="1" stop-color="#878294"/>
</linearGradient>
<linearGradient id="paint28_linear_2747_9743" x1="249.927" y1="139.197" x2="249.908" y2="178.976" gradientUnits="userSpaceOnUse">
<stop stop-color="#494B6B"/>
<stop offset="1" stop-color="#878294"/>
</linearGradient>
<linearGradient id="paint29_linear_2747_9743" x1="482.113" y1="139.186" x2="482.095" y2="178.974" gradientUnits="userSpaceOnUse">
<stop stop-color="#494B6B"/>
<stop offset="1" stop-color="#878294"/>
</linearGradient>
<linearGradient id="paint30_linear_2747_9743" x1="426.406" y1="56.4433" x2="463.962" y2="134.736" gradientUnits="userSpaceOnUse">
<stop stop-color="#37E2DE"/>
<stop offset="1" stop-color="#07C2C2"/>
</linearGradient>
<linearGradient id="paint31_linear_2747_9743" x1="426.371" y1="56.3845" x2="431.557" y2="84.2983" gradientUnits="userSpaceOnUse">
<stop stop-color="#37E2DE"/>
<stop offset="1" stop-color="#07C2C2"/>
</linearGradient>
<linearGradient id="paint32_linear_2747_9743" x1="461.253" y1="56.1201" x2="461.198" y2="119.513" gradientUnits="userSpaceOnUse">
<stop stop-color="#8082AB"/>
<stop offset="1" stop-color="#494B6B"/>
</linearGradient>
<linearGradient id="paint33_linear_2747_9743" x1="536.167" y1="161.583" x2="536.161" y2="178.976" gradientUnits="userSpaceOnUse">
<stop stop-color="#8082AB"/>
<stop offset="1" stop-color="#494B6B"/>
</linearGradient>
<linearGradient id="paint34_linear_2747_9743" x1="536.627" y1="164.871" x2="536.627" y2="165.875" gradientUnits="userSpaceOnUse">
<stop stop-color="#494B6B"/>
<stop offset="1" stop-color="#878294"/>
</linearGradient>
<linearGradient id="paint35_linear_2747_9743" x1="460.988" y1="52.1681" x2="460.808" y2="174.238" gradientUnits="userSpaceOnUse">
<stop stop-color="#494B6B"/>
<stop offset="1" stop-color="#878294"/>
</linearGradient>
<linearGradient id="paint36_linear_2747_9743" x1="430.319" y1="133.171" x2="430.319" y2="135.489" gradientUnits="userSpaceOnUse">
<stop stop-color="#494B6B"/>
<stop offset="1" stop-color="#878294"/>
</linearGradient>
<linearGradient id="paint37_linear_2747_9743" x1="546.99" y1="141.328" x2="546.99" y2="161.764" gradientUnits="userSpaceOnUse">
<stop stop-color="#FFD93C"/>
<stop offset="1" stop-color="#FEF237"/>
</linearGradient>
<linearGradient id="paint38_linear_2747_9743" x1="520.905" y1="106.905" x2="520.896" y2="123.882" gradientUnits="userSpaceOnUse">
<stop stop-color="#494B6B"/>
<stop offset="1" stop-color="#878294"/>
</linearGradient>
<linearGradient id="paint39_linear_2747_9743" x1="248.542" y1="139.329" x2="248.541" y2="144.282" gradientUnits="userSpaceOnUse">
<stop stop-color="#8082AB"/>
<stop offset="1" stop-color="#494B6B"/>
</linearGradient>
<linearGradient id="paint40_linear_2747_9743" x1="480.106" y1="139.329" x2="480.105" y2="144.282" gradientUnits="userSpaceOnUse">
<stop stop-color="#8082AB"/>
<stop offset="1" stop-color="#494B6B"/>
</linearGradient>
<linearGradient id="paint41_linear_2747_9743" x1="480.526" y1="79.8934" x2="479.054" y2="119.459" gradientUnits="userSpaceOnUse">
<stop stop-color="#8082AB"/>
<stop offset="1" stop-color="#494B6B"/>
</linearGradient>
<linearGradient id="paint42_linear_2747_9743" x1="547.769" y1="143.086" x2="547.769" y2="155.184" gradientUnits="userSpaceOnUse">
<stop stop-color="#ECC72E"/>
<stop offset="1" stop-color="#FEF237"/>
</linearGradient>
<linearGradient id="paint43_linear_2747_9743" x1="547.769" y1="156.219" x2="547.769" y2="160.59" gradientUnits="userSpaceOnUse">
<stop stop-color="#FFD93C"/>
<stop offset="1" stop-color="#FEF237"/>
</linearGradient>
<linearGradient id="paint44_linear_2747_9743" x1="77.042" y1="168.929" x2="77.0286" y2="215.661" gradientUnits="userSpaceOnUse">
<stop stop-color="#8082AB"/>
<stop offset="1" stop-color="#494B6B"/>
</linearGradient>
<linearGradient id="paint45_linear_2747_9743" x1="289.147" y1="25.0781" x2="289.147" y2="25.8281" gradientUnits="userSpaceOnUse">
<stop stop-color="#FFD93C"/>
<stop offset="1" stop-color="#FEF237"/>
</linearGradient>
<linearGradient id="paint46_linear_2747_9743" x1="83.6601" y1="73.4976" x2="104.17" y2="119.955" gradientUnits="userSpaceOnUse">
<stop stop-color="#37E2DE"/>
<stop offset="1" stop-color="#07C2C2"/>
</linearGradient>
<linearGradient id="paint47_linear_2747_9743" x1="126.704" y1="73.4976" x2="153.145" y2="109.697" gradientUnits="userSpaceOnUse">
<stop stop-color="#37E2DE"/>
<stop offset="1" stop-color="#07C2C2"/>
</linearGradient>
<linearGradient id="paint48_linear_2747_9743" x1="102.13" y1="109.852" x2="102.13" y2="169.107" gradientUnits="userSpaceOnUse">
<stop stop-color="#7FACEC"/>
<stop offset="1" stop-color="#9BCDFC"/>
</linearGradient>
<linearGradient id="paint49_linear_2747_9743" x1="141.946" y1="109.852" x2="141.946" y2="169.107" gradientUnits="userSpaceOnUse">
<stop stop-color="#9BCDFC"/>
<stop offset="1" stop-color="#7FACEC"/>
</linearGradient>
<linearGradient id="paint50_linear_2747_9743" x1="319.343" y1="198.734" x2="319.376" y2="136.856" gradientUnits="userSpaceOnUse">
<stop stop-color="#8B65EC"/>
<stop offset="1" stop-color="#5F4EDC"/>
</linearGradient>
<linearGradient id="paint51_linear_2747_9743" x1="388.263" y1="215.955" x2="388.465" y2="136.853" gradientUnits="userSpaceOnUse">
<stop stop-color="#5F4EDC"/>
<stop offset="1" stop-color="#8B65EC"/>
</linearGradient>
<linearGradient id="paint52_linear_2747_9743" x1="333.825" y1="147.701" x2="333.826" y2="136.855" gradientUnits="userSpaceOnUse">
<stop stop-color="#494B6B"/>
<stop offset="1" stop-color="#878294"/>
</linearGradient>
<linearGradient id="paint53_linear_2747_9743" x1="333.767" y1="136.886" x2="333.768" y2="129.873" gradientUnits="userSpaceOnUse">
<stop stop-color="#8B65EC"/>
<stop offset="1" stop-color="#5F4EDC"/>
</linearGradient>
<linearGradient id="paint54_linear_2747_9743" x1="265.729" y1="173.083" x2="258.716" y2="173.083" gradientUnits="userSpaceOnUse">
<stop stop-color="#8B65EC"/>
<stop offset="1" stop-color="#5F4EDC"/>
</linearGradient>
<linearGradient id="paint55_linear_2747_9743" x1="409.989" y1="173.079" x2="402.977" y2="173.079" gradientUnits="userSpaceOnUse">
<stop stop-color="#8B65EC"/>
<stop offset="1" stop-color="#5F4EDC"/>
</linearGradient>
<linearGradient id="paint56_linear_2747_9743" x1="244.141" y1="215.989" x2="244.382" y2="129.875" gradientUnits="userSpaceOnUse">
<stop stop-color="#8B65EC"/>
<stop offset="1" stop-color="#5F4EDC"/>
</linearGradient>
<linearGradient id="paint57_linear_2747_9743" x1="287.526" y1="211.427" x2="287.624" y2="143.855" gradientUnits="userSpaceOnUse">
<stop stop-color="#5F4EDC"/>
<stop offset="1" stop-color="#8B65EC"/>
</linearGradient>
<linearGradient id="paint58_linear_2747_9743" x1="287.526" y1="165.249" x2="287.526" y2="163.545" gradientUnits="userSpaceOnUse">
<stop stop-color="#8B65EC"/>
<stop offset="1" stop-color="#5F4EDC"/>
</linearGradient>
<linearGradient id="paint59_linear_2747_9743" x1="287.526" y1="184.315" x2="287.526" y2="182.611" gradientUnits="userSpaceOnUse">
<stop stop-color="#8B65EC"/>
<stop offset="1" stop-color="#5F4EDC"/>
</linearGradient>
<linearGradient id="paint60_linear_2747_9743" x1="287.526" y1="147.678" x2="287.527" y2="143.855" gradientUnits="userSpaceOnUse">
<stop stop-color="#8B65EC"/>
<stop offset="1" stop-color="#5F4EDC"/>
</linearGradient>
<linearGradient id="paint61_linear_2747_9743" x1="287.727" y1="150.832" x2="287.727" y2="154.021" gradientUnits="userSpaceOnUse">
<stop stop-color="#494B6B"/>
<stop offset="1" stop-color="#878294"/>
</linearGradient>
<linearGradient id="paint62_linear_2747_9743" x1="287.727" y1="169.582" x2="287.727" y2="172.771" gradientUnits="userSpaceOnUse">
<stop stop-color="#494B6B"/>
<stop offset="1" stop-color="#878294"/>
</linearGradient>
<linearGradient id="paint63_linear_2747_9743" x1="287.727" y1="188.32" x2="287.727" y2="191.509" gradientUnits="userSpaceOnUse">
<stop stop-color="#494B6B"/>
<stop offset="1" stop-color="#878294"/>
</linearGradient>
<linearGradient id="paint64_linear_2747_9743" x1="287.526" y1="215.673" x2="287.527" y2="211.166" gradientUnits="userSpaceOnUse">
<stop stop-color="#494B6B"/>
<stop offset="1" stop-color="#878294"/>
</linearGradient>
<linearGradient id="paint65_linear_2747_9743" x1="184.357" y1="155.094" x2="184.357" y2="215.661" gradientUnits="userSpaceOnUse">
<stop stop-color="#9BCDFC"/>
<stop offset="1" stop-color="#7FACEC"/>
</linearGradient>
<linearGradient id="paint66_linear_2747_9743" x1="227.982" y1="155.094" x2="227.982" y2="215.661" gradientUnits="userSpaceOnUse">
<stop stop-color="#7FACEC"/>
<stop offset="1" stop-color="#9BCDFC"/>
</linearGradient>
<linearGradient id="paint67_linear_2747_9743" x1="179.33" y1="155.094" x2="179.33" y2="171.879" gradientUnits="userSpaceOnUse">
<stop stop-color="#9BCDFC"/>
<stop offset="1" stop-color="#7FACEC"/>
</linearGradient>
<linearGradient id="paint68_linear_2747_9743" x1="233.405" y1="155.094" x2="233.405" y2="171.879" gradientUnits="userSpaceOnUse">
<stop stop-color="#9BCDFC"/>
<stop offset="1" stop-color="#7FACEC"/>
</linearGradient>
<linearGradient id="paint69_linear_2747_9743" x1="126.054" y1="183.285" x2="126.054" y2="215.661" gradientUnits="userSpaceOnUse">
<stop stop-color="#9BCDFC"/>
<stop offset="1" stop-color="#7FACEC"/>
</linearGradient>
<linearGradient id="paint70_linear_2747_9743" x1="157.123" y1="183.285" x2="157.123" y2="215.661" gradientUnits="userSpaceOnUse">
<stop stop-color="#7FACEC"/>
<stop offset="1" stop-color="#9BCDFC"/>
</linearGradient>
<linearGradient id="paint71_linear_2747_9743" x1="179.918" y1="100.832" x2="196.988" y2="106.41" gradientUnits="userSpaceOnUse">
<stop stop-color="#37E2DE"/>
<stop offset="1" stop-color="#07C2C2"/>
</linearGradient>
<linearGradient id="paint72_linear_2747_9743" x1="171.472" y1="104.502" x2="194.285" y2="116.157" gradientUnits="userSpaceOnUse">
<stop stop-color="#37E2DE"/>
<stop offset="1" stop-color="#07C2C2"/>
</linearGradient>
<linearGradient id="paint73_linear_2747_9743" x1="184.925" y1="104.486" x2="209.227" y2="116.999" gradientUnits="userSpaceOnUse">
<stop stop-color="#37E2DE"/>
<stop offset="1" stop-color="#07C2C2"/>
</linearGradient>
<linearGradient id="paint74_linear_2747_9743" x1="177.365" y1="106.546" x2="195.43" y2="112.914" gradientUnits="userSpaceOnUse">
<stop stop-color="#37E2DE"/>
<stop offset="1" stop-color="#07C2C2"/>
</linearGradient>
<linearGradient id="paint75_linear_2747_9743" x1="181.659" y1="143.966" x2="191.58" y2="143.87" gradientUnits="userSpaceOnUse">
<stop stop-color="#37E2DE"/>
<stop offset="1" stop-color="#07C2C2"/>
</linearGradient>
<linearGradient id="paint76_linear_2747_9743" x1="183.263" y1="135.83" x2="183.261" y2="141.545" gradientUnits="userSpaceOnUse">
<stop stop-color="#8082AB"/>
<stop offset="1" stop-color="#494B6B"/>
</linearGradient>
<linearGradient id="paint77_linear_2747_9743" x1="183.235" y1="141.493" x2="183.226" y2="154.785" gradientUnits="userSpaceOnUse">
<stop stop-color="#8082AB"/>
<stop offset="1" stop-color="#494B6B"/>
</linearGradient>
<linearGradient id="paint78_linear_2747_9743" x1="183.235" y1="141.534" x2="183.235" y2="144" gradientUnits="userSpaceOnUse">
<stop stop-color="#8082AB"/>
<stop offset="1" stop-color="#494B6B"/>
</linearGradient>
<linearGradient id="paint79_linear_2747_9743" x1="137.918" y1="153.513" x2="137.5" y2="183.281" gradientUnits="userSpaceOnUse">
<stop stop-color="#494B6B"/>
<stop offset="1" stop-color="#878294"/>
</linearGradient>
<linearGradient id="paint80_linear_2747_9743" x1="124.379" y1="153.513" x2="124.305" y2="183.287" gradientUnits="userSpaceOnUse">
<stop stop-color="#494B6B"/>
<stop offset="1" stop-color="#878294"/>
</linearGradient>
<linearGradient id="paint81_linear_2747_9743" x1="151.535" y1="153.513" x2="151.46" y2="183.287" gradientUnits="userSpaceOnUse">
<stop stop-color="#494B6B"/>
<stop offset="1" stop-color="#878294"/>
</linearGradient>
<linearGradient id="paint82_linear_2747_9743" x1="138.058" y1="124.735" x2="138.027" y2="160.819" gradientUnits="userSpaceOnUse">
<stop stop-color="#5F4EDC"/>
<stop offset="1" stop-color="#8B65EC"/>
</linearGradient>
<linearGradient id="paint83_linear_2747_9743" x1="141.089" y1="130.22" x2="141.063" y2="160.817" gradientUnits="userSpaceOnUse">
<stop stop-color="#8B65EC"/>
<stop offset="1" stop-color="#5F4EDC"/>
</linearGradient>
<linearGradient id="paint84_linear_2747_9743" x1="152.853" y1="174.332" x2="123.084" y2="173.915" gradientUnits="userSpaceOnUse">
<stop stop-color="#494B6B"/>
<stop offset="1" stop-color="#878294"/>
</linearGradient>
<clipPath id="clip0_2747_9743">
<rect width="560" height="205.326" fill="white" transform="translate(0 10.3359)"/>
</clipPath>
</defs>
</svg>
