<svg width="128" height="128" viewBox="0 0 128 128" fill="none" xmlns="http://www.w3.org/2000/svg">
<path fill-rule="evenodd" clip-rule="evenodd" d="M40.3363 21.9286C36.3346 26.8965 35 34.0195 35 42.6667V53.3333C35 54.9902 33.6569 56.3333 32 56.3333C30.3431 56.3333 29 54.9902 29 53.3333V42.6667C29 33.6605 30.3321 24.7835 35.6637 18.1647C41.1082 11.4058 50.1532 7.66667 64 7.66667C77.8468 7.66667 86.8918 11.4058 92.3363 18.1647C97.6679 24.7835 99 33.6605 99 42.6667V53.3333C99 54.9902 97.6569 56.3333 96 56.3333C94.3431 56.3333 93 54.9902 93 53.3333V42.6667C93 34.0195 91.6654 26.8965 87.6637 21.9286C83.7748 17.1009 76.8199 13.6667 64 13.6667C51.1801 13.6667 44.2252 17.1009 40.3363 21.9286Z" fill="#999999"/>
<path fill-rule="evenodd" clip-rule="evenodd" d="M64.0003 75C58.2934 75 53.667 79.6264 53.667 85.3333C53.667 91.0403 58.2934 95.6667 64.0003 95.6667C69.7073 95.6667 74.3337 91.0403 74.3337 85.3333C74.3337 79.6264 69.7073 75 64.0003 75ZM47.667 85.3333C47.667 76.3127 54.9797 69 64.0003 69C73.021 69 80.3337 76.3127 80.3337 85.3333C80.3337 94.354 73.021 101.667 64.0003 101.667C54.9797 101.667 47.667 94.354 47.667 85.3333Z" fill="#999999"/>
<path fill-rule="evenodd" clip-rule="evenodd" d="M18.1216 60.788C15.0757 63.834 13.667 69.3119 13.667 80V90.6667C13.667 101.355 15.0757 106.833 18.1216 109.879C21.1676 112.925 26.6455 114.333 37.3337 114.333H90.667C101.355 114.333 106.833 112.925 109.879 109.879C112.925 106.833 114.334 101.355 114.334 90.6667V80C114.334 69.3119 112.925 63.834 109.879 60.788C106.833 57.742 101.355 56.3333 90.667 56.3333H37.3337C26.6455 56.3333 21.1676 57.742 18.1216 60.788ZM13.879 56.5454C18.833 51.5913 26.6884 50.3333 37.3337 50.3333H90.667C101.312 50.3333 109.168 51.5913 114.122 56.5454C119.076 61.4994 120.334 69.3548 120.334 80V90.6667C120.334 101.312 119.076 109.167 114.122 114.121C109.168 119.075 101.312 120.333 90.667 120.333H37.3337C26.6884 120.333 18.833 119.075 13.879 114.121C8.92498 109.167 7.66699 101.312 7.66699 90.6667V80C7.66699 69.3548 8.92498 61.4994 13.879 56.5454Z" fill="#999999"/>
</svg>
