<svg width="156" height="103" viewBox="0 0 156 103" fill="none" xmlns="http://www.w3.org/2000/svg">
<g clip-path="url(#clip0_771_3617)">
<path d="M11.802 79.4028C10.0148 79.4028 8.64555 79.9482 7.69393 81.0391C6.7423 82.13 6.26655 83.6733 6.26655 85.6694C6.26655 87.6886 6.78876 89.2436 7.83318 90.3345C8.90078 91.4253 10.3282 91.9707 12.1153 91.9707C13.0669 91.9707 13.8677 91.8431 14.5175 91.5878C15.1906 91.3324 15.8288 91.0424 16.4323 90.7174C16.8269 91.0424 17.1286 91.4369 17.3374 91.9011C17.5695 92.342 17.6856 92.8643 17.6856 93.4677C17.6856 94.4194 17.1517 95.2316 16.0841 95.9047C15.0397 96.5546 13.4383 96.8795 11.2798 96.8795C9.72479 96.8795 8.2626 96.659 6.8932 96.218C5.52381 95.7771 4.3286 95.104 3.30734 94.1988C2.28609 93.2705 1.47383 92.11 0.870353 90.7174C0.290153 89.3017 0 87.619 0 85.6694C0 83.859 0.278515 82.2692 0.835541 80.8998C1.41574 79.5073 2.19329 78.3352 3.16809 77.3836C4.16606 76.432 5.32656 75.7125 6.6495 75.2251C7.97244 74.7377 9.38818 74.494 10.8968 74.494C13.0321 74.494 14.6799 74.8422 15.8404 75.5384C17.0241 76.2347 17.616 77.1283 17.616 78.2191C17.616 78.8226 17.4651 79.3448 17.1634 79.7858C16.8617 80.2267 16.5135 80.5749 16.1189 80.8302C15.5155 80.4356 14.8656 80.0991 14.1694 79.8206C13.4962 79.5421 12.7072 79.4028 11.802 79.4028ZM37.1916 96.218C36.9594 96.2877 36.5881 96.3573 36.0775 96.4269C35.5902 96.4966 35.0795 96.5314 34.5457 96.5314C34.0351 96.5314 33.5709 96.4966 33.1532 96.4269C32.7586 96.3573 32.4221 96.2181 32.1436 96.0092C31.8651 95.8003 31.6445 95.5218 31.4821 95.1736C31.3428 94.8023 31.2732 94.3264 31.2732 93.7462V86.0175C31.2732 85.0659 31.0295 84.4044 30.5421 84.0331C30.0779 83.6385 29.4977 83.4413 28.8014 83.4413C28.3372 83.4413 27.8962 83.4992 27.4785 83.6153C27.0607 83.7314 26.7241 83.8707 26.4689 84.0331V96.218C26.2367 96.2877 25.8654 96.3573 25.3548 96.4269C24.8674 96.4966 24.3567 96.5314 23.823 96.5314C23.3123 96.5314 22.8482 96.4966 22.4304 96.4269C22.0358 96.3573 21.6993 96.2181 21.4208 96.0092C21.1423 95.8003 20.9218 95.5218 20.7593 95.1736C20.6201 94.8023 20.5505 94.3264 20.5505 93.7462V73.554C20.8057 73.5076 21.1771 73.4496 21.6645 73.38C22.1751 73.2872 22.6857 73.2407 23.1963 73.2407C23.7069 73.2407 24.1595 73.2755 24.5541 73.3452C24.9719 73.4148 25.32 73.554 25.5985 73.7629C25.877 73.9718 26.0859 74.262 26.2252 74.6333C26.3876 74.9814 26.4689 75.4456 26.4689 76.0258V79.4376C26.7706 79.3215 27.2231 79.1939 27.8266 79.0547C28.4533 78.8922 29.1379 78.811 29.8806 78.811C32.1784 78.811 33.9654 79.3912 35.242 80.5517C36.5417 81.6889 37.1916 83.3948 37.1916 85.6694V96.218ZM48.087 92.4929C48.482 92.4929 48.9106 92.4581 49.3752 92.3885C49.8626 92.2957 50.2227 92.1796 50.4544 92.0404V89.2552L47.9478 89.4641C47.298 89.5106 46.7641 89.6498 46.3463 89.8819C45.9286 90.1139 45.7197 90.4621 45.7197 90.9263C45.7197 91.3905 45.8937 91.7735 46.2419 92.0752C46.6132 92.3537 47.2283 92.4929 48.087 92.4929ZM47.8085 78.811C49.0618 78.811 50.1987 78.9386 51.2203 79.1939C52.2647 79.4493 53.1471 79.8438 53.8662 80.3776C54.6092 80.8882 55.1772 81.5497 55.5721 82.362C55.967 83.1511 56.1639 84.0911 56.1639 85.182V92.9803C56.1639 93.5838 55.9898 94.0827 55.6417 94.4773C55.3164 94.8487 54.9226 95.1736 54.458 95.4521C52.949 96.3573 50.8254 96.8099 48.087 96.8099C46.8569 96.8099 45.7428 96.6938 44.7449 96.4618C43.7701 96.2297 42.9229 95.8815 42.2034 95.4173C41.5072 94.9531 40.9618 94.3613 40.5672 93.6418C40.1959 92.9223 40.0102 92.0868 40.0102 91.1352C40.0102 89.5337 40.4859 88.3036 41.4375 87.4449C42.3892 86.5862 43.8629 86.0523 45.8589 85.8434L50.4196 85.356V85.1123C50.4196 84.4392 50.1182 83.9635 49.5144 83.685C48.9345 83.3833 48.087 83.2324 46.973 83.2324C46.091 83.2324 45.2323 83.3252 44.3967 83.5109C43.5612 83.6966 42.8069 83.9287 42.1338 84.2072C41.8321 83.9983 41.5768 83.685 41.3679 83.2672C41.159 82.8262 41.0546 82.3737 41.0546 81.9094C41.0546 81.306 41.1938 80.8302 41.4723 80.4821C41.774 80.1107 42.2266 79.7974 42.8301 79.5421C43.5032 79.2867 44.2923 79.1011 45.1975 78.985C46.1258 78.869 46.9962 78.811 47.8085 78.811ZM65.7008 96.218C65.4691 96.2877 65.0981 96.3573 64.5868 96.4269C64.0994 96.4966 63.5891 96.5314 63.0549 96.5314C62.5447 96.5314 62.0801 96.4966 61.6624 96.4269C61.2685 96.3573 60.9313 96.2181 60.6528 96.0092C60.3743 95.8003 60.1545 95.5218 59.9913 95.1736C59.852 94.8023 59.7824 94.3264 59.7824 93.7462V83.302C59.7824 82.7681 59.876 82.3156 60.0609 81.9442C60.2698 81.5496 60.5603 81.2015 60.9313 80.8998C61.3033 80.5981 61.7559 80.3312 62.289 80.0991C62.8461 79.8438 63.4379 79.6233 64.0645 79.4376C64.6912 79.2519 65.3418 79.1127 66.0141 79.0199C66.6876 78.9038 67.361 78.8458 68.0334 78.8458C69.1474 78.8458 70.0297 79.0663 70.6792 79.5073C71.3298 79.925 71.654 80.6213 71.654 81.5961C71.654 81.9211 71.6083 82.2459 71.5148 82.5709C71.4223 82.8726 71.3059 83.1511 71.1666 83.4064C70.6792 83.4064 70.1809 83.4296 69.6696 83.4761C69.1594 83.5225 68.66 83.5922 68.1726 83.685C67.6852 83.7778 67.2218 83.8822 66.7801 83.9983C66.3623 84.0911 66.0033 84.2072 65.7008 84.3464V96.218ZM73.9572 74.6333C73.9572 73.7513 74.2466 73.0086 74.8276 72.4052C75.4303 71.8017 76.2201 71.5 77.1949 71.5C78.1697 71.5 78.9465 71.8017 79.5275 72.4052C80.1302 73.0086 80.4326 73.7513 80.4326 74.6333C80.4326 75.5153 80.1302 76.2579 79.5275 76.8614C78.9465 77.4649 78.1697 77.7665 77.1949 77.7665C76.2201 77.7665 75.4303 77.4649 74.8276 76.8614C74.2466 76.2579 73.9572 75.5153 73.9572 74.6333ZM80.1541 96.218C79.8985 96.2645 79.5155 96.3225 79.0053 96.3921C78.5179 96.4849 78.0185 96.5314 77.5082 96.5314C76.9969 96.5314 76.5334 96.4966 76.1157 96.4269C75.7207 96.3573 75.3846 96.2181 75.1061 96.0092C74.8276 95.8003 74.6067 95.5218 74.4446 95.1736C74.3053 94.8023 74.2357 94.3264 74.2357 93.7462V79.5769C74.4903 79.5304 74.8624 79.4724 75.3498 79.4028C75.86 79.31 76.3703 79.2636 76.8805 79.2636C77.3918 79.2636 77.8444 79.2984 78.2394 79.368C78.6571 79.4376 79.0052 79.5769 79.2838 79.7858C79.5623 79.9947 79.7712 80.2848 79.9104 80.6561C80.0725 81.0043 80.1541 81.4685 80.1541 82.0487V96.218ZM89.8401 90.4389C89.8401 91.0424 90.025 91.4717 90.3971 91.727C90.7909 91.9824 91.3371 92.11 92.0334 92.11C92.3815 92.11 92.7405 92.0868 93.1126 92.0404C93.4836 91.9707 93.8089 91.8895 94.0874 91.7967C94.2963 92.052 94.4704 92.342 94.6096 92.667C94.7717 92.9687 94.8533 93.3401 94.8533 93.7811C94.8533 94.6631 94.5161 95.3825 93.8437 95.9395C93.1931 96.4966 92.0334 96.7751 90.3623 96.7751C88.3191 96.7751 86.7416 96.3109 85.6276 95.3825C84.5364 94.4542 83.9913 92.9455 83.9913 90.8567V75.9562C84.2459 75.8866 84.606 75.817 85.0705 75.7473C85.5579 75.6545 86.0682 75.6081 86.6024 75.6081C87.6228 75.6081 88.4127 75.7938 88.9697 76.1651C89.5496 76.5132 89.8401 77.2675 89.8401 78.428V80.6561H94.4007C94.54 80.9115 94.6673 81.2363 94.7837 81.6309C94.9229 82.0022 94.9926 82.42 94.9926 82.8842C94.9926 83.6966 94.8065 84.2884 94.4355 84.6598C94.0874 85.0079 93.6109 85.182 93.0082 85.182H89.8401V90.4389ZM100.506 91.9359C100.252 91.3557 99.9732 90.7058 99.6707 89.9863C99.3922 89.2669 99.0908 88.4429 98.7655 87.5145C98.4642 86.5862 98.1389 85.5301 97.7907 84.3464C97.4665 83.1396 97.1184 81.7585 96.7463 80.2035C97.0716 79.8786 97.5014 79.6001 98.0344 79.368C98.5915 79.1127 99.1953 78.985 99.8448 78.985C100.657 78.985 101.331 79.1591 101.864 79.5073C102.398 79.8322 102.793 80.4589 103.048 81.3872L105.798 90.9611H105.937C106.216 90.172 106.483 89.3132 106.738 88.3849C107.016 87.4565 107.284 86.5049 107.539 85.5301C107.794 84.5321 108.026 83.5457 108.235 82.5709C108.468 81.5729 108.665 80.5981 108.827 79.6465C109.662 79.2056 110.579 78.985 111.577 78.985C112.39 78.985 113.063 79.1591 113.596 79.5073C114.131 79.8554 114.397 80.4589 114.397 81.3176C114.397 81.9442 114.317 82.6753 114.153 83.5109C113.991 84.3233 113.77 85.1936 113.492 86.1219C113.237 87.0503 112.924 88.0136 112.552 89.0115C112.204 89.9863 111.833 90.9495 111.438 91.9011C111.044 92.8527 110.637 93.7579 110.219 94.6166C109.802 95.4521 109.396 96.2064 109.001 96.8795C108.351 98.0167 107.748 98.9452 107.191 99.6647C106.634 100.384 106.1 100.941 105.589 101.336C105.079 101.754 104.569 102.032 104.057 102.171C103.547 102.334 103.013 102.415 102.456 102.415C101.481 102.415 100.692 102.125 100.088 101.545C99.4858 100.964 99.1257 100.21 99.0093 99.2817C99.7523 98.7015 100.495 98.0516 101.237 97.3321C101.98 96.6358 102.654 95.9164 103.257 95.1736C102.863 95.0575 102.433 94.7907 101.968 94.3729C101.528 93.932 101.04 93.1196 100.506 91.9359ZM123.406 91.9011C123.732 91.9939 124.149 92.0635 124.66 92.11C125.171 92.1332 125.658 92.1448 126.122 92.1448C127.051 92.1448 127.817 91.9591 128.42 91.5878C129.046 91.1932 129.36 90.5898 129.36 89.7774C129.36 89.0115 129.105 88.4661 128.594 88.1412C128.083 87.8162 127.306 87.6538 126.261 87.6538H123.406V91.9011ZM123.406 83.4064H125.948C126.947 83.4064 127.666 83.2207 128.106 82.8494C128.571 82.4781 128.803 81.9326 128.803 81.2132C128.803 80.5865 128.536 80.0875 128.002 79.7161C127.492 79.3448 126.714 79.1591 125.669 79.1591C125.321 79.1591 124.915 79.1708 124.451 79.1939C124.01 79.2171 123.662 79.2519 123.406 79.2984V83.4064ZM125.669 96.8099C125.275 96.8099 124.811 96.7983 124.277 96.7751C123.744 96.7519 123.187 96.7055 122.606 96.6358C122.049 96.5662 121.492 96.4734 120.935 96.3573C120.378 96.2645 119.867 96.1252 119.403 95.9395C118.127 95.4521 117.488 94.605 117.488 93.3981V77.1399C117.488 76.6525 117.616 76.2812 117.871 76.0258C118.149 75.7473 118.521 75.5268 118.985 75.3644C119.775 75.0859 120.76 74.8886 121.944 74.7725C123.128 74.6333 124.346 74.5636 125.6 74.5636C128.571 74.5636 130.857 75.0627 132.458 76.0607C134.059 77.0586 134.86 78.6021 134.86 80.6909C134.86 81.7354 134.559 82.6405 133.955 83.4064C133.352 84.1492 132.54 84.6946 131.518 85.0427C132.679 85.3677 133.642 85.9595 134.408 86.8182C135.197 87.6769 135.591 88.7562 135.591 90.0559C135.591 92.3537 134.733 94.0596 133.015 95.1736C131.321 96.2645 128.872 96.8099 125.669 96.8099ZM156 87.793C156 89.232 155.779 90.5202 155.339 91.6574C154.898 92.7714 154.271 93.7114 153.459 94.4773C152.67 95.2433 151.718 95.8235 150.604 96.218C149.49 96.6126 148.248 96.8099 146.879 96.8099C145.509 96.8099 144.268 96.601 143.154 96.1832C142.04 95.7655 141.077 95.1736 140.264 94.4077C139.475 93.6186 138.859 92.667 138.419 91.553C137.978 90.4389 137.757 89.1856 137.757 87.793C137.757 86.4236 137.978 85.182 138.419 84.0679C138.859 82.9539 139.475 82.0139 140.264 81.248C141.077 80.4589 142.04 79.8554 143.154 79.4376C144.268 79.0199 145.509 78.811 146.879 78.811C148.248 78.811 149.49 79.0315 150.604 79.4724C151.718 79.8902 152.67 80.4937 153.459 81.2828C154.271 82.0487 154.898 82.9887 155.339 84.1027C155.779 85.2168 156 86.4469 156 87.793ZM143.815 87.793C143.815 89.2088 144.082 90.2996 144.616 91.0656C145.173 91.8083 145.939 92.1796 146.914 92.1796C147.888 92.1796 148.631 91.7967 149.142 91.0307C149.676 90.2648 149.942 89.1856 149.942 87.793C149.942 86.4005 149.676 85.3329 149.142 84.5901C148.607 83.8242 147.854 83.4413 146.879 83.4413C145.904 83.4413 145.15 83.8242 144.616 84.5901C144.082 85.3329 143.815 86.4005 143.815 87.793Z" fill="#070337"/>
<mask id="mask0_771_3617" style="mask-type:alpha" maskUnits="userSpaceOnUse" x="46" y="0" width="64" height="63">
<path d="M46.8 26C46.8 11.6406 58.4407 0 72.8 0H83.2C97.5595 0 109.2 11.6406 109.2 26V36.4C109.2 50.7594 97.5595 62.4 83.2 62.4H72.8C58.4407 62.4 46.8 50.7594 46.8 36.4V26Z" fill="white"/>
</mask>
<g mask="url(#mask0_771_3617)">
<path d="M72.8001 5.19981H83.2001V-5.2002H72.8001V5.19981ZM104 25.9998V36.3998H114.4V25.9998H104ZM83.2001 57.1998H72.8001V67.5998H83.2001V57.1998ZM52.0001 36.3998V25.9998H41.6001V36.3998H52.0001ZM72.8001 57.1998C61.3125 57.1998 52.0001 47.8874 52.0001 36.3998H41.6001C41.6001 53.6311 55.5688 67.5998 72.8001 67.5998V57.1998ZM104 36.3998C104 47.8874 94.6877 57.1998 83.2001 57.1998V67.5998C100.431 67.5998 114.4 53.6311 114.4 36.3998H104ZM83.2001 5.19981C94.6877 5.19981 104 14.5122 104 25.9998H114.4C114.4 8.76853 100.431 -5.2002 83.2001 -5.2002V5.19981ZM72.8001 -5.2002C55.5688 -5.2002 41.6001 8.76853 41.6001 25.9998H52.0001C52.0001 14.5122 61.3125 5.19981 72.8001 5.19981V-5.2002Z" fill="#070337"/>
<path d="M100.657 26.7281V25.4089C100.657 20.0937 95.7186 16.0622 90.5365 17.4204C87.413 11.3876 79.0693 11.6375 76.1575 17.5115C71.1265 16.2244 66.1143 20.0621 66.1143 25.4313V40.8034C63.6825 39.8982 60.8362 40.1858 58.548 41.8846C54.9704 44.5409 54.1856 49.6032 56.7747 53.2376L71.396 73.7632C71.7566 74.2694 72.233 74.6821 72.7855 74.9669C73.3382 75.2516 73.9507 75.4002 74.5723 75.4002H101.738C103.554 75.4002 105.13 74.1462 105.538 72.3761L109.217 56.4156C109.637 54.5903 109.85 52.7232 109.85 50.85V34.8157C109.85 29.8652 105.521 26.0416 100.657 26.7281ZM104 50.8499C104 52.2797 103.837 53.7102 103.516 55.1017L100.186 69.55H75.5772L61.5375 49.8432C59.7778 47.3728 63.3686 44.6299 65.12 47.0882L68.4262 51.7291C69.5225 53.2679 71.9643 52.4953 71.9643 50.5977V25.4313C71.9643 22.3058 76.4215 22.4076 76.4215 25.5155V44.2C76.4215 45.2771 77.2945 46.15 78.3715 46.15H79.207C80.2841 46.15 81.157 45.2771 81.157 44.2V21.1657C81.157 18.038 85.6142 18.1419 85.6142 21.2499V44.2C85.6142 45.2771 86.4871 46.15 87.5641 46.15H88.3997C89.4768 46.15 90.3497 45.2771 90.3497 44.2V25.3247C90.3497 22.196 94.8066 22.301 94.8066 25.4089V44.2C94.8066 45.2771 95.6797 46.15 96.7566 46.15H97.5924C98.6693 46.15 99.5424 45.2771 99.5424 44.2V34.9C99.5424 31.7017 103.999 31.775 103.999 34.8157V50.8499H104Z" fill="#070337"/>
</g>
</g>
<defs>
<clipPath id="clip0_771_3617">
<rect width="156" height="102.7" fill="white"/>
</clipPath>
</defs>
</svg>
