<svg width="201" height="48" viewBox="0 0 201 48" fill="none" xmlns="http://www.w3.org/2000/svg">
<path d="M66.968 18.512C65.3253 18.512 64.0667 19.0133 63.192 20.016C62.3173 21.0187 61.88 22.4373 61.88 24.272C61.88 26.128 62.36 27.5573 63.32 28.56C64.3013 29.5627 65.6133 30.064 67.256 30.064C68.1307 30.064 68.8667 29.9467 69.464 29.712C70.0827 29.4773 70.6693 29.2107 71.224 28.912C71.5867 29.2107 71.864 29.5733 72.056 30C72.2693 30.4053 72.376 30.8853 72.376 31.44C72.376 32.3147 71.8853 33.0613 70.904 33.68C69.944 34.2773 68.472 34.576 66.488 34.576C65.0587 34.576 63.7147 34.3733 62.456 33.968C61.1973 33.5627 60.0987 32.944 59.16 32.112C58.2213 31.2587 57.4747 30.192 56.92 28.912C56.3867 27.6107 56.12 26.064 56.12 24.272C56.12 22.608 56.376 21.1467 56.888 19.888C57.4213 18.608 58.136 17.5307 59.032 16.656C59.9493 15.7813 61.016 15.12 62.232 14.672C63.448 14.224 64.7493 14 66.136 14C68.0987 14 69.6133 14.32 70.68 14.96C71.768 15.6 72.312 16.4213 72.312 17.424C72.312 17.9787 72.1733 18.4587 71.896 18.864C71.6187 19.2693 71.2987 19.5893 70.936 19.824C70.3813 19.4613 69.784 19.152 69.144 18.896C68.5253 18.64 67.8 18.512 66.968 18.512ZM90.3053 33.968C90.0919 34.032 89.7506 34.096 89.2812 34.16C88.8333 34.224 88.3639 34.256 87.8733 34.256C87.4039 34.256 86.9773 34.224 86.5933 34.16C86.2306 34.096 85.9213 33.968 85.6653 33.776C85.4093 33.584 85.2066 33.328 85.0573 33.008C84.9293 32.6667 84.8653 32.2293 84.8653 31.696V24.592C84.8653 23.7173 84.6413 23.1093 84.1933 22.768C83.7666 22.4053 83.2333 22.224 82.5933 22.224C82.1666 22.224 81.7613 22.2773 81.3773 22.384C80.9933 22.4907 80.6839 22.6187 80.4493 22.768V33.968C80.2359 34.032 79.8946 34.096 79.4253 34.16C78.9773 34.224 78.5079 34.256 78.0173 34.256C77.5479 34.256 77.1213 34.224 76.7373 34.16C76.3746 34.096 76.0653 33.968 75.8093 33.776C75.5533 33.584 75.3506 33.328 75.2013 33.008C75.0733 32.6667 75.0093 32.2293 75.0093 31.696V13.136C75.2439 13.0933 75.5853 13.04 76.0333 12.976C76.5026 12.8907 76.9719 12.848 77.4413 12.848C77.9106 12.848 78.3266 12.88 78.6893 12.944C79.0733 13.008 79.3933 13.136 79.6493 13.328C79.9053 13.52 80.0973 13.7867 80.2253 14.128C80.3746 14.448 80.4493 14.8747 80.4493 15.408V18.544C80.7266 18.4373 81.1426 18.32 81.6973 18.192C82.2733 18.0427 82.9026 17.968 83.5853 17.968C85.6973 17.968 87.3399 18.5013 88.5133 19.568C89.7079 20.6133 90.3053 22.1813 90.3053 24.272V33.968ZM100.32 30.544C100.683 30.544 101.077 30.512 101.504 30.448C101.952 30.3627 102.283 30.256 102.496 30.128V27.568L100.192 27.76C99.5947 27.8027 99.104 27.9307 98.72 28.144C98.336 28.3573 98.144 28.6773 98.144 29.104C98.144 29.5307 98.304 29.8827 98.624 30.16C98.9653 30.416 99.5307 30.544 100.32 30.544ZM100.064 17.968C101.216 17.968 102.261 18.0853 103.2 18.32C104.16 18.5547 104.971 18.9173 105.632 19.408C106.315 19.8773 106.837 20.4853 107.2 21.232C107.563 21.9573 107.744 22.8213 107.744 23.824V30.992C107.744 31.5467 107.584 32.0053 107.264 32.368C106.965 32.7093 106.603 33.008 106.176 33.264C104.789 34.096 102.837 34.512 100.32 34.512C99.1893 34.512 98.1653 34.4053 97.248 34.192C96.352 33.9787 95.5733 33.6587 94.912 33.232C94.272 32.8053 93.7707 32.2613 93.408 31.6C93.0667 30.9387 92.896 30.1707 92.896 29.296C92.896 27.824 93.3333 26.6933 94.208 25.904C95.0827 25.1147 96.4373 24.624 98.272 24.432L102.464 23.984V23.76C102.464 23.1413 102.187 22.704 101.632 22.448C101.099 22.1707 100.32 22.032 99.296 22.032C98.4853 22.032 97.696 22.1173 96.928 22.288C96.16 22.4587 95.4667 22.672 94.848 22.928C94.5707 22.736 94.336 22.448 94.144 22.064C93.952 21.6587 93.856 21.2427 93.856 20.816C93.856 20.2613 93.984 19.824 94.24 19.504C94.5173 19.1627 94.9333 18.8747 95.488 18.64C96.1067 18.4053 96.832 18.2347 97.664 18.128C98.5173 18.0213 99.3173 17.968 100.064 17.968ZM116.51 33.968C116.297 34.032 115.956 34.096 115.486 34.16C115.038 34.224 114.569 34.256 114.078 34.256C113.609 34.256 113.182 34.224 112.798 34.16C112.436 34.096 112.126 33.968 111.87 33.776C111.614 33.584 111.412 33.328 111.262 33.008C111.134 32.6667 111.07 32.2293 111.07 31.696V22.096C111.07 21.6053 111.156 21.1893 111.326 20.848C111.518 20.4853 111.785 20.1653 112.126 19.888C112.468 19.6107 112.884 19.3653 113.374 19.152C113.886 18.9173 114.43 18.7147 115.006 18.544C115.582 18.3733 116.18 18.2453 116.798 18.16C117.417 18.0533 118.036 18 118.654 18C119.678 18 120.489 18.2027 121.086 18.608C121.684 18.992 121.982 19.632 121.982 20.528C121.982 20.8267 121.94 21.1253 121.854 21.424C121.769 21.7013 121.662 21.9573 121.534 22.192C121.086 22.192 120.628 22.2133 120.158 22.256C119.689 22.2987 119.23 22.3627 118.782 22.448C118.334 22.5333 117.908 22.6293 117.502 22.736C117.118 22.8213 116.788 22.928 116.51 23.056V33.968ZM124.099 14.128C124.099 13.3173 124.365 12.6347 124.899 12.08C125.453 11.5253 126.179 11.248 127.075 11.248C127.971 11.248 128.685 11.5253 129.219 12.08C129.773 12.6347 130.051 13.3173 130.051 14.128C130.051 14.9387 129.773 15.6213 129.219 16.176C128.685 16.7307 127.971 17.008 127.075 17.008C126.179 17.008 125.453 16.7307 124.899 16.176C124.365 15.6213 124.099 14.9387 124.099 14.128ZM129.795 33.968C129.56 34.0107 129.208 34.064 128.739 34.128C128.291 34.2133 127.832 34.256 127.363 34.256C126.893 34.256 126.467 34.224 126.083 34.16C125.72 34.096 125.411 33.968 125.155 33.776C124.899 33.584 124.696 33.328 124.547 33.008C124.419 32.6667 124.355 32.2293 124.355 31.696V18.672C124.589 18.6293 124.931 18.576 125.379 18.512C125.848 18.4267 126.317 18.384 126.786 18.384C127.256 18.384 127.672 18.416 128.035 18.48C128.419 18.544 128.739 18.672 128.995 18.864C129.251 19.056 129.443 19.3227 129.571 19.664C129.72 19.984 129.795 20.4107 129.795 20.944V33.968ZM138.698 28.656C138.698 29.2107 138.868 29.6053 139.21 29.84C139.572 30.0747 140.074 30.192 140.714 30.192C141.034 30.192 141.364 30.1707 141.706 30.128C142.047 30.064 142.346 29.9893 142.602 29.904C142.794 30.1387 142.954 30.4053 143.082 30.704C143.231 30.9813 143.306 31.3227 143.306 31.728C143.306 32.5387 142.996 33.2 142.378 33.712C141.78 34.224 140.714 34.48 139.178 34.48C137.3 34.48 135.85 34.0533 134.826 33.2C133.823 32.3467 133.322 30.96 133.322 29.04V15.344C133.556 15.28 133.887 15.216 134.314 15.152C134.762 15.0667 135.231 15.024 135.722 15.024C136.66 15.024 137.386 15.1947 137.898 15.536C138.431 15.856 138.698 16.5493 138.698 17.616V19.664H142.89C143.018 19.8987 143.135 20.1973 143.242 20.56C143.37 20.9013 143.434 21.2853 143.434 21.712C143.434 22.4587 143.263 23.0027 142.922 23.344C142.602 23.664 142.164 23.824 141.61 23.824H138.698V28.656ZM148.502 30.032C148.268 29.4987 148.012 28.9013 147.734 28.24C147.478 27.5787 147.201 26.8213 146.902 25.968C146.625 25.1147 146.326 24.144 146.006 23.056C145.708 21.9467 145.388 20.6773 145.046 19.248C145.345 18.9493 145.74 18.6933 146.23 18.48C146.742 18.2453 147.297 18.128 147.894 18.128C148.641 18.128 149.26 18.288 149.75 18.608C150.241 18.9067 150.604 19.4827 150.838 20.336L153.366 29.136H153.494C153.75 28.4107 153.996 27.6213 154.23 26.768C154.486 25.9147 154.732 25.04 154.966 24.144C155.201 23.2267 155.414 22.32 155.606 21.424C155.82 20.5067 156.001 19.6107 156.15 18.736C156.918 18.3307 157.761 18.128 158.678 18.128C159.425 18.128 160.044 18.288 160.534 18.608C161.025 18.928 161.27 19.4827 161.27 20.272C161.27 20.848 161.196 21.52 161.046 22.288C160.897 23.0347 160.694 23.8347 160.438 24.688C160.204 25.5413 159.916 26.4267 159.574 27.344C159.254 28.24 158.913 29.1253 158.55 30C158.188 30.8747 157.814 31.7067 157.43 32.496C157.046 33.264 156.673 33.9573 156.31 34.576C155.713 35.6213 155.158 36.4747 154.646 37.136C154.134 37.7973 153.644 38.3093 153.174 38.672C152.705 39.056 152.236 39.312 151.766 39.44C151.297 39.5893 150.806 39.664 150.294 39.664C149.398 39.664 148.673 39.3973 148.118 38.864C147.564 38.3307 147.233 37.6373 147.126 36.784C147.809 36.2507 148.492 35.6533 149.174 34.992C149.857 34.352 150.476 33.6907 151.03 33.008C150.668 32.9013 150.273 32.656 149.846 32.272C149.441 31.8667 148.993 31.12 148.502 30.032ZM169.551 30C169.85 30.0853 170.234 30.1493 170.703 30.192C171.173 30.2133 171.621 30.224 172.047 30.224C172.901 30.224 173.605 30.0533 174.159 29.712C174.735 29.3493 175.023 28.7947 175.023 28.048C175.023 27.344 174.789 26.8427 174.319 26.544C173.85 26.2453 173.135 26.096 172.175 26.096H169.551V30ZM169.551 22.192H171.887C172.805 22.192 173.466 22.0213 173.871 21.68C174.298 21.3387 174.511 20.8373 174.511 20.176C174.511 19.6 174.266 19.1413 173.775 18.8C173.306 18.4587 172.591 18.288 171.631 18.288C171.311 18.288 170.938 18.2987 170.511 18.32C170.106 18.3413 169.786 18.3733 169.551 18.416V22.192ZM171.631 34.512C171.269 34.512 170.842 34.5013 170.351 34.48C169.861 34.4587 169.349 34.416 168.815 34.352C168.303 34.288 167.791 34.2027 167.279 34.096C166.767 34.0107 166.298 33.8827 165.871 33.712C164.698 33.264 164.111 32.4853 164.111 31.376V16.432C164.111 15.984 164.229 15.6427 164.463 15.408C164.719 15.152 165.061 14.9493 165.487 14.8C166.213 14.544 167.119 14.3627 168.207 14.256C169.295 14.128 170.415 14.064 171.567 14.064C174.298 14.064 176.399 14.5227 177.871 15.44C179.343 16.3573 180.079 17.776 180.079 19.696C180.079 20.656 179.802 21.488 179.247 22.192C178.693 22.8747 177.946 23.376 177.007 23.696C178.074 23.9947 178.959 24.5387 179.663 25.328C180.389 26.1173 180.751 27.1093 180.751 28.304C180.751 30.416 179.962 31.984 178.383 33.008C176.826 34.0107 174.575 34.512 171.631 34.512ZM199.51 26.224C199.51 27.5467 199.307 28.7307 198.902 29.776C198.497 30.8 197.921 31.664 197.174 32.368C196.449 33.072 195.574 33.6053 194.55 33.968C193.526 34.3307 192.385 34.512 191.126 34.512C189.867 34.512 188.726 34.32 187.702 33.936C186.678 33.552 185.793 33.008 185.046 32.304C184.321 31.5787 183.755 30.704 183.35 29.68C182.945 28.656 182.742 27.504 182.742 26.224C182.742 24.9653 182.945 23.824 183.35 22.8C183.755 21.776 184.321 20.912 185.046 20.208C185.793 19.4827 186.678 18.928 187.702 18.544C188.726 18.16 189.867 17.968 191.126 17.968C192.385 17.968 193.526 18.1707 194.55 18.576C195.574 18.96 196.449 19.5147 197.174 20.24C197.921 20.944 198.497 21.808 198.902 22.832C199.307 23.856 199.51 24.9867 199.51 26.224ZM188.31 26.224C188.31 27.5253 188.555 28.528 189.046 29.232C189.558 29.9147 190.262 30.256 191.158 30.256C192.054 30.256 192.737 29.904 193.206 29.2C193.697 28.496 193.942 27.504 193.942 26.224C193.942 24.944 193.697 23.9627 193.206 23.28C192.715 22.576 192.022 22.224 191.126 22.224C190.23 22.224 189.537 22.576 189.046 23.28C188.555 23.9627 188.31 24.944 188.31 26.224Z" fill="white"/>
<mask id="mask0_309_600" style="mask-type:alpha" maskUnits="userSpaceOnUse" x="0" y="0" width="48" height="48">
<path d="M0 20C0 8.95431 8.95431 0 20 0H28C39.0457 0 48 8.95431 48 20V28C48 39.0457 39.0457 48 28 48H20C8.95431 48 0 39.0457 0 28V20Z" fill="white"/>
</mask>
<g mask="url(#mask0_309_600)">
<path d="M20 4H28V-4H20V4ZM44 20V28H52V20H44ZM28 44H20V52H28V44ZM4 28V20H-4V28H4ZM20 44C11.1634 44 4 36.8366 4 28H-4C-4 41.2548 6.74517 52 20 52V44ZM44 28C44 36.8366 36.8366 44 28 44V52C41.2548 52 52 41.2548 52 28H44ZM28 4C36.8366 4 44 11.1634 44 20H52C52 6.74517 41.2548 -4 28 -4V4ZM20 -4C6.74517 -4 -4 6.74517 -4 20H4C4 11.1634 11.1634 4 20 4V-4Z" fill="white"/>
<path d="M41.4284 20.5601V19.5452C41.4284 15.4566 37.6296 12.3555 33.6435 13.4003C31.2408 8.75969 24.8226 8.95187 22.5827 13.4703C18.7127 12.4802 14.8572 15.4323 14.8572 19.5625V31.3872C12.9866 30.6909 10.7971 30.9121 9.03693 32.2188C6.2849 34.2622 5.68125 38.1563 7.67287 40.9519L18.92 56.7408C19.1974 57.1302 19.5639 57.4477 19.9889 57.6667C20.4139 57.8858 20.8851 58.0001 21.3633 58.0001H42.2599C43.6571 58.0001 44.8694 57.0355 45.1832 55.6739L48.0129 43.3965C48.3363 41.9924 48.4997 40.5562 48.5 39.1154V26.7812C48.5 22.9731 45.1697 20.032 41.4284 20.5601ZM43.9997 39.1153C43.9997 40.215 43.8746 41.3155 43.628 42.3858L41.0662 53.5H22.1362L11.3366 38.3409C9.98296 36.4406 12.745 34.3306 14.0923 36.2217L16.6356 39.7916C17.4788 40.9753 19.3572 40.381 19.3572 38.9213V19.5625C19.3572 17.1583 22.7857 17.2366 22.7857 19.6273V34C22.7857 34.8285 23.4573 35.5 24.2857 35.5H24.9285C25.757 35.5 26.4285 34.8285 26.4285 34V16.2812C26.4285 13.8753 29.857 13.9553 29.857 16.346V34C29.857 34.8285 30.5286 35.5 31.357 35.5H31.9998C32.8282 35.5 33.4998 34.8285 33.4998 34V19.4805C33.4998 17.0737 36.9282 17.1545 36.9282 19.5452V34C36.9282 34.8285 37.5997 35.5 38.4282 35.5H39.071C39.8995 35.5 40.571 34.8285 40.571 34V26.846C40.571 24.3858 43.9995 24.4423 43.9995 26.7812V39.1153H43.9997Z" fill="white"/>
</g>
</svg>
