<svg width="24" height="24" viewBox="0 0 24 24" fill="none" xmlns="http://www.w3.org/2000/svg">
<path d="M12 20C11.4523 20 11 19.5477 11 19C11 18.4523 11.4523 18 12 18C12.5477 18 13 18.4523 13 19C13 19.5477 12.5477 20 12 20Z" stroke="#999999" stroke-width="2"/>
<path d="M12 6C11.4523 6 11 5.54772 11 5C11 4.45229 11.4523 4 12 4C12.5477 4 13 4.45229 13 5C13 5.54772 12.5477 6 12 6Z" stroke="#999999" stroke-width="2"/>
<path d="M12 13C11.4523 13 11 12.5477 11 12C11 11.4523 11.4523 11 12 11C12.5477 11 13 11.4523 13 12C13 12.5477 12.5477 13 12 13Z" stroke="#999999" stroke-width="2"/>
</svg>
