<svg width="20" height="20" viewBox="0 0 20 20" fill="none" xmlns="http://www.w3.org/2000/svg">
<g clip-path="url(#clip0_4008_13332)">
<path fill-rule="evenodd" clip-rule="evenodd" d="M10 20C12.6522 20 15.1957 18.9464 17.0711 17.0711C18.9464 15.1957 20 12.6522 20 10C20 7.34784 18.9464 4.8043 17.0711 2.92893C15.1957 1.05357 12.6522 0 10 0C7.34784 0 4.8043 1.05357 2.92893 2.92893C1.05357 4.8043 0 7.34784 0 10C0 12.6522 1.05357 15.1957 2.92893 17.0711C4.8043 18.9464 7.34784 20 10 20ZM6.15875 6.2375C5.8025 6.77375 5.625 7.30375 5.625 7.825C5.625 8.07875 5.7375 8.315 5.9625 8.5325C6.1875 8.75 6.4625 8.8575 6.78875 8.8575C7.3425 8.8575 7.71875 8.5475 7.9175 7.925C8.1275 7.33125 8.38375 6.88125 8.6875 6.575C8.99125 6.27 9.4625 6.1175 10.105 6.1175C10.6537 6.1175 11.1013 6.2675 11.4488 6.57125C11.795 6.87375 11.9688 7.24625 11.9688 7.68625C11.9703 7.90699 11.9115 8.12396 11.7987 8.31375C11.6841 8.50724 11.5427 8.68357 11.3787 8.8375C11.1157 9.078 10.8456 9.3106 10.5688 9.535C10.1438 9.8875 9.805 10.1912 9.55375 10.4475C9.30375 10.7037 9.10125 11.0013 8.95 11.3387C8.5475 12.895 10.6375 13.02 11.12 11.9088C11.1788 11.8013 11.2675 11.6838 11.3863 11.5538C11.5063 11.425 11.665 11.275 11.8638 11.1038C12.3695 10.6825 12.8671 10.2516 13.3563 9.81125C13.6325 9.55625 13.8713 9.25125 14.0725 8.89875C14.28 8.52257 14.3843 8.09824 14.375 7.66875C14.375 7.075 14.1988 6.525 13.845 6.01875C13.4925 5.51125 12.9925 5.11125 12.345 4.81625C11.6975 4.5225 10.9512 4.375 10.105 4.375C9.195 4.375 8.39875 4.55 7.71625 4.90375C7.03375 5.25625 6.515 5.70125 6.15875 6.2375ZM8.83375 15.0875C8.83375 15.419 8.96545 15.737 9.19987 15.9714C9.43429 16.2058 9.75223 16.3375 10.0838 16.3375C10.4153 16.3375 10.7332 16.2058 10.9676 15.9714C11.2021 15.737 11.3338 15.419 11.3338 15.0875C11.3338 14.756 11.2021 14.438 10.9676 14.2036C10.7332 13.9692 10.4153 13.8375 10.0838 13.8375C9.75223 13.8375 9.43429 13.9692 9.19987 14.2036C8.96545 14.438 8.83375 14.756 8.83375 15.0875Z" fill="#BBBBBB"/>
</g>
<defs>
<clipPath id="clip0_4008_13332">
<rect width="20" height="20" fill="white"/>
</clipPath>
</defs>
</svg>
