<svg width="400" height="96" viewBox="0 0 400 96" fill="none" xmlns="http://www.w3.org/2000/svg">
<defs>
<style>
@-webkit-keyframes animate-svg-fill-1{0%{fill:transparent}100%{fill:rgb(255,255,255)}}@keyframes animate-svg-fill-1{0%{fill:transparent}100%{fill:rgb(255,255,255)}}.svg-elem-1{-webkit-animation:animate-svg-fill-1 2s cubic-bezier(0.175,0.885,0.32,1.275) 0s both;animation:animate-svg-fill-1 2s cubic-bezier(0.175,0.885,0.32,1.275) 0s both}@-webkit-keyframes animate-svg-fill-2{0%{fill:transparent}100%{fill:rgb(255,255,255)}}@keyframes animate-svg-fill-2{0%{fill:transparent}100%{fill:rgb(255,255,255)}}.svg-elem-2{-webkit-animation:animate-svg-fill-2 2s cubic-bezier(0.175,0.885,0.32,1.275) 0.3s both;animation:animate-svg-fill-2 2s cubic-bezier(0.175,0.885,0.32,1.275) 0.3s both}@-webkit-keyframes animate-svg-fill-3{0%{fill:transparent}100%{fill:rgb(255,255,255)}}@keyframes animate-svg-fill-3{0%{fill:transparent}100%{fill:rgb(255,255,255)}}.svg-elem-3{-webkit-animation:animate-svg-fill-3 2s cubic-bezier(0.175,0.885,0.32,1.275) 0.6s both;animation:animate-svg-fill-3 2s cubic-bezier(0.175,0.885,0.32,1.275) 0.6s both}@-webkit-keyframes animate-svg-fill-4{0%{fill:transparent}100%{fill:rgb(255,255,255)}}@keyframes animate-svg-fill-4{0%{fill:transparent}100%{fill:rgb(255,255,255)}}.svg-elem-4{-webkit-animation:animate-svg-fill-4 2s cubic-bezier(0.175,0.885,0.32,1.275) 0.8999999999999999s both;animation:animate-svg-fill-4 2s cubic-bezier(0.175,0.885,0.32,1.275) 0.8999999999999999s both}@-webkit-keyframes animate-svg-fill-5{0%{fill:transparent}100%{fill:rgb(255,255,255)}}@keyframes animate-svg-fill-5{0%{fill:transparent}100%{fill:rgb(255,255,255)}}.svg-elem-5{-webkit-animation:animate-svg-fill-5 2s cubic-bezier(0.175,0.885,0.32,1.275) 1.2s both;animation:animate-svg-fill-5 2s cubic-bezier(0.175,0.885,0.32,1.275) 1.2s both}@-webkit-keyframes animate-svg-fill-6{0%{fill:transparent}100%{fill:rgb(255,255,255)}}@keyframes animate-svg-fill-6{0%{fill:transparent}100%{fill:rgb(255,255,255)}}.svg-elem-6{-webkit-animation:animate-svg-fill-6 2s cubic-bezier(0.175,0.885,0.32,1.275) 1.5s both;animation:animate-svg-fill-6 2s cubic-bezier(0.175,0.885,0.32,1.275) 1.5s both}@-webkit-keyframes animate-svg-fill-7{0%{fill:transparent}100%{fill:rgb(255,255,255)}}@keyframes animate-svg-fill-7{0%{fill:transparent}100%{fill:rgb(255,255,255)}}.svg-elem-7{-webkit-animation:animate-svg-fill-7 2s cubic-bezier(0.175,0.885,0.32,1.275) 1.7999999999999998s both;animation:animate-svg-fill-7 2s cubic-bezier(0.175,0.885,0.32,1.275) 1.7999999999999998s both}@-webkit-keyframes animate-svg-fill-8{0%{fill:transparent}100%{fill:rgb(255,255,255)}}@keyframes animate-svg-fill-8{0%{fill:transparent}100%{fill:rgb(255,255,255)}}.svg-elem-8{-webkit-animation:animate-svg-fill-8 2s cubic-bezier(0.175,0.885,0.32,1.275) 2.1s both;animation:animate-svg-fill-8 2s cubic-bezier(0.175,0.885,0.32,1.275) 2.1s both}@-webkit-keyframes animate-svg-fill-9{0%{fill:transparent}100%{fill:rgb(255,255,255)}}@keyframes animate-svg-fill-9{0%{fill:transparent}100%{fill:rgb(255,255,255)}}.svg-elem-9{-webkit-animation:animate-svg-fill-9 2s cubic-bezier(0.175,0.885,0.32,1.275) 2.4s both;animation:animate-svg-fill-9 2s cubic-bezier(0.175,0.885,0.32,1.275) 2.4s both}@-webkit-keyframes animate-svg-fill-10{0%{fill:transparent}100%{fill:rgb(255,255,255)}}@keyframes animate-svg-fill-10{0%{fill:transparent}100%{fill:rgb(255,255,255)}}.svg-elem-10{-webkit-animation:animate-svg-fill-10 2s cubic-bezier(0.175,0.885,0.32,1.275) 2.6999999999999997s both;animation:animate-svg-fill-10 2s cubic-bezier(0.175,0.885,0.32,1.275) 2.6999999999999997s both}@-webkit-keyframes animate-svg-fill-11{0%{fill:transparent}100%{fill:rgb(255,255,255)}}@keyframes animate-svg-fill-11{0%{fill:transparent}100%{fill:rgb(255,255,255)}}.svg-elem-11{-webkit-animation:animate-svg-fill-11 2s cubic-bezier(0.175,0.885,0.32,1.275) 3s both;animation:animate-svg-fill-11 2s cubic-bezier(0.175,0.885,0.32,1.275) 3s both}@-webkit-keyframes animate-svg-fill-12{0%{fill:transparent}100%{fill:rgb(255,255,255)}}@keyframes animate-svg-fill-12{0%{fill:transparent}100%{fill:rgb(255,255,255)}}.svg-elem-12{-webkit-animation:animate-svg-fill-12 2s cubic-bezier(0.175,0.885,0.32,1.275) 3.3s both;animation:animate-svg-fill-12 2s cubic-bezier(0.175,0.885,0.32,1.275) 3.3s both}
</style>
</defs>

<path d="M133.936 37.024C130.651 37.024 128.133 38.0266 126.384 40.032C124.635 42.0374 123.76 44.8746 123.76 48.544C123.76 52.256 124.72 55.1146 126.64 57.12C128.603 59.1254 131.227 60.128 134.512 60.128C136.261 60.128 137.733 59.8934 138.928 59.424C140.165 58.9546 141.339 58.4214 142.448 57.824C143.173 58.4214 143.728 59.1466 144.112 60C144.539 60.8106 144.752 61.7706 144.752 62.88C144.752 64.6294 143.771 66.1226 141.808 67.36C139.888 68.5546 136.944 69.152 132.976 69.152C130.117 69.152 127.429 68.7466 124.912 67.936C122.395 67.1254 120.197 65.888 118.32 64.224C116.443 62.5174 114.949 60.384 113.84 57.824C112.773 55.2214 112.24 52.128 112.24 48.544C112.24 45.216 112.752 42.2934 113.776 39.776C114.843 37.216 116.272 35.0614 118.064 33.312C119.899 31.5626 122.032 30.24 124.464 29.344C126.896 28.448 129.499 28 132.272 28C136.197 28 139.227 28.64 141.36 29.92C143.536 31.2 144.624 32.8426 144.624 34.848C144.624 35.9574 144.347 36.9174 143.792 37.728C143.237 38.5386 142.597 39.1786 141.872 39.648C140.763 38.9226 139.568 38.304 138.288 37.792C137.051 37.28 135.6 37.024 133.936 37.024Z" fill="white" class="svg-elem-1"></path>
<path d="M180.048 67.936C179.621 68.064 178.939 68.192 178 68.32C177.104 68.448 176.165 68.512 175.184 68.512C174.245 68.512 173.392 68.448 172.624 68.32C171.899 68.192 171.28 67.936 170.768 67.552C170.256 67.168 169.851 66.656 169.552 66.016C169.296 65.3334 169.168 64.4588 169.168 63.392V49.184C169.168 47.4348 168.72 46.2188 167.824 45.536C166.971 44.8108 165.904 44.448 164.624 44.448C163.771 44.448 162.96 44.5548 162.192 44.768C161.424 44.9814 160.805 45.2374 160.336 45.536V67.936C159.909 68.064 159.227 68.192 158.288 68.32C157.392 68.448 156.453 68.512 155.472 68.512C154.533 68.512 153.68 68.448 152.912 68.32C152.187 68.192 151.568 67.936 151.056 67.552C150.544 67.168 150.139 66.656 149.84 66.016C149.584 65.3334 149.456 64.4588 149.456 63.392V26.272C149.925 26.1868 150.608 26.08 151.504 25.952C152.443 25.7814 153.381 25.696 154.32 25.696C155.259 25.696 156.091 25.76 156.816 25.888C157.584 26.016 158.224 26.272 158.736 26.656C159.248 27.04 159.632 27.5734 159.888 28.256C160.187 28.896 160.336 29.7494 160.336 30.816V37.088C160.891 36.8748 161.723 36.64 162.832 36.384C163.984 36.0854 165.243 35.936 166.608 35.936C170.832 35.936 174.117 37.0028 176.464 39.136C178.853 41.2268 180.048 44.3628 180.048 48.544V67.936Z" fill="white" class="svg-elem-2"></path>
<path d="M200.64 61.088C201.366 61.088 202.154 61.024 203.008 60.896C203.904 60.7254 204.566 60.512 204.992 60.256V55.136L200.384 55.52C199.189 55.6054 198.208 55.8614 197.44 56.288C196.672 56.7148 196.288 57.3548 196.288 58.208C196.288 59.0614 196.608 59.7654 197.248 60.32C197.931 60.832 199.061 61.088 200.64 61.088ZM200.128 35.936C202.432 35.936 204.522 36.1708 206.4 36.64C208.32 37.1094 209.942 37.8348 211.264 38.816C212.63 39.7548 213.674 40.9708 214.4 42.464C215.126 43.9148 215.488 45.6428 215.488 47.648V61.984C215.488 63.0934 215.168 64.0108 214.528 64.736C213.93 65.4188 213.206 66.016 212.352 66.528C209.578 68.192 205.674 69.024 200.64 69.024C198.379 69.024 196.331 68.8108 194.496 68.384C192.704 67.9574 191.147 67.3174 189.824 66.464C188.544 65.6108 187.541 64.5228 186.816 63.2C186.133 61.8774 185.792 60.3414 185.792 58.592C185.792 55.648 186.667 53.3868 188.416 51.808C190.165 50.2294 192.875 49.248 196.544 48.864L204.928 47.968V47.52C204.928 46.2828 204.374 45.408 203.264 44.896C202.198 44.3414 200.64 44.064 198.592 44.064C196.971 44.064 195.392 44.2348 193.856 44.576C192.32 44.9174 190.933 45.344 189.696 45.856C189.141 45.472 188.672 44.896 188.288 44.128C187.904 43.3174 187.712 42.4854 187.712 41.632C187.712 40.5228 187.968 39.648 188.48 39.008C189.035 38.3254 189.867 37.7494 190.976 37.28C192.213 36.8108 193.664 36.4694 195.328 36.256C197.035 36.0428 198.635 35.936 200.128 35.936Z" fill="white" class="svg-elem-3"></path>
<path d="M232.208 67.936C231.782 68.064 231.098 68.192 230.16 68.32C229.264 68.448 228.326 68.512 227.344 68.512C226.406 68.512 225.552 68.448 224.784 68.32C224.058 68.192 223.44 67.936 222.928 67.552C222.416 67.168 222.01 66.656 221.712 66.016C221.456 65.3334 221.328 64.4586 221.328 63.392V44.192C221.328 43.2106 221.498 42.3786 221.84 41.696C222.224 40.9706 222.758 40.3306 223.44 39.776C224.122 39.2214 224.954 38.7306 225.936 38.304C226.96 37.8346 228.048 37.4294 229.2 37.088C230.352 36.7466 231.546 36.4906 232.784 36.32C234.022 36.1066 235.258 36 236.496 36C238.544 36 240.166 36.4054 241.36 37.216C242.554 37.984 243.152 39.264 243.152 41.056C243.152 41.6534 243.066 42.2506 242.896 42.848C242.726 43.4026 242.512 43.9146 242.256 44.384C241.36 44.384 240.442 44.4266 239.504 44.512C238.566 44.5974 237.648 44.7254 236.752 44.896C235.856 45.0666 235.002 45.2586 234.192 45.472C233.424 45.6426 232.762 45.856 232.208 46.112V67.936Z" fill="white" class="svg-elem-4"></path>
<path d="M249.072 28.256C249.072 26.6346 249.606 25.2694 250.672 24.16C251.782 23.0506 253.232 22.496 255.024 22.496C256.816 22.496 258.246 23.0506 259.312 24.16C260.422 25.2694 260.976 26.6346 260.976 28.256C260.976 29.8774 260.422 31.2426 259.312 32.352C258.246 33.4614 256.816 34.016 255.024 34.016C253.232 34.016 251.782 33.4614 250.672 32.352C249.606 31.2426 249.072 29.8774 249.072 28.256ZM260.464 67.936C259.994 68.0214 259.29 68.128 258.352 68.256C257.456 68.4266 256.538 68.512 255.6 68.512C254.662 68.512 253.808 68.448 253.04 68.32C252.314 68.192 251.696 67.936 251.184 67.552C250.672 67.168 250.266 66.656 249.968 66.016C249.712 65.3334 249.584 64.4586 249.584 63.392V37.344C250.054 37.2586 250.736 37.152 251.632 37.024C252.57 36.8534 253.51 36.768 254.448 36.768C255.386 36.768 256.218 36.832 256.944 36.96C257.712 37.088 258.352 37.344 258.864 37.728C259.376 38.112 259.76 38.6454 260.016 39.328C260.314 39.968 260.464 40.8214 260.464 41.888V67.936Z" fill="white" class="svg-elem-5"></path>
<path d="M278.208 57.312C278.208 58.4214 278.55 59.2106 279.232 59.68C279.958 60.1494 280.96 60.384 282.24 60.384C282.88 60.384 283.542 60.3414 284.224 60.256C284.906 60.128 285.504 59.9786 286.016 59.808C286.4 60.2774 286.72 60.8106 286.976 61.408C287.274 61.9626 287.424 62.6454 287.424 63.456C287.424 65.0774 286.806 66.4 285.568 67.424C284.374 68.448 282.24 68.96 279.168 68.96C275.414 68.96 272.512 68.1066 270.464 66.4C268.458 64.6934 267.456 61.92 267.456 58.08V30.688C267.926 30.56 268.586 30.432 269.44 30.304C270.336 30.1334 271.274 30.048 272.256 30.048C274.134 30.048 275.584 30.3894 276.608 31.072C277.674 31.712 278.208 33.0986 278.208 35.232V39.328H286.592C286.848 39.7974 287.082 40.3946 287.296 41.12C287.552 41.8026 287.68 42.5706 287.68 43.424C287.68 44.9174 287.338 46.0054 286.656 46.688C286.016 47.328 285.142 47.648 284.032 47.648H278.208V57.312Z" fill="white" class="svg-elem-6"></path>
<path d="M298.192 60.064C297.722 58.9974 297.21 57.8026 296.656 56.48C296.144 55.1574 295.59 53.6426 294.992 51.936C294.438 50.2294 293.84 48.288 293.2 46.112C292.602 43.8934 291.962 41.3546 291.28 38.496C291.878 37.8986 292.666 37.3866 293.648 36.96C294.672 36.4906 295.782 36.256 296.976 36.256C298.47 36.256 299.706 36.576 300.688 37.216C301.67 37.8134 302.394 38.9654 302.864 40.672L307.92 58.272H308.176C308.688 56.8214 309.178 55.2426 309.648 53.536C310.16 51.8294 310.65 50.08 311.12 48.288C311.59 46.4534 312.016 44.64 312.4 42.848C312.826 41.0134 313.19 39.2214 313.488 37.472C315.024 36.6614 316.71 36.256 318.544 36.256C320.038 36.256 321.274 36.576 322.256 37.216C323.238 37.856 323.728 38.9654 323.728 40.544C323.728 41.696 323.578 43.04 323.28 44.576C322.982 46.0694 322.576 47.6694 322.064 49.376C321.594 51.0826 321.018 52.8534 320.336 54.688C319.696 56.48 319.014 58.2506 318.288 60C317.562 61.7494 316.816 63.4134 316.048 64.992C315.28 66.528 314.534 67.9146 313.808 69.152C312.614 71.2426 311.504 72.9494 310.48 74.272C309.456 75.5946 308.474 76.6186 307.536 77.344C306.598 78.112 305.658 78.624 304.72 78.88C303.782 79.1786 302.8 79.328 301.776 79.328C299.984 79.328 298.534 78.7946 297.424 77.728C296.314 76.6614 295.654 75.2746 295.44 73.568C296.806 72.5014 298.17 71.3066 299.536 69.984C300.902 68.704 302.138 67.3814 303.248 66.016C302.522 65.8026 301.734 65.312 300.88 64.544C300.07 63.7334 299.174 62.24 298.192 60.064Z" fill="white" class="svg-elem-7"></path>
<path d="M339.04 60C339.638 60.1708 340.406 60.2988 341.344 60.384C342.282 60.4268 343.178 60.448 344.032 60.448C345.738 60.448 347.146 60.1068 348.256 59.424C349.408 58.6988 349.984 57.5894 349.984 56.096C349.984 54.688 349.514 53.6854 348.576 53.088C347.638 52.4908 346.208 52.192 344.288 52.192H339.04V60ZM339.04 44.384H343.712C345.546 44.384 346.87 44.0428 347.68 43.36C348.534 42.6774 348.96 41.6748 348.96 40.352C348.96 39.2 348.47 38.2828 347.488 37.6C346.55 36.9174 345.12 36.576 343.2 36.576C342.56 36.576 341.814 36.5974 340.96 36.64C340.15 36.6828 339.51 36.7468 339.04 36.832V44.384ZM343.2 69.024C342.474 69.024 341.622 69.0028 340.64 68.96C339.658 68.9174 338.634 68.832 337.568 68.704C336.544 68.576 335.52 68.4054 334.496 68.192C333.472 68.0214 332.534 67.7654 331.68 67.424C329.334 66.528 328.16 64.9708 328.16 62.752V32.864C328.16 31.968 328.394 31.2854 328.864 30.816C329.376 30.304 330.058 29.8988 330.912 29.6C332.362 29.088 334.176 28.7254 336.352 28.512C338.528 28.256 340.768 28.128 343.072 28.128C348.534 28.128 352.736 29.0454 355.68 30.88C358.624 32.7148 360.096 35.552 360.096 39.392C360.096 41.312 359.542 42.976 358.432 44.384C357.322 45.7494 355.83 46.752 353.952 47.392C356.086 47.9894 357.856 49.0774 359.264 50.656C360.714 52.2348 361.44 54.2188 361.44 56.608C361.44 60.832 359.862 63.968 356.704 66.016C353.59 68.0214 349.088 69.024 343.2 69.024Z" fill="white" class="svg-elem-8"></path>
<path d="M399.52 52.448C399.52 55.0934 399.114 57.4614 398.304 59.552C397.494 61.6 396.342 63.328 394.848 64.736C393.398 66.144 391.648 67.2108 389.6 67.936C387.552 68.6614 385.27 69.024 382.752 69.024C380.234 69.024 377.952 68.64 375.904 67.872C373.856 67.104 372.086 66.016 370.592 64.608C369.142 63.1574 368.01 61.408 367.2 59.36C366.39 57.312 365.984 55.008 365.984 52.448C365.984 49.9308 366.39 47.648 367.2 45.6C368.01 43.552 369.142 41.824 370.592 40.416C372.086 38.9654 373.856 37.856 375.904 37.088C377.952 36.32 380.234 35.936 382.752 35.936C385.27 35.936 387.552 36.3414 389.6 37.152C391.648 37.92 393.398 39.0294 394.848 40.48C396.342 41.888 397.494 43.616 398.304 45.664C399.114 47.712 399.52 49.9734 399.52 52.448ZM377.12 52.448C377.12 55.0508 377.61 57.056 378.592 58.464C379.616 59.8294 381.024 60.512 382.816 60.512C384.608 60.512 385.974 59.808 386.912 58.4C387.894 56.992 388.384 55.008 388.384 52.448C388.384 49.888 387.894 47.9254 386.912 46.56C385.93 45.152 384.544 44.448 382.752 44.448C380.96 44.448 379.574 45.152 378.592 46.56C377.61 47.9254 377.12 49.888 377.12 52.448Z" fill="white" class="svg-elem-9"></path>
<mask id="mask0_473_3029" style="mask-type:alpha" maskUnits="userSpaceOnUse" x="0" y="0" width="96" height="96">
<path d="M0 40C0 17.9086 17.9086 0 40 0H56C78.0914 0 96 17.9086 96 40V56C96 78.0914 78.0914 96 56 96H40C17.9086 96 0 78.0914 0 56V40Z" fill="white" class="svg-elem-10"></path>
</mask>
<g mask="url(#mask0_473_3029)">
<path d="M40 8H56V-8H40V8ZM88 40V56H104V40H88ZM56 88H40V104H56V88ZM8 56V40H-8V56H8ZM40 88C22.3268 88 8 73.6732 8 56H-8C-8 82.5096 13.4903 104 40 104V88ZM88 56C88 73.6732 73.6732 88 56 88V104C82.5096 104 104 82.5096 104 56H88ZM56 8C73.6732 8 88 22.3268 88 40H104C104 13.4903 82.5096 -8 56 -8V8ZM40 -8C13.4903 -8 -8 13.4903 -8 40H8C8 22.3268 22.3268 8 40 8V-8Z" fill="white" class="svg-elem-11"></path>
<path d="M82.8568 41.1202V39.0904C82.8568 30.9132 75.2592 24.7108 67.287 26.8006C62.4816 17.5193 49.6452 17.9037 45.1654 26.9406C37.4254 24.9604 29.7144 30.8646 29.7144 39.125V62.7744C25.9732 61.3818 21.5942 61.824 18.0739 64.4376C12.5698 68.5244 11.3625 76.3126 15.3457 81.9038L37.84 113.482C38.3948 114.26 39.1278 114.895 39.9778 115.333C40.8278 115.772 41.7702 116 42.7266 116H84.5198C87.3142 116 89.7388 114.071 90.3664 111.348L96.0258 86.793C96.6726 83.9848 96.9994 81.1124 97 78.2306V53.5624C97 45.9462 90.3394 40.064 82.8568 41.1202ZM87.9994 78.2304C87.9994 80.43 87.7492 82.631 87.256 84.7716L82.1324 107H44.2724L22.6732 76.6818C19.9659 72.8812 25.49 68.6612 28.1846 72.4434L33.2712 79.5832C34.9576 81.9504 38.7144 80.762 38.7144 77.8426V39.125C38.7144 34.3166 45.5714 34.473 45.5714 39.2546V68C45.5714 69.6568 46.9146 71 48.5714 71H49.857C51.514 71 52.857 69.6568 52.857 68V32.5624C52.857 27.7506 59.714 27.9106 59.714 32.692V68C59.714 69.6568 61.0572 71 62.714 71H63.9996C65.6564 71 66.9996 69.6568 66.9996 68V38.9608C66.9996 34.1474 73.8564 34.309 73.8564 39.0904V68C73.8564 69.6568 75.1994 71 76.8564 71H78.142C79.799 71 81.142 69.6568 81.142 68V53.692C81.142 48.7716 87.999 48.8846 87.999 53.5624L87.9994 78.2304Z" fill="white" class="svg-elem-12"></path>
</g>
</svg>


