<svg width="478" height="480" viewBox="0 0 478 480" fill="none" xmlns="http://www.w3.org/2000/svg">
<g clip-path="url(#clip0_860_4167)">
<path d="M477.106 133.661H229.059C229.059 133.661 234.641 113.448 252.016 118.55C252.016 118.55 255.585 106.276 265.239 99.9051C274.893 93.5338 287.27 99.9051 287.27 99.9051C287.27 99.9051 289.901 90.331 296.753 86.9223C303.605 83.5135 311.165 86.9223 311.165 86.9223C311.165 86.9223 318.841 60.0186 342.885 60.0186C368.416 60.0186 372.74 83.8224 372.74 83.8224C372.74 83.8224 382.714 65.7379 402.48 70.4277C419.009 74.3512 422.315 95.9588 422.315 95.9588C423.902 95.2286 425.629 94.8506 427.376 94.8506C429.124 94.8506 430.85 95.2286 432.438 95.9588C437.929 98.441 438.352 105.876 438.352 105.876C438.352 105.876 445.215 101.724 451.884 105.876C459.468 110.623 457.683 122.108 457.683 122.108C457.683 122.108 469.35 121.81 477.106 133.661Z" fill="#EBEBEB"/>
<path d="M148.256 85.1378H0C0 85.1378 3.34009 74.7515 13.7264 77.371C15.2278 73.3926 18.0028 70.0225 21.619 67.7854C27.3956 64.514 34.7964 67.7854 34.7964 67.7854C34.7964 67.7854 36.3635 62.8668 40.4585 61.1167C43.2427 60.1179 46.2876 60.1179 49.0718 61.1167C49.0718 61.1167 53.6473 47.2874 68.0371 47.2874C83.2962 47.2874 85.8814 59.5267 85.8814 59.5267C87.8454 56.7634 90.5793 54.6391 93.7422 53.4187C96.9052 52.1982 100.357 51.9356 103.668 52.6635C113.54 54.6767 115.519 65.7837 115.519 65.7837C117.464 65.0204 119.625 65.0204 121.57 65.7837C124.853 67.0648 125.104 70.8853 125.104 70.8853C126.366 70.2788 127.748 69.964 129.148 69.964C130.548 69.964 131.93 70.2788 133.192 70.8853C137.767 73.3217 136.623 79.2241 136.623 79.2241C138.881 79.2786 141.097 79.8381 143.111 80.8615C145.124 81.8848 146.882 83.346 148.256 85.1378Z" fill="#EBEBEB"/>
<path d="M51.5312 281.539C50.4656 285.416 49.7648 289.383 49.4379 293.39C49.5409 293.584 49.518 294.328 49.4379 294.122C49.4379 294.774 48.4199 294.659 48.4199 294.019C48.4199 293.596 48.4199 293.172 48.4199 292.772C46.1322 289.89 42.7006 288.071 40.0239 285.577C37.8444 283.613 36.2593 281.076 35.4485 278.256C33.1607 270.49 35.2998 262.242 32.5888 254.51C30.3011 247.83 26.0688 242.019 22.5114 235.968C18.7709 229.574 16.0142 222.836 15.7282 215.378C15.5109 209.659 16.1972 201.984 20.5668 197.694C25.1422 193.119 30.9531 196.55 34.4991 200.611C44.7938 212.427 49.5523 227.343 51.474 242.602C52.5378 251.044 53.6359 259.543 53.3843 268.065C53.2131 272.606 52.5924 277.12 51.5312 281.539Z" fill="#EBEBEB"/>
<path d="M49.4837 296.49C50.0406 288.522 49.9449 280.523 49.1977 272.571C49.1977 272.571 49.1977 272.571 49.1977 272.48C49.335 266.017 49.8497 259.577 49.5866 253.103C49.2739 246.099 48.3205 239.138 46.7384 232.307C46.7384 232.227 46.6011 232.25 46.6126 232.307C47.8889 239.015 48.6537 245.81 48.9003 252.634C49.0376 256.294 49.0032 259.943 48.8202 263.604C48.7516 264.747 48.6372 265.983 48.5571 267.184C45.8701 249.029 39.3083 231.665 29.3173 216.27C29.1915 216.053 28.814 216.27 28.9513 216.499C36.0817 228.201 41.3637 240.934 44.6108 254.247C39.6579 245.096 32.1884 237.546 26.6407 228.739C26.6407 228.739 26.5263 228.739 26.5606 228.739C31.5136 238.61 39.7608 246.343 45.0112 256.054C45.9263 259.989 46.6621 263.962 47.2188 267.973C47.948 273.457 48.33 278.981 48.3627 284.513C45.3543 278.886 42.2316 273.498 39.7608 267.538C39.7541 267.523 39.7443 267.508 39.732 267.496C39.7197 267.484 39.7052 267.475 39.6892 267.469C39.6733 267.462 39.6563 267.459 39.6391 267.459C39.622 267.459 39.605 267.463 39.5892 267.47C39.5735 267.477 39.5592 267.486 39.5472 267.499C39.5352 267.511 39.5258 267.525 39.5194 267.541C39.513 267.557 39.5098 267.574 39.5101 267.591C39.5103 267.609 39.5139 267.626 39.5206 267.641C41.6139 273.83 44.4392 280.498 48.3856 285.772C48.3856 289.699 48.275 293.615 48.0538 297.519C47.4476 307.974 45.6632 318.269 44.8396 328.689C44.8396 328.998 45.2514 329.033 45.3086 328.689C47.4262 318.063 48.8211 307.305 49.4837 296.49Z" fill="#A6A6A6"/>
<path d="M38.3766 215.95C38.3766 215.935 38.3706 215.921 38.3598 215.91C38.3491 215.899 38.3346 215.893 38.3194 215.893C38.3042 215.893 38.2897 215.899 38.279 215.91C38.2682 215.921 38.2622 215.935 38.2622 215.95C40.1725 221.223 41.2477 226.577 42.6203 231.964C42.6359 232.01 42.6668 232.048 42.7076 232.073C42.7485 232.098 42.7967 232.108 42.8441 232.101C42.8915 232.094 42.9351 232.071 42.9673 232.036C42.9995 232.001 43.0184 231.955 43.0207 231.907C42.251 226.392 40.6867 221.017 38.3766 215.95Z" fill="#A6A6A6"/>
<path d="M86.8308 238.05C85.5636 241.146 84.0964 244.157 82.4383 247.063C79.0067 253.309 75.4264 259.017 74.7744 266.292C74.67 269.54 74.2058 272.766 73.3904 275.912C72.4916 278.599 71.2003 281.14 69.5584 283.45C65.8294 288.872 61.1853 293.55 57.7308 299.178C54.1443 305.046 51.4931 311.436 49.8725 318.12C49.7924 318.486 49.2091 318.395 49.3006 318.029V317.937C49.2927 317.915 49.2927 317.891 49.3006 317.868C48.7515 302.289 49.9983 286.595 54.7454 271.668C56.843 265.109 59.3649 258.694 62.2949 252.462C64.6752 246.933 68.132 241.932 72.4638 237.752C75.3578 235.144 81.6147 230.203 85.7784 232.822C87.7573 234.126 87.5628 236.105 86.8308 238.05Z" fill="#EBEBEB"/>
<path d="M71.1712 273.361C68.429 277.884 65.4072 282.232 62.1233 286.378L57.5478 292.269C56.8386 293.196 56.0379 294.122 55.3859 295.129C55.7977 293.493 56.198 291.846 56.6213 290.21C58.6573 282.363 60.5905 274.356 63.5417 266.841C66.6088 259.511 70.2221 252.422 74.3512 245.634C74.4656 245.462 74.1681 245.325 74.0652 245.496C70.7709 250.918 67.4308 256.317 64.6626 262.025C63.1355 265.209 61.8023 268.483 60.6705 271.828C61.941 264.729 63.7186 257.729 65.9895 250.884C65.9895 250.815 65.9209 250.77 65.8866 250.884C62.9208 257.814 61.0641 265.167 60.3846 272.675C59.7059 274.703 59.0806 276.743 58.5086 278.794C56.0493 287.51 53.9332 296.318 51.8971 305.103C51.8623 299.296 52.3678 293.498 53.407 287.785C53.407 287.648 53.2354 287.625 53.2011 287.785C51.6739 293.758 51.1635 299.945 51.6912 306.087C50.9286 309.45 50.1927 312.813 49.4836 316.176C47.9508 323.359 46.052 330.669 45.1826 337.909C45.1915 337.94 45.2103 337.968 45.2361 337.987C45.2619 338.007 45.2933 338.017 45.3256 338.017C45.3579 338.017 45.3894 338.007 45.4152 337.987C45.441 337.968 45.4597 337.94 45.4686 337.909C46.5324 333.986 47.1844 329.902 48.0537 325.933C48.9231 321.964 49.8382 317.926 50.7647 313.98C52.1144 308.18 53.5328 302.404 54.9741 296.627C55.9464 294.511 57.8109 292.635 59.2064 290.908C60.7392 288.952 62.272 287.007 63.7819 285.028C66.5819 281.366 69.0872 277.488 71.2742 273.43C71.3657 273.338 71.2284 273.281 71.1712 273.361Z" fill="#A6A6A6"/>
<path d="M71.8462 266.703C68.4169 271.077 65.4463 275.792 62.9812 280.773C62.9812 280.842 63.0498 280.91 63.0956 280.842C66.0696 276.175 68.9979 271.462 71.9834 266.795C72.0292 266.715 71.8919 266.635 71.8462 266.703Z" fill="#A6A6A6"/>
<path d="M5.53638 252.817C7.56103 256.249 9.86019 260.47 8.96798 264.645C8.41892 267.287 6.48579 269.437 6.14263 272.126C5.35336 278.074 11.29 282.009 15.5795 284.822C26.2747 291.834 40.939 298.091 42.8836 312.424C42.9522 312.927 43.833 312.801 43.7758 312.31C43.7811 312.275 43.7811 312.241 43.7758 312.207C43.7758 312.207 43.7758 312.207 43.7758 312.126C45.1799 304.893 45.1138 297.451 43.5813 290.244C41.9799 282.855 38.7657 276.221 34.9566 269.735C28.5166 258.754 21.6992 247.51 11.9763 239.091C9.27682 236.803 3.76339 232.582 1.61293 237.832C-0.537538 243.083 3.06564 248.585 5.53638 252.817Z" fill="#EBEBEB"/>
<path d="M15.3278 276.106C22.4197 283.782 33.6868 288.082 39.795 296.696C36.3927 283.603 29.9499 271.497 20.9899 261.362C20.7497 261.099 21.1272 260.721 21.3788 260.961C27.9064 267.307 33.1291 274.869 36.7524 283.221C35.0562 277.409 32.8395 271.763 30.1294 266.349C30.1051 266.307 30.0987 266.256 30.1116 266.209C30.1245 266.162 30.1555 266.122 30.198 266.097C30.2405 266.073 30.2909 266.067 30.3381 266.08C30.3853 266.092 30.4254 266.124 30.4497 266.166C33.8107 272.093 36.2157 278.512 37.576 285.188C45.583 304.634 46.3608 327.511 44.6793 348.01C44.6793 348.296 44.2104 348.307 44.2218 348.01C44.6793 331.835 44.4163 315.387 40.5386 299.59C40.4585 299.258 40.367 298.938 40.2869 298.606C33.6525 289.352 22.4197 285.063 15.202 276.266C15.1333 276.141 15.2477 276.015 15.3278 276.106Z" fill="#A6A6A6"/>
<path d="M13.6806 269.506C17.4096 272.937 21.07 276.369 24.799 279.801C24.799 279.801 24.799 279.904 24.7418 279.881C20.531 277.055 16.735 273.655 13.4633 269.78C13.3375 269.574 13.5319 269.369 13.6806 269.506Z" fill="#A6A6A6"/>
<path d="M13.0972 254.716C16.3863 260.114 20.1085 265.236 24.227 270.032C24.2369 270.037 24.2455 270.044 24.2521 270.053C24.2588 270.061 24.2632 270.072 24.265 270.083C24.2669 270.093 24.2661 270.104 24.2628 270.115C24.2595 270.125 24.2537 270.135 24.2459 270.143C24.2382 270.15 24.2287 270.156 24.2182 270.16C24.2077 270.163 24.1966 270.164 24.1858 270.162C24.175 270.16 24.1648 270.155 24.156 270.149C24.1472 270.142 24.1402 270.134 24.1355 270.124C19.5136 265.73 15.7067 260.552 12.8913 254.83C12.8761 254.803 12.8724 254.771 12.881 254.741C12.8896 254.711 12.9097 254.685 12.937 254.67C12.9643 254.655 12.9966 254.651 13.0266 254.66C13.0566 254.668 13.082 254.689 13.0972 254.716Z" fill="#A6A6A6"/>
<path d="M29.855 362.434H62.4551L58.0627 318.566H34.8765L29.855 362.434Z" fill="#EBEBEB"/>
<path d="M34.0527 325.693H58.7831L58.0625 318.566H34.8763L34.0527 325.693Z" fill="#C7C7C7"/>
<path d="M30.8729 320.717H61.437V313.716H30.8729V320.717Z" fill="#EBEBEB"/>
<path d="M0 362.285L59.6411 362.01L119.271 361.907L238.553 361.713L357.824 361.896L417.465 361.999L477.106 362.285L417.465 362.559L357.824 362.662L238.553 362.857L119.271 362.662L59.6411 362.559L0 362.285Z" fill="#263238" fill-opacity="0.3"/>
<path d="M238.553 480C359.866 480 458.209 469.978 458.209 457.614C458.209 445.251 359.866 435.229 238.553 435.229C117.24 435.229 18.8967 445.251 18.8967 457.614C18.8967 469.978 117.24 480 238.553 480Z" fill="#EBEBEB"/>
<path d="M114.238 458.61C114.238 461.858 98.4523 464.501 78.9951 464.501C59.538 464.501 43.7412 461.858 43.7412 458.61C43.7412 455.361 59.5265 452.708 78.9951 452.708C98.4637 452.708 114.238 455.35 114.238 458.61Z" fill="#C7C7C7"/>
<path d="M64.2852 461.092C61.6718 460.978 59.0672 460.714 56.484 460.303C55.1687 460.145 53.8847 459.79 52.6749 459.25C52.5205 459.158 52.3847 459.038 52.2746 458.896C52.2218 458.808 52.1868 458.711 52.1716 458.61C52.1797 458.503 52.2152 458.401 52.2746 458.312C52.5039 458.045 52.8 457.844 53.1325 457.729C53.7472 457.479 54.3825 457.284 55.0313 457.146C57.6011 456.651 60.1987 456.315 62.8096 456.139C65.4176 455.967 68.037 455.876 70.6451 455.773L62.8325 456.333C60.2292 456.547 57.6425 456.93 55.0885 457.477C54.4555 457.599 53.8351 457.779 53.2354 458.015C52.9464 458.107 52.6862 458.272 52.4805 458.495C52.2975 458.701 52.5491 458.941 52.8008 459.09C53.9767 459.628 55.2254 459.991 56.5069 460.165C59.0806 460.566 61.6772 460.806 64.2852 461.092Z" fill="white"/>
<path d="M78.9951 461.584C77.1306 461.664 75.2661 461.584 73.4016 461.584C71.5371 461.584 69.6841 461.469 67.8196 461.309C69.6955 461.229 71.5486 461.309 73.4131 461.309C75.2776 461.309 77.1306 461.424 78.9951 461.584Z" fill="white"/>
<path d="M99.2646 460.543C98.0292 460.772 96.7824 460.898 95.5356 461.023C94.2888 461.149 93.0419 461.229 91.7837 461.229C93.0305 460.989 94.2659 460.875 95.5127 460.749C96.7595 460.623 98.0063 460.543 99.2646 460.543Z" fill="white"/>
<path d="M78.9951 455.624C81.2828 455.624 83.5477 455.651 85.7897 455.704C88.0774 455.704 90.3651 455.704 92.6529 455.956C94.9406 456.208 97.1711 456.333 99.4245 456.585C100.568 456.745 101.712 456.928 102.788 457.168C103.341 457.301 103.887 457.461 104.423 457.649C104.694 457.735 104.955 457.85 105.201 457.992C105.441 458.129 105.716 458.312 105.739 458.61C105.739 458.312 105.418 458.152 105.19 458.026C104.936 457.898 104.672 457.791 104.4 457.706C103.863 457.546 103.314 457.42 102.753 457.306C101.609 457.077 100.523 456.917 99.4017 456.78C97.1139 456.562 94.8262 456.425 92.63 456.242C90.4338 456.059 88.1117 455.979 85.8469 455.887C83.582 455.796 81.26 455.739 78.9951 455.624Z" fill="white"/>
<path d="M68.403 460.062C66.5362 460.019 64.673 459.877 62.8209 459.639C61.8813 459.553 60.9556 459.354 60.0642 459.044C59.9372 458.995 59.8236 458.917 59.7325 458.816C59.7005 458.787 59.675 458.751 59.6576 458.712C59.6401 458.673 59.6311 458.63 59.6311 458.587C59.6311 458.544 59.6401 458.501 59.6576 458.462C59.675 458.422 59.7005 458.387 59.7325 458.358C59.9279 458.2 60.1536 458.083 60.3959 458.015C60.8486 457.871 61.3112 457.76 61.78 457.683C65.4768 457.188 69.2029 456.944 72.9327 456.951C71.0796 457.1 69.2151 457.203 67.362 457.317C65.509 457.432 63.6445 457.637 61.8257 457.958C61.3695 458.031 60.9186 458.134 60.476 458.267C60.2702 458.317 60.076 458.406 59.904 458.53C59.824 458.598 59.904 458.61 59.904 458.667C59.9738 458.734 60.0551 458.789 60.1443 458.827C61.0083 459.142 61.9068 459.354 62.8209 459.456C64.6854 459.719 66.5385 459.891 68.403 460.062Z" fill="white"/>
<path d="M78.9952 460.348C77.6455 460.44 76.3071 460.417 74.9688 460.417C73.6305 460.417 72.2807 460.337 70.9539 460.188C72.2922 460.097 73.6305 460.12 74.9688 460.188C76.3071 460.257 77.6455 460.2 78.9952 460.348Z" fill="white"/>
<path d="M93.591 459.742C92.7014 459.902 91.8042 460.017 90.9029 460.085C90.0038 460.137 89.1025 460.137 88.2034 460.085C89.0923 459.923 89.9898 459.813 90.8915 459.754C91.7901 459.692 92.6918 459.689 93.591 459.742Z" fill="white"/>
<path d="M78.9951 456.871C80.608 456.871 82.2323 456.871 83.8565 456.871C85.4808 456.871 87.1166 456.871 88.7294 456.997L93.5908 457.386C94.403 457.477 95.2037 457.58 96.0044 457.729C96.4047 457.809 96.8051 457.901 97.1482 458.015C97.3478 458.068 97.5428 458.137 97.7316 458.221C97.9032 458.301 98.132 458.392 98.1663 458.61C98.1663 458.404 97.8918 458.324 97.7087 458.255C97.5237 458.181 97.3323 458.123 97.1368 458.084C96.7365 457.992 96.3361 457.923 95.9929 457.866C95.1922 457.74 94.3915 457.649 93.5794 457.569L88.7294 457.283C87.1166 457.123 85.4923 457.123 83.868 457.066C82.2437 457.008 80.608 456.951 78.9951 456.871Z" fill="white"/>
<path d="M393.409 399.312C412.879 399.312 428.663 396.674 428.663 393.421C428.663 390.167 412.879 387.53 393.409 387.53C373.939 387.53 358.155 390.167 358.155 393.421C358.155 396.674 373.939 399.312 393.409 399.312Z" fill="#C7C7C7"/>
<path d="M377.589 396.578C374.938 396.408 372.301 396.06 369.697 395.537C369.044 395.399 368.399 395.227 367.764 395.022C367.108 394.847 366.488 394.557 365.933 394.164C365.769 394.066 365.641 393.917 365.568 393.74C365.496 393.562 365.484 393.366 365.533 393.181C365.694 392.856 365.954 392.591 366.277 392.426C366.868 392.105 367.493 391.852 368.141 391.671C370.722 391.004 373.355 390.556 376.011 390.332C378.653 390.104 381.307 389.978 383.961 389.829L376.034 390.527C373.399 390.781 370.79 391.252 368.233 391.934C367.601 392.105 366.991 392.347 366.414 392.654C366.138 392.788 365.91 393.004 365.762 393.272C365.734 393.409 365.75 393.551 365.807 393.679C365.865 393.806 365.961 393.912 366.082 393.981C366.614 394.36 367.205 394.647 367.832 394.828C368.45 395.034 369.102 395.194 369.743 395.354C372.336 395.894 374.955 396.302 377.589 396.578Z" fill="white"/>
<path d="M392.3 397.207C390.447 397.264 388.582 397.207 386.718 397.207C384.853 397.207 382.989 397.07 381.136 396.898C383.012 396.83 384.865 396.898 386.729 396.898C388.594 396.898 390.447 397.035 392.3 397.207Z" fill="white"/>
<path d="M412.58 395.88C411.357 396.143 410.098 396.292 408.851 396.452C407.605 396.612 406.358 396.715 405.1 396.749C406.335 396.486 407.582 396.338 408.817 396.178C410.053 396.017 411.276 395.914 412.58 395.88Z" fill="white"/>
<path d="M392.3 389.646C394.588 389.646 396.875 389.684 399.163 389.761C401.451 389.829 403.738 389.761 406.026 390.104C408.314 390.447 410.602 390.584 412.889 390.916C414.019 391.106 415.138 391.358 416.241 391.671C416.794 391.829 417.333 392.032 417.854 392.277C418.334 392.529 418.998 392.815 418.998 393.421C418.906 392.826 418.277 392.563 417.785 392.334C417.26 392.119 416.721 391.94 416.172 391.797C415.028 391.511 413.942 391.282 412.821 391.099C410.533 390.802 408.245 390.63 405.958 390.39C403.679 390.13 401.388 389.985 399.094 389.955C396.852 389.909 394.588 389.806 392.3 389.646Z" fill="white"/>
<path d="M381.708 395.263C379.822 395.195 377.942 395.008 376.08 394.702C375.131 394.583 374.205 394.32 373.334 393.924C373.217 393.855 373.116 393.761 373.037 393.65C372.995 393.58 372.968 393.502 372.957 393.421C372.961 393.338 372.989 393.259 373.037 393.192C373.195 392.987 373.41 392.832 373.655 392.746C374.099 392.563 374.559 392.418 375.027 392.311C376.882 391.944 378.758 391.696 380.644 391.568C382.531 391.442 384.407 391.385 386.294 391.328C384.419 391.499 382.543 391.625 380.655 391.762C378.786 391.916 376.929 392.191 375.096 392.586C374.638 392.678 374.19 392.812 373.758 392.986C373.56 393.055 373.383 393.173 373.243 393.329C373.129 393.444 373.243 393.604 373.46 393.718C374.301 394.115 375.195 394.385 376.114 394.519C377.967 394.851 379.843 395.068 381.708 395.263Z" fill="white"/>
<path d="M392.3 395.606C390.961 395.697 389.623 395.674 388.285 395.606C386.946 395.537 385.597 395.514 384.258 395.366C385.608 395.274 386.946 395.308 388.285 395.366C389.623 395.423 390.961 395.48 392.3 395.606Z" fill="white"/>
<path d="M406.907 394.862C405.133 395.212 403.328 395.38 401.52 395.365C402.404 395.182 403.297 395.048 404.196 394.965C405.097 394.885 406.002 394.85 406.907 394.862Z" fill="white"/>
<path d="M392.3 391.213C393.932 391.213 395.567 391.213 397.207 391.213C398.843 391.213 400.478 391.213 402.114 391.385C403.75 391.557 405.374 391.682 406.998 391.865C407.799 391.991 408.611 392.128 409.412 392.311C409.812 392.414 410.201 392.529 410.556 392.666C410.91 392.803 411.391 392.963 411.494 393.387C411.368 392.975 410.888 392.872 410.533 392.735C410.157 392.618 409.775 392.523 409.389 392.449C408.6 392.277 407.788 392.163 406.976 392.06C405.351 391.9 403.727 391.808 402.103 391.671C400.478 391.534 398.843 391.465 397.207 391.396C395.571 391.328 393.936 391.316 392.3 391.213Z" fill="white"/>
<path d="M416.882 401.542C423.97 401.542 429.716 400.544 429.716 399.312C429.716 398.08 423.97 397.081 416.882 397.081C409.793 397.081 404.047 398.08 404.047 399.312C404.047 400.544 409.793 401.542 416.882 401.542Z" fill="#C7C7C7"/>
<path d="M421.331 398.397C422.141 398.418 422.948 398.502 423.745 398.648C424.152 398.712 424.542 398.86 424.888 399.083C424.952 399.126 425.001 399.187 425.027 399.259C425.054 399.331 425.057 399.41 425.037 399.483C424.984 399.606 424.891 399.706 424.774 399.769C424.592 399.879 424.396 399.964 424.191 400.021C422.614 400.397 420.995 400.558 419.375 400.501C420.969 400.361 422.552 400.109 424.111 399.746C424.442 399.666 424.98 399.426 424.717 399.277C424.389 399.079 424.029 398.94 423.653 398.866C422.921 398.671 422.132 398.534 421.331 398.397Z" fill="white"/>
<path d="M416.881 398.202C417.442 398.121 418.008 398.09 418.574 398.111C419.14 398.127 419.703 398.196 420.256 398.317C419.698 398.389 419.136 398.416 418.574 398.397C418.005 398.382 417.439 398.317 416.881 398.202Z" fill="white"/>
<path d="M410.762 398.614C411.128 398.469 411.513 398.376 411.906 398.34C412.285 398.288 412.67 398.288 413.049 398.34C412.682 398.482 412.297 398.574 411.906 398.614C411.526 398.66 411.142 398.66 410.762 398.614Z" fill="white"/>
<path d="M416.882 400.559C416.195 400.559 415.498 400.559 414.8 400.559C414.105 400.574 413.409 400.543 412.718 400.467C412.032 400.376 411.334 400.318 410.648 400.204C410.316 400.124 409.973 400.044 409.641 399.93C409.473 399.876 409.312 399.803 409.161 399.712C409.012 399.632 408.829 399.529 408.817 399.335C408.943 399.666 409.366 399.701 409.675 399.792C410.011 399.875 410.351 399.94 410.693 399.987L412.752 400.181C413.435 400.269 414.123 400.323 414.811 400.341C415.509 400.433 416.195 400.49 416.882 400.559Z" fill="white"/>
<path d="M420.084 398.809C420.661 398.799 421.239 398.83 421.812 398.9C422.109 398.938 422.399 399.022 422.669 399.152C422.727 399.152 422.898 399.335 422.795 399.495C422.742 399.58 422.661 399.644 422.566 399.678C422.427 399.743 422.282 399.793 422.132 399.827C421.001 400.036 419.849 400.109 418.7 400.044C419.844 399.849 420.988 399.815 422.075 399.552C422.315 399.552 422.704 399.312 422.532 399.369C422.29 399.25 422.032 399.165 421.766 399.117C421.217 399.037 420.656 398.912 420.084 398.809Z" fill="white"/>
<path d="M416.881 398.694C417.284 398.611 417.694 398.572 418.105 398.58C418.515 398.59 418.923 398.652 419.318 398.763C418.916 398.848 418.505 398.883 418.094 398.866C417.684 398.858 417.277 398.801 416.881 398.694Z" fill="white"/>
<path d="M412.478 398.934C412.727 398.818 412.993 398.745 413.267 398.717C413.543 398.666 413.826 398.666 414.102 398.717C413.851 398.84 413.579 398.918 413.301 398.946C413.028 398.987 412.75 398.983 412.478 398.934Z" fill="white"/>
<path d="M416.882 400.078C415.892 400.153 414.898 400.153 413.908 400.078C413.416 400.021 412.924 399.987 412.432 399.918C412.18 399.861 411.94 399.815 411.7 399.747C411.46 399.678 411.174 399.609 411.071 399.358C411.208 399.564 411.505 399.564 411.734 399.609L412.455 399.701L413.93 399.804C414.422 399.872 414.914 399.861 415.406 399.907C415.898 399.952 416.39 400.01 416.882 400.078Z" fill="white"/>
<path d="M416.881 463.517C443.244 463.517 464.615 459.676 464.615 454.938C464.615 450.2 443.244 446.359 416.881 446.359C390.519 446.359 369.148 450.2 369.148 454.938C369.148 459.676 390.519 463.517 416.881 463.517Z" fill="#C7C7C7"/>
<path d="M437.013 459.136C440.624 458.743 444.21 458.147 447.754 457.352C448.633 457.138 449.499 456.878 450.351 456.574C451.204 456.306 452.002 455.888 452.707 455.338C452.878 455.226 453.011 455.064 453.089 454.874C453.167 454.684 453.185 454.475 453.142 454.275C452.979 453.882 452.689 453.555 452.318 453.348C451.553 452.867 450.73 452.483 449.87 452.204C446.385 451.196 442.818 450.499 439.21 450.122C437.414 449.894 435.595 449.802 433.788 449.631L428.366 449.139C431.992 449.379 435.618 449.573 439.232 449.928C442.859 450.272 446.446 450.946 449.95 451.941C450.835 452.213 451.681 452.598 452.467 453.085C452.883 453.332 453.205 453.71 453.382 454.16C453.437 454.404 453.417 454.659 453.325 454.891C453.234 455.124 453.074 455.324 452.867 455.464C452.133 456.029 451.304 456.459 450.419 456.734C449.56 457.031 448.686 457.283 447.8 457.489C444.248 458.294 440.644 458.845 437.013 459.136Z" fill="white"/>
<path d="M416.996 460.051L432.175 459.548C429.658 459.845 427.13 459.971 424.591 460.074C422.052 460.177 419.546 460.177 416.996 460.051Z" fill="white"/>
<path d="M389.452 458.106L394.542 458.713C396.223 458.93 397.973 459.113 399.621 459.376C397.905 459.376 396.189 459.182 394.508 458.999C392.807 458.794 391.119 458.496 389.452 458.106Z" fill="white"/>
<path d="M416.996 448.921C410.75 449.047 404.505 449.242 398.294 449.859C395.182 450.134 392.083 450.488 389.006 451.003C387.462 451.266 385.934 451.618 384.43 452.056C383.682 452.268 382.951 452.54 382.245 452.868C381.892 453.031 381.562 453.238 381.262 453.485C381.099 453.592 380.963 453.734 380.862 453.9C380.761 454.066 380.698 454.253 380.678 454.446C380.695 454.25 380.753 454.059 380.85 453.888C380.947 453.716 381.079 453.567 381.239 453.451C381.534 453.197 381.861 452.982 382.211 452.81C382.911 452.457 383.638 452.158 384.384 451.918C385.887 451.452 387.414 451.07 388.96 450.774C392.037 450.191 395.137 449.802 398.248 449.493C404.483 448.982 410.741 448.791 416.996 448.921Z" fill="white"/>
<path d="M431.42 457.203C433.982 456.928 436.533 456.631 439.061 456.139C439.69 456.002 440.308 455.865 440.926 455.682C441.539 455.534 442.126 455.291 442.664 454.961C442.916 454.801 443.122 454.549 442.985 454.332C442.804 454.094 442.563 453.908 442.287 453.794C441.704 453.54 441.099 453.341 440.48 453.199C437.979 452.62 435.441 452.219 432.884 451.998L425.186 451.392C427.76 451.506 430.333 451.609 432.907 451.804C435.482 452.003 438.039 452.385 440.56 452.948C441.193 453.101 441.81 453.316 442.401 453.588C442.728 453.72 443.007 453.947 443.202 454.24C443.242 454.331 443.265 454.428 443.271 454.526C443.258 454.626 443.227 454.723 443.179 454.812C443.08 454.959 442.952 455.084 442.802 455.178C442.239 455.519 441.625 455.766 440.983 455.91C440.365 456.093 439.725 456.219 439.095 456.345C436.556 456.784 433.993 457.071 431.42 457.203Z" fill="white"/>
<path d="M416.996 457.74C418.814 457.569 420.633 457.512 422.452 457.443C424.271 457.374 426.101 457.374 427.92 457.443C426.112 457.603 424.282 457.66 422.463 457.729C420.645 457.798 418.837 457.809 416.996 457.74Z" fill="white"/>
<path d="M397.173 456.597C398.408 456.597 399.621 456.722 400.845 456.825C402.069 456.928 403.281 457.1 404.494 457.34C403.258 457.34 402.034 457.214 400.81 457.111C399.586 457.008 398.374 456.837 397.173 456.597Z" fill="white"/>
<path d="M416.996 451.232C414.765 451.346 412.546 451.449 410.316 451.518C408.085 451.587 405.866 451.609 403.658 451.895C401.451 452.181 399.22 452.239 397.001 452.49C395.857 452.639 394.805 452.822 393.718 453.074C393.177 453.194 392.642 453.343 392.117 453.52C391.858 453.618 391.606 453.732 391.362 453.863C391.239 453.924 391.131 454.011 391.044 454.118C390.957 454.224 390.894 454.348 390.858 454.481C390.884 454.343 390.942 454.213 391.028 454.101C391.113 453.99 391.224 453.901 391.35 453.84C391.585 453.689 391.834 453.563 392.094 453.462C392.615 453.251 393.15 453.075 393.695 452.936C394.77 452.673 395.869 452.467 396.978 452.296C399.186 452.021 401.416 451.838 403.635 451.609C405.854 451.381 408.085 451.381 410.316 451.323C412.546 451.266 414.788 451.243 416.996 451.232Z" fill="white"/>
<path d="M255.745 438.787C271.317 438.787 283.941 436.774 283.941 434.291C283.941 431.809 271.317 429.796 255.745 429.796C240.173 429.796 227.549 431.809 227.549 434.291C227.549 436.774 240.173 438.787 255.745 438.787Z" fill="#C7C7C7"/>
<path d="M243.838 435.481C241.733 435.418 239.633 435.246 237.546 434.966C236.49 434.861 235.452 434.619 234.458 434.245C234.324 434.182 234.203 434.092 234.103 433.982C234.043 433.908 234.011 433.815 234.012 433.719C234.024 433.629 234.064 433.545 234.126 433.479C234.339 433.286 234.593 433.145 234.87 433.067C235.375 432.9 235.891 432.767 236.414 432.667C238.49 432.334 240.583 432.109 242.682 431.992C244.787 431.878 246.892 431.82 248.985 431.775C246.892 431.935 244.798 432.061 242.705 432.186C240.615 432.332 238.534 432.588 236.471 432.953C235.96 433.038 235.455 433.161 234.961 433.319C234.729 433.383 234.511 433.492 234.321 433.639C234.149 433.765 234.321 433.914 234.561 434.04C235.534 434.406 236.548 434.656 237.581 434.783C239.697 435.092 241.744 435.286 243.838 435.481Z" fill="white"/>
<path d="M255.711 435.836C254.201 435.916 252.691 435.893 251.135 435.836C249.58 435.778 248.127 435.744 246.629 435.595C248.139 435.504 249.637 435.527 251.147 435.595C252.657 435.664 254.235 435.641 255.711 435.836Z" fill="white"/>
<path d="M272.16 435.103C271.164 435.28 270.16 435.406 269.151 435.481C268.14 435.568 267.124 435.599 266.109 435.572C267.115 435.378 268.122 435.298 269.128 435.195C270.135 435.092 271.142 435.069 272.16 435.103Z" fill="white"/>
<path d="M255.711 431.66C257.541 431.66 259.371 431.66 261.201 431.66C263.032 431.66 264.862 431.66 266.681 431.821L272.148 432.278C273.063 432.392 273.967 432.518 274.871 432.69C275.317 432.781 275.763 432.884 276.209 433.022C276.427 433.094 276.641 433.178 276.85 433.273C277.044 433.376 277.296 433.491 277.33 433.731C277.33 433.491 277.033 433.388 276.838 433.308C276.626 433.22 276.408 433.147 276.186 433.09C275.74 432.976 275.294 432.896 274.848 432.827C273.944 432.678 273.04 432.564 272.137 432.473L266.669 432.107C264.85 431.924 263.02 431.924 261.19 431.855C259.36 431.786 257.575 431.763 255.711 431.66Z" fill="white"/>
<path d="M247.166 434.76C245.668 434.76 244.169 434.68 242.671 434.509C241.897 434.442 241.131 434.304 240.383 434.097C240.28 434.054 240.183 433.996 240.097 433.925C240.097 433.925 239.983 433.777 240.028 433.696C240.036 433.659 240.051 433.624 240.073 433.592C240.094 433.561 240.122 433.534 240.154 433.514C240.329 433.41 240.518 433.333 240.715 433.285C241.091 433.186 241.473 433.109 241.859 433.056C244.846 432.709 247.853 432.556 250.861 432.598C249.362 432.713 247.864 432.793 246.365 432.873C244.867 432.953 243.368 433.102 241.893 433.33C241.527 433.33 241.161 433.445 240.806 433.536C240.638 433.574 240.477 433.636 240.326 433.719C240.257 433.777 240.326 433.719 240.326 433.719C240.387 433.763 240.452 433.802 240.52 433.834C241.229 434.05 241.957 434.195 242.694 434.268C244.181 434.497 245.668 434.623 247.166 434.76Z" fill="white"/>
<path d="M255.711 434.966C254.626 435.05 253.538 435.077 252.451 435.046C251.364 435.046 250.278 434.989 249.202 434.852C250.287 434.768 251.375 434.741 252.462 434.772C253.572 434.806 254.659 434.829 255.711 434.966Z" fill="white"/>
<path d="M267.561 434.497C266.848 434.64 266.126 434.732 265.399 434.772C264.668 434.823 263.934 434.823 263.203 434.772C263.92 434.626 264.646 434.53 265.376 434.486C266.104 434.438 266.834 434.442 267.561 434.497Z" fill="white"/>
<path d="M255.711 432.53C257.015 432.53 258.33 432.53 259.646 432.53C260.961 432.53 262.265 432.53 263.581 432.61C264.896 432.69 266.2 432.77 267.504 432.884C268.156 432.953 268.808 433.033 269.46 433.147C269.784 433.2 270.104 433.268 270.421 433.353C270.582 433.386 270.739 433.436 270.89 433.502C271.039 433.502 271.233 433.616 271.279 433.788C271.222 433.616 271.027 433.582 270.879 433.525C270.725 433.479 270.568 433.444 270.41 433.422C270.088 433.359 269.764 433.314 269.437 433.285C268.785 433.205 268.133 433.147 267.481 433.102L263.558 432.896C262.254 432.781 260.95 432.804 259.634 432.747C258.319 432.69 257.049 432.61 255.711 432.53Z" fill="white"/>
<path d="M128.33 475.768C154.693 475.768 176.064 471.927 176.064 467.189C176.064 462.451 154.693 458.61 128.33 458.61C101.968 458.61 80.5967 462.451 80.5967 467.189C80.5967 471.927 101.968 475.768 128.33 475.768Z" fill="#C7C7C7"/>
<path d="M149.686 461.573C153.599 461.889 157.484 462.493 161.308 463.38C162.264 463.615 163.207 463.902 164.133 464.238C165.082 464.54 165.967 465.017 166.741 465.645C166.953 465.806 167.116 466.023 167.213 466.271C167.31 466.519 167.336 466.789 167.29 467.052C167.112 467.532 166.772 467.937 166.329 468.195C165.497 468.738 164.597 469.169 163.653 469.477C159.885 470.598 156.021 471.363 152.111 471.764C148.211 472.165 144.287 472.382 140.386 472.668L146.243 472.119C148.188 471.924 150.144 471.833 152.088 471.57C155.967 471.151 159.796 470.365 163.527 469.225C164.449 468.936 165.329 468.528 166.146 468.012C166.545 467.777 166.849 467.408 167.004 466.972C167.044 466.756 167.021 466.534 166.938 466.331C166.854 466.128 166.715 465.953 166.535 465.828C165.789 465.215 164.936 464.745 164.019 464.444C163.103 464.107 162.172 463.817 161.228 463.574C157.424 462.679 153.57 462.011 149.686 461.573Z" fill="white"/>
<path d="M128.181 460.543C130.904 460.429 133.638 460.463 136.36 460.543C139.082 460.623 141.805 460.795 144.504 461.115L128.181 460.543Z" fill="white"/>
<path d="M98.5439 462.728C100.335 462.296 102.149 461.968 103.977 461.744C105.796 461.527 107.638 461.355 109.468 461.309C107.649 461.584 105.83 461.778 104.012 462.03L98.5439 462.728Z" fill="white"/>
<path d="M128.181 473C121.447 473.097 114.712 472.845 108.004 472.245C104.652 471.902 101.312 471.467 97.9948 470.815C96.3399 470.5 94.7051 470.088 93.0991 469.58C92.3111 469.31 91.546 468.977 90.8113 468.584C90.4411 468.385 90.0956 468.143 89.7819 467.864C89.6162 467.732 89.479 467.567 89.3788 467.38C89.2785 467.193 89.2172 466.988 89.1985 466.777C89.2203 466.987 89.2855 467.19 89.3899 467.373C89.4942 467.556 89.6355 467.715 89.8047 467.841C90.1234 468.11 90.4728 468.34 90.8457 468.527C91.5833 468.891 92.3482 469.197 93.1334 469.442C94.7423 469.916 96.3769 470.298 98.0291 470.586C101.323 471.204 104.675 471.604 108.015 471.913C114.718 472.645 121.455 472.874 128.181 473Z" fill="white"/>
<path d="M143.669 463.734C146.444 463.895 149.206 464.227 151.939 464.73C152.614 464.878 153.301 465.015 153.964 465.221C154.653 465.383 155.31 465.658 155.909 466.034C156.195 466.205 156.549 466.628 156.343 467.052C156.141 467.368 155.851 467.618 155.508 467.772C154.873 468.083 154.205 468.325 153.518 468.493C150.808 469.118 148.055 469.539 145.282 469.751C142.514 469.968 139.734 470.094 136.966 470.232L145.259 469.568C148.018 469.315 150.755 468.864 153.449 468.218C154.113 468.054 154.76 467.828 155.383 467.543C155.679 467.42 155.933 467.213 156.115 466.949C156.24 466.697 156.046 466.411 155.771 466.228C155.201 465.844 154.571 465.558 153.907 465.382C153.244 465.176 152.569 465.015 151.894 464.867C149.183 464.375 146.426 464.043 143.669 463.734Z" fill="white"/>
<path d="M128.181 463.094C130.149 463.025 132.105 463.094 134.061 463.094C136.017 463.094 137.984 463.231 139.94 463.403C137.973 463.46 136.017 463.403 134.061 463.403C132.105 463.403 130.137 463.311 128.181 463.094Z" fill="white"/>
<path d="M106.837 464.409C108.141 464.158 109.445 464.009 110.76 463.849C112.076 463.689 113.391 463.597 114.707 463.586C113.414 463.837 112.099 463.986 110.795 464.135C109.491 464.283 108.152 464.386 106.837 464.409Z" fill="white"/>
<path d="M128.181 470.403C125.795 470.403 123.396 470.369 120.987 470.3C118.584 470.232 116.182 470.3 113.792 469.968C111.401 469.637 109.01 469.511 106.631 469.202C105.487 469.008 104.263 468.79 103.097 468.481C102.517 468.327 101.948 468.136 101.392 467.91C101.113 467.794 100.845 467.652 100.591 467.486C100.459 467.414 100.345 467.312 100.258 467.19C100.171 467.067 100.113 466.926 100.088 466.777C100.119 466.922 100.182 467.059 100.273 467.176C100.364 467.293 100.481 467.387 100.614 467.452C100.866 467.611 101.134 467.742 101.415 467.841C101.975 468.048 102.548 468.217 103.131 468.344C104.275 468.63 105.419 468.836 106.665 469.008C109.045 469.294 111.435 469.454 113.815 469.683C116.194 469.911 118.596 470.003 120.998 470.106C123.4 470.209 125.791 470.289 128.181 470.403Z" fill="white"/>
<path d="M38.1478 418.174C38.1478 419.398 32.4285 420.405 25.3137 420.405C18.1988 420.405 12.4795 419.398 12.4795 418.174C12.4795 416.95 18.1988 415.886 25.3137 415.886C32.4285 415.886 38.1478 416.939 38.1478 418.174Z" fill="#C7C7C7"/>
<path d="M20.1662 419.295C19.2333 419.27 18.3038 419.17 17.3866 418.998C16.9061 418.927 16.4461 418.756 16.0368 418.495C15.965 418.45 15.9094 418.384 15.8785 418.306C15.8475 418.227 15.8429 418.141 15.8653 418.06C15.9229 417.921 16.0284 417.807 16.1627 417.74C16.3727 417.62 16.5952 417.525 16.8261 417.454C18.6517 417.031 20.5232 416.838 22.3967 416.882C20.5527 417.035 18.7218 417.317 16.9176 417.728C16.7042 417.787 16.4973 417.868 16.2999 417.968C16.1169 418.106 16.0368 418.174 16.197 418.3C16.5785 418.529 16.9963 418.692 17.4323 418.781C18.336 418.998 19.2511 419.147 20.1662 419.295Z" fill="white"/>
<path d="M25.3137 419.524C24.6643 419.596 24.0107 419.623 23.3577 419.604C22.705 419.587 22.0548 419.518 21.4131 419.398C22.0615 419.314 22.716 419.288 23.3691 419.318C24.0217 419.336 24.6719 419.405 25.3137 419.524Z" fill="white"/>
<path d="M32.4056 419.044C31.992 419.194 31.5619 419.294 31.1245 419.341C30.6837 419.392 30.2384 419.392 29.7976 419.341C30.2118 419.193 30.6417 419.093 31.0787 419.044C31.5198 418.998 31.9645 418.998 32.4056 419.044Z" fill="white"/>
<path d="M25.3137 416.813C26.1144 416.813 26.9151 416.813 27.7273 416.813C28.5294 416.796 29.3317 416.83 30.1294 416.916C30.9301 417.019 31.7308 417.088 32.5201 417.225C32.9067 417.302 33.2886 417.402 33.6639 417.522C33.8575 417.586 34.0451 417.666 34.2244 417.762C34.3846 417.854 34.6133 417.98 34.6248 418.197C34.6248 417.98 34.3617 417.9 34.1901 417.82C34.0064 417.756 33.8193 417.702 33.6296 417.66C33.2539 417.56 32.8717 417.487 32.4857 417.442L30.1065 417.202C29.313 417.105 28.5151 417.047 27.7158 417.03C26.938 416.962 26.1144 416.893 25.3137 416.813Z" fill="white"/>
<path d="M21.6074 418.826C20.9455 418.836 20.2839 418.794 19.6285 418.7C19.283 418.662 18.9464 418.566 18.6334 418.414C18.5796 418.387 18.5327 418.348 18.4961 418.3C18.474 418.262 18.4624 418.218 18.4624 418.174C18.4624 418.13 18.474 418.087 18.4961 418.048C18.5609 417.959 18.6476 417.888 18.7478 417.843C18.9121 417.779 19.0802 417.725 19.2511 417.682C20.5556 417.441 21.8838 417.353 23.2088 417.419C21.9048 417.625 20.578 417.66 19.3083 417.957C19.1561 417.991 19.0069 418.036 18.8622 418.094L18.7249 418.174C19.0078 418.31 19.308 418.406 19.6171 418.46C20.3034 418.62 20.9554 418.723 21.6074 418.826Z" fill="white"/>
<path d="M25.3137 418.963C24.8491 419.043 24.3779 419.078 23.9067 419.066C23.4325 419.056 22.9608 418.995 22.4998 418.883C22.9675 418.798 23.443 418.764 23.9182 418.78C24.389 418.785 24.8576 418.846 25.3137 418.963Z" fill="white"/>
<path d="M30.4267 418.678C29.8325 418.936 29.172 419 28.5393 418.861C28.8343 418.736 29.1469 418.659 29.4658 418.632C29.7867 418.602 30.1101 418.617 30.4267 418.678Z" fill="white"/>
<path d="M25.3137 417.339C26.4564 417.265 27.6026 417.265 28.7453 417.339C29.3172 417.408 29.8892 417.442 30.4611 417.522C30.7471 417.579 31.0216 417.636 31.3076 417.717C31.5935 417.797 31.9138 417.865 32.0282 418.151C31.8795 417.9 31.5363 417.911 31.2733 417.854C31.0102 417.797 30.7128 417.774 30.4268 417.751L28.7224 417.625C28.1619 417.545 27.5786 417.556 27.0181 417.511C26.4576 417.465 25.8857 417.442 25.3137 417.339Z" fill="white"/>
<path d="M127.472 256.489C149.743 284.239 189.641 324.995 202.887 323.496C214.704 322.147 257.324 313.007 278.451 298.56C283.919 294.82 261.511 245.588 256.031 250.072C244.524 259.486 215.733 271.37 207.829 273.212C200.794 274.813 158.849 247.372 135.891 235.956C108.027 222.047 118.596 245.428 127.472 256.489Z" fill="#D3766A"/>
<path d="M246.366 258.182L260.801 282.535L260.859 282.626L261.179 283.164L272.114 301.649C273.821 301.231 275.502 300.712 277.147 300.093C289.96 295.284 302.189 289.045 313.602 281.494C320.522 276.724 338.962 260.904 335.69 255.333C332.419 249.763 326.642 253.869 326.642 253.869C326.642 253.869 333.437 246.034 329.651 240.703C326.528 236.334 320.076 240.063 317.823 241.55L317.468 241.79L317.079 242.076C317.079 242.076 323.474 233.509 319.367 228.476C315.65 223.969 309.072 230.088 307.746 231.427L307.574 231.598C307.574 231.598 307.643 231.507 307.677 231.438C308.672 230.146 313.133 223.843 308.5 221.406C302.278 218.146 292.418 233.383 284.479 238.256C284.079 238.496 282.02 239.582 279.046 241.172C275.614 242.968 271.039 245.348 266.36 247.795L246.366 258.182Z" fill="#FFBAA1"/>
<path d="M283.015 252.394C286.847 251.127 290.569 249.551 294.145 247.681C299.99 244.432 304.222 240.086 307.768 232.044C307.929 231.701 307.837 231.484 307.665 231.438C307.655 231.432 307.643 231.429 307.631 231.429C307.619 231.429 307.607 231.432 307.597 231.438C307.471 231.438 307.345 231.53 307.208 231.724C302.77 238.587 299.109 242.579 294.214 245.908C290.62 248.267 286.827 250.307 282.878 252.005C282.649 252.119 282.763 252.497 283.015 252.394Z" fill="#FFAA8F"/>
<path d="M291.48 263.661C303.879 258.113 310.926 254.338 317.983 242.27C318.212 241.904 318.075 241.538 317.834 241.538C317.767 241.544 317.702 241.566 317.644 241.602C317.587 241.638 317.538 241.686 317.503 241.744C308.981 252.645 303.456 256.614 291.4 263.283C291.171 263.432 291.308 263.729 291.48 263.661Z" fill="#FFAA8F"/>
<path d="M325.91 254.727C316.839 264.736 310.982 269.369 298.457 274.333C298.405 274.362 298.365 274.407 298.344 274.463C298.323 274.518 298.322 274.579 298.341 274.635C298.36 274.69 298.398 274.738 298.449 274.769C298.499 274.799 298.559 274.811 298.617 274.802C311.898 270.981 319.207 265.251 326.207 255.036C326.631 254.338 326.47 254.098 325.91 254.727Z" fill="#FFAA8F"/>
<path d="M265.091 279.023C265.622 278.564 266.116 278.063 266.566 277.524L266.955 277.055C273.818 268.053 267.905 252.588 267.905 252.588C271.396 251.219 274.76 249.546 277.959 247.589C282.535 244.764 286.813 241.287 288.254 237.706C288.653 236.781 288.822 235.772 288.746 234.767C288.707 234.226 288.587 233.694 288.391 233.188C288.378 233.138 288.354 233.092 288.323 233.051C287.053 230.306 280.018 230.912 272.366 232.788C263.958 234.847 254.807 238.507 251.719 240.795C247.761 243.883 236.849 261.522 236.849 261.522C236.849 261.522 255.379 287.487 265.091 279.023Z" fill="#D3766A"/>
<path d="M288.517 235.533C286.115 244.592 275.237 248.058 267.63 251.719C267.516 251.769 267.416 251.846 267.337 251.943C267.259 252.04 267.206 252.155 267.181 252.277C267.156 252.399 267.161 252.525 267.196 252.645C267.23 252.765 267.293 252.875 267.379 252.965C269.769 260.698 270.89 272.32 265.628 279.057C265.592 279.095 265.572 279.146 265.573 279.198C265.574 279.251 265.596 279.301 265.634 279.337C265.672 279.374 265.723 279.394 265.775 279.392C265.828 279.391 265.878 279.369 265.914 279.332C272.537 272.857 272.366 261.361 269.209 253.023C277.067 249.397 287.819 245.439 288.654 235.522C288.609 235.464 288.529 235.464 288.517 235.533Z" fill="#263238"/>
<path d="M265.503 308.191L234.847 260.08C234.847 260.08 211.535 271.919 207.097 272.285C202.659 272.651 150.007 240.966 132.746 233.623C115.485 226.279 113.208 235.201 124.739 253.949C136.269 272.697 185.638 321.975 198.918 324.457C212.199 326.939 265.503 308.191 265.503 308.191Z" fill="url(#paint0_linear_860_4167)"/>
<path opacity="0.2" d="M152.157 261.304C151.876 261.566 151.527 261.744 151.15 261.819C150.81 261.891 150.458 261.875 150.125 261.773C149.793 261.671 149.493 261.486 149.252 261.236C148.876 260.874 148.4 260.633 147.886 260.545C147.372 260.458 146.843 260.527 146.369 260.744C145.594 261.237 144.969 261.934 144.562 262.757C144.939 262.54 145.282 262.265 145.648 262.025C145.926 261.757 146.269 261.567 146.644 261.476C146.976 261.387 147.325 261.385 147.658 261.472C147.991 261.558 148.295 261.729 148.542 261.968C148.905 262.337 149.369 262.591 149.876 262.697C150.383 262.803 150.91 262.756 151.391 262.563C152.386 262.128 152.752 261.27 153.244 260.572C152.855 260.79 152.523 261.064 152.157 261.304ZM257.781 310.799L259.085 310.376C258.62 310.396 258.169 310.542 257.781 310.799ZM261.533 306.979C261.419 307.413 261.362 307.837 261.282 308.271C261.283 308.675 261.172 309.071 260.961 309.415C260.839 309.619 260.68 309.797 260.492 309.941L261.716 309.53C261.849 308.676 261.786 307.804 261.533 306.979ZM229.597 289.947C229.482 290.381 229.436 290.805 229.345 291.239C229.334 291.622 229.228 291.995 229.036 292.326C228.861 292.623 228.612 292.871 228.313 293.045C228.015 293.219 227.677 293.314 227.332 293.321C226.813 293.318 226.305 293.468 225.871 293.753C225.438 294.038 225.098 294.445 224.895 294.922C224.662 295.817 224.698 296.76 224.998 297.633C225.113 297.21 225.17 296.776 225.25 296.341C225.271 295.799 225.502 295.286 225.896 294.912C226.289 294.538 226.812 294.333 227.355 294.339C227.874 294.33 228.379 294.165 228.804 293.865C229.228 293.565 229.552 293.145 229.734 292.658C229.933 291.758 229.886 290.821 229.597 289.947ZM190.9 312.824C190.785 313.259 190.74 313.682 190.648 314.117C190.647 314.52 190.536 314.915 190.328 315.26C190.153 315.556 189.906 315.801 189.61 315.973C189.313 316.146 188.978 316.239 188.635 316.244C188.182 316.236 187.735 316.343 187.335 316.555C186.934 316.767 186.595 317.077 186.347 317.457L187.045 317.96C187.238 317.737 187.477 317.56 187.746 317.439C188.014 317.319 188.306 317.258 188.601 317.262C189.122 317.257 189.631 317.094 190.058 316.794C190.485 316.493 190.81 316.07 190.991 315.581C191.21 314.678 191.178 313.733 190.9 312.847V312.824ZM171.179 253.869V253.984C170.939 254.877 170.975 255.822 171.282 256.695C171.397 256.271 171.443 255.837 171.534 255.413C171.548 255.03 171.667 254.659 171.877 254.338L171.934 254.258L171.179 253.869ZM149.446 282.695C149.377 282.958 149.332 283.221 149.286 283.484L149.686 283.896C149.675 283.507 149.56 283.095 149.492 282.695H149.446ZM128.479 243.391C128.365 243.826 128.319 244.249 128.227 244.684C128.217 245.066 128.111 245.44 127.918 245.771C127.743 246.068 127.494 246.316 127.196 246.49C126.897 246.664 126.559 246.759 126.214 246.766C125.695 246.763 125.187 246.913 124.754 247.198C124.32 247.483 123.981 247.89 123.778 248.367C123.545 249.261 123.581 250.204 123.881 251.078C123.995 250.655 124.052 250.22 124.132 249.797C124.147 249.414 124.265 249.042 124.475 248.722C124.665 248.431 124.925 248.193 125.231 248.029C125.537 247.865 125.879 247.781 126.226 247.784C126.747 247.777 127.255 247.613 127.681 247.313C128.108 247.013 128.434 246.591 128.616 246.102C128.83 245.207 128.799 244.27 128.525 243.391H128.479ZM180.639 275.568C180.356 275.834 180.009 276.023 179.633 276.117C179.3 276.205 178.95 276.204 178.617 276.116C178.284 276.028 177.98 275.855 177.734 275.614C177.371 275.244 176.907 274.99 176.399 274.886C175.891 274.782 175.364 274.833 174.886 275.031C173.89 275.465 173.524 276.323 173.033 277.021C173.421 276.792 173.753 276.529 174.176 276.289C174.458 276.027 174.806 275.849 175.183 275.774C175.522 275.7 175.874 275.713 176.207 275.813C176.539 275.913 176.84 276.097 177.082 276.346C177.457 276.709 177.932 276.95 178.446 277.04C178.96 277.13 179.489 277.063 179.964 276.849C180.737 276.35 181.365 275.656 181.783 274.836C181.36 275.054 181.04 275.328 180.685 275.568H180.639ZM238.565 266.006C238.457 266.088 238.337 266.154 238.21 266.2C237.895 266.339 237.55 266.395 237.208 266.363C236.866 266.331 236.537 266.212 236.254 266.017C235.836 265.712 235.336 265.538 234.819 265.517C234.301 265.497 233.789 265.631 233.348 265.903C232.633 266.5 232.112 267.296 231.85 268.19C232.193 267.904 232.491 267.584 232.799 267.287C233.041 266.986 233.356 266.754 233.715 266.612C234.038 266.488 234.388 266.448 234.732 266.494C235.075 266.54 235.402 266.671 235.682 266.875C236.112 267.169 236.62 267.326 237.14 267.326C237.661 267.326 238.169 267.169 238.599 266.875C238.72 266.788 238.831 266.688 238.931 266.578L238.565 266.006ZM203.093 294.694C202.86 295.002 202.554 295.246 202.201 295.403C201.887 295.542 201.542 295.598 201.199 295.566C200.857 295.534 200.528 295.415 200.245 295.22C199.827 294.915 199.327 294.741 198.81 294.72C198.292 294.7 197.781 294.834 197.34 295.106C196.619 295.697 196.096 296.496 195.841 297.393C196.184 297.107 196.47 296.787 196.791 296.49C197.027 296.189 197.339 295.956 197.694 295.815C198.019 295.692 198.369 295.653 198.713 295.701C199.057 295.749 199.383 295.882 199.662 296.089C200.094 296.382 200.604 296.539 201.126 296.539C201.648 296.539 202.158 296.382 202.59 296.089C203.274 295.471 203.779 294.681 204.054 293.801C203.677 294.076 203.379 294.396 203.093 294.694ZM239.297 313.728C239.013 313.993 238.667 314.182 238.29 314.277C237.957 314.36 237.608 314.357 237.276 314.269C236.944 314.181 236.64 314.011 236.391 313.773C236.028 313.404 235.564 313.15 235.057 313.044C234.55 312.938 234.023 312.985 233.543 313.179C232.548 313.613 232.193 314.471 231.69 315.169C232.065 314.945 232.428 314.7 232.777 314.437C233.064 314.184 233.41 314.007 233.783 313.922C234.123 313.852 234.475 313.869 234.807 313.971C235.139 314.073 235.44 314.257 235.682 314.505C236.058 314.867 236.533 315.107 237.046 315.197C237.56 315.287 238.088 315.221 238.565 315.009C239.343 314.511 239.972 313.812 240.383 312.984C239.96 313.247 239.617 313.476 239.262 313.728H239.297ZM211.615 276.644C211.232 276.627 210.861 276.509 210.54 276.3C210.248 276.11 210.01 275.848 209.848 275.54C209.686 275.231 209.605 274.887 209.613 274.539C209.605 274.019 209.44 273.514 209.14 273.09C208.84 272.665 208.419 272.341 207.932 272.16C207.668 272.22 207.4 272.266 207.131 272.297C206.803 272.302 206.477 272.243 206.17 272.125C205.861 272.125 205.564 272.251 205.267 272.297C205.69 272.411 206.125 272.457 206.548 272.548C206.95 272.549 207.344 272.656 207.692 272.857C207.989 273.033 208.237 273.282 208.411 273.58C208.585 273.878 208.68 274.216 208.687 274.562C208.684 275.08 208.834 275.589 209.119 276.022C209.404 276.456 209.811 276.795 210.288 276.998C211.182 277.231 212.125 277.195 212.999 276.895C212.473 276.769 212.05 276.712 211.615 276.644ZM215.458 314.917C215.075 314.897 214.704 314.775 214.383 314.563C214.092 314.375 213.854 314.115 213.691 313.809C213.529 313.502 213.448 313.159 213.457 312.813C213.447 312.292 213.282 311.786 212.982 311.36C212.683 310.933 212.262 310.607 211.775 310.422C210.875 310.22 209.937 310.272 209.064 310.571C209.487 310.685 209.922 310.731 210.345 310.811C210.748 310.815 211.143 310.925 211.489 311.131C211.787 311.307 212.034 311.555 212.209 311.854C212.383 312.152 212.478 312.49 212.484 312.835C212.481 313.353 212.631 313.86 212.916 314.292C213.201 314.723 213.608 315.061 214.086 315.26C214.979 315.501 215.924 315.465 216.797 315.157C216.316 315.032 215.893 314.986 215.458 314.906V314.917ZM172.838 301.568C172.459 301.554 172.09 301.435 171.774 301.225C171.481 301.039 171.24 300.78 171.076 300.473C170.912 300.166 170.829 299.823 170.836 299.475C170.83 298.953 170.666 298.446 170.366 298.019C170.066 297.593 169.644 297.267 169.155 297.084C168.269 296.897 167.349 296.948 166.49 297.233C166.913 297.347 167.347 297.393 167.782 297.485C168.165 297.495 168.538 297.601 168.869 297.794C169.165 297.971 169.411 298.22 169.585 298.518C169.759 298.816 169.855 299.153 169.864 299.498C169.861 300.017 170.011 300.525 170.296 300.958C170.581 301.392 170.988 301.731 171.465 301.934C172.359 302.175 173.304 302.139 174.176 301.831C173.696 301.694 173.273 301.648 172.838 301.557V301.568Z" fill="black"/>
<path d="M227.32 267.493C231.061 274.825 235.327 281.917 239.8 288.837C241.985 292.269 244.181 295.62 246.492 298.937C248.802 302.255 251.502 305.686 253.984 309.083C254.098 309.244 254.35 309.084 254.235 308.923C251.948 305.389 249.912 301.728 247.681 298.182C245.451 294.636 243.323 291.319 241.15 287.979C236.7 281.047 232.285 274.081 227.561 267.332C227.458 267.207 227.24 267.355 227.32 267.493Z" fill="#263238"/>
<path d="M198.14 274.47C194.884 275.648 191.712 277.047 188.646 278.657C188.566 278.657 188.646 278.84 188.646 278.806C191.952 277.662 195.315 276.838 198.609 275.74C201.904 274.642 205.152 273.178 208.527 272.308C208.564 272.295 208.596 272.268 208.614 272.233C208.633 272.197 208.638 272.156 208.628 272.117C208.618 272.078 208.594 272.045 208.56 272.023C208.527 272.001 208.486 271.993 208.446 272C205.038 272.846 201.538 273.315 198.14 274.47Z" fill="#263238"/>
<path d="M251.868 312.744C235.133 318.109 207.806 326.139 198.838 324.457C185.546 321.975 136.12 272.697 124.659 253.949C122.997 251.284 121.504 248.518 120.186 245.668L251.868 312.744Z" fill="url(#paint1_linear_860_4167)"/>
<path d="M388.582 458.381C384.533 459.765 268.408 460.531 263.901 457.763C262.22 456.722 261.121 439.816 260.366 419.352C260.206 414.925 245.153 343.857 245.153 343.857L322.833 343.114L335.232 418.609C335.232 418.609 379.843 438.203 384.419 441.76C388.994 445.318 392.632 456.997 388.582 458.381Z" fill="#FFBAA1"/>
<path d="M388.583 458.381C384.533 459.765 268.408 460.531 263.901 457.763C262.22 456.722 261.122 439.816 260.367 419.352L335.233 418.632C335.233 418.632 379.843 438.226 384.419 441.783C388.994 445.341 392.632 456.997 388.583 458.381Z" fill="url(#paint2_linear_860_4167)"/>
<path d="M386.89 453.737C367.444 453.394 288.86 453.828 269.586 454.961C269.426 454.961 269.426 455.075 269.586 455.075C288.883 455.853 367.432 454.778 386.89 454.057C387.256 454.046 387.256 453.748 386.89 453.737Z" fill="#999999"/>
<path d="M376.961 437.654C374.792 437.612 372.637 438.021 370.635 438.856C368.632 439.691 366.825 440.933 365.328 442.504C362.61 445.295 361.077 449.029 361.05 452.925C361.05 453.039 361.267 453.039 361.279 452.925C362.342 445.295 369.228 438.558 376.938 437.917C376.973 437.92 377.008 437.909 377.034 437.887C377.061 437.864 377.078 437.832 377.081 437.797C377.084 437.762 377.073 437.728 377.051 437.701C377.028 437.674 376.996 437.657 376.961 437.654Z" fill="#263238"/>
<path d="M342.851 420.519C335.061 420.519 326.047 423.276 321.254 429.67C321.06 429.922 321.414 430.173 321.655 430.059C328.441 426.438 335.597 423.558 342.999 421.468C343.104 421.428 343.191 421.353 343.247 421.255C343.303 421.158 343.324 421.045 343.307 420.934C343.29 420.823 343.235 420.721 343.152 420.646C343.069 420.571 342.962 420.526 342.851 420.519Z" fill="#263238"/>
<path d="M348.89 422.829C341.089 422.772 332.075 425.575 327.283 431.98C327.1 432.232 327.454 432.495 327.683 432.369C334.469 428.752 341.625 425.876 349.027 423.79C349.139 423.755 349.234 423.682 349.296 423.583C349.358 423.485 349.383 423.367 349.366 423.252C349.35 423.136 349.293 423.03 349.206 422.953C349.119 422.876 349.007 422.832 348.89 422.829Z" fill="#263238"/>
<path d="M354.919 425.129C347.129 425.072 338.115 427.885 333.311 434.28C333.128 434.531 333.483 434.783 333.711 434.669C340.498 431.05 347.654 428.17 355.056 426.078C355.16 426.038 355.247 425.964 355.304 425.868C355.36 425.772 355.382 425.659 355.366 425.549C355.35 425.438 355.297 425.337 355.216 425.26C355.135 425.184 355.03 425.138 354.919 425.129Z" fill="#263238"/>
<path d="M360.946 427.439C353.157 427.382 344.143 430.185 339.339 436.59C339.156 436.842 339.51 437.105 339.739 436.979C346.528 433.365 353.684 430.485 361.084 428.389C361.204 428.364 361.31 428.295 361.381 428.194C361.451 428.094 361.481 427.971 361.463 427.849C361.446 427.728 361.382 427.618 361.286 427.541C361.19 427.465 361.069 427.429 360.946 427.439Z" fill="#263238"/>
<path d="M274.425 436.442C265.686 436.522 265.8 450.099 274.551 450.019C283.301 449.939 283.164 436.35 274.425 436.442Z" fill="white" fill-opacity="0.12"/>
<path d="M351.132 399.678C347.175 396.429 342.222 399.678 339.819 403.109C335.793 409.035 333.395 415.914 332.865 423.058C332.864 423.09 332.871 423.121 332.884 423.15C332.897 423.179 332.916 423.205 332.94 423.226C332.964 423.246 332.992 423.261 333.023 423.27C333.053 423.279 333.085 423.281 333.116 423.276C333.148 423.422 333.214 423.559 333.309 423.675C333.404 423.791 333.525 423.883 333.662 423.943C333.8 424.003 333.949 424.03 334.099 424.022C334.248 424.013 334.394 423.969 334.523 423.893C340.037 420.016 346.42 416.561 350.595 411.116C353.031 407.914 354.884 402.743 351.132 399.678ZM341.684 416.298C339.019 418.266 336.273 420.096 333.677 422.166C334.915 418.236 336.355 414.372 337.989 410.59C338.802 408.768 339.742 407.006 340.803 405.317C342.473 402.732 350.08 396.166 350.915 404.642C351.372 409.332 344.933 413.907 341.684 416.298Z" fill="#263238"/>
<path d="M313.533 426.055C320.316 427.062 327.26 425.083 333.963 423.996C334.108 423.961 334.244 423.892 334.357 423.795C334.47 423.697 334.559 423.573 334.615 423.435C334.671 423.296 334.693 423.146 334.679 422.996C334.665 422.847 334.615 422.704 334.535 422.578C334.561 422.559 334.582 422.534 334.596 422.505C334.611 422.476 334.619 422.444 334.619 422.412C334.619 422.38 334.611 422.348 334.596 422.319C334.582 422.29 334.561 422.265 334.535 422.246C329.18 417.484 322.667 414.214 315.649 412.763C311.543 412.008 305.744 413.141 305.172 418.231C304.623 423.058 309.564 425.472 313.533 426.055ZM308.798 421.651C303.479 415.005 313.51 414.399 316.507 415.085C318.453 415.559 320.365 416.167 322.227 416.904C326.035 418.471 329.761 420.231 333.391 422.177C330.096 422.509 326.848 423.115 323.554 423.573C319.619 424.111 311.76 425.346 308.798 421.651Z" fill="#263238"/>
<path opacity="0.1" d="M388.582 458.381C385.528 459.422 318.475 460.119 283.964 459.204L276.22 419.169L335.29 418.597C335.29 418.597 379.9 438.192 384.476 441.749C389.051 445.306 392.632 456.997 388.582 458.381Z" fill="black"/>
<path d="M298.034 244.341C314.254 271.794 340.437 398.831 340.437 398.831L255.036 399.655L238.919 339.716C238.919 339.716 218.146 408.943 152.706 443.453C124.109 458.552 71.1827 448.669 59.4924 403.35L114.604 334.329C114.604 334.329 133.283 338.801 140.833 330.897C166.844 303.536 210.322 241.802 226.428 230.18C247.166 215.172 283.084 219.164 298.034 244.341Z" fill="url(#paint3_linear_860_4167)"/>
<path d="M221.475 277.17C221.957 280.309 222.633 283.415 223.5 286.469C224.243 289.684 224.941 292.921 225.685 296.147V296.238C225.319 295.472 224.941 294.705 224.541 293.95C223.34 291.308 221.91 288.792 220.938 286.046C220.938 285.875 220.629 285.966 220.675 286.138C221.613 288.906 222.287 291.788 223.454 294.465C224.003 295.735 224.598 296.982 225.216 298.206C225.547 298.88 225.891 299.555 226.257 300.219C226.428 300.516 226.6 300.859 226.806 301.145C227.172 302.621 237.02 337.84 238.53 339.728C238.645 339.877 238.828 339.808 238.793 339.636C238.061 336.491 227.744 299.144 226.886 295.952C226.028 292.761 225.147 289.752 224.301 286.641C223.602 283.424 222.704 280.253 221.613 277.147C221.635 277.033 221.464 277.055 221.475 277.17Z" fill="#263238"/>
<path d="M332.704 384.167C327.889 383.835 323.027 383.858 318.2 383.824C313.373 383.79 308.512 383.824 303.673 383.824C293.985 383.824 284.285 383.824 274.596 383.995C269.277 384.087 263.958 384.236 258.651 384.613C258.41 384.613 258.433 385.013 258.651 385.025C268.316 385.597 278.005 385.437 287.682 385.391C297.359 385.345 307.128 385.288 316.759 385.094C322.067 384.991 327.42 384.979 332.704 384.556C332.933 384.567 332.91 384.224 332.704 384.167Z" fill="#263238" fill-opacity="0.2"/>
<path d="M340.357 398.831L267.653 399.518L236.002 224.941C256.912 216.728 285.188 222.722 297.977 244.387C314.197 271.771 340.357 398.831 340.357 398.831Z" fill="url(#paint4_linear_860_4167)"/>
<path d="M422.407 463.093C418.346 464.466 302.221 465.027 297.725 462.258C296.032 461.206 294.969 444.3 294.294 423.836C294.134 419.421 263.135 354.335 263.135 354.335L340.815 353.74L369.16 423.253C369.16 423.253 413.713 442.927 418.266 446.496C422.818 450.065 426.456 461.675 422.407 463.093Z" fill="#FFBAA1"/>
<path d="M422.407 463.093C418.346 464.466 302.221 465.027 297.725 462.258C296.032 461.206 294.969 444.3 294.294 423.836L369.16 423.253C369.16 423.253 413.713 442.927 418.266 446.496C422.818 450.065 426.456 461.675 422.407 463.093Z" fill="url(#paint5_linear_860_4167)"/>
<path d="M420.713 458.415C401.268 458.026 322.684 458.312 303.41 459.422C303.25 459.422 303.25 459.536 303.41 459.536C322.696 460.337 401.256 459.41 420.713 458.724C421.125 458.713 421.125 458.415 420.713 458.415Z" fill="#999999"/>
<path d="M410.796 442.31C408.634 442.258 406.486 442.655 404.485 443.476C402.485 444.297 400.677 445.524 399.174 447.08C396.449 449.863 394.907 453.593 394.874 457.489C394.874 457.603 395.091 457.603 395.102 457.489C396.178 449.859 403.109 443.145 410.796 442.504C410.81 442.492 410.822 442.477 410.83 442.461C410.838 442.444 410.842 442.425 410.842 442.407C410.842 442.388 410.838 442.37 410.83 442.353C410.822 442.336 410.81 442.321 410.796 442.31Z" fill="#999999"/>
<path d="M376.744 425.106C368.954 425.037 359.929 427.84 355.125 434.257C354.93 434.497 355.285 434.76 355.513 434.646C362.31 431.04 369.474 428.171 376.881 426.09C377.011 426.071 377.129 426.002 377.209 425.897C377.288 425.792 377.322 425.66 377.304 425.529C377.286 425.399 377.217 425.281 377.111 425.201C377.006 425.122 376.874 425.088 376.744 425.106Z" fill="#999999"/>
<path d="M382.771 427.428C374.97 427.359 365.957 430.15 361.141 436.579C360.958 436.83 361.313 437.093 361.541 436.968C368.338 433.363 375.501 430.499 382.909 428.423C382.974 428.414 383.037 428.392 383.094 428.359C383.151 428.326 383.201 428.281 383.24 428.229C383.28 428.176 383.309 428.116 383.326 428.052C383.343 427.989 383.347 427.922 383.338 427.857C383.329 427.791 383.307 427.728 383.274 427.672C383.24 427.615 383.196 427.565 383.143 427.525C383.091 427.485 383.031 427.456 382.967 427.439C382.903 427.423 382.837 427.419 382.771 427.428Z" fill="#999999"/>
<path d="M388.788 429.738C380.999 429.67 371.985 432.461 367.169 438.889C366.986 439.13 367.341 439.393 367.57 439.278C374.365 435.668 381.528 432.8 388.937 430.722C389.002 430.712 389.064 430.69 389.12 430.656C389.176 430.623 389.224 430.578 389.263 430.526C389.302 430.473 389.33 430.413 389.346 430.35C389.361 430.286 389.364 430.221 389.355 430.156C389.345 430.091 389.322 430.029 389.289 429.973C389.255 429.917 389.21 429.869 389.158 429.83C389.105 429.791 389.046 429.763 388.982 429.747C388.919 429.732 388.853 429.729 388.788 429.738Z" fill="#999999"/>
<path d="M394.817 432.06C387.027 431.992 378.013 434.783 373.198 441.211C373.015 441.463 373.369 441.726 373.598 441.6C380.39 437.996 387.55 435.131 394.954 433.056C395.086 433.037 395.205 432.967 395.286 432.861C395.366 432.755 395.401 432.621 395.383 432.489C395.365 432.357 395.295 432.238 395.189 432.158C395.082 432.077 394.949 432.042 394.817 432.06Z" fill="#999999"/>
<path d="M308.329 440.903C299.59 440.971 299.681 454.56 308.432 454.492C317.182 454.423 317.034 440.834 308.329 440.903Z" fill="white" fill-opacity="0.12"/>
<path d="M385.059 404.276C381.102 401.027 376.149 404.276 373.735 407.65C369.697 413.585 367.287 420.476 366.746 427.634C366.746 427.805 366.86 427.863 366.998 427.863C367.03 428.007 367.096 428.143 367.19 428.257C367.284 428.372 367.404 428.463 367.54 428.523C367.676 428.583 367.823 428.61 367.972 428.603C368.12 428.596 368.264 428.554 368.393 428.48C373.93 424.614 380.312 421.171 384.499 415.726C386.935 412.523 388.811 407.353 385.059 404.276ZM375.577 420.885C372.912 422.852 370.155 424.671 367.57 426.742C368.819 422.816 370.266 418.956 371.905 415.177C372.705 413.358 373.63 411.596 374.673 409.904C376.355 407.319 383.973 400.753 384.785 409.252C385.277 413.907 378.768 418.54 375.577 420.885Z" fill="#999999"/>
<path d="M347.403 430.596C354.198 431.603 361.129 429.636 367.844 428.572C367.99 428.537 368.125 428.468 368.238 428.37C368.352 428.272 368.44 428.149 368.496 428.01C368.552 427.871 368.574 427.721 368.56 427.572C368.546 427.423 368.497 427.279 368.416 427.153C368.442 427.134 368.463 427.109 368.478 427.08C368.492 427.052 368.5 427.02 368.5 426.987C368.5 426.955 368.492 426.923 368.478 426.895C368.463 426.866 368.442 426.841 368.416 426.822C363.057 422.053 356.535 418.782 349.508 417.339C345.413 416.573 339.613 417.705 339.019 422.795C338.504 427.634 343.445 430.002 347.403 430.596ZM342.645 426.181C337.337 419.524 347.369 418.94 350.377 419.627C352.323 420.105 354.234 420.717 356.097 421.457C359.903 423.029 363.625 424.797 367.249 426.753C363.955 427.073 360.706 427.679 357.412 428.126C353.5 428.652 345.607 429.853 342.645 426.181Z" fill="#999999"/>
<path d="M300.882 239.091C317.114 266.543 372.168 404.676 372.168 404.676L281.471 405.5L251.73 332.762C251.73 332.762 211.97 457.031 130.858 457.031C90.7085 457.031 69.0895 436.682 56.0037 407.845L129.68 335.301C129.68 335.301 137.435 340.803 141.496 336.628C167.805 309.621 213.171 236.563 229.288 224.941C250.083 209.922 285.989 213.925 300.882 239.091Z" fill="url(#paint6_linear_860_4167)"/>
<path d="M359.185 390.058C354.381 389.726 349.508 389.76 344.692 389.726C339.877 389.692 335.004 389.726 330.165 389.726C320.477 389.726 310.777 389.726 301.088 389.898C295.769 389.989 290.45 390.138 285.131 390.515C284.903 390.515 284.925 390.916 285.131 390.927C294.797 391.499 304.486 391.339 314.163 391.304C323.84 391.27 333.551 391.19 343.24 391.007C348.547 390.904 353.901 390.893 359.185 390.469C359.414 390.412 359.391 390.069 359.185 390.058Z" fill="#263238" fill-opacity="0.2"/>
<path d="M249.603 324.068C248.722 321.197 247.83 318.349 246.892 315.466C245.039 309.85 243.346 304.165 241.31 298.606C240.726 297.05 240.246 295.449 239.663 293.893C239.079 292.338 238.519 290.667 237.958 289.043C237.939 289.01 237.91 288.984 237.874 288.97C237.838 288.955 237.799 288.953 237.762 288.964C237.725 288.974 237.693 288.997 237.671 289.028C237.648 289.059 237.637 289.096 237.638 289.135C238.896 295.026 240.143 300.928 241.893 306.693C242.496 308.66 243.121 310.624 243.769 312.584C242.934 311.143 242.03 309.747 241.104 308.352C239.506 306.16 238.174 303.787 237.135 301.283C237.135 301.191 236.94 301.283 236.975 301.283C237.822 303.806 239.027 306.194 240.555 308.374C241.767 310.182 243.083 311.966 244.204 313.854C245.348 317.125 246.491 320.362 247.693 323.588C248.833 326.704 250.194 329.736 251.765 332.659C251.765 332.75 251.936 332.659 251.925 332.579C251.341 329.742 250.449 326.882 249.603 324.068Z" fill="#263238"/>
<path d="M287.98 383.847C281.322 371.184 274.253 358.682 267.756 345.973C261.259 333.265 254.968 320.293 249.065 307.265C247.418 303.627 245.771 299.99 244.181 296.341C242.591 292.692 241.081 288.917 239.48 285.223C239.48 285.143 239.308 285.223 239.342 285.223C241.802 291.949 244.616 298.56 247.349 305.194C250.083 311.829 252.966 318.235 255.928 324.64C261.899 337.604 268.381 350.381 275.374 362.971C279.298 370.04 283.381 377.063 287.842 383.869C287.865 383.881 287.89 383.885 287.915 383.881C287.94 383.877 287.962 383.865 287.98 383.847Z" fill="#263238" fill-opacity="0.2"/>
<path d="M143.727 334.363C139.426 338.47 135.262 342.77 131.373 347.277C130.584 348.192 129.806 349.13 129.085 350.057C126.798 351.715 124.647 353.489 122.542 355.284C120.186 357.355 117.967 359.585 115.736 361.759C115.668 361.827 115.736 361.965 115.839 361.884C118.127 359.791 120.598 357.869 123 355.913L126.958 352.676C124.67 355.559 122.382 358.476 120.197 361.415C118.127 364.161 116.285 367.066 114.295 369.869C114.204 370.006 114.387 370.155 114.49 370.029C116.354 367.661 118.39 365.453 120.3 363.108C122.211 360.763 124.144 358.533 126.02 356.165C127.896 353.797 129.84 351.59 131.739 349.371C133.638 347.151 135.548 344.726 137.458 342.416C139.62 339.819 141.748 337.2 143.875 334.569C144.024 334.443 143.841 334.249 143.727 334.363Z" fill="#263238"/>
<path d="M105.728 381.879C104.951 379.845 104.046 377.862 103.017 375.942L101.404 372.98C100.939 371.971 100.359 371.019 99.6765 370.143C99.5278 369.994 99.2189 370.143 99.2876 370.303C99.3322 370.556 99.3973 370.805 99.482 371.047L99.585 371.481C99.585 371.481 99.585 371.481 99.6536 371.481C99.8252 371.893 100.008 372.294 100.18 372.694C100.58 373.632 100.98 374.57 101.324 375.519C101.976 377.292 102.639 379.054 103.165 380.85C104.284 384.226 104.93 387.74 105.087 391.293C105.182 394.69 104.266 398.038 102.456 400.913C100.618 403.55 98.3297 405.842 95.6958 407.685C92.6646 409.972 89.4046 412.043 86.1217 414.033C85.9272 414.148 86.1217 414.434 86.3619 414.354C89.8211 413.113 93.1693 411.583 96.3707 409.778C99.3878 408.04 102.019 405.704 104.103 402.915C108.347 397.047 108.507 388.914 105.728 381.879Z" fill="#263238" fill-opacity="0.2"/>
<path d="M246.56 315.535C239.368 332.038 231.166 348.083 222.001 363.577C212.999 378.528 203.116 393.18 191.472 405.9C180.182 418.243 166.856 428.778 151.517 434.44C144.037 437.294 136.107 438.79 128.102 438.855C120.387 438.822 112.741 437.396 105.533 434.646C98.0552 431.822 91.1524 427.663 85.1609 422.372C78.7939 416.507 73.1283 409.924 68.2775 402.755C67.0192 400.978 65.7724 399.201 64.537 397.424C64.5141 397.405 64.4856 397.395 64.456 397.393C64.4264 397.392 64.3972 397.401 64.3727 397.417C64.3483 397.434 64.3299 397.458 64.3203 397.486C64.3108 397.514 64.3105 397.545 64.3197 397.573C68.8654 405.093 74.0714 412.194 79.8762 418.792C85.3649 424.817 91.9036 429.794 99.1732 433.479C113.439 440.677 129.866 442.336 145.282 438.134C161.091 433.845 175.206 424.282 187.102 412.5C199.444 400.272 209.716 385.7 219.05 370.772C228.783 355.226 237.26 338.927 244.398 322.032C245.268 319.962 246.068 317.857 246.881 315.752C246.961 315.535 246.675 315.352 246.56 315.535Z" fill="#263238" fill-opacity="0.2"/>
<path d="M277.01 392.883C276.152 390.744 275.317 388.605 274.425 386.478C272.64 382.238 270.852 377.99 269.06 373.735C265.491 365.305 262.128 356.806 258.765 348.307C257.816 345.893 256.901 343.468 255.94 341.066C255.46 339.865 254.968 338.675 254.487 337.474C253.814 335.698 253.05 333.957 252.199 332.258C252.028 331.984 251.502 332.098 251.547 332.453C251.856 334.638 253.526 338.641 254.213 340.734C254.899 342.828 255.711 345.093 256.5 347.266C258.056 351.613 259.692 355.925 261.373 360.214C264.725 368.805 268.156 377.372 271.965 385.78C273.033 388.121 274.135 390.447 275.271 392.757C275.843 393.901 276.415 395.045 277.01 396.189C277.605 397.333 278.291 398.397 278.886 399.54C279.046 399.861 279.584 399.621 279.446 399.289C278.588 397.184 277.868 395.011 277.01 392.883Z" fill="#263238" fill-opacity="0.3"/>
<path d="M212.839 243.289C208.744 248.459 204.729 253.709 200.737 258.971C196.745 264.233 192.73 269.472 188.761 274.779C180.902 285.371 173.044 295.975 165.289 306.647C160.93 312.641 156.584 318.635 152.397 324.755C152.34 324.835 152.477 324.938 152.534 324.858C160.793 314.563 168.663 303.913 176.556 293.321C184.448 282.729 192.249 272.068 199.993 261.43C204.34 255.436 208.687 249.431 212.896 243.334L212.839 243.289Z" fill="#263238" fill-opacity="0.2"/>
<path d="M53.5329 411.208L164.328 346.282C166.135 344.658 153.026 261.465 140.192 237.615C138.03 233.611 117.887 223.889 103.005 241.55C43.8902 311.566 53.5329 411.208 53.5329 411.208Z" fill="url(#paint7_linear_860_4167)"/>
<path d="M138.156 259.852C132.437 260.332 117.166 246.331 116.045 236.54C115.977 235.876 127.209 214.875 129.005 210.482C129.371 209.579 153.827 228.43 153.827 228.43C153.827 228.43 147.353 236.528 144.276 244.204C144.035 244.814 143.851 245.446 143.727 246.091C143.727 246.171 143.727 246.285 143.647 246.4C142.8 250.049 144.573 259.337 138.156 259.852Z" fill="#FFBAA1"/>
<path d="M130.721 211.34C129.04 218.432 125.665 238.793 140.753 245.405C141.69 245.812 142.657 246.145 143.647 246.4C143.647 246.285 143.704 246.171 143.715 246.079C143.858 245.441 144.049 244.813 144.287 244.204C147.353 236.528 153.827 228.418 153.827 228.418C153.827 228.418 136.372 214.966 130.721 211.34Z" fill="#FFAA8F"/>
<path d="M136.967 176.269C130.161 185.054 124.487 215.779 129.131 224.872C135.857 238.05 152.306 245.325 164.877 235.991C177.059 226.954 183.739 186.804 178.054 177.962C169.67 164.968 147.044 163.287 136.967 176.269Z" fill="#FFBAA1"/>
<path opacity="0.4" d="M171.339 212.587C171.339 212.587 169.83 211.775 169.83 211.947C169.83 212.118 170.287 212.782 170.287 212.85C170.287 212.919 171.339 213.514 171.339 213.64V216.351C171.339 217.346 170.985 218.581 171.008 219.107C171.199 220.157 171.31 221.22 171.339 222.287C171.214 222.962 171.248 227.675 170.905 228.304C170.562 228.933 170.39 231.736 171.134 231.015C171.877 230.294 171.362 227.457 171.637 226.897C171.851 225.274 171.923 223.636 171.854 222.001C171.854 221.258 171.5 219.485 171.5 218.947C171.5 218.409 171.797 216.659 171.797 216.122V214.154C171.797 214.154 172.495 213.674 172.598 213.411C172.879 212.946 173.189 212.5 173.524 212.072C173.524 211.809 171.797 212.587 171.797 212.587H171.339Z" fill="white"/>
<path d="M154.467 197.648C155.373 197.436 156.289 197.276 157.213 197.168C158.151 196.847 159.169 196.847 160.107 197.168C160.397 197.329 160.621 197.586 160.742 197.895C160.863 198.204 160.873 198.545 160.77 198.861C160.508 199.439 160.096 199.937 159.577 200.302C159.059 200.668 158.452 200.889 157.819 200.943C156.553 201.244 155.22 201.065 154.079 200.439C153.822 200.284 153.616 200.057 153.487 199.786C153.358 199.515 153.311 199.213 153.353 198.915C153.394 198.618 153.522 198.34 153.72 198.115C153.918 197.889 154.178 197.727 154.467 197.648Z" fill="#494B6B"/>
<path d="M177.173 205.301C176.588 204.575 175.966 203.88 175.309 203.219C174.759 202.4 173.955 201.785 173.021 201.469C172.707 201.428 172.389 201.492 172.116 201.652C171.843 201.811 171.63 202.056 171.511 202.35C171.363 202.961 171.38 203.602 171.561 204.205C171.742 204.808 172.08 205.352 172.541 205.781C173.351 206.799 174.507 207.483 175.789 207.703C176.079 207.727 176.369 207.668 176.627 207.533C176.884 207.398 177.097 207.192 177.243 206.94C177.388 206.689 177.458 206.401 177.446 206.111C177.434 205.82 177.339 205.539 177.173 205.301Z" fill="#494B6B"/>
<path d="M149.332 223.523C149.709 224.106 150.052 224.884 150.773 225.124C151.528 225.278 152.306 225.278 153.061 225.124C153.073 225.129 153.083 225.138 153.09 225.149C153.098 225.16 153.102 225.173 153.102 225.187C153.102 225.2 153.098 225.213 153.09 225.224C153.083 225.236 153.073 225.244 153.061 225.25C152.674 225.584 152.204 225.809 151.701 225.899C151.198 225.99 150.68 225.943 150.201 225.764C149.821 225.548 149.512 225.227 149.309 224.839C149.107 224.452 149.019 224.015 149.057 223.58C149.148 223.442 149.332 223.431 149.332 223.523Z" fill="#494B6B"/>
<path d="M154.17 221.578C157.03 221.132 160.336 222.23 162.406 222.973C162.658 222.973 162.978 222.573 163.07 222.356C163.07 222.287 163.916 217.952 163.916 217.952C164.431 218.364 167.073 220.354 167.21 219.519C168.354 212.656 169.59 204.923 169.246 197.786C169.246 197.734 169.226 197.684 169.189 197.648C169.153 197.612 169.104 197.591 169.052 197.591C169 197.591 168.951 197.612 168.914 197.648C168.878 197.684 168.858 197.734 168.858 197.786C167.519 204.386 167.336 211.18 166.101 217.826C165.177 217.083 164.152 216.475 163.058 216.019C162.818 216.019 162.395 220.731 162.154 221.418C159.759 220.152 156.963 219.873 154.365 220.64C153.324 221.04 152.763 221.795 154.17 221.578Z" fill="#494B6B"/>
<path d="M170.356 207.909C170.356 207.84 170.482 208.035 170.459 208.115C169.841 209.979 169.464 212.233 170.985 213.353C170.985 213.353 170.985 213.479 170.985 213.456C168.937 212.587 169.475 209.579 170.356 207.909Z" fill="#494B6B"/>
<path d="M169.578 210.379C169.517 210.93 169.604 211.486 169.83 211.992C169.97 212.265 170.164 212.507 170.4 212.704C170.636 212.9 170.909 213.047 171.202 213.136C171.504 213.214 171.82 213.219 172.124 213.151C172.428 213.084 172.712 212.945 172.952 212.747C173.373 212.401 173.702 211.957 173.913 211.455C174.047 211.16 174.154 210.854 174.234 210.54C174.417 209.892 174.449 209.211 174.325 208.549C174.226 209.027 174.073 209.491 173.868 209.933C173.693 210.331 173.486 210.713 173.25 211.077C172.769 211.832 172.106 212.381 171.443 212.164C170.779 211.947 170.39 211.294 170.299 210.391C170.28 209.453 170.345 208.515 170.493 207.588C169.976 208.435 169.662 209.391 169.578 210.379Z" fill="#494B6B"/>
<path opacity="0.4" d="M153.907 207.28C153.941 207.947 154.129 208.597 154.456 209.179C154.87 209.636 155.094 210.232 155.085 210.849C155.11 211.249 155.11 211.65 155.085 212.05C155.085 212.85 154.227 215.058 154.33 216.099C154.433 217.14 154.33 217.826 154.124 218.101C152.964 218.852 151.859 219.685 150.819 220.594C150.155 221.441 147.536 224.095 147.387 225.284C147.238 226.474 146.861 232.147 146.964 233.131C147.247 234.372 147.453 235.628 147.582 236.894C147.468 237.791 147.468 238.698 147.582 239.594C147.618 239.68 147.674 239.756 147.746 239.816C147.817 239.875 147.902 239.917 147.993 239.937C148.153 239.937 148.268 239.846 148.245 239.731C148.222 239.617 147.867 239.422 147.845 239.022C147.822 238.622 148.234 237.18 148.234 236.734C148.234 236.071 147.284 233.303 147.341 232.914C147.399 232.525 147.89 225.376 147.959 225.055C148.925 223.585 149.999 222.19 151.173 220.88C152.433 220.094 153.64 219.227 154.788 218.284C154.99 217.461 155.052 216.61 154.971 215.767C154.971 215.573 155.531 212.839 155.726 210.723C155.895 210.197 156.248 209.75 156.721 209.465C156.982 209.305 157.183 209.063 157.293 208.778C157.293 208.401 156.344 208.572 155.531 208.366C154.719 208.161 153.907 207.074 153.907 207.28Z" fill="white"/>
<path d="M158.608 204.912C158.608 204.832 158.437 204.969 158.425 205.049C158.094 206.994 157.396 209.156 155.52 209.453C155.52 209.453 155.451 209.556 155.52 209.556C157.705 209.682 158.608 206.799 158.608 204.912Z" fill="#263238"/>
<path d="M158.151 207.463C157.953 207.982 157.617 208.436 157.178 208.778C156.929 208.954 156.645 209.076 156.346 209.137C156.047 209.198 155.738 209.196 155.44 209.133C155.138 209.061 154.857 208.921 154.619 208.722C154.381 208.524 154.192 208.273 154.067 207.989C153.863 207.485 153.777 206.941 153.816 206.399C153.844 206.076 153.89 205.756 153.953 205.438C154.094 204.777 154.388 204.158 154.811 203.631C154.672 204.1 154.587 204.583 154.559 205.072C154.53 205.51 154.53 205.949 154.559 206.387C154.639 207.28 154.971 208.08 155.703 208.195C156.435 208.309 157.041 207.909 157.51 207.131C157.976 206.313 158.359 205.451 158.654 204.557C158.713 205.551 158.541 206.546 158.151 207.463Z" fill="#494B6B"/>
<path d="M137.733 190.568C135.445 193.324 130.435 199.959 128.776 200.005C130.744 189.161 133.741 179.735 138.19 174.782C140.027 172.735 142.225 171.044 144.676 169.795C143.99 172.643 140.181 187.674 137.733 190.568Z" fill="#FFAA8F"/>
<path d="M170.299 184.711C168.919 185.937 167.25 186.79 165.448 187.191C163.647 187.591 161.773 187.525 160.004 186.999C158.2 186.466 156.561 185.481 155.244 184.138C153.927 182.795 152.975 181.138 152.477 179.324C152.477 179.221 152.283 179.255 152.306 179.324C152.657 181.279 153.535 183.101 154.845 184.595C156.155 186.088 157.848 187.196 159.741 187.8C161.63 188.293 163.616 188.281 165.499 187.765C167.382 187.249 169.096 186.247 170.47 184.86C170.596 184.78 170.424 184.597 170.299 184.711Z" fill="#494B6B"/>
<path d="M162.818 156.744C156.584 156.034 150.418 158.688 147.57 162.612C145.966 164.84 145.16 167.544 145.282 170.287C145.282 170.401 145.511 170.401 145.523 170.287C145.716 167.905 146.546 165.62 147.927 163.669C149.307 161.719 151.187 160.176 153.37 159.203C155.765 158.059 158.392 157.487 161.046 157.53C163.7 157.574 166.307 158.233 168.663 159.455C170.965 160.597 172.789 162.518 173.81 164.877C173.902 165.117 174.382 165.037 174.314 164.796C173.216 160.701 168.457 157.384 162.818 156.744Z" fill="#494B6B"/>
<path d="M197.042 175.126C196.452 171.92 194.741 169.029 192.215 166.97C188.726 164.087 184.368 163.847 180.033 163.698C180.009 163.698 179.985 163.708 179.968 163.725C179.951 163.742 179.941 163.766 179.941 163.79C179.941 163.814 179.951 163.838 179.968 163.855C179.985 163.872 180.009 163.882 180.033 163.882C183.716 164.019 187.457 164.385 190.568 166.547C193.141 168.329 195.023 170.942 195.898 173.948C196.702 177.029 196.37 180.296 194.963 183.153C193.556 186.009 191.167 188.264 188.234 189.504C186.528 190.174 184.703 190.487 182.872 190.424C181.04 190.361 179.241 189.923 177.585 189.138C177.448 189.081 177.322 189.264 177.459 189.333C179.687 190.493 182.195 191.01 184.7 190.825C187.206 190.639 189.61 189.76 191.644 188.285C193.677 186.809 195.26 184.797 196.213 182.472C197.167 180.148 197.454 177.604 197.042 175.126Z" fill="#494B6B"/>
<path d="M133.157 183.567C133.157 183.567 128.834 171.637 134.667 165.906C137.973 162.657 147.158 164.442 147.158 164.442C148.636 162.785 150.427 161.437 152.427 160.473C154.427 159.509 156.597 158.949 158.814 158.825C166.821 158.151 175.4 163.973 175.4 163.973C175.4 163.973 183.407 160.804 189.699 165.723C198.541 172.586 195.269 187.045 184.929 190.396C177.665 192.741 169.281 185.42 169.281 185.42C168.377 185.42 158.517 189.607 152.797 180.525C152.797 180.525 146.506 184.7 141.988 180.525C141.003 181.872 139.628 182.887 138.05 183.43C136.471 183.974 134.764 184.022 133.157 183.567Z" fill="#494B6B"/>
<path d="M134.198 201.972C134.198 201.972 130.995 190.282 125.917 191.094C120.838 191.906 120.918 207.234 125.242 210.871C125.764 211.375 126.383 211.769 127.061 212.027C127.74 212.286 128.463 212.405 129.189 212.378C129.914 212.35 130.626 212.176 131.283 211.866C131.939 211.556 132.526 211.116 133.009 210.574L134.198 201.972Z" fill="#FFBAA1"/>
<path d="M126.054 195.486C126.038 195.483 126.022 195.485 126.007 195.491C125.992 195.498 125.98 195.508 125.971 195.522C125.962 195.536 125.958 195.551 125.959 195.568C125.959 195.584 125.964 195.599 125.974 195.612C128.971 198.277 129.646 202.178 129.737 205.998C129.154 204.328 127.999 203.116 125.825 203.711C125.802 203.718 125.782 203.733 125.768 203.752C125.754 203.772 125.747 203.795 125.747 203.819C125.747 203.844 125.754 203.867 125.768 203.887C125.782 203.906 125.802 203.921 125.825 203.928C126.506 203.949 127.164 204.18 127.709 204.59C128.254 205 128.658 205.567 128.868 206.216C129.211 207.309 129.43 208.437 129.52 209.579C129.577 209.945 130.195 209.979 130.206 209.579V209.487C131.911 205.118 130.675 197.648 126.054 195.486Z" fill="#FFAA8F"/>
<path d="M332.613 262.803C336.045 268.168 331.812 273.224 331.812 273.224C334.676 274.597 336.97 276.927 338.298 279.812C340.403 284.994 333.185 290.565 333.185 290.565C335.849 292.602 337.841 295.391 338.904 298.572C340.414 303.742 333.94 310.399 333.94 310.399C335.374 313.647 335.585 317.303 334.535 320.694C331.401 329.605 317.377 332.75 308.42 334.844C299.464 336.937 272.229 334.523 266.99 334.592L253.057 277.399C253.057 277.399 290.393 256.637 301.226 255.665C310.365 254.91 328.758 256.775 332.613 262.803Z" fill="#FFBAA1"/>
<path d="M331.206 272.411C321.289 270.947 311.486 272.503 301.603 273.498C301.557 273.498 301.514 273.516 301.482 273.548C301.449 273.58 301.431 273.624 301.431 273.67C301.431 273.715 301.449 273.759 301.482 273.791C301.514 273.823 301.557 273.841 301.603 273.841C311.417 272.697 321.323 273.589 331.16 272.88C331.216 272.875 331.267 272.85 331.307 272.811C331.346 272.772 331.37 272.72 331.376 272.665C331.381 272.609 331.367 272.554 331.336 272.508C331.305 272.461 331.259 272.427 331.206 272.411Z" fill="#FFAA8F"/>
<path d="M332.819 289.867C330.517 289.748 328.209 289.933 325.956 290.416C323.569 290.782 321.182 291.186 318.795 291.628C314.037 292.505 309.293 293.508 304.565 294.637C304.36 294.637 304.382 295.014 304.565 294.968C309.312 294.099 314.082 293.298 318.864 292.681C321.254 292.338 323.657 292.029 326.059 291.731C328.34 291.598 330.599 291.215 332.796 290.587C332.892 290.59 332.984 290.555 333.054 290.49C333.124 290.425 333.165 290.334 333.168 290.239C333.171 290.143 333.136 290.05 333.07 289.98C333.005 289.911 332.914 289.87 332.819 289.867Z" fill="#FFAA8F"/>
<path d="M333.745 310.456C331.801 310.147 329.547 310.891 327.637 311.28C325.479 311.73 323.313 312.164 321.14 312.584C316.805 313.43 312.469 314.277 308.111 314.975C307.894 314.975 307.928 315.352 308.111 315.318C312.55 314.631 316.988 314.014 321.426 313.282C323.599 312.931 325.773 312.55 327.946 312.138C329.788 311.818 332.133 311.623 333.757 310.628C333.768 310.616 333.777 310.603 333.783 310.587C333.789 310.572 333.791 310.556 333.79 310.539C333.789 310.523 333.784 310.507 333.777 310.493C333.769 310.479 333.758 310.466 333.745 310.456Z" fill="#FFAA8F"/>
<path d="M267.001 334.557C239.754 336.09 173.97 346.728 158.059 338.893C143.612 331.744 120.026 301.809 101.141 272.64C91.0631 257.118 95.1124 245.542 112.716 253.652C131.018 262.082 167.622 294.305 171.545 295.975C176.67 298.183 245.634 279.743 257.495 274.951C266.097 271.53 272.503 334.237 267.001 334.557Z" fill="#FFBAA1"/>
<path d="M264.336 338.698L253.32 274.516C253.32 274.516 179.152 296.924 171.168 294.122C166.856 292.612 133.054 264.667 116.537 253.709C101.072 243.414 88.6267 250.186 98.9215 272.125C112.042 300.07 146.529 337.772 159.215 343.72C168.915 348.273 264.336 338.698 264.336 338.698Z" fill="url(#paint8_linear_860_4167)"/>
<path d="M243.598 281.047C244.055 289.97 245.165 298.903 246.503 307.745C247.155 312.092 247.853 316.427 248.676 320.739C249.523 325.235 250.655 329.662 251.605 334.134C251.614 334.171 251.636 334.203 251.666 334.226C251.696 334.249 251.733 334.262 251.771 334.262C251.808 334.262 251.845 334.249 251.875 334.226C251.905 334.203 251.927 334.171 251.936 334.134C251.262 329.639 250.793 325.086 250.186 320.579C249.58 316.072 248.848 311.852 248.23 307.528C246.892 298.686 245.599 289.809 243.906 281.024C243.895 280.991 243.873 280.962 243.843 280.943C243.814 280.923 243.779 280.914 243.743 280.917C243.708 280.92 243.675 280.934 243.648 280.957C243.622 280.981 243.604 281.013 243.598 281.047Z" fill="#263238" fill-opacity="0.2"/>
<path d="M153.793 281.94C152.546 280.876 151.402 279.652 150.121 278.657L147.913 276.849C147.915 276.838 147.914 276.826 147.911 276.815C147.907 276.804 147.902 276.794 147.894 276.785C147.887 276.777 147.877 276.77 147.867 276.765C147.856 276.76 147.845 276.758 147.833 276.758H147.776L147.387 276.438C147.33 276.358 147.284 276.278 147.227 276.209C147.072 275.986 146.904 275.772 146.724 275.568C146.357 275.134 146.003 274.688 145.58 274.264C144.802 273.429 144.035 272.606 143.292 271.748C144.058 272.743 144.756 273.784 145.58 274.768L145.957 275.225C143.544 273.315 141.05 271.576 138.533 269.826V269.895C140.936 272.08 143.315 274.253 145.889 276.255C147.147 277.25 148.416 278.222 149.686 279.206C150.956 280.19 152.431 281.082 153.758 282.066C153.758 282.134 153.907 282.02 153.793 281.94Z" fill="#263238" fill-opacity="0.2"/>
<path d="M164.762 344.578C164.11 344.395 161.331 343.96 160.645 343.663C156.195 341.741 148.062 334.615 146.198 332.853C142.423 329.307 138.812 325.601 135.365 321.735C128.422 313.979 122.154 305.721 115.771 297.473C112.168 292.829 108.644 288.105 105.167 283.358C105.167 283.266 104.961 283.358 105.03 283.449C108.679 288.94 112.259 294.476 116 299.91L114.261 298.16C112.774 296.673 111.252 295.22 109.685 293.859C109.617 293.801 109.537 293.859 109.594 293.962C111.413 296.124 113.403 298.125 115.405 300.127C115.897 300.607 116.377 301.099 116.892 301.568L117.624 302.243L117.75 302.358C119.42 304.737 121.124 307.105 122.886 309.427C129.128 317.811 136.062 325.659 143.612 332.887C145.687 334.96 147.917 336.872 150.281 338.607C154.216 341.295 157.739 344.166 160.336 344.795C161.802 344.93 163.28 344.9 164.74 344.703C164.751 344.698 164.76 344.69 164.768 344.68C164.775 344.67 164.78 344.658 164.782 344.646C164.785 344.634 164.784 344.621 164.781 344.61C164.777 344.598 164.771 344.587 164.762 344.578Z" fill="#263238" fill-opacity="0.2"/>
<path d="M84.9092 109.96H364.721C364.721 109.96 360.581 101.106 354.896 96.6681C349.211 92.2299 340.895 96.6681 340.895 96.6681C340.895 96.6681 341.821 88.7754 336.845 84.3372C335.423 83.0625 333.686 82.1902 331.814 81.8102C329.942 81.4302 328.003 81.5562 326.196 82.1753C326.196 82.1753 330.234 63.0613 316.588 51.3482C301.203 38.1365 287.739 48.7058 287.739 48.7058C287.739 48.7058 289.066 42.4603 284.731 38.411C283.544 37.2685 282.031 36.5237 280.401 36.2798C278.772 36.0359 277.107 36.305 275.637 37.0498C275.637 37.0498 270.867 5.02163 245.668 0.537677C217.369 -4.55252 205.438 26.9838 205.438 26.9838C205.438 26.9838 196.287 15.0419 183.956 19.6517C173.078 23.7009 172.952 40.6759 172.952 40.6759C172.952 40.6759 166.329 35.7344 160.873 38.9601C155.417 42.1858 155.634 49.1291 155.634 49.1291C152.192 47.7574 148.485 47.1808 144.789 47.4422C141.093 47.7036 137.504 48.7964 134.29 50.639C123.023 56.9531 125.31 70.9197 125.31 70.9197C125.31 70.9197 119.076 69.6385 115.222 73.3218C111.367 77.005 112.751 82.3583 112.751 82.3583C110.703 81.87 108.577 81.8059 106.504 82.1698C104.43 82.5337 102.453 83.318 100.695 84.4745C94.9752 88.4323 95.9475 99.2761 95.9475 99.2761C95.9475 99.2761 88.1234 99.7451 84.9092 109.96Z" fill="#C7C7C7"/>
<path d="M249.363 141.542C243.094 141.542 243.449 134.347 246.331 127.163C247.269 124.876 247.887 122.897 249.363 119.82C250.838 122.897 251.456 124.853 252.394 127.163C255.276 134.347 255.631 141.542 249.363 141.542Z" fill="#C7C7C7"/>
<path d="M271.725 222.116C265.457 222.116 265.811 214.921 268.694 207.737C269.632 205.45 270.25 203.471 271.725 200.405C273.201 203.471 273.818 205.427 274.756 207.737C277.662 214.875 278.016 222.116 271.725 222.116Z" fill="#DBDBDB"/>
<path d="M314.323 167.897C308.054 167.897 308.409 160.702 311.291 153.518C312.229 151.23 312.847 149.252 314.323 146.175C315.798 149.252 316.416 151.208 317.354 153.518C320.236 160.702 320.591 167.897 314.323 167.897Z" fill="#DBDBDB"/>
<path d="M348.101 268.694C341.821 268.694 342.176 261.51 345.07 254.316C345.996 252.028 346.614 250.049 348.101 246.983C349.565 250.049 350.183 252.005 351.121 254.316C354.015 261.51 354.369 268.694 348.101 268.694Z" fill="#C7C7C7"/>
<path d="M177.265 173.135C170.997 173.135 171.351 165.952 174.234 158.757C175.172 156.469 175.789 154.49 177.265 151.425C178.741 154.49 179.358 156.446 180.296 158.757C183.179 165.952 183.533 173.135 177.265 173.135Z" fill="#C7C7C7"/>
<path d="M101.541 137.161C95.2727 137.161 95.6273 129.966 98.5099 122.771C99.4478 120.483 100.066 118.505 101.541 115.439C103.017 118.505 103.634 120.461 104.572 122.771C107.455 129.966 107.809 137.161 101.541 137.161Z" fill="#DBDBDB"/>
<path d="M57.3992 230.706C51.1309 230.706 51.4855 223.511 54.368 216.328C55.306 214.04 55.9237 212.061 57.3992 208.984C58.8748 212.061 59.4925 214.017 60.4305 216.328C63.313 223.511 63.6676 230.706 57.3992 230.706Z" fill="#DBDBDB"/>
</g>
<defs>
<linearGradient id="paint0_linear_860_4167" x1="191.551" y1="231.057" x2="191.551" y2="324.683" gradientUnits="userSpaceOnUse">
<stop stop-color="#9BCDFC"/>
<stop offset="1" stop-color="#7FACEC"/>
</linearGradient>
<linearGradient id="paint1_linear_860_4167" x1="186.027" y1="245.668" x2="186.027" y2="324.684" gradientUnits="userSpaceOnUse">
<stop stop-color="#9BCDFC"/>
<stop offset="1" stop-color="#7FACEC"/>
</linearGradient>
<linearGradient id="paint2_linear_860_4167" x1="325.837" y1="418.476" x2="325.825" y2="459.63" gradientUnits="userSpaceOnUse">
<stop stop-color="#494B6B"/>
<stop offset="1" stop-color="#878294"/>
</linearGradient>
<linearGradient id="paint3_linear_860_4167" x1="201.017" y1="220.553" x2="200.84" y2="450.034" gradientUnits="userSpaceOnUse">
<stop stop-color="#8B65EC"/>
<stop offset="1" stop-color="#5F4EDC"/>
</linearGradient>
<linearGradient id="paint4_linear_860_4167" x1="288.57" y1="220.74" x2="288.283" y2="399.518" gradientUnits="userSpaceOnUse">
<stop stop-color="#8B65EC"/>
<stop offset="1" stop-color="#5F4EDC"/>
</linearGradient>
<linearGradient id="paint5_linear_860_4167" x1="359.712" y1="423.097" x2="359.7" y2="464.231" gradientUnits="userSpaceOnUse">
<stop stop-color="#494B6B"/>
<stop offset="1" stop-color="#878294"/>
</linearGradient>
<linearGradient id="paint6_linear_860_4167" x1="215.269" y1="215.262" x2="215.096" y2="457.032" gradientUnits="userSpaceOnUse">
<stop stop-color="#8B65EC"/>
<stop offset="1" stop-color="#5F4EDC"/>
</linearGradient>
<linearGradient id="paint7_linear_860_4167" x1="108.722" y1="231.322" x2="108.722" y2="411.208" gradientUnits="userSpaceOnUse">
<stop stop-color="#9BCDFC"/>
<stop offset="1" stop-color="#7FACEC"/>
</linearGradient>
<linearGradient id="paint8_linear_860_4167" x1="179.745" y1="248.998" x2="179.745" y2="344.948" gradientUnits="userSpaceOnUse">
<stop stop-color="#9BCDFC"/>
<stop offset="1" stop-color="#7FACEC"/>
</linearGradient>
<clipPath id="clip0_860_4167">
<rect width="477.106" height="480" fill="white"/>
</clipPath>
</defs>
</svg>
